<svg width="14" height="14" viewBox="0 0 14 14" fill="none" xmlns="http://www.w3.org/2000/svg">
<path d="M1.15758 0.325558C0.991804 0.325601 0.829805 0.375083 0.692297 0.467678C0.554789 0.560273 0.44802 0.691773 0.385639 0.845366C0.323258 0.998959 0.3081 1.16767 0.342104 1.32992C0.376107 1.49217 0.457726 1.6406 0.576527 1.75622L5.82067 7.00036L0.576527 12.2445C0.496549 12.3213 0.432696 12.4133 0.388709 12.515C0.344722 12.6168 0.321484 12.7263 0.320356 12.8372C0.319228 12.9481 0.340233 13.0581 0.38214 13.1607C0.424048 13.2633 0.486016 13.3566 0.564415 13.435C0.642814 13.5134 0.736068 13.5754 0.838715 13.6173C0.941363 13.6592 1.05134 13.6802 1.16221 13.6791C1.27308 13.6779 1.3826 13.6547 1.48438 13.6107C1.58615 13.5667 1.67812 13.5029 1.75491 13.4229L6.99905 8.17875L12.2432 13.4229C12.32 13.5029 12.412 13.5667 12.5137 13.6107C12.6155 13.6547 12.725 13.6779 12.8359 13.6791C12.9468 13.6802 13.0567 13.6592 13.1594 13.6173C13.262 13.5754 13.3553 13.5134 13.4337 13.435C13.5121 13.3566 13.5741 13.2634 13.616 13.1607C13.6579 13.0581 13.6789 12.9481 13.6778 12.8372C13.6766 12.7263 13.6534 12.6168 13.6094 12.515C13.5654 12.4133 13.5016 12.3213 13.4216 12.2445L8.17744 7.00036L13.4216 1.75622C13.542 1.63917 13.6242 1.48847 13.6575 1.32387C13.6908 1.15927 13.6736 0.988449 13.6082 0.833795C13.5427 0.67914 13.4321 0.547865 13.2908 0.457174C13.1494 0.366483 12.984 0.320607 12.8161 0.325558C12.5996 0.332009 12.3941 0.422491 12.2432 0.577836L6.99905 5.82198L1.75491 0.577836C1.67725 0.498008 1.58438 0.434553 1.48179 0.391223C1.37919 0.347892 1.26895 0.325564 1.15758 0.325558Z" fill="#64696E"/>
</svg>
