<svg width="1440" height="1024" viewBox="0 0 1440 1024" fill="none" xmlns="http://www.w3.org/2000/svg">
<g clip-path="url(#clip0_2240_35543)">
<path fill-rule="evenodd" clip-rule="evenodd" d="M925.452 683.393C932.029 684.87 936.451 682.744 943.001 679.326C944.668 672.37 946.679 667.289 947.227 661.352C940.411 657.826 936.652 653.963 933.149 644.962C927.201 659.531 925.978 668.468 925.452 683.393Z" fill="#A550A7"/>
<path fill-rule="evenodd" clip-rule="evenodd" d="M342.058 806.707C338.62 800.908 334.04 799.15 327.06 796.729C320.855 800.288 315.778 802.311 311.083 805.985C313.194 813.364 312.961 818.748 308.816 827.472C323.496 821.804 330.838 816.564 342.058 806.707Z" fill="#A550A7"/>
<path fill-rule="evenodd" clip-rule="evenodd" d="M666.57 852.669C664.468 843.595 664.028 838.152 665.072 828.795C660.501 828.213 656.495 828.519 652.721 830.573C651.409 836.781 651.514 844.648 652.652 855.155C658.288 851.396 661.769 850.389 666.57 852.669Z" fill="#FFC700"/>
<path fill-rule="evenodd" clip-rule="evenodd" d="M253.253 1038.78C252.378 1029.51 252.667 1024.06 254.947 1014.92C250.494 1013.74 246.482 1013.51 242.468 1015.04C240.342 1021.02 239.398 1028.83 239.128 1039.4C245.214 1036.42 248.799 1035.89 253.253 1038.78Z" fill="#A550A7"/>
<path fill-rule="evenodd" clip-rule="evenodd" d="M931.299 920.64C935.116 926.196 939.804 927.645 946.93 929.594C952.884 925.628 957.814 923.27 962.253 919.291C959.654 912.07 959.526 906.682 963.079 897.701C948.81 904.336 941.835 910.056 931.299 920.64Z" fill="#F74F9E"/>
<path fill-rule="evenodd" clip-rule="evenodd" d="M619.964 353.045C610.952 350.692 605.928 348.554 598.126 343.284C595.487 347.061 593.897 350.752 593.963 355.048C598.853 359.092 605.868 362.654 615.702 366.525C614.99 359.788 615.715 356.237 619.964 353.045Z" fill="#FF5257"/>
<path fill-rule="evenodd" clip-rule="evenodd" d="M578.332 930.214C581.705 936.05 586.266 937.859 593.219 940.357C599.463 936.866 604.561 934.899 609.297 931.277C607.268 923.876 607.559 918.494 611.8 909.817C597.059 915.322 589.66 920.481 578.332 930.214Z" fill="#FF5257"/>
<path fill-rule="evenodd" clip-rule="evenodd" d="M668.298 1006.74C669.534 1000.12 667.248 995.774 663.594 989.353C656.581 987.941 651.43 986.117 645.477 985.786C642.202 992.726 638.479 996.623 629.612 1000.45C644.388 1005.86 653.364 1006.76 668.298 1006.74Z" fill="#61BA47"/>
</g>
<defs>
<clipPath id="clip0_2240_35543">
<rect width="1440" height="1024" fill="white"/>
</clipPath>
</defs>
</svg>
