<svg width="1440" height="1024" viewBox="0 0 1440 1024" fill="none" xmlns="http://www.w3.org/2000/svg">
<g clip-path="url(#clip0_2240_34486)">
<path fill-rule="evenodd" clip-rule="evenodd" d="M1300.4 605.283C1309.49 607.287 1314.6 609.23 1322.6 614.195C1325.09 610.319 1326.53 606.57 1326.3 602.279C1321.26 598.426 1314.11 595.138 1304.14 591.649C1305.11 598.353 1304.52 601.929 1300.4 605.283Z" fill="#FFC700"/>
<path fill-rule="evenodd" clip-rule="evenodd" d="M399.186 954.192C392.541 953.059 388.235 955.413 381.872 959.166C380.569 966.2 378.825 971.379 378.587 977.336C385.577 980.503 389.531 984.165 393.498 992.971C398.68 978.113 399.437 969.125 399.186 954.192Z" fill="#007AFF"/>
<path fill-rule="evenodd" clip-rule="evenodd" d="M1019.36 303.534C1020.07 310.237 1023.5 313.744 1028.84 318.854C1035.96 318.204 1041.42 318.48 1047.22 317.097C1048.38 309.51 1050.83 304.712 1058.23 298.509C1042.53 297.544 1033.67 299.248 1019.36 303.534Z" fill="#F74F9E"/>
<path fill-rule="evenodd" clip-rule="evenodd" d="M1350.34 607.28C1357.07 607.469 1361.01 604.534 1366.78 599.925C1367.08 592.778 1368.08 587.405 1367.48 581.473C1360.12 579.319 1355.69 576.248 1350.52 568.086C1347.48 583.524 1347.99 592.53 1350.34 607.28Z" fill="#F74F9E"/>
<path fill-rule="evenodd" clip-rule="evenodd" d="M1311.97 571.454C1318.55 578.051 1321.79 582.442 1325.85 590.94C1330.04 589.022 1333.28 586.647 1335.4 582.91C1333.24 576.945 1328.99 570.318 1322.48 561.995C1319.68 568.163 1317.25 570.856 1311.97 571.454Z" fill="#FF5257"/>
<path fill-rule="evenodd" clip-rule="evenodd" d="M857.676 914.228C861.368 908.588 860.93 903.701 860.03 896.368C854.102 892.364 850.05 888.697 844.684 886.099C838.989 891.244 834.052 893.406 824.395 893.526C835.947 904.21 843.885 908.494 857.676 914.228Z" fill="#61BA47"/>
<path fill-rule="evenodd" clip-rule="evenodd" d="M169.644 449.957C164.854 457.945 161.39 462.167 154.14 468.174C157.024 471.768 160.119 474.33 164.261 475.474C169.516 471.918 174.905 466.186 181.384 457.836C174.718 456.626 171.514 454.932 169.644 449.957Z" fill="#A550A7"/>
<path fill-rule="evenodd" clip-rule="evenodd" d="M1248.06 406.174C1244.57 397.537 1243.29 392.229 1242.87 382.823C1238.26 382.958 1234.35 383.883 1230.94 386.498C1230.61 392.835 1231.94 400.59 1234.69 410.793C1239.68 406.203 1242.96 404.667 1248.06 406.174Z" fill="#61BA47"/>
<path fill-rule="evenodd" clip-rule="evenodd" d="M1111 420.677C1107.84 411.916 1106.76 406.563 1106.69 397.148C1102.09 397.11 1098.14 397.888 1094.64 400.374C1094.07 406.694 1095.1 414.493 1097.48 424.792C1102.63 420.392 1105.97 418.981 1111 420.677Z" fill="#FF5257"/>
<path fill-rule="evenodd" clip-rule="evenodd" d="M684.586 596.561C678.935 592.886 674.049 593.338 666.719 594.26C662.733 600.2 659.078 604.262 656.496 609.636C661.657 615.316 663.834 620.246 663.982 629.903C674.633 618.319 678.893 610.369 684.586 596.561Z" fill="#F74F9E"/>
<path fill-rule="evenodd" clip-rule="evenodd" d="M971.636 78.3797C974.645 72.3474 973.639 67.545 971.889 60.3676C965.534 57.0829 961.082 53.914 955.449 51.9606C950.394 57.7345 945.743 60.4584 936.166 61.7051C948.887 70.9676 957.271 74.2956 971.636 78.3797Z" fill="#F74F9E"/>
<path fill-rule="evenodd" clip-rule="evenodd" d="M91.3478 193.47C86.1775 185.723 83.8439 180.786 81.5164 171.663C77.0343 172.732 73.3937 174.433 70.5881 177.687C71.5537 183.959 74.429 191.282 79.2041 200.711C83.1494 195.203 86.051 193.032 91.3478 193.47Z" fill="#F74F9E"/>
<path fill-rule="evenodd" clip-rule="evenodd" d="M1306.11 167.975C1303.17 161.905 1298.76 159.763 1292.01 156.757C1285.53 159.775 1280.3 161.358 1275.3 164.62C1276.78 172.151 1276.09 177.496 1271.22 185.835C1286.33 181.438 1294.09 176.841 1306.11 167.975Z" fill="#F74F9E"/>
<path fill-rule="evenodd" clip-rule="evenodd" d="M712.887 581.477C712.483 572.171 713.048 566.74 715.788 557.732C711.401 556.322 707.406 555.889 703.32 557.217C700.894 563.08 699.555 570.833 698.749 581.371C704.978 578.707 708.585 578.355 712.887 581.477Z" fill="#007AFF"/>
<path fill-rule="evenodd" clip-rule="evenodd" d="M625.651 732.003C625.35 738.738 628.219 742.718 632.732 748.567C639.874 748.988 645.229 750.077 651.17 749.575C653.446 742.246 656.59 737.868 664.836 732.841C649.45 729.54 640.437 729.903 625.651 732.003Z" fill="#61BA47"/>
<path fill-rule="evenodd" clip-rule="evenodd" d="M868.932 1034.15C861.728 1028.25 858.057 1024.21 853.171 1016.16C849.195 1018.49 846.209 1021.18 844.474 1025.11C847.225 1030.83 852.111 1036.99 859.427 1044.62C861.595 1038.2 863.738 1035.28 868.932 1034.15Z" fill="#61BA47"/>
<path fill-rule="evenodd" clip-rule="evenodd" d="M191.308 934.262C194.348 943.066 195.355 948.433 195.297 957.847C199.904 957.948 203.857 957.225 207.395 954.787C208.049 948.475 207.121 940.662 204.889 930.332C199.678 934.661 196.321 936.027 191.308 934.262Z" fill="#A550A7"/>
<path fill-rule="evenodd" clip-rule="evenodd" d="M1216.99 399.356C1207.68 399.784 1202.25 399.234 1193.24 396.517C1191.84 400.907 1191.42 404.903 1192.75 408.986C1198.62 411.397 1206.38 412.716 1216.92 413.494C1214.24 407.272 1213.88 403.666 1216.99 399.356Z" fill="#FF5257"/>
<path fill-rule="evenodd" clip-rule="evenodd" d="M780.789 650.749C780.491 657.483 783.361 661.463 787.875 667.31C795.017 667.73 800.372 668.817 806.313 668.314C808.587 660.984 811.73 656.606 819.975 651.576C804.588 648.28 795.575 648.645 780.789 650.749Z" fill="#F74F9E"/>
<path fill-rule="evenodd" clip-rule="evenodd" d="M414.821 931.445C412.68 925.053 408.571 922.37 402.257 918.536C395.442 920.711 390.053 921.621 384.69 924.226C385.203 931.884 383.843 937.099 377.957 944.756C393.5 942.302 401.78 938.722 414.821 931.445Z" fill="#61BA47"/>
<path fill-rule="evenodd" clip-rule="evenodd" d="M398.309 134.962C393.041 139.167 391.932 143.947 390.498 151.194C394.879 156.848 397.584 161.597 401.871 165.74C408.888 162.63 414.252 162.117 423.465 165.018C415.825 151.261 409.621 144.713 398.309 134.962Z" fill="#FF5257"/>
<path fill-rule="evenodd" clip-rule="evenodd" d="M1007.37 483.291C1003.21 477.989 998.436 476.842 991.201 475.351C985.512 479.688 980.742 482.355 976.566 486.61C979.619 493.65 980.09 499.019 977.117 508.208C990.934 500.677 997.53 494.525 1007.37 483.291Z" fill="#F74F9E"/>
<path fill-rule="evenodd" clip-rule="evenodd" d="M593.219 354.291C597.114 345.83 600.099 341.257 606.654 334.499C603.397 331.239 600.042 329.028 595.801 328.341C590.962 332.446 586.227 338.729 580.693 347.733C587.451 348.212 590.82 349.548 593.219 354.291Z" fill="#007AFF"/>
<path fill-rule="evenodd" clip-rule="evenodd" d="M787.211 839.63C779.48 844.826 774.551 847.176 765.436 849.533C766.52 854.012 768.233 857.647 771.496 860.442C777.765 859.455 785.078 856.556 794.491 851.75C788.971 847.823 786.79 844.928 787.211 839.63Z" fill="#61BA47"/>
<path fill-rule="evenodd" clip-rule="evenodd" d="M906.852 296.245C903.394 302.031 904.032 306.896 905.231 314.185C911.318 317.943 915.517 321.441 920.985 323.817C926.465 318.444 931.309 316.081 940.953 315.566C928.973 305.363 920.866 301.408 906.852 296.245Z" fill="#A550A7"/>
<path fill-rule="evenodd" clip-rule="evenodd" d="M675.453 124.221C682.439 118.061 687.02 115.088 695.749 111.562C694.091 107.263 691.918 103.882 688.318 101.537C682.232 103.333 675.359 107.162 666.653 113.155C672.639 116.328 675.179 118.914 675.453 124.221Z" fill="#A550A7"/>
<path fill-rule="evenodd" clip-rule="evenodd" d="M717.552 620.666C723.031 624.593 727.932 624.361 735.296 623.772C739.547 618.018 743.382 614.125 746.204 608.873C741.305 602.966 739.353 597.942 739.641 588.288C728.478 599.379 723.863 607.129 717.552 620.666Z" fill="#FFC700"/>
<path fill-rule="evenodd" clip-rule="evenodd" d="M971.512 2.40211C978.074 0.860772 981.125 -2.98218 985.526 -8.91518C983.991 -15.9021 983.583 -21.3515 981.485 -26.9323C973.813 -27.1303 968.746 -28.9659 961.666 -35.5352C962.672 -19.8317 965.471 -11.2567 971.512 2.40211Z" fill="#FFC700"/>
<path fill-rule="evenodd" clip-rule="evenodd" d="M435.144 907.442C441.75 906.101 444.917 902.353 449.497 896.557C448.175 889.526 447.933 884.067 446.007 878.425C438.344 877.993 433.336 876.004 426.459 869.222C426.986 884.949 429.523 893.605 435.144 907.442Z" fill="#FFC700"/>
<path fill-rule="evenodd" clip-rule="evenodd" d="M1223.99 302.018C1215.58 306.032 1210.37 307.638 1201 308.642C1201.42 313.231 1202.59 317.077 1205.41 320.318C1211.75 320.255 1219.41 318.453 1229.43 315.07C1224.54 310.38 1222.8 307.199 1223.99 302.018Z" fill="#FFC700"/>
<path fill-rule="evenodd" clip-rule="evenodd" d="M507.958 676.23C500.697 682.063 495.985 684.822 487.103 687.945C488.562 692.315 490.577 695.792 494.066 698.3C500.229 696.785 507.27 693.276 516.241 687.688C510.407 684.243 507.989 681.545 507.958 676.23Z" fill="#FF5257"/>
<path fill-rule="evenodd" clip-rule="evenodd" d="M1203.86 1049.16C1209.78 1052.38 1214.61 1051.55 1221.85 1050.05C1225.36 1043.82 1228.68 1039.48 1230.83 1033.92C1225.24 1028.66 1222.69 1023.92 1221.78 1014.3C1212.07 1026.69 1208.45 1034.95 1203.86 1049.16Z" fill="#FFC700"/>
<path fill-rule="evenodd" clip-rule="evenodd" d="M99.1781 240.731C93.2188 237.58 88.3939 238.472 81.1771 240.051C77.7427 246.327 74.4693 250.702 72.383 256.288C78.0355 261.479 80.6485 266.192 81.668 275.796C91.2292 263.299 94.7548 254.996 99.1781 240.731Z" fill="#FF5257"/>
<path fill-rule="evenodd" clip-rule="evenodd" d="M1086.03 812.116C1083.67 805.802 1079.47 803.263 1073.03 799.649C1066.29 802.057 1060.94 803.153 1055.67 805.941C1056.45 813.576 1055.27 818.835 1049.65 826.69C1065.1 823.702 1073.25 819.839 1086.03 812.116Z" fill="#A550A7"/>
<path fill-rule="evenodd" clip-rule="evenodd" d="M431.756 934.92C427.143 926.828 425.162 921.74 423.482 912.476C418.936 913.227 415.185 914.668 412.157 917.717C412.679 924.041 415.033 931.548 419.133 941.289C423.456 936.072 426.503 934.11 431.756 934.92Z" fill="#FFC700"/>
<path fill-rule="evenodd" clip-rule="evenodd" d="M634.119 752.267C640.695 750.787 643.782 746.973 648.239 741.081C646.769 734.08 646.412 728.627 644.367 723.027C636.697 722.757 631.647 720.874 624.629 714.239C625.488 729.951 628.207 738.552 634.119 752.267Z" fill="#FFC700"/>
<path fill-rule="evenodd" clip-rule="evenodd" d="M1256.43 329.61C1250.18 332.124 1247.74 336.384 1244.28 342.913C1246.86 349.589 1248.08 354.914 1251 360.114C1258.61 359.151 1263.9 360.201 1271.89 365.626C1268.52 350.254 1264.46 342.2 1256.43 329.61Z" fill="#007AFF"/>
<path fill-rule="evenodd" clip-rule="evenodd" d="M503.455 542.302C502.141 548.913 504.376 553.281 507.955 559.744C514.95 561.239 520.08 563.124 526.029 563.524C529.385 556.623 533.154 552.77 542.064 549.045C527.353 543.46 518.389 542.458 503.455 542.302Z" fill="#F74F9E"/>
<path fill-rule="evenodd" clip-rule="evenodd" d="M1238.61 665.062C1230.14 661.2 1225.55 658.232 1218.77 651.703C1215.52 654.972 1213.32 658.335 1212.65 662.579C1216.78 667.402 1223.08 672.113 1232.1 677.613C1232.56 670.853 1233.88 667.479 1238.61 665.062Z" fill="#61BA47"/>
<path fill-rule="evenodd" clip-rule="evenodd" d="M1322.38 1015.48C1314.44 1020.35 1309.41 1022.49 1300.21 1024.46C1301.1 1028.98 1302.66 1032.68 1305.8 1035.61C1312.11 1034.89 1319.54 1032.3 1329.14 1027.9C1323.79 1023.74 1321.74 1020.76 1322.38 1015.48Z" fill="#FF5257"/>
<path fill-rule="evenodd" clip-rule="evenodd" d="M961.656 265.929C955.146 267.681 952.221 271.62 948.013 277.692C949.772 284.626 950.356 290.059 952.633 295.57C960.307 295.52 965.431 297.192 972.719 303.529C971.207 287.866 968.133 279.386 961.656 265.929Z" fill="#F74F9E"/>
<path fill-rule="evenodd" clip-rule="evenodd" d="M27.3827 940.736C23.8232 949.344 21.0199 954.03 14.7356 961.041C18.1179 964.17 21.5573 966.248 25.8225 966.768C30.4959 962.475 34.9803 956.011 40.1564 946.797C33.385 946.584 29.9662 945.381 27.3827 940.736Z" fill="#007AFF"/>
<path fill-rule="evenodd" clip-rule="evenodd" d="M643.097 941.543C645.606 947.8 649.863 950.24 656.39 953.701C663.067 951.134 668.394 949.913 673.596 947.001C672.641 939.386 673.695 934.101 679.127 926.115C663.752 929.467 655.695 933.521 643.097 941.543Z" fill="#61BA47"/>
<path fill-rule="evenodd" clip-rule="evenodd" d="M647.738 348.91C650.984 343.002 650.169 338.163 648.705 330.922C642.486 327.388 638.163 324.045 632.612 321.87C627.331 327.439 622.576 329.976 612.957 330.842C625.3 340.602 633.546 344.259 647.738 348.91Z" fill="#FFC700"/>
<path fill-rule="evenodd" clip-rule="evenodd" d="M923.517 455.996C916.824 455.194 912.641 457.758 906.472 461.823C905.519 468.913 904.034 474.172 904.091 480.133C911.23 482.95 915.361 486.411 919.76 495.01C924.198 479.913 924.509 470.898 923.517 455.996Z" fill="#FF5257"/>
<path fill-rule="evenodd" clip-rule="evenodd" d="M1089.54 80.9133C1087.18 87.2282 1088.69 91.8984 1091.18 98.8524C1097.84 101.452 1102.6 104.136 1108.41 105.487C1112.83 99.2142 1117.17 96.017 1126.56 93.7717C1112.94 85.8959 1104.25 83.4666 1089.54 80.9133Z" fill="#F74F9E"/>
<path fill-rule="evenodd" clip-rule="evenodd" d="M164.253 846.494C159.693 851.458 159.331 856.352 159.027 863.733C164.226 868.648 167.627 872.924 172.5 876.36C178.956 872.21 184.178 870.878 193.727 872.33C184.065 859.91 176.928 854.393 164.253 846.494Z" fill="#FF5257"/>
<path fill-rule="evenodd" clip-rule="evenodd" d="M23.1844 943.129C29.9111 942.69 33.5535 939.403 38.873 934.277C38.5103 927.132 39.0059 921.69 37.8566 915.84C30.3222 914.38 25.627 911.734 19.7266 904.088C18.1308 919.742 19.478 928.661 23.1844 943.129Z" fill="#61BA47"/>
<path fill-rule="evenodd" clip-rule="evenodd" d="M1319.78 783.114C1326.52 782.982 1330.31 779.863 1335.85 774.984C1335.81 767.83 1336.56 762.416 1335.67 756.52C1328.21 754.719 1323.64 751.863 1318.1 743.956C1315.79 759.522 1316.73 768.493 1319.78 783.114Z" fill="#007AFF"/>
<path fill-rule="evenodd" clip-rule="evenodd" d="M1191.64 265.401C1195.89 270.639 1200.67 271.713 1207.93 273.095C1213.55 268.672 1218.28 265.934 1222.39 261.616C1219.23 254.623 1218.68 249.262 1221.52 240.029C1207.81 247.768 1201.31 254.019 1191.64 265.401Z" fill="#FF5257"/>
<path fill-rule="evenodd" clip-rule="evenodd" d="M442.512 425.856C441.525 419.187 437.951 415.826 432.406 410.944C425.316 411.889 419.851 411.84 414.115 413.464C413.276 421.093 411.023 425.989 403.885 432.495C419.617 432.805 428.396 430.733 442.512 425.856Z" fill="#F74F9E"/>
<path fill-rule="evenodd" clip-rule="evenodd" d="M33.9589 387.525C41.7351 392.652 45.8049 396.293 51.4969 403.792C55.2106 401.065 57.9031 398.082 59.2224 393.992C55.8938 388.59 50.3969 382.961 42.331 376.132C40.838 382.74 39.0093 385.869 33.9589 387.525Z" fill="#FFC700"/>
<path fill-rule="evenodd" clip-rule="evenodd" d="M641.783 443.479C649.592 438.403 654.557 436.129 663.707 433.911C662.692 429.417 661.035 425.756 657.815 422.911C651.532 423.801 644.175 426.588 634.689 431.249C640.149 435.261 642.285 438.188 641.783 443.479Z" fill="#FFC700"/>
<path fill-rule="evenodd" clip-rule="evenodd" d="M545.589 523.164C550.966 527.23 555.871 527.123 563.248 526.722C567.645 521.079 571.578 517.285 574.533 512.107C569.787 506.077 567.964 501.005 568.498 491.362C557.056 502.164 552.244 509.793 545.589 523.164Z" fill="#007AFF"/>
<path fill-rule="evenodd" clip-rule="evenodd" d="M973.765 132.102C980.291 130.415 983.256 126.505 987.525 120.476C985.834 113.525 985.305 108.086 983.084 102.553C975.409 102.526 970.302 100.803 963.078 94.3931C964.433 110.07 967.422 118.581 973.765 132.102Z" fill="#F74F9E"/>
<path fill-rule="evenodd" clip-rule="evenodd" d="M1231.99 764.446C1240.28 768.697 1244.72 771.873 1251.2 778.709C1254.59 775.593 1256.94 772.335 1257.81 768.126C1253.91 763.118 1247.84 758.121 1239.08 752.21C1238.31 758.941 1236.83 762.251 1231.99 764.446Z" fill="#FFC700"/>
<path fill-rule="evenodd" clip-rule="evenodd" d="M595.695 700.218C596.427 690.932 597.649 685.61 601.465 677.003C597.283 675.069 593.371 674.153 589.153 674.973C586.031 680.498 583.758 688.03 581.675 698.391C588.182 696.506 591.805 696.596 595.695 700.218Z" fill="#007AFF"/>
<path fill-rule="evenodd" clip-rule="evenodd" d="M965.122 1013.65C959.675 1021.2 955.867 1025.12 948.137 1030.49C950.707 1034.31 953.575 1037.13 957.606 1038.62C963.143 1035.52 968.996 1030.26 976.156 1022.49C969.615 1020.72 966.566 1018.76 965.122 1013.65Z" fill="#FF5257"/>
<path fill-rule="evenodd" clip-rule="evenodd" d="M1112.59 672.615C1108.68 681.067 1105.68 685.632 1099.11 692.375C1102.36 695.643 1105.71 697.862 1109.95 698.559C1114.8 694.465 1119.55 688.193 1125.1 679.202C1118.35 678.707 1114.98 677.364 1112.59 672.615Z" fill="#A550A7"/>
<path fill-rule="evenodd" clip-rule="evenodd" d="M327.783 682.868C321.138 681.734 316.833 684.087 310.469 687.84C309.165 694.874 307.421 700.053 307.182 706.01C314.172 709.178 318.126 712.84 322.092 721.646C327.275 706.789 328.033 697.801 327.783 682.868Z" fill="#007AFF"/>
<path fill-rule="evenodd" clip-rule="evenodd" d="M836.033 575.686C842.601 577.202 847.035 575.102 853.605 571.723C855.313 564.776 857.354 559.707 857.937 553.773C851.141 550.207 847.406 546.322 843.955 537.302C837.922 551.835 836.646 560.764 836.033 575.686Z" fill="#F74F9E"/>
<path fill-rule="evenodd" clip-rule="evenodd" d="M163.114 497.333C169.758 490.806 174.172 487.591 182.699 483.599C180.812 479.396 178.46 476.137 174.739 473.989C168.758 476.11 162.101 480.304 153.731 486.757C159.879 489.603 162.554 492.048 163.114 497.333Z" fill="#F74F9E"/>
<path fill-rule="evenodd" clip-rule="evenodd" d="M1207.24 737.891C1200.92 735.546 1196.25 737.061 1189.3 739.57C1186.72 746.24 1184.04 751.006 1182.7 756.816C1188.99 761.224 1192.19 765.555 1194.46 774.944C1202.3 761.304 1204.71 752.611 1207.24 737.891Z" fill="#FF5257"/>
<path fill-rule="evenodd" clip-rule="evenodd" d="M797.389 146.752C801.548 141.447 801.526 136.54 801.253 129.158C795.687 124.664 791.962 120.666 786.835 117.622C780.724 122.263 775.621 123.998 765.988 123.297C776.591 134.924 784.136 139.868 797.389 146.752Z" fill="#F74F9E"/>
<path fill-rule="evenodd" clip-rule="evenodd" d="M640.832 413.432C635.429 417.464 634.165 422.205 632.495 429.401C636.69 435.195 639.238 440.03 643.388 444.31C650.503 441.431 655.881 441.093 664.994 444.293C657.807 430.295 651.82 423.548 640.832 413.432Z" fill="#F74F9E"/>
<path fill-rule="evenodd" clip-rule="evenodd" d="M813.989 699.191C821.344 693.476 826.1 690.793 835.032 687.815C833.643 683.421 831.685 679.913 828.237 677.349C822.051 678.763 814.953 682.158 805.893 687.599C811.67 691.138 814.045 693.876 813.989 699.191Z" fill="#61BA47"/>
<path fill-rule="evenodd" clip-rule="evenodd" d="M973.043 417.187C975.762 411.019 974.53 406.269 972.442 399.183C965.939 396.203 961.341 393.249 955.622 391.565C950.846 397.572 946.33 400.513 936.822 402.212C949.968 410.861 958.5 413.788 973.043 417.187Z" fill="#A550A7"/>
<path fill-rule="evenodd" clip-rule="evenodd" d="M330.473 556.234C339.302 559.2 344.168 561.678 351.59 567.47C354.482 563.883 356.321 560.31 356.55 556.02C351.949 551.649 345.195 547.615 335.649 543.078C335.898 549.848 334.931 553.341 330.473 556.234Z" fill="#F74F9E"/>
<path fill-rule="evenodd" clip-rule="evenodd" d="M261.666 258.799C265.089 264.607 269.665 266.376 276.639 268.815C282.853 265.271 287.934 263.261 292.639 259.598C290.547 252.215 290.792 246.831 294.959 238.118C280.265 243.748 272.91 248.971 261.666 258.799Z" fill="#FFC700"/>
<path fill-rule="evenodd" clip-rule="evenodd" d="M1088.13 883.706C1089.03 874.434 1090.34 869.134 1094.3 860.594C1090.15 858.588 1086.26 857.605 1082.02 858.353C1078.81 863.823 1076.41 871.316 1074.15 881.64C1080.69 879.866 1084.31 880.018 1088.13 883.706Z" fill="#61BA47"/>
<path fill-rule="evenodd" clip-rule="evenodd" d="M476.783 585.957C474.921 576.831 474.624 571.379 475.914 562.052C471.36 561.349 467.347 561.55 463.52 563.504C462.046 569.676 461.943 577.543 462.804 588.076C468.537 584.466 472.044 583.551 476.783 585.957Z" fill="#A550A7"/>
<path fill-rule="evenodd" clip-rule="evenodd" d="M291.518 551.774C297.443 554.989 302.277 554.15 309.511 552.65C313.013 546.413 316.334 542.073 318.481 536.511C312.886 531.259 310.325 526.517 309.41 516.902C299.713 529.294 296.097 537.558 291.518 551.774Z" fill="#FF5257"/>
<path fill-rule="evenodd" clip-rule="evenodd" d="M423.279 1046.05C429.941 1047.07 434.209 1044.65 440.512 1040.8C441.705 1033.75 443.367 1028.54 443.511 1022.58C436.472 1019.52 432.461 1015.92 428.355 1007.18C423.409 1022.12 422.793 1031.12 423.279 1046.05Z" fill="#A550A7"/>
<path fill-rule="evenodd" clip-rule="evenodd" d="M619.521 73.0753C626.159 71.9013 629.419 68.2339 634.144 62.5549C633 55.4934 632.895 50.0298 631.111 44.3409C623.462 43.7166 618.505 41.602 611.801 34.6492C611.932 50.3843 614.25 59.1017 619.521 73.0753Z" fill="#FF5257"/>
<path fill-rule="evenodd" clip-rule="evenodd" d="M419.949 927.991C416.571 933.825 417.276 938.68 418.575 945.953C424.713 949.627 428.959 953.067 434.46 955.367C439.865 949.919 444.676 947.49 454.312 946.842C442.193 936.805 434.033 932.962 419.949 927.991Z" fill="#FF5257"/>
<path fill-rule="evenodd" clip-rule="evenodd" d="M670.836 599.972C677.478 598.82 680.749 595.163 685.493 589.499C684.371 582.434 684.284 576.97 682.519 571.275C674.872 570.626 669.921 568.496 663.24 561.521C663.321 577.256 665.61 585.981 670.836 599.972Z" fill="#A550A7"/>
<path fill-rule="evenodd" clip-rule="evenodd" d="M856.641 355.444C848.016 351.926 843.316 349.146 836.275 342.896C833.162 346.294 831.101 349.743 830.602 354.011C834.917 358.663 841.403 363.116 850.643 368.247C850.823 361.475 852.008 358.05 856.641 355.444Z" fill="#A550A7"/>
<path fill-rule="evenodd" clip-rule="evenodd" d="M648.753 120.438C642.949 117.01 638.088 117.674 630.804 118.912C627.078 125.018 623.602 129.235 621.255 134.716C626.657 140.167 629.045 144.998 629.611 154.64C639.751 142.607 643.663 134.479 648.753 120.438Z" fill="#61BA47"/>
<path fill-rule="evenodd" clip-rule="evenodd" d="M732.553 965.584C725.821 965.924 722.131 969.158 716.736 974.205C716.994 981.354 716.419 986.789 717.482 992.655C724.994 994.226 729.65 996.94 735.438 1004.67C737.263 989.043 736.047 980.105 732.553 965.584Z" fill="#F74F9E"/>
<path fill-rule="evenodd" clip-rule="evenodd" d="M204.753 794.554C200.533 786.251 198.798 781.073 197.563 771.739C192.986 772.272 189.171 773.531 186.001 776.432C186.22 782.774 188.211 790.385 191.84 800.311C196.408 795.308 199.545 793.494 204.753 794.554Z" fill="#FF5257"/>
<path fill-rule="evenodd" clip-rule="evenodd" d="M74.3987 528.211C68.5589 524.844 63.7045 525.559 56.4347 526.872C52.7727 533.018 49.3411 537.27 47.0515 542.775C52.51 548.17 54.9485 552.976 55.6152 562.611C65.6281 550.472 69.4556 542.305 74.3987 528.211Z" fill="#A550A7"/>
<path fill-rule="evenodd" clip-rule="evenodd" d="M474.709 908.676C474.208 917.976 473.12 923.328 469.519 932.027C473.748 933.856 477.682 934.674 481.878 933.749C484.862 928.149 486.946 920.562 488.77 910.152C482.312 912.199 478.688 912.2 474.709 908.676Z" fill="#007AFF"/>
<path fill-rule="evenodd" clip-rule="evenodd" d="M212.873 933.113C208.387 928.081 203.554 927.235 196.239 926.198C190.832 930.881 186.238 933.84 182.335 938.347C185.822 945.183 186.627 950.512 184.232 959.869C197.552 951.491 203.752 944.939 212.873 933.113Z" fill="#007AFF"/>
<path fill-rule="evenodd" clip-rule="evenodd" d="M1327.7 656.098C1321.35 649.292 1318.24 644.799 1314.46 636.175C1310.22 637.957 1306.9 640.226 1304.66 643.893C1306.63 649.924 1310.65 656.684 1316.9 665.213C1319.9 659.138 1322.41 656.525 1327.7 656.098Z" fill="#61BA47"/>
</g>
<defs>
<clipPath id="clip0_2240_34486">
<rect width="1440" height="1024" fill="white"/>
</clipPath>
</defs>
</svg>
