<svg width="1440" height="1024" viewBox="0 0 1440 1024" fill="none" xmlns="http://www.w3.org/2000/svg">
<g clip-path="url(#clip0_2240_33882)">
<path fill-rule="evenodd" clip-rule="evenodd" d="M525.333 248.246C516.102 247.003 510.856 245.49 502.472 241.205C500.311 245.275 499.18 249.131 499.767 253.387C505.111 256.809 512.506 259.494 522.737 262.144C521.213 255.543 521.503 251.931 525.333 248.246Z" fill="#FFC700"/>
<path fill-rule="evenodd" clip-rule="evenodd" d="M527.703 440.157C518.41 440.794 512.967 440.366 503.893 437.853C502.594 442.274 502.261 446.278 503.691 450.33C509.613 452.609 517.397 453.752 527.952 454.293C525.133 448.133 524.691 444.536 527.703 440.157Z" fill="#61BA47"/>
<path fill-rule="evenodd" clip-rule="evenodd" d="M1299.17 391.644C1289.93 390.468 1284.67 388.993 1276.26 384.77C1274.12 388.855 1273.02 392.719 1273.64 396.971C1279.01 400.354 1286.42 402.984 1296.67 405.56C1295.1 398.971 1295.36 395.356 1299.17 391.644Z" fill="#F74F9E"/>
<path fill-rule="evenodd" clip-rule="evenodd" d="M693.095 59.4775C693.105 68.7917 692.312 74.1945 689.193 83.0781C693.517 84.6724 697.49 85.2738 701.629 84.1197C704.301 78.3641 705.965 70.6747 707.216 60.1802C700.879 62.5782 697.261 62.7778 693.095 59.4775Z" fill="#007AFF"/>
<path fill-rule="evenodd" clip-rule="evenodd" d="M95.1051 213.816C89.9186 221.552 86.2466 225.594 78.7035 231.228C81.4025 234.963 84.3648 237.678 88.4438 239.029C93.8716 235.742 99.5424 230.288 106.433 222.275C99.8369 220.731 96.7222 218.879 95.1051 213.816Z" fill="#61BA47"/>
<path fill-rule="evenodd" clip-rule="evenodd" d="M797.331 319.754C803.871 318.12 806.867 314.234 811.185 308.24C809.551 301.275 809.066 295.832 806.89 290.282C799.216 290.192 794.123 288.428 786.951 281.959C788.179 297.647 791.099 306.182 797.331 319.754Z" fill="#A550A7"/>
<path fill-rule="evenodd" clip-rule="evenodd" d="M863.196 91.2744C862.399 84.5806 858.922 81.1187 853.52 76.0801C846.405 76.8232 840.944 76.6185 835.163 78.078C834.107 85.6795 831.715 90.5092 824.395 96.8088C840.112 97.5677 848.946 95.7469 863.196 91.2744Z" fill="#61BA47"/>
<path fill-rule="evenodd" clip-rule="evenodd" d="M928.554 298.749C937.478 296.082 942.883 295.302 952.287 295.757C952.582 291.158 952.025 287.179 949.738 283.541C943.46 282.622 935.615 283.219 925.2 285.014C929.305 290.403 930.529 293.815 928.554 298.749Z" fill="#007AFF"/>
<path fill-rule="evenodd" clip-rule="evenodd" d="M1178.72 395.017C1169.87 397.93 1164.49 398.859 1155.08 398.664C1154.91 403.269 1155.58 407.232 1157.96 410.805C1164.27 411.55 1172.09 410.736 1182.45 408.654C1178.2 403.381 1176.88 400.005 1178.72 395.017Z" fill="#FFC700"/>
<path fill-rule="evenodd" clip-rule="evenodd" d="M1413.58 157.566C1419.6 154.547 1421.68 150.103 1424.59 143.312C1421.48 136.87 1419.82 131.663 1416.49 126.719C1408.98 128.302 1403.63 127.689 1395.22 122.937C1399.83 137.981 1404.54 145.676 1413.58 157.566Z" fill="#F74F9E"/>
<path fill-rule="evenodd" clip-rule="evenodd" d="M1357.64 508.485C1350.95 507.645 1346.75 510.186 1340.56 514.215C1339.57 521.299 1338.05 526.55 1338.08 532.512C1345.2 535.368 1349.31 538.853 1353.66 547.477C1358.19 532.405 1358.55 523.392 1357.64 508.485Z" fill="#FF5257"/>
<path fill-rule="evenodd" clip-rule="evenodd" d="M1268.73 133.718C1259.64 131.687 1254.55 129.729 1246.56 124.74C1244.06 128.609 1242.6 132.354 1242.82 136.645C1247.85 140.513 1254.99 143.822 1264.95 147.342C1264 140.634 1264.6 137.06 1268.73 133.718Z" fill="#007AFF"/>
<path fill-rule="evenodd" clip-rule="evenodd" d="M638.721 48.7991C633.51 44.5232 628.604 44.435 621.217 44.5435C616.6 50.0079 612.52 53.643 609.362 58.6999C613.866 64.9138 615.487 70.0538 614.57 79.6685C626.432 69.3283 631.542 61.8954 638.721 48.7991Z" fill="#F74F9E"/>
<path fill-rule="evenodd" clip-rule="evenodd" d="M923.039 272.348C927.462 277.435 932.284 278.343 939.585 279.471C945.051 274.855 949.681 271.954 953.641 267.496C950.239 260.616 949.501 255.278 952.012 245.952C938.588 254.163 932.307 260.637 923.039 272.348Z" fill="#007AFF"/>
<path fill-rule="evenodd" clip-rule="evenodd" d="M717.375 124.358C711.084 117.489 708.025 112.966 704.334 104.304C700.067 106.044 696.729 108.28 694.452 111.924C696.362 117.975 700.32 124.775 706.476 133.365C709.536 127.32 712.073 124.732 717.375 124.358Z" fill="#007AFF"/>
<path fill-rule="evenodd" clip-rule="evenodd" d="M634.28 174.934C638.379 180.286 643.135 181.491 650.352 183.071C656.093 178.803 660.895 176.195 665.124 171.992C662.156 164.914 661.751 159.54 664.836 150.388C650.929 157.75 644.257 163.821 634.28 174.934Z" fill="#61BA47"/>
<path fill-rule="evenodd" clip-rule="evenodd" d="M876.066 291.679C866.753 291.787 861.342 291.05 852.426 288.026C850.877 292.365 850.318 296.345 851.515 300.471C857.299 303.082 865.005 304.667 875.512 305.806C873.048 299.496 872.81 295.88 876.066 291.679Z" fill="#61BA47"/>
<path fill-rule="evenodd" clip-rule="evenodd" d="M789.425 -0.106424C793.525 5.24447 798.282 6.44821 805.499 8.02578C811.239 3.75709 816.041 1.14737 820.268 -3.05695C817.298 -10.1336 816.892 -15.5077 819.975 -24.6606C806.069 -17.2953 799.399 -11.2224 789.425 -0.106424Z" fill="#F74F9E"/>
<path fill-rule="evenodd" clip-rule="evenodd" d="M397.64 57.21C391.891 53.6902 387.02 54.2764 379.718 55.3981C375.895 61.4446 372.353 65.6055 369.919 71.0482C375.233 76.5849 377.544 81.4536 377.957 91.103C388.286 79.2321 392.328 71.168 397.64 57.21Z" fill="#61BA47"/>
<path fill-rule="evenodd" clip-rule="evenodd" d="M519.289 295.131C521.673 301.436 525.881 303.959 532.338 307.549C539.065 305.115 544.414 304 549.674 301.192C548.869 293.559 550.028 288.296 555.617 280.419C540.179 283.466 532.043 287.36 519.289 295.131Z" fill="#F74F9E"/>
<path fill-rule="evenodd" clip-rule="evenodd" d="M619.437 -25.3419C613.873 -21.5361 612.415 -16.8512 610.451 -9.72942C614.404 -3.76747 616.752 1.16732 620.722 5.6149C627.949 3.03081 633.337 2.91401 642.311 6.48535C635.705 -7.79659 630 -14.7836 619.437 -25.3419Z" fill="#A550A7"/>
<path fill-rule="evenodd" clip-rule="evenodd" d="M1337.79 183.21C1331 189.579 1326.51 192.689 1317.89 196.479C1319.68 200.726 1321.95 204.039 1325.62 206.274C1331.65 204.294 1338.41 200.258 1346.92 194.004C1340.85 191.013 1338.23 188.507 1337.79 183.21Z" fill="#FF5257"/>
<path fill-rule="evenodd" clip-rule="evenodd" d="M23.6873 450.169C21.1959 459.144 18.9807 464.135 13.5913 471.855C17.3275 474.552 20.9932 476.198 25.29 476.198C29.4093 471.372 33.0782 464.412 37.1007 454.639C30.3533 455.247 26.8141 454.467 23.6873 450.169Z" fill="#A550A7"/>
<path fill-rule="evenodd" clip-rule="evenodd" d="M774.707 391.526C774.28 384.799 770.999 381.151 765.881 375.823C758.736 376.173 753.295 375.668 747.443 376.808C745.97 384.34 743.317 389.03 735.66 394.918C751.312 396.54 760.233 395.208 774.707 391.526Z" fill="#FFC700"/>
<path fill-rule="evenodd" clip-rule="evenodd" d="M1036.85 125.049C1039.47 131.258 1043.77 133.619 1050.36 136.96C1056.99 134.272 1062.29 132.953 1067.44 129.946C1066.35 122.35 1067.3 117.047 1072.59 108.963C1057.28 112.596 1049.3 116.797 1036.85 125.049Z" fill="#FF5257"/>
<path fill-rule="evenodd" clip-rule="evenodd" d="M1068.15 26.9907C1062.28 23.6712 1057.44 24.425 1050.18 25.7978C1046.57 31.9726 1043.17 36.2531 1040.92 41.7765C1046.43 47.1266 1048.9 51.9128 1049.65 61.5422C1059.56 49.3223 1063.32 41.1235 1068.15 26.9907Z" fill="#A550A7"/>
<path fill-rule="evenodd" clip-rule="evenodd" d="M438.287 163.095C429.552 159.862 424.764 157.236 417.522 151.22C414.522 154.717 412.575 158.233 412.216 162.514C416.681 167.023 423.309 171.261 432.712 176.088C432.67 169.313 433.743 165.851 438.287 163.095Z" fill="#FFC700"/>
<path fill-rule="evenodd" clip-rule="evenodd" d="M1325.06 197.128C1322.11 205.96 1319.64 210.829 1313.85 218.257C1317.44 221.145 1321.01 222.981 1325.31 223.205C1329.67 218.6 1333.7 211.841 1338.23 202.291C1331.46 202.546 1327.96 201.583 1325.06 197.128Z" fill="#FF5257"/>
<path fill-rule="evenodd" clip-rule="evenodd" d="M152.115 358.323C158.053 365.499 160.88 370.17 164.131 379.006C168.48 377.484 171.927 375.418 174.384 371.893C172.78 365.754 169.169 358.764 163.452 349.875C160.092 355.758 157.429 358.215 152.115 358.323Z" fill="#007AFF"/>
<path fill-rule="evenodd" clip-rule="evenodd" d="M306.538 280.585C299.872 281.593 296.522 285.178 291.657 290.737C292.624 297.825 292.592 303.289 294.233 309.021C301.864 309.836 306.767 312.074 313.295 319.192C313.557 303.459 311.458 294.686 306.538 280.585Z" fill="#FFC700"/>
<path fill-rule="evenodd" clip-rule="evenodd" d="M176.705 242.713C169.914 249.088 165.428 252.203 156.813 256C158.605 260.245 160.883 263.556 164.554 265.788C170.581 263.803 177.332 259.762 185.845 253.499C179.764 250.515 177.144 248.01 176.705 242.713Z" fill="#FFC700"/>
<path fill-rule="evenodd" clip-rule="evenodd" d="M132.021 355.046C124.715 349.269 120.973 345.291 115.948 337.329C112.014 339.727 109.074 342.467 107.408 346.428C110.259 352.097 115.251 358.178 122.699 365.676C124.755 359.221 126.846 356.261 132.021 355.046Z" fill="#F74F9E"/>
<path fill-rule="evenodd" clip-rule="evenodd" d="M772.307 165.412C781.499 166.912 786.702 168.571 794.962 173.088C797.237 169.081 798.474 165.258 798.007 160.987C792.76 157.417 785.443 154.527 775.29 151.592C776.629 158.233 776.239 161.836 772.307 165.412Z" fill="#61BA47"/>
<path fill-rule="evenodd" clip-rule="evenodd" d="M-26.9685 183.884C-29.4508 190.151 -28.0382 194.85 -25.6815 201.851C-19.0691 204.581 -14.3626 207.358 -8.58327 208.823C-4.03955 202.638 0.361004 199.527 9.79688 197.466C-3.66888 189.324 -12.3065 186.725 -26.9685 183.884Z" fill="#61BA47"/>
<path fill-rule="evenodd" clip-rule="evenodd" d="M1344.55 1.794C1349.63 -2.63962 1350.53 -7.4635 1351.64 -14.7668C1347.02 -20.2225 1344.1 -24.8471 1339.64 -28.7969C1332.77 -25.3811 1327.43 -24.6316 1318.1 -27.123C1326.34 -13.7169 1332.82 -7.44914 1344.55 1.794Z" fill="#007AFF"/>
<path fill-rule="evenodd" clip-rule="evenodd" d="M1011.12 141.561C1019.82 144.898 1024.57 147.58 1031.74 153.682C1034.78 150.22 1036.77 146.728 1037.18 142.451C1032.77 137.89 1026.19 133.573 1016.85 128.636C1016.81 135.41 1015.7 138.859 1011.12 141.561Z" fill="#A550A7"/>
<path fill-rule="evenodd" clip-rule="evenodd" d="M902.233 67.5014C896.79 63.5251 891.887 63.7128 884.518 64.2362C880.215 69.9514 876.346 73.8101 873.477 79.0365C878.323 84.9875 880.23 90.0282 879.855 99.6792C891.117 88.6888 895.802 80.9804 902.233 67.5014Z" fill="#FF5257"/>
<path fill-rule="evenodd" clip-rule="evenodd" d="M611.192 307.838C620.347 306.122 625.804 305.912 635.108 307.35C635.883 302.808 635.747 298.792 633.854 294.935C627.707 293.362 619.842 293.134 609.296 293.827C612.814 299.617 613.673 303.138 611.192 307.838Z" fill="#A550A7"/>
<path fill-rule="evenodd" clip-rule="evenodd" d="M747.036 223.83C749.495 214.846 751.693 209.847 757.054 202.108C753.308 199.425 749.637 197.792 745.34 197.807C741.238 202.649 737.594 209.621 733.607 219.409C740.352 218.777 743.894 219.544 747.036 223.83Z" fill="#FF5257"/>
<path fill-rule="evenodd" clip-rule="evenodd" d="M571.391 59.5014C578.123 59.1602 581.813 55.9256 587.206 50.8768C586.947 43.7279 587.521 38.2935 586.456 32.4272C578.944 30.8586 574.287 28.1452 568.498 20.4143C566.676 36.0442 567.894 44.9817 571.391 59.5014Z" fill="#007AFF"/>
<path fill-rule="evenodd" clip-rule="evenodd" d="M1199.04 267.389C1190.55 263.563 1185.95 260.616 1179.14 254.117C1175.91 257.401 1173.72 260.774 1173.07 265.021C1177.22 269.825 1183.54 274.508 1192.59 279.968C1193.01 273.206 1194.32 269.827 1199.04 267.389Z" fill="#FF5257"/>
<path fill-rule="evenodd" clip-rule="evenodd" d="M635.087 357.864C637.835 366.764 638.665 372.161 638.296 381.569C642.896 381.822 646.871 381.229 650.488 378.909C651.35 372.622 650.681 364.783 648.791 354.385C643.44 358.54 640.04 359.794 635.087 357.864Z" fill="#A550A7"/>
<path fill-rule="evenodd" clip-rule="evenodd" d="M293.518 546.011C299.769 543.486 302.197 539.223 305.643 532.688C303.06 526.017 301.826 520.694 298.901 515.498C291.289 516.473 286.001 515.431 278.002 510.019C281.391 525.385 285.465 533.433 293.518 546.011Z" fill="#007AFF"/>
<path fill-rule="evenodd" clip-rule="evenodd" d="M257.454 517.999C260.443 511.957 259.421 507.158 257.649 499.987C251.283 496.722 246.821 493.568 241.182 491.633C236.145 497.423 231.503 500.162 221.93 501.439C234.68 510.661 243.075 513.962 257.454 517.999Z" fill="#F74F9E"/>
<path fill-rule="evenodd" clip-rule="evenodd" d="M519.512 204.912C516.458 196.113 515.442 190.748 515.486 181.333C510.879 181.239 506.927 181.969 503.393 184.413C502.749 190.725 503.689 198.537 505.937 208.863C511.142 204.526 514.496 203.155 519.512 204.912Z" fill="#FF5257"/>
<path fill-rule="evenodd" clip-rule="evenodd" d="M1111.16 -14.864C1113.59 -5.87335 1114.23 -0.450234 1113.53 8.93879C1118.12 9.35321 1122.11 8.90017 1125.81 6.70889C1126.89 0.456295 1126.5 -7.40143 1124.98 -17.8597C1119.48 -13.8957 1116.04 -12.7615 1111.16 -14.864Z" fill="#A550A7"/>
<path fill-rule="evenodd" clip-rule="evenodd" d="M1131.48 378.363C1123.13 382.501 1117.94 384.184 1108.59 385.327C1109.08 389.908 1110.3 393.737 1113.17 396.935C1119.52 396.779 1127.15 394.863 1137.11 391.332C1132.15 386.716 1130.37 383.56 1131.48 378.363Z" fill="#A550A7"/>
<path fill-rule="evenodd" clip-rule="evenodd" d="M1125.04 41.2886C1131.3 34.3968 1135.53 30.9376 1143.82 26.4711C1141.7 22.381 1139.16 19.2604 1135.33 17.3259C1129.48 19.7808 1123.07 24.3432 1115.07 31.2585C1121.37 33.7535 1124.18 36.0431 1125.04 41.2886Z" fill="#F74F9E"/>
<path fill-rule="evenodd" clip-rule="evenodd" d="M1132.8 416.165C1123.7 418.166 1118.25 418.545 1108.91 417.397C1108.27 421.961 1108.53 425.971 1110.55 429.768C1116.74 431.148 1124.61 431.131 1135.13 430.11C1131.43 424.433 1130.46 420.94 1132.8 416.165Z" fill="#007AFF"/>
<path fill-rule="evenodd" clip-rule="evenodd" d="M812.053 94.4658C814.015 85.3604 815.934 80.248 820.861 72.2255C816.973 69.7524 813.218 68.3236 808.928 68.5756C805.099 73.6354 801.844 80.7981 798.401 90.7903C805.101 89.7877 808.68 90.3585 812.053 94.4658Z" fill="#61BA47"/>
<path fill-rule="evenodd" clip-rule="evenodd" d="M127.933 162.675C129.3 171.888 129.303 177.349 127.513 186.592C132.022 187.539 136.041 187.555 139.967 185.81C141.771 179.726 142.298 171.877 142.005 161.312C136.086 164.608 132.535 165.333 127.933 162.675Z" fill="#F74F9E"/>
<path fill-rule="evenodd" clip-rule="evenodd" d="M984.995 539.801C981.623 533.964 977.062 532.154 970.11 529.655C963.865 533.144 958.766 535.11 954.03 538.731C956.057 546.133 955.764 551.514 951.521 560.19C966.264 554.689 973.664 549.531 984.995 539.801Z" fill="#F74F9E"/>
<path fill-rule="evenodd" clip-rule="evenodd" d="M1027.8 372.132C1023.01 367.388 1018.13 366.842 1010.77 366.259C1005.66 371.268 1001.26 374.506 997.643 379.246C1001.55 385.854 1002.68 391.123 1000.87 400.61C1013.64 391.423 1019.43 384.5 1027.8 372.132Z" fill="#61BA47"/>
<path fill-rule="evenodd" clip-rule="evenodd" d="M318.119 40.6827C324.725 39.3379 327.889 35.5877 332.466 29.7887C331.139 22.7591 330.894 17.2999 328.964 11.659C321.301 11.2321 316.291 9.24609 309.41 2.46851C309.947 18.195 312.489 26.8497 318.119 40.6827Z" fill="#FF5257"/>
<path fill-rule="evenodd" clip-rule="evenodd" d="M449.448 119.893C455.212 116.398 456.925 111.8 459.277 104.797C455.657 98.6268 453.584 93.5706 449.863 88.9119C442.506 91.0955 437.12 90.9165 428.355 86.8582C434.168 101.481 439.481 108.771 449.448 119.893Z" fill="#A550A7"/>
<path fill-rule="evenodd" clip-rule="evenodd" d="M1332.57 -25.9458C1326.99 -29.7239 1322.1 -29.3602 1314.75 -28.5723C1310.66 -22.7061 1306.93 -18.7109 1304.25 -13.3848C1309.31 -7.61179 1311.39 -2.64282 1311.37 7.01538C1322.22 -4.37264 1326.63 -12.2443 1332.57 -25.9458Z" fill="#007AFF"/>
<path fill-rule="evenodd" clip-rule="evenodd" d="M809.788 353.786C812.33 344.825 814.574 339.846 820.007 332.157C816.286 329.439 812.629 327.772 808.333 327.748C804.186 332.552 800.478 339.491 796.401 349.241C803.151 348.671 806.686 349.47 809.788 353.786Z" fill="#007AFF"/>
<path fill-rule="evenodd" clip-rule="evenodd" d="M415.872 273.674C417.033 280.314 420.695 283.58 426.365 288.316C433.428 287.185 438.892 287.091 444.584 285.317C445.223 277.669 447.347 272.716 454.312 266.026C438.577 266.127 429.855 268.429 415.872 273.674Z" fill="#FF5257"/>
<path fill-rule="evenodd" clip-rule="evenodd" d="M1003.94 125.248C998.486 129.214 997.165 133.939 995.408 141.115C999.533 146.959 1002.02 151.824 1006.12 156.154C1013.27 153.362 1018.65 153.089 1027.72 156.398C1020.71 142.314 1014.8 135.495 1003.94 125.248Z" fill="#61BA47"/>
<path fill-rule="evenodd" clip-rule="evenodd" d="M693.775 60.2148C698.122 55.0628 698.277 50.1586 698.271 42.7711C692.87 38.0797 689.291 33.9498 684.278 30.7225C678.003 35.1405 672.841 36.6904 663.24 35.6421C673.416 47.6445 680.778 52.8566 693.775 60.2148Z" fill="#A550A7"/>
<path fill-rule="evenodd" clip-rule="evenodd" d="M708.103 241.003C703.164 245.591 702.416 250.44 701.528 257.774C706.321 263.085 709.373 267.618 713.958 271.428C720.722 267.802 726.034 266.889 735.438 269.092C726.789 255.946 720.113 249.881 708.103 241.003Z" fill="#F74F9E"/>
<path fill-rule="evenodd" clip-rule="evenodd" d="M508.659 318.224C513.823 310.472 517.483 306.42 525.009 300.763C522.299 297.037 519.329 294.33 515.246 292.992C509.828 296.295 504.173 301.765 497.306 309.798C503.907 311.323 507.027 313.166 508.659 318.224Z" fill="#F74F9E"/>
<path fill-rule="evenodd" clip-rule="evenodd" d="M995.707 420.087C989.961 427.418 986 431.176 978.06 436.236C980.474 440.16 983.227 443.088 987.195 444.737C992.851 441.862 998.911 436.844 1006.38 429.363C999.913 427.335 996.945 425.256 995.707 420.087Z" fill="#007AFF"/>
</g>
<defs>
<clipPath id="clip0_2240_33882">
<rect width="1440" height="1024" fill="white"/>
</clipPath>
</defs>
</svg>
