<svg width="1440" height="1024" viewBox="0 0 1440 1024" fill="none" xmlns="http://www.w3.org/2000/svg">
<g clip-path="url(#clip0_2240_34184)">
<path fill-rule="evenodd" clip-rule="evenodd" d="M521.708 811.844C513.458 807.519 509.046 804.302 502.633 797.408C499.211 800.493 496.829 803.73 495.925 807.931C499.776 812.974 505.807 818.026 514.515 824.016C515.34 817.292 516.848 813.996 521.708 811.844Z" fill="#FFC700"/>
<path fill-rule="evenodd" clip-rule="evenodd" d="M524.135 894.987C515.185 892.407 510.216 890.143 502.549 884.678C499.816 888.388 498.134 892.037 498.092 896.334C502.878 900.5 509.801 904.237 519.535 908.355C518.993 901.602 519.807 898.071 524.135 894.987Z" fill="#61BA47"/>
<path fill-rule="evenodd" clip-rule="evenodd" d="M1296.88 42.0699C1306.11 40.8417 1311.57 40.9219 1320.79 42.8517C1321.8 38.3572 1321.88 34.3395 1320.19 30.387C1314.14 28.4908 1306.3 27.8455 1295.73 27.9784C1298.93 33.9466 1299.6 37.508 1296.88 42.0699Z" fill="#FFC700"/>
<path fill-rule="evenodd" clip-rule="evenodd" d="M385.58 306.955C378.948 308.164 375.707 311.848 371.011 317.551C372.192 324.607 372.325 330.07 374.138 335.749C381.791 336.334 386.759 338.423 393.498 345.341C393.285 329.607 390.923 320.902 385.58 306.955Z" fill="#007AFF"/>
<path fill-rule="evenodd" clip-rule="evenodd" d="M1363.75 261.957C1370.15 259.83 1372.84 255.728 1376.69 249.422C1374.53 242.602 1373.63 237.211 1371.04 231.843C1363.38 232.338 1358.17 230.967 1350.52 225.063C1352.94 240.612 1356.5 248.899 1363.75 261.957Z" fill="#F74F9E"/>
<path fill-rule="evenodd" clip-rule="evenodd" d="M1274.6 643.651C1280.89 646.069 1285.58 644.609 1292.55 642.181C1295.21 635.541 1297.94 630.806 1299.35 625.012C1293.12 620.532 1289.96 616.163 1287.8 606.749C1279.8 620.297 1277.29 628.961 1274.6 643.651Z" fill="#FF5257"/>
<path fill-rule="evenodd" clip-rule="evenodd" d="M693.505 703.728C690.329 712.484 687.736 717.289 681.767 724.571C685.284 727.548 688.812 729.472 693.096 729.803C697.575 725.308 701.77 718.652 706.534 709.218C699.76 709.304 696.291 708.254 693.505 703.728Z" fill="#007AFF"/>
<path fill-rule="evenodd" clip-rule="evenodd" d="M93.4359 773.328C85.9161 778.824 81.0832 781.366 72.068 784.081C73.327 788.513 75.1819 792.078 78.5529 794.742C84.7777 793.51 91.9717 790.325 101.188 785.151C95.5171 781.445 93.2239 778.638 93.4359 773.328Z" fill="#61BA47"/>
<path fill-rule="evenodd" clip-rule="evenodd" d="M1308.54 31.15C1316.97 35.1007 1321.52 38.1159 1328.24 44.7153C1331.52 41.4801 1333.75 38.1396 1334.47 33.9028C1330.39 29.0374 1324.14 24.2612 1315.18 18.6678C1314.65 25.4223 1313.29 28.7823 1308.54 31.15Z" fill="#FF5257"/>
<path fill-rule="evenodd" clip-rule="evenodd" d="M783.779 834.77C790.483 835.472 794.627 832.845 800.735 828.689C801.582 821.585 802.987 816.305 802.841 810.344C795.66 807.635 791.478 804.236 786.951 795.705C782.739 810.866 782.564 819.885 783.779 834.77Z" fill="#A550A7"/>
<path fill-rule="evenodd" clip-rule="evenodd" d="M862.749 503.238C864.29 496.675 862.206 492.233 858.853 485.65C851.913 483.915 846.851 481.855 840.92 481.249C837.328 488.031 833.429 491.752 824.395 495.167C838.904 501.256 847.829 502.567 862.749 503.238Z" fill="#61BA47"/>
<path fill-rule="evenodd" clip-rule="evenodd" d="M931.89 953.028C941.189 953.574 946.534 954.689 955.216 958.333C957.065 954.113 957.903 950.183 956.999 945.982C951.413 942.971 943.837 940.85 933.436 938.974C935.451 945.442 935.434 949.067 931.89 953.028Z" fill="#007AFF"/>
<path fill-rule="evenodd" clip-rule="evenodd" d="M1259.71 661.97C1265.46 665.497 1270.33 664.918 1277.63 663.805C1281.46 657.764 1285.01 653.607 1287.45 648.168C1282.14 642.624 1279.84 637.752 1279.44 628.103C1269.09 639.96 1265.04 648.019 1259.71 661.97Z" fill="#61BA47"/>
<path fill-rule="evenodd" clip-rule="evenodd" d="M1400.62 889.208C1407.32 888.433 1410.79 884.967 1415.85 879.581C1415.13 872.464 1415.35 867.004 1413.91 861.218C1406.31 860.137 1401.49 857.73 1395.22 850.389C1394.41 866.103 1396.2 874.944 1400.62 889.208Z" fill="#F74F9E"/>
<path fill-rule="evenodd" clip-rule="evenodd" d="M169.93 -22.5853C168.161 -13.4407 166.349 -8.2891 161.591 -0.164849C165.53 2.22601 169.315 3.57556 173.598 3.23353C177.321 -1.9056 180.424 -9.13518 183.656 -19.1975C176.979 -18.0543 173.389 -18.5498 169.93 -22.5853Z" fill="#A550A7"/>
<path fill-rule="evenodd" clip-rule="evenodd" d="M394.225 619.918C390.259 611.49 388.682 606.262 387.731 596.895C383.14 597.289 379.287 598.432 376.031 601.235C376.057 607.58 377.816 615.249 381.143 625.28C385.86 620.418 389.051 618.7 394.225 619.918Z" fill="#007AFF"/>
<path fill-rule="evenodd" clip-rule="evenodd" d="M1250.77 166.088C1244.54 159.164 1241.52 154.613 1237.91 145.92C1233.62 147.622 1230.26 149.828 1227.96 153.452C1229.81 159.52 1233.71 166.354 1239.79 174.998C1242.9 168.981 1245.46 166.415 1250.77 166.088Z" fill="#61BA47"/>
<path fill-rule="evenodd" clip-rule="evenodd" d="M1265.13 880.906C1257.28 875.889 1253.16 872.305 1247.36 864.887C1243.69 867.666 1241.04 870.687 1239.78 874.794C1243.18 880.149 1248.76 885.7 1256.92 892.416C1258.32 885.787 1260.1 882.633 1265.13 880.906Z" fill="#007AFF"/>
<path fill-rule="evenodd" clip-rule="evenodd" d="M1113.62 118.963C1107.66 111.81 1104.81 107.15 1101.53 98.3269C1097.18 99.867 1093.74 101.946 1091.3 105.481C1092.93 111.614 1096.57 118.589 1102.32 127.456C1105.66 121.559 1108.31 119.091 1113.62 118.963Z" fill="#FF5257"/>
<path fill-rule="evenodd" clip-rule="evenodd" d="M647.822 691.635C644.388 685.834 639.808 684.074 632.83 681.649C626.622 685.205 621.545 687.225 616.848 690.897C618.955 698.277 618.72 703.661 614.57 712.383C629.253 706.723 636.597 701.486 647.822 691.635Z" fill="#F74F9E"/>
<path fill-rule="evenodd" clip-rule="evenodd" d="M915.759 923.368C918.175 929.661 922.396 932.163 928.871 935.72C935.585 933.252 940.929 932.109 946.174 929.274C945.33 921.646 946.462 916.377 952.012 908.472C936.589 911.597 928.473 915.532 915.759 923.368Z" fill="#007AFF"/>
<path fill-rule="evenodd" clip-rule="evenodd" d="M671.94 167.572C665.372 166.05 660.936 168.147 654.364 171.52C652.649 178.465 650.604 183.532 650.016 189.465C656.808 193.038 660.54 196.926 663.982 205.95C670.028 191.422 671.313 182.494 671.94 167.572Z" fill="#F74F9E"/>
<path fill-rule="evenodd" clip-rule="evenodd" d="M714.641 353.313C711.079 344.707 709.752 339.41 709.246 330.009C704.641 330.184 700.739 331.143 697.353 333.789C697.079 340.128 698.472 347.871 701.319 358.049C706.262 353.416 709.531 351.851 714.641 353.313Z" fill="#007AFF"/>
<path fill-rule="evenodd" clip-rule="evenodd" d="M627.728 454.229C629.748 460.66 633.806 463.42 640.047 467.372C646.902 465.326 652.306 464.517 657.717 462.014C657.349 454.348 658.806 449.159 664.836 441.614C649.249 443.775 640.904 447.199 627.728 454.229Z" fill="#61BA47"/>
<path fill-rule="evenodd" clip-rule="evenodd" d="M872.468 663.545C863.679 660.462 858.846 657.919 851.502 652.027C848.563 655.575 846.676 659.123 846.39 663.41C850.931 667.842 857.631 671.967 867.115 676.631C866.957 669.858 867.971 666.379 872.468 663.545Z" fill="#61BA47"/>
<path fill-rule="evenodd" clip-rule="evenodd" d="M1251.25 589.56C1260.27 587.217 1265.7 586.633 1275.08 587.427C1275.54 582.842 1275.13 578.845 1272.98 575.127C1266.73 573.982 1258.87 574.295 1248.4 575.713C1252.31 581.246 1253.41 584.7 1251.25 589.56Z" fill="#FF5257"/>
<path fill-rule="evenodd" clip-rule="evenodd" d="M188.722 399.219C194.59 406.452 197.372 411.151 200.538 420.018C204.901 418.537 208.368 416.505 210.859 413.004C209.314 406.85 205.771 399.825 200.14 390.881C196.724 396.732 194.036 399.163 188.722 399.219Z" fill="#A550A7"/>
<path fill-rule="evenodd" clip-rule="evenodd" d="M1220.16 173.386C1211.56 176.97 1206.27 178.311 1196.87 178.841C1197.06 183.445 1198.03 187.345 1200.68 190.724C1207.02 190.982 1214.76 189.569 1224.93 186.695C1220.28 181.765 1218.71 178.5 1220.16 173.386Z" fill="#FF5257"/>
<path fill-rule="evenodd" clip-rule="evenodd" d="M782.87 326.082C784.892 332.513 788.95 335.271 795.193 339.222C802.047 337.174 807.451 336.364 812.861 333.859C812.491 326.193 813.947 321.004 819.975 313.458C804.389 315.623 796.044 319.048 782.87 326.082Z" fill="#F74F9E"/>
<path fill-rule="evenodd" clip-rule="evenodd" d="M408.045 492.813C403.847 487.539 399.069 486.423 391.824 484.98C386.163 489.355 381.411 492.053 377.263 496.335C380.363 503.355 380.87 508.721 377.957 517.929C391.723 510.307 398.279 504.112 408.045 492.813Z" fill="#61BA47"/>
<path fill-rule="evenodd" clip-rule="evenodd" d="M868.043 523.7C873.398 527.795 878.303 527.716 885.682 527.355C890.11 521.736 894.063 517.963 897.047 512.802C892.333 506.745 890.538 501.664 891.125 492.023C879.624 502.763 874.77 510.366 868.043 523.7Z" fill="#FFC700"/>
<path fill-rule="evenodd" clip-rule="evenodd" d="M1210.46 440.371C1205.92 435.385 1201.08 434.588 1193.76 433.625C1188.4 438.363 1183.83 441.369 1179.98 445.915C1183.53 452.716 1184.39 458.036 1182.09 467.417C1195.33 458.904 1201.46 452.289 1210.46 440.371Z" fill="#F74F9E"/>
<path fill-rule="evenodd" clip-rule="evenodd" d="M380.674 524.732C386.432 528.238 391.302 527.639 398.601 526.499C402.408 520.443 405.94 516.273 408.36 510.824C403.032 505.301 400.708 500.438 400.271 490.79C389.972 502.687 385.951 510.761 380.674 524.732Z" fill="#FF5257"/>
<path fill-rule="evenodd" clip-rule="evenodd" d="M516.448 722.927C516.532 729.667 519.624 733.477 524.463 739.059C531.617 739.073 537.025 739.854 542.928 739.014C544.782 731.567 547.671 727.017 555.617 721.527C540.068 719.11 531.091 719.986 516.448 722.927Z" fill="#F74F9E"/>
<path fill-rule="evenodd" clip-rule="evenodd" d="M631.702 672.114C625.172 673.788 622.199 677.691 617.918 683.712C619.594 690.666 620.112 696.106 622.322 701.644C629.996 701.687 635.1 703.42 642.311 709.845C640.988 694.165 638.017 685.648 631.702 672.114Z" fill="#A550A7"/>
<path fill-rule="evenodd" clip-rule="evenodd" d="M593.328 97.0177C594.094 87.7351 595.335 82.4173 599.183 73.8245C595.008 71.8754 591.099 70.9447 586.878 71.7497C583.736 77.2626 581.435 84.7863 579.315 95.1401C585.829 93.2787 589.451 93.3816 593.328 97.0177Z" fill="#007AFF"/>
<path fill-rule="evenodd" clip-rule="evenodd" d="M789.006 200.135C783.518 207.661 779.69 211.555 771.931 216.888C774.481 220.726 777.334 223.556 781.356 225.066C786.91 221.996 792.791 216.77 799.992 209.034C793.461 207.232 790.422 205.258 789.006 200.135Z" fill="#61BA47"/>
<path fill-rule="evenodd" clip-rule="evenodd" d="M902.301 55.9707C901.03 62.5908 903.293 66.9441 906.914 73.3838C913.919 74.8334 919.06 76.6844 925.011 77.0466C928.323 70.1233 932.067 66.2463 940.953 62.4634C926.206 56.974 917.235 56.0299 902.301 55.9707Z" fill="#A550A7"/>
<path fill-rule="evenodd" clip-rule="evenodd" d="M670.035 399.747C679.038 397.36 684.464 396.749 693.85 397.497C694.288 392.91 693.856 388.915 691.684 385.208C685.437 384.093 677.577 384.445 667.111 385.914C671.047 391.429 672.163 394.877 670.035 399.747Z" fill="#F74F9E"/>
<path fill-rule="evenodd" clip-rule="evenodd" d="M729.958 256.418C736.45 258.235 740.976 256.341 747.694 253.269C749.721 246.408 751.993 241.438 752.849 235.538C746.224 231.662 742.672 227.609 739.641 218.439C732.945 232.679 731.258 241.54 729.958 256.418Z" fill="#FFC700"/>
<path fill-rule="evenodd" clip-rule="evenodd" d="M447.692 405.792C453.441 402.272 455.135 397.667 457.457 390.654C453.81 384.5 451.716 379.452 447.975 374.809C440.628 377.024 435.24 376.868 426.459 372.847C432.333 387.445 437.677 394.712 447.692 405.792Z" fill="#FFC700"/>
<path fill-rule="evenodd" clip-rule="evenodd" d="M579.416 674.588C584.697 666.915 588.418 662.918 596.029 657.376C593.376 653.609 590.447 650.858 586.385 649.458C580.917 652.678 575.18 658.062 568.192 665.991C574.769 667.615 577.861 669.505 579.416 674.588Z" fill="#FF5257"/>
<path fill-rule="evenodd" clip-rule="evenodd" d="M1335.44 667.113C1326.88 670.774 1321.6 672.161 1312.2 672.775C1312.43 677.377 1313.43 681.268 1316.12 684.623C1322.46 684.825 1330.19 683.343 1340.33 680.379C1335.64 675.49 1334.04 672.239 1335.44 667.113Z" fill="#FF5257"/>
<path fill-rule="evenodd" clip-rule="evenodd" d="M773.512 1026.41C775.412 1019.94 773.576 1015.39 770.59 1008.64C763.756 1006.52 758.815 1004.19 752.926 1003.26C748.966 1009.83 744.868 1013.33 735.66 1016.24C749.813 1023.12 758.652 1024.92 773.512 1026.41Z" fill="#FFC700"/>
<path fill-rule="evenodd" clip-rule="evenodd" d="M509.479 248.904C504.651 256.869 501.166 261.074 493.888 267.046C496.754 270.653 499.837 273.231 503.973 274.394C509.246 270.864 514.662 265.157 521.181 256.839C514.521 255.597 511.325 253.888 509.479 248.904Z" fill="#FF5257"/>
<path fill-rule="evenodd" clip-rule="evenodd" d="M1216.86 387.623C1223.52 388.625 1227.78 386.187 1234.07 382.308C1235.23 375.25 1236.88 370.038 1237 364.077C1229.94 361.049 1225.92 357.465 1221.78 348.74C1216.89 363.697 1216.31 372.699 1216.86 387.623Z" fill="#FFC700"/>
<path fill-rule="evenodd" clip-rule="evenodd" d="M966.919 556.696C969.544 547.759 971.834 542.802 977.338 535.163C973.643 532.411 970.002 530.71 965.706 530.646C961.515 535.41 957.742 542.314 953.574 552.026C960.329 551.519 963.857 552.351 966.919 556.696Z" fill="#FF5257"/>
<path fill-rule="evenodd" clip-rule="evenodd" d="M1033.5 789.461C1033.84 796.193 1037.08 799.883 1042.12 805.276C1049.27 805.017 1054.71 805.591 1060.57 804.527C1062.14 797.014 1064.86 792.358 1072.59 786.569C1056.96 784.746 1048.02 785.964 1033.5 789.461Z" fill="#FF5257"/>
<path fill-rule="evenodd" clip-rule="evenodd" d="M1078.85 417.977C1074.48 412.851 1069.66 411.901 1062.37 410.708C1056.86 415.275 1052.21 418.136 1048.21 422.558C1051.55 429.468 1052.24 434.813 1049.65 444.116C1063.14 436.024 1069.48 429.606 1078.85 417.977Z" fill="#A550A7"/>
<path fill-rule="evenodd" clip-rule="evenodd" d="M434.767 549.583C427.664 543.557 424.063 539.453 419.315 531.322C415.3 533.583 412.268 536.22 410.466 540.121C413.12 545.885 417.899 552.134 425.083 559.885C427.361 553.505 429.554 550.619 434.767 549.583Z" fill="#FFC700"/>
<path fill-rule="evenodd" clip-rule="evenodd" d="M646.553 368.399C652.227 364.759 653.822 360.119 655.996 353.058C652.22 346.982 650.019 341.98 646.182 337.417C638.882 339.787 633.493 339.745 624.629 335.91C630.81 350.381 636.306 357.533 646.553 368.399Z" fill="#FFC700"/>
<path fill-rule="evenodd" clip-rule="evenodd" d="M1245.04 -35.179C1240.03 -30.677 1239.2 -25.8414 1238.18 -18.5237C1242.88 -13.1311 1245.86 -8.54646 1250.37 -4.65745C1257.2 -8.16608 1262.53 -8.98784 1271.89 -6.62305C1263.47 -19.9163 1256.9 -26.0956 1245.04 -35.179Z" fill="#007AFF"/>
<path fill-rule="evenodd" clip-rule="evenodd" d="M503.477 7.55711C504.504 14.2195 508.098 17.5594 513.671 22.4088C520.756 21.421 526.221 21.4373 531.948 19.7793C532.741 12.146 534.965 7.23677 542.064 0.688477C526.33 0.471874 517.564 2.5961 503.477 7.55711Z" fill="#F74F9E"/>
<path fill-rule="evenodd" clip-rule="evenodd" d="M1242.24 270.149C1232.95 269.418 1227.63 268.197 1219.02 264.381C1217.09 268.564 1216.17 272.477 1216.99 276.694C1222.52 279.816 1230.05 282.087 1240.41 284.169C1238.53 277.662 1238.62 274.039 1242.24 270.149Z" fill="#61BA47"/>
<path fill-rule="evenodd" clip-rule="evenodd" d="M1324.31 606.542C1318.51 613.83 1314.52 617.559 1306.54 622.561C1308.93 626.503 1311.66 629.45 1315.61 631.129C1321.29 628.294 1327.39 623.321 1334.91 615.895C1328.46 613.82 1325.51 611.719 1324.31 606.542Z" fill="#FF5257"/>
<path fill-rule="evenodd" clip-rule="evenodd" d="M154.725 969.68C157.851 978.454 158.91 983.811 158.943 993.226C163.55 993.282 167.496 992.52 171.01 990.048C171.603 983.73 170.6 975.927 168.268 965.619C163.099 969.998 159.755 971.396 154.725 969.68Z" fill="#007AFF"/>
<path fill-rule="evenodd" clip-rule="evenodd" d="M27.1319 347.343C26.7309 356.648 25.6995 362.011 22.192 370.748C26.4405 372.532 30.3832 373.308 34.5691 372.338C37.4925 366.706 39.4955 359.097 41.2079 348.668C34.7721 350.784 31.1482 350.824 27.1319 347.343Z" fill="#007AFF"/>
<path fill-rule="evenodd" clip-rule="evenodd" d="M650.547 363.5C655.044 368.522 659.879 369.358 667.196 370.378C672.593 365.683 677.18 362.713 681.073 358.198C677.571 351.369 676.754 346.042 679.127 336.68C665.826 345.088 659.641 351.654 650.547 363.5Z" fill="#61BA47"/>
<path fill-rule="evenodd" clip-rule="evenodd" d="M320.15 916.712C313.542 915.379 309.167 917.602 302.694 921.161C301.179 928.153 299.28 933.277 298.862 939.224C305.754 942.6 309.595 946.38 313.295 955.302C318.922 940.607 319.95 931.645 320.15 916.712Z" fill="#FFC700"/>
<path fill-rule="evenodd" clip-rule="evenodd" d="M174.355 988.665C165.794 992.333 160.514 993.725 151.119 994.347C151.351 998.949 152.359 1002.84 155.046 1006.19C161.388 1006.39 169.114 1004.9 179.256 1001.93C174.562 997.042 172.957 993.792 174.355 988.665Z" fill="#FFC700"/>
<path fill-rule="evenodd" clip-rule="evenodd" d="M128.942 947.458C124.052 939.53 121.897 934.512 119.898 925.312C115.381 926.22 111.681 927.789 108.761 930.941C109.501 937.243 112.112 944.665 116.546 954.258C120.687 948.896 123.664 946.83 128.942 947.458Z" fill="#F74F9E"/>
<path fill-rule="evenodd" clip-rule="evenodd" d="M157.194 284.662C154.607 290.887 155.941 295.609 158.18 302.649C164.745 305.489 169.405 308.345 175.158 309.906C179.805 303.798 184.257 300.761 193.727 298.859C180.399 290.493 171.807 287.749 157.194 284.662Z" fill="#FF5257"/>
<path fill-rule="evenodd" clip-rule="evenodd" d="M775.929 696.251C784.054 700.805 788.376 704.143 794.593 711.213C798.101 708.225 800.571 705.056 801.593 700.882C797.884 695.734 791.995 690.516 783.459 684.285C782.445 690.984 780.847 694.236 775.929 696.251Z" fill="#61BA47"/>
<path fill-rule="evenodd" clip-rule="evenodd" d="M-20.1058 721.093C-24.582 726.134 -24.8617 731.032 -25.0418 738.418C-19.7618 743.244 -16.2888 747.463 -11.3591 750.817C-4.97402 746.559 0.225302 745.14 9.79688 746.431C-0.0722177 734.175 -7.29987 728.778 -20.1058 721.093Z" fill="#61BA47"/>
<path fill-rule="evenodd" clip-rule="evenodd" d="M36.3287 445.036C42.4998 442.323 44.7981 437.988 48.0435 431.351C45.2592 424.762 43.8635 419.478 40.7826 414.374C33.2034 415.579 27.8863 414.699 19.7266 409.531C23.5812 424.788 27.8977 432.708 36.3287 445.036Z" fill="#61BA47"/>
<path fill-rule="evenodd" clip-rule="evenodd" d="M1333.07 394.638C1339.36 392.209 1341.85 387.983 1345.39 381.501C1342.91 374.791 1341.76 369.45 1338.91 364.211C1331.29 365.07 1326.01 363.949 1318.1 358.417C1321.25 373.832 1325.21 381.941 1333.07 394.638Z" fill="#007AFF"/>
<path fill-rule="evenodd" clip-rule="evenodd" d="M1014.63 612.118C1021.66 618.228 1025.21 622.374 1029.86 630.561C1033.9 628.348 1036.97 625.747 1038.82 621.868C1036.23 616.073 1031.53 609.767 1024.43 601.931C1022.08 608.284 1019.85 611.144 1014.63 612.118Z" fill="#A550A7"/>
<path fill-rule="evenodd" clip-rule="evenodd" d="M1202.12 36.6246C1207.9 40.0953 1212.77 39.4677 1220.06 38.2838C1223.83 32.2049 1227.34 28.014 1229.72 22.5508C1224.36 17.0596 1222.01 12.2107 1221.52 2.56519C1211.29 14.5236 1207.32 22.6219 1202.12 36.6246Z" fill="#FF5257"/>
<path fill-rule="evenodd" clip-rule="evenodd" d="M30.359 141.107C39.4198 143.265 44.4894 145.294 52.4031 150.395C54.9599 146.561 56.4698 142.837 56.3109 138.544C51.3353 134.605 44.2448 131.196 34.3296 127.537C35.1868 134.258 34.5385 137.823 30.359 141.107Z" fill="#FFC700"/>
<path fill-rule="evenodd" clip-rule="evenodd" d="M911.889 683.057C908.134 677.458 903.462 675.958 896.359 673.929C890.361 677.828 885.405 680.131 880.922 684.061C883.44 691.31 883.508 696.699 879.855 705.64C894.197 699.164 901.235 693.523 911.889 683.057Z" fill="#FF5257"/>
<path fill-rule="evenodd" clip-rule="evenodd" d="M614.659 840.886C623.849 842.404 629.048 844.074 637.3 848.607C639.582 844.605 640.827 840.784 640.368 836.512C635.129 832.932 627.817 830.027 617.67 827.072C618.996 833.716 618.599 837.318 614.659 840.886Z" fill="#A550A7"/>
<path fill-rule="evenodd" clip-rule="evenodd" d="M747.596 903.99C752.979 896.389 756.754 892.443 764.439 887.005C761.837 883.202 758.945 880.412 754.902 878.957C749.392 882.103 743.583 887.409 736.488 895.243C743.043 896.955 746.109 898.888 747.596 903.99Z" fill="#FF5257"/>
<path fill-rule="evenodd" clip-rule="evenodd" d="M639.94 30.723C645.542 23.2816 649.43 19.4468 657.269 14.2335C654.779 10.357 651.969 7.4837 647.97 5.91199C642.371 8.89716 636.41 14.0323 629.091 21.6566C635.594 23.5588 638.602 25.5791 639.94 30.723Z" fill="#FFC700"/>
<path fill-rule="evenodd" clip-rule="evenodd" d="M557.848 293.607C564.291 295.589 568.864 293.812 575.659 290.912C577.86 284.105 580.259 279.195 581.265 273.318C574.742 269.275 571.294 265.133 568.498 255.888C561.44 269.952 559.528 278.767 557.848 293.607Z" fill="#007AFF"/>
<path fill-rule="evenodd" clip-rule="evenodd" d="M1228.37 145.618C1237.61 146.778 1242.87 148.243 1251.29 152.452C1253.41 148.364 1254.51 144.497 1253.89 140.246C1248.51 136.873 1241.09 134.256 1230.84 131.697C1232.42 138.285 1232.16 141.9 1228.37 145.618Z" fill="#FFC700"/>
<path fill-rule="evenodd" clip-rule="evenodd" d="M1195.59 665.552C1188.92 659.053 1185.61 654.711 1181.43 646.274C1177.27 648.254 1174.06 650.677 1172 654.445C1174.25 660.377 1178.59 666.94 1185.22 675.165C1187.93 668.956 1190.32 666.228 1195.59 665.552Z" fill="#FF5257"/>
<path fill-rule="evenodd" clip-rule="evenodd" d="M597.049 343.873C594.561 334.897 593.889 329.478 594.532 320.085C589.94 319.698 585.95 320.175 582.267 322.389C581.223 328.648 581.663 336.503 583.25 346.952C588.72 342.955 592.155 341.8 597.049 343.873Z" fill="#007AFF"/>
<path fill-rule="evenodd" clip-rule="evenodd" d="M636.539 1006.88C636.077 1016.18 635.011 1021.53 631.446 1030.25C635.683 1032.06 639.62 1032.86 643.812 1031.92C646.773 1026.31 648.825 1018.71 650.606 1008.29C644.156 1010.37 640.532 1010.38 636.539 1006.88Z" fill="#A550A7"/>
<path fill-rule="evenodd" clip-rule="evenodd" d="M965.711 381.371C963.177 390.333 960.938 395.314 955.512 403.008C959.235 405.722 962.893 407.386 967.189 407.407C971.332 402.6 975.034 395.658 979.103 385.904C972.353 386.48 968.818 385.683 965.711 381.371Z" fill="#FF5257"/>
<path fill-rule="evenodd" clip-rule="evenodd" d="M517.947 809.823C518.086 800.509 518.967 795.12 522.227 786.288C517.931 784.624 513.968 783.959 509.811 785.046C507.047 790.758 505.258 798.42 503.839 808.893C510.213 806.597 513.834 806.456 517.947 809.823Z" fill="#FF5257"/>
<path fill-rule="evenodd" clip-rule="evenodd" d="M1112.49 328.749C1111.7 338.03 1110.45 343.345 1106.58 351.929C1110.75 353.888 1114.66 354.828 1118.88 354.033C1122.04 348.527 1124.36 341.009 1126.5 330.66C1119.98 332.506 1116.36 332.395 1112.49 328.749Z" fill="#A550A7"/>
<path fill-rule="evenodd" clip-rule="evenodd" d="M314.177 85.2435C307.545 86.4511 304.304 90.1348 299.608 95.8377C300.788 102.893 300.92 108.356 302.733 114.036C310.385 114.622 315.353 116.711 322.092 123.63C321.881 107.896 319.519 99.1903 314.177 85.2435Z" fill="#007AFF"/>
<path fill-rule="evenodd" clip-rule="evenodd" d="M849.639 270.626C856.329 269.804 859.778 266.314 864.796 260.892C864.025 253.78 864.209 248.318 862.727 242.543C855.122 241.516 850.283 239.143 843.955 231.847C843.257 247.567 845.112 256.394 849.639 270.626Z" fill="#F74F9E"/>
<path fill-rule="evenodd" clip-rule="evenodd" d="M161.928 214.064C165.94 205.658 168.988 201.127 175.635 194.46C172.424 191.156 169.1 188.898 164.868 188.152C159.974 192.191 155.152 198.408 149.494 207.335C156.245 207.907 159.595 209.289 161.928 214.064Z" fill="#F74F9E"/>
<path fill-rule="evenodd" clip-rule="evenodd" d="M1193.79 259.187C1187.05 259.145 1183.18 262.165 1177.51 266.899C1177.37 274.051 1176.48 279.444 1177.21 285.361C1184.62 287.354 1189.12 290.328 1194.46 298.375C1197.17 282.874 1196.46 273.882 1193.79 259.187Z" fill="#FF5257"/>
<path fill-rule="evenodd" clip-rule="evenodd" d="M1127.16 769.5C1135.41 765.167 1140.56 763.361 1149.88 761.999C1149.28 757.43 1147.97 753.631 1145.03 750.501C1138.69 750.807 1131.11 752.902 1121.23 756.667C1126.3 761.165 1128.15 764.278 1127.16 769.5Z" fill="#F74F9E"/>
<path fill-rule="evenodd" clip-rule="evenodd" d="M812.415 396.658C817.372 388.772 820.924 384.624 828.298 378.771C825.491 375.117 822.45 372.49 818.333 371.26C813.004 374.705 807.496 380.322 800.843 388.534C807.482 389.884 810.65 391.644 812.415 396.658Z" fill="#61BA47"/>
<path fill-rule="evenodd" clip-rule="evenodd" d="M128.864 677.199C126.998 686.325 125.133 691.457 120.289 699.53C124.203 701.963 127.973 703.352 132.26 703.055C136.036 697.956 139.216 690.759 142.554 680.732C135.864 681.804 132.28 681.271 128.864 677.199Z" fill="#F74F9E"/>
<path fill-rule="evenodd" clip-rule="evenodd" d="M975.98 179.708C976.426 172.982 973.644 168.941 969.258 162.996C962.127 162.42 956.797 161.216 950.847 161.59C948.413 168.868 945.175 173.177 936.822 178.025C952.133 181.657 961.152 181.489 975.98 179.708Z" fill="#A550A7"/>
<path fill-rule="evenodd" clip-rule="evenodd" d="M326.88 198.263C336.191 198.03 341.612 198.694 350.567 201.599C352.058 197.239 352.564 193.252 351.311 189.142C345.493 186.609 337.766 185.128 327.245 184.129C329.794 190.406 330.08 194.019 326.88 198.263Z" fill="#F74F9E"/>
<path fill-rule="evenodd" clip-rule="evenodd" d="M694.162 551.987C702.375 556.38 706.761 559.633 713.116 566.579C716.565 563.523 718.973 560.306 719.912 556.113C716.102 551.038 710.113 545.937 701.455 539.875C700.574 546.592 699.039 549.875 694.162 551.987Z" fill="#61BA47"/>
<path fill-rule="evenodd" clip-rule="evenodd" d="M1035.91 938.562C1033.04 932.466 1028.64 930.285 1021.92 927.219C1015.41 930.179 1010.16 931.716 1005.14 934.933C1006.55 942.477 1005.82 947.816 1000.87 956.112C1016.02 951.848 1023.82 947.321 1035.91 938.562Z" fill="#61BA47"/>
<path fill-rule="evenodd" clip-rule="evenodd" d="M1089.43 281.834C1087.1 272.817 1086.52 267.387 1087.32 258.007C1082.74 257.541 1078.74 257.95 1075.02 260.1C1073.87 266.34 1074.17 274.202 1075.58 284.677C1081.12 280.774 1084.57 279.678 1089.43 281.834Z" fill="#61BA47"/>
<path fill-rule="evenodd" clip-rule="evenodd" d="M479.014 189.135C474.143 181.196 471.999 176.174 470.021 166.969C465.502 167.866 461.799 169.427 458.871 172.572C459.597 178.875 462.191 186.303 466.603 195.907C470.755 190.554 473.737 188.495 479.014 189.135Z" fill="#A550A7"/>
<path fill-rule="evenodd" clip-rule="evenodd" d="M304.524 298.574C311.191 299.569 315.447 297.127 321.731 293.243C322.889 286.184 324.526 280.97 324.641 275.009C317.587 271.987 313.558 268.408 309.41 259.685C304.536 274.647 303.965 283.649 304.524 298.574Z" fill="#FF5257"/>
<path fill-rule="evenodd" clip-rule="evenodd" d="M194.243 459.93C186.956 454.129 183.228 450.139 178.229 442.16C174.286 444.545 171.338 447.276 169.658 451.23C172.491 456.909 177.462 463.006 184.886 470.529C186.963 464.081 189.064 461.128 194.243 459.93Z" fill="#A550A7"/>
<path fill-rule="evenodd" clip-rule="evenodd" d="M1332.74 447.869C1337.53 443.132 1338.13 438.262 1338.79 430.905C1333.84 425.743 1330.65 421.306 1325.95 417.638C1319.3 421.469 1314.02 422.544 1304.55 420.63C1313.6 433.506 1320.46 439.363 1332.74 447.869Z" fill="#FFC700"/>
<path fill-rule="evenodd" clip-rule="evenodd" d="M493.651 664.395C493.874 657.658 490.959 653.711 486.379 647.914C479.233 647.575 473.866 646.549 467.931 647.119C465.74 654.474 462.647 658.888 454.459 664.01C469.882 667.132 478.89 666.666 493.651 664.395Z" fill="#FFC700"/>
<path fill-rule="evenodd" clip-rule="evenodd" d="M436.878 585.277C443.49 583.964 446.672 580.229 451.277 574.453C449.985 567.417 449.767 561.957 447.864 556.306C440.203 555.842 435.203 553.831 428.355 547.02C428.816 562.749 431.315 571.416 436.878 585.277Z" fill="#A550A7"/>
<path fill-rule="evenodd" clip-rule="evenodd" d="M1342.57 679.879C1338.61 674.419 1333.89 673.088 1326.72 671.316C1320.86 675.428 1315.99 677.907 1311.66 681.995C1314.43 689.15 1314.69 694.533 1311.37 703.599C1325.46 696.612 1332.3 690.721 1342.57 679.879Z" fill="#007AFF"/>
<path fill-rule="evenodd" clip-rule="evenodd" d="M810.381 797.359C815.834 789.808 819.645 785.897 827.38 780.53C824.813 776.703 821.948 773.886 817.918 772.394C812.379 775.49 806.521 780.742 799.355 788.51C805.893 790.283 808.942 792.243 810.381 797.359Z" fill="#007AFF"/>
<path fill-rule="evenodd" clip-rule="evenodd" d="M415.574 600.473C414.395 607.11 416.718 611.432 420.426 617.821C427.451 619.174 432.617 620.954 438.573 621.235C441.789 614.266 445.479 610.338 454.312 606.434C439.491 601.147 430.509 600.327 415.574 600.473Z" fill="#FF5257"/>
<path fill-rule="evenodd" clip-rule="evenodd" d="M422.87 477.724C430.975 473.135 436.07 471.17 445.339 469.517C444.602 464.968 443.172 461.213 440.132 458.176C433.806 458.68 426.292 461.011 416.539 465.082C421.742 469.42 423.695 472.473 422.87 477.724Z" fill="#61BA47"/>
<path fill-rule="evenodd" clip-rule="evenodd" d="M1016.03 576.887C1009.55 578.749 1006.69 582.738 1002.58 588.88C1004.46 595.783 1005.14 601.206 1007.51 606.677C1015.18 606.497 1020.33 608.081 1027.72 614.295C1025.95 598.66 1022.73 590.233 1016.03 576.887Z" fill="#61BA47"/>
<path fill-rule="evenodd" clip-rule="evenodd" d="M683.529 332.116C689.376 328.761 691.2 324.206 693.72 317.262C690.25 311.006 688.299 305.901 684.692 301.154C677.284 303.159 671.904 302.85 663.24 298.582C668.698 313.341 673.833 320.756 683.529 332.116Z" fill="#A550A7"/>
<path fill-rule="evenodd" clip-rule="evenodd" d="M860.257 122.307C850.95 121.951 845.582 120.946 836.828 117.482C835.065 121.739 834.308 125.685 835.299 129.866C840.945 132.762 848.563 134.728 859 136.389C856.853 129.964 856.796 126.34 860.257 122.307Z" fill="#A550A7"/>
<path fill-rule="evenodd" clip-rule="evenodd" d="M719.358 601.138C713.148 603.76 710.787 608.061 707.444 614.649C710.131 621.279 711.449 626.582 714.455 631.731C722.051 630.637 727.354 631.596 735.438 636.882C731.807 621.571 727.608 613.588 719.358 601.138Z" fill="#F74F9E"/>
<path fill-rule="evenodd" clip-rule="evenodd" d="M510.319 751.749C517.822 746.23 522.648 743.674 531.655 740.933C530.383 736.504 528.517 732.945 525.138 730.29C518.917 731.541 511.733 734.748 502.532 739.948C508.214 743.638 510.515 746.437 510.319 751.749Z" fill="#F74F9E"/>
<path fill-rule="evenodd" clip-rule="evenodd" d="M135.679 628.291C142.337 629.342 146.613 626.936 152.93 623.105C154.147 616.056 155.827 610.856 155.993 604.896C148.964 601.815 144.965 598.202 140.891 589.445C135.892 604.365 135.244 613.362 135.679 628.291Z" fill="#FF5257"/>
<path fill-rule="evenodd" clip-rule="evenodd" d="M207.664 201.514C200.858 195.154 197.457 190.882 193.104 182.534C188.986 184.6 185.831 187.089 183.844 190.898C186.219 196.783 190.693 203.254 197.499 211.34C200.08 205.076 202.407 202.299 207.664 201.514Z" fill="#FF5257"/>
<path fill-rule="evenodd" clip-rule="evenodd" d="M61.5004 89.7511C54.8612 88.5843 50.5439 90.9159 44.1618 94.6368C42.8224 101.664 41.0523 106.834 40.7836 112.79C47.758 115.992 51.6932 119.675 55.6152 128.501C60.8725 113.669 61.6756 104.685 61.5004 89.7511Z" fill="#A550A7"/>
<path fill-rule="evenodd" clip-rule="evenodd" d="M473.272 298.814C475.982 307.725 476.789 313.126 476.381 322.532C480.98 322.804 484.957 322.228 488.584 319.923C489.472 313.64 488.836 305.798 486.99 295.392C481.621 299.524 478.216 300.764 473.272 298.814Z" fill="#007AFF"/>
<path fill-rule="evenodd" clip-rule="evenodd" d="M201.995 367.164C196.058 363.97 191.227 364.827 183.999 366.354C180.519 372.605 177.215 376.957 175.088 382.527C180.703 387.758 183.282 392.491 184.232 402.102C193.883 389.673 197.469 381.396 201.995 367.164Z" fill="#007AFF"/>
<path fill-rule="evenodd" clip-rule="evenodd" d="M993.804 906.691C985.897 911.614 980.889 913.791 971.698 915.829C972.624 920.343 974.21 924.036 977.374 926.942C983.673 926.175 991.083 923.532 1000.66 919.057C995.278 914.94 993.199 911.971 993.804 906.691Z" fill="#007AFF"/>
<path fill-rule="evenodd" clip-rule="evenodd" d="M1331.1 205.41C1322.8 201.189 1318.34 198.028 1311.85 191.216C1308.46 194.344 1306.12 197.61 1305.27 201.822C1309.19 206.816 1315.28 211.792 1324.06 217.671C1324.8 210.937 1326.27 207.623 1331.1 205.41Z" fill="#61BA47"/>
</g>
<defs>
<clipPath id="clip0_2240_34184">
<rect width="1440" height="1024" fill="white"/>
</clipPath>
</defs>
</svg>
