<svg width="1440" height="1024" viewBox="0 0 1440 1024" fill="none" xmlns="http://www.w3.org/2000/svg">
<g clip-path="url(#clip0_2240_34033)">
<path fill-rule="evenodd" clip-rule="evenodd" d="M523.517 530.204C514.642 527.377 509.738 524.976 502.226 519.3C499.391 522.932 497.608 526.533 497.446 530.827C502.115 535.125 508.932 539.053 518.547 543.44C518.193 536.674 519.105 533.167 523.517 530.204Z" fill="#FFC700"/>
<path fill-rule="evenodd" clip-rule="evenodd" d="M525.948 667.728C516.686 666.742 511.399 665.375 502.9 661.325C500.852 665.452 499.829 669.338 500.534 673.577C505.971 676.849 513.438 679.327 523.738 681.693C522.032 675.136 522.221 671.517 525.948 667.728Z" fill="#61BA47"/>
<path fill-rule="evenodd" clip-rule="evenodd" d="M379.034 -14.9013C372.713 -12.5598 370.161 -8.36898 366.527 -1.93697C368.915 4.80631 369.995 10.1633 372.767 15.4417C380.404 14.689 385.66 15.8836 393.498 21.5264C390.557 6.06807 386.718 -2.09475 379.034 -14.9013Z" fill="#007AFF"/>
<path fill-rule="evenodd" clip-rule="evenodd" d="M1297.35 724.774C1288.46 722.012 1283.54 719.646 1275.98 714.025C1273.17 717.678 1271.42 721.292 1271.29 725.587C1275.99 729.851 1282.83 733.729 1292.48 738.046C1292.08 731.283 1292.96 727.769 1297.35 724.774Z" fill="#F74F9E"/>
<path fill-rule="evenodd" clip-rule="evenodd" d="M1369.96 87.5879C1375.89 84.3823 1377.83 79.8748 1380.52 72.9963C1377.21 66.655 1375.39 61.5026 1371.9 56.6656C1364.45 58.483 1359.08 58.0379 1350.52 53.5513C1355.61 68.4436 1360.55 75.9868 1369.96 87.5879Z" fill="#F74F9E"/>
<path fill-rule="evenodd" clip-rule="evenodd" d="M1281.21 305.468C1287.82 306.757 1292.18 304.505 1298.63 300.902C1300.1 293.901 1301.97 288.764 1302.34 282.814C1295.43 279.484 1291.56 275.73 1287.8 266.833C1282.28 281.565 1281.31 290.534 1281.21 305.468Z" fill="#FF5257"/>
<path fill-rule="evenodd" clip-rule="evenodd" d="M693.458 381.585C691.85 390.759 690.131 395.942 685.517 404.149C689.498 406.47 693.306 407.752 697.583 407.335C701.213 402.13 704.188 394.847 707.242 384.729C700.586 385.99 696.987 385.558 693.458 381.585Z" fill="#007AFF"/>
<path fill-rule="evenodd" clip-rule="evenodd" d="M94.4114 493.645C87.9602 500.363 83.6421 503.706 75.2353 507.945C77.2448 512.091 79.6905 515.28 83.473 517.318C89.3892 515.024 95.9208 510.638 104.099 503.943C97.8704 501.277 95.1247 498.912 94.4114 493.645Z" fill="#61BA47"/>
<path fill-rule="evenodd" clip-rule="evenodd" d="M790.61 577.855C797.335 577.382 800.96 574.075 806.253 568.922C805.854 561.779 806.321 556.335 805.142 550.49C797.6 549.069 792.891 546.448 786.951 538.832C785.436 554.495 786.829 563.407 790.61 577.855Z" fill="#A550A7"/>
<path fill-rule="evenodd" clip-rule="evenodd" d="M863.567 297.275C863.945 290.545 861.122 286.532 856.677 280.632C849.541 280.128 844.198 278.978 838.252 279.412C835.892 286.714 832.698 291.055 824.395 295.988C839.741 299.465 848.758 299.206 863.567 297.275Z" fill="#61BA47"/>
<path fill-rule="evenodd" clip-rule="evenodd" d="M930.16 625.743C939.412 624.666 944.87 624.836 954.052 626.917C955.141 622.44 955.284 618.424 953.663 614.444C947.64 612.449 939.81 611.675 929.242 611.634C932.349 617.654 932.962 621.226 930.16 625.743Z" fill="#007AFF"/>
<path fill-rule="evenodd" clip-rule="evenodd" d="M1177.14 737.343C1167.92 738.674 1162.46 738.655 1153.22 736.829C1152.26 741.335 1152.23 745.353 1153.96 749.286C1160.03 751.114 1167.88 751.672 1178.45 751.421C1175.17 745.489 1174.46 741.935 1177.14 737.343Z" fill="#FFC700"/>
<path fill-rule="evenodd" clip-rule="evenodd" d="M1265.89 294.068C1272.16 296.544 1276.86 295.127 1283.86 292.764C1286.58 286.149 1289.35 281.439 1290.81 275.659C1284.62 271.121 1281.51 266.723 1279.44 257.29C1271.31 270.763 1268.72 279.403 1265.89 294.068Z" fill="#61BA47"/>
<path fill-rule="evenodd" clip-rule="evenodd" d="M1407.28 523.953C1413.74 522.027 1416.56 518.011 1420.61 511.829C1418.66 504.945 1417.93 499.529 1415.51 494.082C1407.84 494.337 1402.67 492.803 1395.22 486.663C1397.15 502.28 1400.45 510.675 1407.28 523.953Z" fill="#F74F9E"/>
<path fill-rule="evenodd" clip-rule="evenodd" d="M1364.35 864.001C1357.91 862.013 1353.33 863.785 1346.54 866.678C1344.33 873.483 1341.93 878.39 1340.91 884.266C1347.43 888.316 1350.88 892.462 1353.66 901.709C1360.73 887.653 1362.66 878.839 1364.35 864.001Z" fill="#FF5257"/>
<path fill-rule="evenodd" clip-rule="evenodd" d="M395.548 265.933C390.179 258.322 387.718 253.447 385.155 244.388C380.702 245.572 377.107 247.367 374.386 250.693C375.514 256.938 378.578 264.184 383.596 273.485C387.397 267.878 390.242 265.632 395.548 265.933Z" fill="#007AFF"/>
<path fill-rule="evenodd" clip-rule="evenodd" d="M1252.4 45.6555C1245.06 39.9186 1241.3 35.9616 1236.23 28.0278C1232.3 30.4473 1229.38 33.2036 1227.74 37.1733C1230.62 42.8264 1235.64 48.8798 1243.13 56.3368C1245.15 49.8704 1247.23 46.8991 1252.4 45.6555Z" fill="#61BA47"/>
<path fill-rule="evenodd" clip-rule="evenodd" d="M1266.91 507.47C1258.32 503.891 1253.64 501.078 1246.64 494.778C1243.5 498.154 1241.42 501.588 1240.89 505.853C1245.17 510.535 1251.62 515.034 1260.83 520.23C1261.05 513.459 1262.26 510.043 1266.91 507.47Z" fill="#007AFF"/>
<path fill-rule="evenodd" clip-rule="evenodd" d="M643.715 369.819C639.325 364.703 634.509 363.764 627.215 362.588C621.72 367.168 617.071 370.039 613.082 374.471C616.439 381.373 617.142 386.716 614.57 396.025C628.047 387.902 634.371 381.469 643.715 369.819Z" fill="#F74F9E"/>
<path fill-rule="evenodd" clip-rule="evenodd" d="M918.896 598.176C922.368 603.954 926.96 605.685 933.954 608.064C940.137 604.468 945.202 602.414 949.875 598.712C947.72 591.346 947.919 585.96 952.012 577.212C937.366 582.968 930.056 588.252 918.896 598.176Z" fill="#007AFF"/>
<path fill-rule="evenodd" clip-rule="evenodd" d="M715.903 238.955C710.901 231.098 708.674 226.112 706.543 216.942C702.039 217.914 698.363 219.536 695.488 222.729C696.319 229.02 699.036 236.404 703.607 245.933C707.67 240.512 710.617 238.403 715.903 238.955Z" fill="#007AFF"/>
<path fill-rule="evenodd" clip-rule="evenodd" d="M630.482 314.869C633.589 320.851 638.064 322.864 644.897 325.672C651.292 322.467 656.474 320.732 661.368 317.327C659.674 309.841 660.208 304.479 664.836 296.001C649.861 300.836 642.237 305.657 630.482 314.869Z" fill="#61BA47"/>
<path fill-rule="evenodd" clip-rule="evenodd" d="M874.287 477.77C865.096 476.259 859.895 474.594 851.64 470.067C849.361 474.072 848.119 477.893 848.582 482.165C853.824 485.741 861.138 488.639 871.287 491.586C869.956 484.944 870.35 481.341 874.287 477.77Z" fill="#61BA47"/>
<path fill-rule="evenodd" clip-rule="evenodd" d="M1249.78 235.121C1258.25 231.249 1263.5 229.73 1272.88 228.883C1272.53 224.288 1271.43 220.423 1268.67 217.136C1262.32 217.091 1254.63 218.765 1244.57 221.98C1249.38 226.751 1251.06 229.961 1249.78 235.121Z" fill="#FF5257"/>
<path fill-rule="evenodd" clip-rule="evenodd" d="M187.138 132.072C194.173 138.177 197.729 142.321 202.386 150.504C206.426 148.288 209.487 145.684 211.332 141.804C208.742 136.011 204.033 129.709 196.935 121.879C194.586 128.233 192.362 131.095 187.138 132.072Z" fill="#A550A7"/>
<path fill-rule="evenodd" clip-rule="evenodd" d="M1221.47 60.0161C1213.62 65.0389 1208.64 67.2785 1199.48 69.433C1200.46 73.9345 1202.09 77.6066 1205.29 80.4734C1211.58 79.6267 1218.96 76.8905 1228.48 72.2947C1223.04 68.2458 1220.93 65.3037 1221.47 60.0161Z" fill="#FF5257"/>
<path fill-rule="evenodd" clip-rule="evenodd" d="M785.626 163.275C788.734 169.256 793.209 171.268 800.043 174.075C806.437 170.868 811.619 169.131 816.512 165.725C814.817 158.24 815.349 152.877 819.975 144.398C805.001 149.237 797.379 154.06 785.626 163.275Z" fill="#F74F9E"/>
<path fill-rule="evenodd" clip-rule="evenodd" d="M403.227 274.556C398.176 270.091 393.277 269.823 385.891 269.659C381.077 274.95 376.865 278.433 373.524 283.37C377.796 289.746 379.226 294.942 377.957 304.516C390.191 294.619 395.571 287.379 403.227 274.556Z" fill="#61BA47"/>
<path fill-rule="evenodd" clip-rule="evenodd" d="M873.894 216.478C879.879 219.581 884.696 218.651 891.9 217.014C895.285 210.712 898.523 206.31 900.565 200.709C894.871 195.563 892.221 190.87 891.125 181.274C881.663 193.848 878.204 202.178 873.894 216.478Z" fill="#FFC700"/>
<path fill-rule="evenodd" clip-rule="evenodd" d="M1205.33 123.934C1200 119.812 1195.09 119.867 1187.71 120.19C1183.26 125.787 1179.29 129.54 1176.28 134.687C1180.96 140.767 1182.73 145.857 1182.09 155.494C1193.65 144.813 1198.54 137.234 1205.33 123.934Z" fill="#F74F9E"/>
<path fill-rule="evenodd" clip-rule="evenodd" d="M386.865 151.934C393.145 154.386 397.837 152.951 404.827 150.561C407.525 143.936 410.279 139.216 411.716 133.43C405.51 128.915 402.377 124.53 400.271 115.104C392.195 128.609 389.637 137.259 386.865 151.934Z" fill="#FF5257"/>
<path fill-rule="evenodd" clip-rule="evenodd" d="M517.286 509.153C518.539 515.776 522.246 518.992 527.981 523.649C535.028 522.42 540.49 522.25 546.157 520.398C546.69 512.742 548.745 507.76 555.617 500.973C539.885 501.293 531.196 503.715 517.286 509.153Z" fill="#F74F9E"/>
<path fill-rule="evenodd" clip-rule="evenodd" d="M625.311 322.85C619.171 325.631 616.922 329.992 613.751 336.665C616.609 343.222 618.064 348.49 621.202 353.559C628.767 352.269 634.093 353.09 642.311 358.165C638.285 342.953 633.88 335.082 625.311 322.85Z" fill="#A550A7"/>
<path fill-rule="evenodd" clip-rule="evenodd" d="M668.568 29.4627C677.02 25.5488 682.257 24.0044 691.63 23.1113C691.265 18.518 690.146 14.6587 687.363 11.3848C681.017 11.3718 673.338 13.0835 663.286 16.3478C668.119 21.0951 669.817 24.2968 668.568 29.4627Z" fill="#F74F9E"/>
<path fill-rule="evenodd" clip-rule="evenodd" d="M736.7 72.5982C743.409 73.2599 747.537 70.6088 753.62 66.4163C754.425 59.3081 755.799 54.0191 755.617 48.0598C748.421 45.3935 744.218 42.0191 739.641 33.5146C735.519 48.701 735.397 57.7204 736.7 72.5982Z" fill="#FFC700"/>
<path fill-rule="evenodd" clip-rule="evenodd" d="M453.09 153.417C458.141 148.952 459.009 144.123 460.078 136.813C455.418 131.386 452.479 126.779 447.989 122.856C441.138 126.313 435.805 127.095 426.459 124.66C434.779 138.016 441.304 144.244 453.09 153.417Z" fill="#FFC700"/>
<path fill-rule="evenodd" clip-rule="evenodd" d="M579.003 298.488C582.871 290.015 585.842 285.433 592.375 278.653C589.108 275.404 585.746 273.203 581.502 272.53C576.677 276.651 571.962 282.949 566.457 291.971C573.216 292.428 576.589 293.753 579.003 298.488Z" fill="#FF5257"/>
<path fill-rule="evenodd" clip-rule="evenodd" d="M1336.74 425.264C1328.94 430.356 1323.98 432.64 1314.83 434.876C1315.86 439.369 1317.52 443.026 1320.75 445.864C1327.03 444.962 1334.38 442.16 1343.86 437.48C1338.39 433.479 1336.25 430.556 1336.74 425.264Z" fill="#FF5257"/>
<path fill-rule="evenodd" clip-rule="evenodd" d="M23.5578 787.989C19.5458 796.395 16.4974 800.926 9.8494 807.592C13.0606 810.897 16.3847 813.155 20.6162 813.901C25.5111 809.863 30.3328 803.646 35.9913 794.719C29.2408 794.147 25.8907 792.765 23.5578 787.989Z" fill="#A550A7"/>
<path fill-rule="evenodd" clip-rule="evenodd" d="M774.703 709.021C775.45 702.322 772.852 698.159 768.738 692.023C761.641 691.128 756.37 689.686 750.409 689.792C747.65 696.953 744.223 701.112 735.66 705.581C750.792 709.896 759.81 710.134 774.703 709.021Z" fill="#FFC700"/>
<path fill-rule="evenodd" clip-rule="evenodd" d="M509.789 35.0937C506.417 43.7761 503.716 48.522 497.585 55.6672C501.034 58.7223 504.517 60.7254 508.793 61.1529C513.372 56.7602 517.716 50.2001 522.691 40.8758C515.916 40.8095 512.472 39.6815 509.789 35.0937Z" fill="#FF5257"/>
<path fill-rule="evenodd" clip-rule="evenodd" d="M1223.69 55.1052C1230.42 54.9338 1234.19 51.7934 1239.71 46.8822C1239.63 39.729 1240.35 34.3108 1239.43 28.4196C1231.96 26.6619 1227.37 23.832 1221.78 15.9575C1219.56 31.5364 1220.56 40.5019 1223.69 55.1052Z" fill="#FFC700"/>
<path fill-rule="evenodd" clip-rule="evenodd" d="M967.079 197.696C968.113 188.439 969.507 183.16 973.601 174.681C969.484 172.613 965.603 171.57 961.361 172.252C958.061 177.672 955.545 185.127 953.126 195.415C959.691 193.742 963.309 193.95 967.079 197.696Z" fill="#FF5257"/>
<path fill-rule="evenodd" clip-rule="evenodd" d="M1034.6 457.401C1036.1 463.972 1039.93 467.044 1045.84 471.478C1052.83 469.982 1058.28 469.604 1063.88 467.537C1064.12 459.866 1065.98 454.809 1072.59 447.766C1056.88 448.685 1048.29 451.436 1034.6 457.401Z" fill="#FF5257"/>
<path fill-rule="evenodd" clip-rule="evenodd" d="M1073.87 222.016C1068.67 217.728 1063.76 217.628 1056.38 217.72C1051.75 223.173 1047.66 226.799 1044.49 231.849C1048.98 238.073 1050.59 243.217 1049.65 252.829C1061.53 242.516 1066.66 235.095 1073.87 222.016Z" fill="#A550A7"/>
<path fill-rule="evenodd" clip-rule="evenodd" d="M436.489 356.493C428.448 351.792 424.189 348.375 418.101 341.193C414.54 344.116 412.012 347.24 410.914 351.394C414.529 356.61 420.32 361.935 428.742 368.32C429.877 361.641 431.535 358.419 436.489 356.493Z" fill="#FFC700"/>
<path fill-rule="evenodd" clip-rule="evenodd" d="M651.861 174.933C656.817 170.364 657.583 165.517 658.497 158.186C653.724 152.858 650.688 148.314 646.116 144.487C639.339 148.088 634.024 148.983 624.629 146.745C633.229 159.923 639.884 166.012 651.861 174.933Z" fill="#FFC700"/>
<path fill-rule="evenodd" clip-rule="evenodd" d="M1243.98 72.2229C1234.71 73.1154 1229.25 72.8372 1220.11 70.5745C1218.94 75.0292 1218.71 79.0415 1220.26 83.0525C1226.24 85.1671 1234.05 86.0963 1244.62 86.3469C1241.63 80.2663 1241.09 76.6829 1243.98 72.2229Z" fill="#61BA47"/>
<path fill-rule="evenodd" clip-rule="evenodd" d="M1324.84 401.868C1320.39 410.053 1317.11 414.418 1310.13 420.729C1313.16 424.196 1316.36 426.625 1320.55 427.591C1325.65 423.814 1330.79 417.857 1336.91 409.239C1330.19 408.314 1326.92 406.759 1324.84 401.868Z" fill="#FF5257"/>
<path fill-rule="evenodd" clip-rule="evenodd" d="M153.53 663.887C158.132 671.985 160.105 677.077 161.772 686.343C166.319 685.599 170.073 684.163 173.105 681.118C172.591 674.794 170.249 667.283 166.162 657.536C161.832 662.747 158.782 664.704 153.53 663.887Z" fill="#007AFF"/>
<path fill-rule="evenodd" clip-rule="evenodd" d="M26.5403 50.733C27.7613 59.9668 27.6768 65.4269 25.7397 74.6405C30.2335 75.6593 34.2511 75.7393 38.2049 74.057C40.1059 68.0029 40.7573 60.1624 40.6327 49.5944C34.662 52.7956 31.1001 53.4638 26.5403 50.733Z" fill="#007AFF"/>
<path fill-rule="evenodd" clip-rule="evenodd" d="M655.638 73.338C660.94 77.5021 665.846 77.4859 673.229 77.2204C677.728 71.659 681.73 67.9379 684.78 62.8149C680.145 56.6982 678.415 51.5939 679.127 41.9619C667.488 52.5521 662.537 60.092 655.638 73.338Z" fill="#61BA47"/>
<path fill-rule="evenodd" clip-rule="evenodd" d="M313.344 598.053C306.605 597.888 302.684 600.836 296.927 605.466C296.649 612.614 295.668 617.99 296.289 623.92C303.663 626.048 308.102 629.103 313.295 637.247C316.285 621.798 315.741 612.794 313.344 598.053Z" fill="#FFC700"/>
<path fill-rule="evenodd" clip-rule="evenodd" d="M175.651 615.792C167.856 620.891 162.898 623.179 153.754 625.423C154.782 629.915 156.45 633.571 159.678 636.406C165.958 635.498 173.308 632.69 182.78 628.001C177.309 624.006 175.164 621.084 175.651 615.792Z" fill="#FFC700"/>
<path fill-rule="evenodd" clip-rule="evenodd" d="M130.397 651.387C124.206 644.428 121.212 639.861 117.646 631.148C113.354 632.826 109.984 635.014 107.655 638.625C109.478 644.703 113.338 651.558 119.371 660.236C122.517 654.236 125.091 651.685 130.397 651.387Z" fill="#F74F9E"/>
<path fill-rule="evenodd" clip-rule="evenodd" d="M155.284 4.48637C153.817 11.0659 155.95 15.4845 159.378 22.0289C166.337 23.6858 171.421 25.6888 177.359 26.2275C180.874 19.4057 184.732 15.6416 193.727 12.1243C179.149 6.19926 170.21 4.9892 155.284 4.48637Z" fill="#FF5257"/>
<path fill-rule="evenodd" clip-rule="evenodd" d="M774.126 430.673C782.918 433.747 787.754 436.284 795.104 442.167C798.04 438.615 799.923 435.065 800.204 430.778C795.657 426.351 788.952 422.235 779.463 417.581C779.628 424.354 778.619 427.834 774.126 430.673Z" fill="#61BA47"/>
<path fill-rule="evenodd" clip-rule="evenodd" d="M-24.0514 452.188C-27.5843 457.929 -27.0091 462.802 -25.904 470.107C-19.8661 473.943 -15.7133 477.495 -10.2761 479.941C-4.72744 474.639 0.146542 472.339 9.79688 471.948C-2.05054 461.592 -10.1055 457.533 -24.0514 452.188Z" fill="#61BA47"/>
<path fill-rule="evenodd" clip-rule="evenodd" d="M42.2417 194.335C47.848 190.592 49.3586 185.923 51.4022 178.824C47.5159 172.818 45.224 167.857 41.3036 163.366C34.0487 165.869 28.6596 165.925 19.7266 162.253C26.1719 176.608 31.7981 183.659 42.2417 194.335Z" fill="#61BA47"/>
<path fill-rule="evenodd" clip-rule="evenodd" d="M1339.13 198.719C1344.9 195.234 1346.62 190.639 1348.99 183.64C1345.38 177.464 1343.31 172.404 1339.6 167.739C1332.24 169.909 1326.85 169.721 1318.1 165.647C1323.88 180.28 1329.18 187.579 1339.13 198.719Z" fill="#007AFF"/>
<path fill-rule="evenodd" clip-rule="evenodd" d="M1012.91 376.686C1020.9 381.482 1025.12 384.949 1031.12 392.204C1034.72 389.323 1037.28 386.229 1038.43 382.088C1034.87 376.83 1029.15 371.437 1020.8 364.952C1019.59 371.617 1017.89 374.82 1012.91 376.686Z" fill="#A550A7"/>
<path fill-rule="evenodd" clip-rule="evenodd" d="M28.5566 18.372C37.8545 18.9239 43.1995 20.0422 51.8787 23.6909C53.731 19.4719 54.5713 15.5423 53.6692 11.3413C48.0853 8.32688 40.5105 6.2007 30.1106 4.31933C32.1217 10.7887 32.1024 14.4127 28.5566 18.372Z" fill="#FFC700"/>
<path fill-rule="evenodd" clip-rule="evenodd" d="M907.481 374.857C902.811 369.995 897.949 369.329 890.602 368.565C885.372 373.446 880.891 376.574 877.158 381.223C880.897 387.925 881.9 393.22 879.855 402.66C892.854 393.792 898.806 387.014 907.481 374.857Z" fill="#FF5257"/>
<path fill-rule="evenodd" clip-rule="evenodd" d="M612.879 574.21C622.193 574.11 627.603 574.851 636.517 577.883C638.069 573.544 638.632 569.566 637.438 565.438C631.656 562.822 623.951 561.232 613.445 560.083C615.904 566.396 616.139 570.012 612.879 574.21Z" fill="#A550A7"/>
<path fill-rule="evenodd" clip-rule="evenodd" d="M747.159 563.886C751.141 555.466 754.173 550.924 760.797 544.234C757.574 540.941 754.242 538.695 750.008 537.964C745.127 542.019 740.328 548.254 734.701 557.2C741.454 557.748 744.809 559.119 747.159 563.886Z" fill="#FF5257"/>
<path fill-rule="evenodd" clip-rule="evenodd" d="M564.56 177.147C571.249 177.98 575.444 175.435 581.632 171.399C582.618 164.314 584.127 159.062 584.097 153.1C576.971 150.251 572.857 146.77 568.498 138.151C563.99 153.227 563.637 162.24 564.56 177.147Z" fill="#007AFF"/>
<path fill-rule="evenodd" clip-rule="evenodd" d="M1197.27 466.621C1189.57 461.379 1185.55 457.679 1179.97 450.095C1176.22 452.768 1173.48 455.71 1172.1 459.78C1175.35 465.231 1180.76 470.94 1188.73 477.889C1190.32 471.303 1192.19 468.202 1197.27 466.621Z" fill="#FF5257"/>
<path fill-rule="evenodd" clip-rule="evenodd" d="M598.143 165.473C594.134 157.066 592.531 151.846 591.533 142.484C586.944 142.9 583.097 144.063 579.855 146.882C579.913 153.227 581.711 160.887 585.088 170.901C589.781 166.015 592.963 164.281 598.143 165.473Z" fill="#007AFF"/>
<path fill-rule="evenodd" clip-rule="evenodd" d="M635.958 682.306C637.119 691.548 636.999 697.007 635.002 706.208C639.489 707.256 643.506 707.362 647.47 705.706C649.411 699.664 650.114 691.828 650.058 681.26C644.067 684.422 640.5 685.067 635.958 682.306Z" fill="#A550A7"/>
<path fill-rule="evenodd" clip-rule="evenodd" d="M287.032 880.478C293.626 879.078 296.759 875.301 301.286 869.464C299.901 862.445 299.61 856.988 297.632 851.364C289.966 851.002 284.94 849.058 278.002 842.338C278.672 858.06 281.286 866.693 287.032 880.478Z" fill="#007AFF"/>
<path fill-rule="evenodd" clip-rule="evenodd" d="M254.038 817.651C258.031 812.219 257.859 807.316 257.358 799.945C251.656 795.625 247.81 791.744 242.592 788.859C236.626 793.686 231.579 795.578 221.93 795.174C232.885 806.469 240.579 811.177 254.038 817.651Z" fill="#F74F9E"/>
<path fill-rule="evenodd" clip-rule="evenodd" d="M965.532 65.2107C964.593 74.4775 963.253 79.7711 959.245 88.2905C963.383 90.3173 967.274 91.3208 971.509 90.5948C974.754 85.1416 977.194 77.6621 979.508 67.3497C972.96 69.0891 969.34 68.9186 965.532 65.2107Z" fill="#FF5257"/>
<path fill-rule="evenodd" clip-rule="evenodd" d="M518.586 507.436C517.107 498.24 517.038 492.78 518.715 483.515C514.195 482.623 510.177 482.656 506.272 484.449C504.541 490.554 504.11 498.409 504.532 508.97C510.41 505.602 513.952 504.834 518.586 507.436Z" fill="#FF5257"/>
<path fill-rule="evenodd" clip-rule="evenodd" d="M1111.97 156.884C1112.81 166.161 1112.5 171.613 1110.18 180.738C1114.62 181.943 1118.64 182.19 1122.66 180.674C1124.81 174.704 1125.78 166.898 1126.1 156.334C1120 159.283 1116.41 159.803 1111.97 156.884Z" fill="#A550A7"/>
<path fill-rule="evenodd" clip-rule="evenodd" d="M856.287 116.323C862.733 114.351 865.523 110.315 869.523 104.104C867.529 97.234 866.762 91.8235 864.299 86.3936C856.631 86.703 851.454 85.2063 843.955 79.1194C845.997 94.722 849.357 103.093 856.287 116.323Z" fill="#F74F9E"/>
<path fill-rule="evenodd" clip-rule="evenodd" d="M161.799 72.5315C164.29 63.5565 166.505 58.5651 171.894 50.8448C168.157 48.1484 164.491 46.5022 160.195 46.5027C156.076 51.3297 152.407 58.2897 148.385 68.0632C155.133 67.4544 158.672 68.2338 161.799 72.5315Z" fill="#F74F9E"/>
<path fill-rule="evenodd" clip-rule="evenodd" d="M1187 21.6138C1180.35 22.7431 1177.07 26.3884 1172.3 32.0354C1173.4 39.1044 1173.47 44.5687 1175.21 50.2694C1182.86 50.9453 1187.8 53.0932 1194.46 60.0911C1194.43 44.3554 1192.17 35.6226 1187 21.6138Z" fill="#FF5257"/>
<path fill-rule="evenodd" clip-rule="evenodd" d="M1130.04 736.418C1121.1 739.043 1115.7 739.799 1106.29 739.301C1105.98 743.898 1106.52 747.88 1108.79 751.529C1115.06 752.476 1122.91 751.915 1133.33 750.167C1129.25 744.76 1128.04 741.343 1130.04 736.418Z" fill="#A550A7"/>
<path fill-rule="evenodd" clip-rule="evenodd" d="M1125.97 405.301C1133.34 399.602 1138.1 396.929 1147.04 393.97C1145.66 389.574 1143.71 386.061 1140.27 383.489C1134.08 384.891 1126.97 388.271 1117.9 393.693C1123.67 397.244 1126.04 399.987 1125.97 405.301Z" fill="#F74F9E"/>
<path fill-rule="evenodd" clip-rule="evenodd" d="M1131.13 745.894C1121.83 746.284 1116.39 745.712 1107.39 742.958C1105.97 747.343 1105.54 751.337 1106.86 755.426C1112.72 757.861 1120.47 759.21 1131.01 760.031C1128.35 753.798 1128 750.191 1131.13 745.894Z" fill="#007AFF"/>
<path fill-rule="evenodd" clip-rule="evenodd" d="M812.076 245.546C815.589 236.919 818.366 232.218 824.612 225.173C821.213 222.062 817.762 220.003 813.494 219.506C808.844 223.824 804.395 230.313 799.27 239.556C806.042 239.732 809.467 240.915 812.076 245.546Z" fill="#61BA47"/>
<path fill-rule="evenodd" clip-rule="evenodd" d="M128.551 419.896C128.299 429.207 127.353 434.585 123.985 443.377C128.261 445.093 132.216 445.806 136.386 444.77C139.219 439.092 141.101 431.453 142.647 420.998C136.245 423.216 132.623 423.313 128.551 419.896Z" fill="#F74F9E"/>
<path fill-rule="evenodd" clip-rule="evenodd" d="M975.677 60.7896C974.949 54.0881 971.507 50.5913 966.155 45.4984C959.033 46.1695 953.575 45.9097 947.78 47.3108C946.647 54.9012 944.206 59.7065 936.822 65.9319C952.531 66.8494 961.384 65.118 975.677 60.7896Z" fill="#A550A7"/>
<path fill-rule="evenodd" clip-rule="evenodd" d="M325.203 19.7363C334.332 17.8898 339.785 17.6025 349.109 18.9081C349.82 14.3554 349.626 10.3417 347.679 6.51153C341.51 5.02691 333.643 4.91055 323.108 5.754C326.708 11.493 327.617 15.0012 325.203 19.7363Z" fill="#F74F9E"/>
<path fill-rule="evenodd" clip-rule="evenodd" d="M692.354 269.91C701.205 272.811 706.09 275.252 713.555 280.99C716.42 277.381 718.232 273.795 718.429 269.502C713.796 265.166 707.012 261.182 697.433 256.716C697.732 263.484 696.791 266.984 692.354 269.91Z" fill="#61BA47"/>
<path fill-rule="evenodd" clip-rule="evenodd" d="M988.027 871.849C985.719 865.515 981.542 862.941 975.13 859.272C968.374 861.623 963.011 862.674 957.718 865.417C958.429 873.059 957.207 878.308 951.521 886.115C966.995 883.257 975.179 879.463 988.027 871.849Z" fill="#F74F9E"/>
<path fill-rule="evenodd" clip-rule="evenodd" d="M1032.33 654.992C1028.44 649.488 1023.73 648.103 1016.58 646.251C1010.68 650.297 1005.79 652.722 1001.4 656.761C1004.1 663.946 1004.3 669.332 1000.87 678.361C1015.05 671.532 1021.94 665.718 1032.33 654.992Z" fill="#61BA47"/>
<path fill-rule="evenodd" clip-rule="evenodd" d="M480.467 -9.60951C474.291 -16.5821 471.308 -21.1559 467.762 -29.8776C463.467 -28.2094 460.091 -26.0291 457.754 -22.4235C459.563 -16.3414 463.407 -9.47699 469.42 -0.785345C472.58 -6.778 475.159 -9.3237 480.467 -9.60951Z" fill="#A550A7"/>
<path fill-rule="evenodd" clip-rule="evenodd" d="M311.351 170.223C318.09 170.045 321.857 166.902 327.371 161.986C327.286 154.832 327.992 149.414 327.071 143.523C319.599 141.772 315.01 138.946 309.41 131.077C307.208 146.658 308.209 155.622 311.351 170.223Z" fill="#FF5257"/>
<path fill-rule="evenodd" clip-rule="evenodd" d="M195.982 133.391C187.799 128.943 183.435 125.661 177.126 118.672C173.658 121.705 171.228 124.906 170.261 129.093C174.036 134.193 179.991 139.335 188.608 145.454C189.535 138.743 191.091 135.47 195.982 133.391Z" fill="#A550A7"/>
<path fill-rule="evenodd" clip-rule="evenodd" d="M1337.04 92.8353C1340.94 87.3375 1340.68 82.4375 1340.06 75.0765C1334.28 70.8535 1330.37 67.0376 1325.11 64.2411C1319.22 69.1688 1314.21 71.1452 1304.55 70.9041C1315.7 82.0127 1323.47 86.5905 1337.04 92.8353Z" fill="#FFC700"/>
<path fill-rule="evenodd" clip-rule="evenodd" d="M493.122 322.226C492.172 315.553 488.616 312.172 483.099 307.259C476.003 308.166 470.539 308.087 464.793 309.679C463.913 317.303 461.633 322.187 454.459 328.653C470.19 329.05 478.98 327.026 493.122 322.226Z" fill="#FFC700"/>
<path fill-rule="evenodd" clip-rule="evenodd" d="M443.391 353.134C449.675 350.694 452.16 346.463 455.692 339.975C453.199 333.27 452.035 327.931 449.18 322.697C441.555 323.569 436.282 322.458 428.355 316.939C431.54 332.349 435.507 340.451 443.391 353.134Z" fill="#A550A7"/>
<path fill-rule="evenodd" clip-rule="evenodd" d="M1337.97 326.53C1333.13 321.839 1328.25 321.348 1320.88 320.848C1315.83 325.914 1311.46 329.201 1307.9 333.981C1311.88 340.545 1313.07 345.801 1311.37 355.307C1324.04 345.978 1329.74 338.991 1337.97 326.53Z" fill="#007AFF"/>
<path fill-rule="evenodd" clip-rule="evenodd" d="M809.928 575.547C813.988 567.164 817.061 562.65 823.747 556.021C820.554 552.698 817.243 550.422 813.016 549.652C808.098 553.662 803.242 559.852 797.533 568.746C804.28 569.357 807.622 570.758 809.928 575.547Z" fill="#007AFF"/>
<path fill-rule="evenodd" clip-rule="evenodd" d="M415.128 437.086C415.119 443.827 418.157 447.68 422.918 453.328C430.071 453.441 435.468 454.297 441.382 453.539C443.339 446.118 446.291 441.609 454.312 436.23C438.799 433.598 429.81 434.349 415.128 437.086Z" fill="#FF5257"/>
<path fill-rule="evenodd" clip-rule="evenodd" d="M421.723 130.86C428.909 124.934 433.585 122.113 442.426 118.876C440.91 114.525 438.85 111.075 435.328 108.612C429.186 110.206 422.191 113.807 413.293 119.51C419.171 122.879 421.624 125.546 421.723 130.86Z" fill="#61BA47"/>
<path fill-rule="evenodd" clip-rule="evenodd" d="M1009.71 350.539C1003.65 353.498 1001.53 357.922 998.553 364.683C1001.6 371.155 1003.21 376.378 1006.49 381.355C1014.02 379.846 1019.36 380.512 1027.72 385.346C1023.26 370.258 1018.63 362.517 1009.71 350.539Z" fill="#61BA47"/>
<path fill-rule="evenodd" clip-rule="evenodd" d="M689.044 196.613C694.22 192.295 695.224 187.492 696.5 180.215C691.997 174.658 689.19 169.969 684.813 165.92C677.866 169.181 672.514 169.811 663.24 167.112C671.178 180.699 677.523 187.11 689.044 196.613Z" fill="#A550A7"/>
<path fill-rule="evenodd" clip-rule="evenodd" d="M861.976 5.27289C852.748 6.539 847.288 6.48118 838.065 4.58924C837.068 9.08789 837.008 13.1059 838.709 17.0514C844.772 18.9228 852.616 19.5358 863.183 19.3596C859.953 13.4046 859.267 9.84597 861.976 5.27289Z" fill="#A550A7"/>
<path fill-rule="evenodd" clip-rule="evenodd" d="M713.396 420.578C707.735 424.239 706.156 428.884 704.009 435.953C707.806 442.015 710.025 447.009 713.879 451.558C721.17 449.162 726.559 449.185 735.438 452.987C729.204 438.539 723.682 431.406 713.396 420.578Z" fill="#F74F9E"/>
<path fill-rule="evenodd" clip-rule="evenodd" d="M509.348 534.914C515.779 528.176 520.087 524.821 528.482 520.557C526.46 516.417 524.005 513.235 520.216 511.208C514.307 513.52 507.788 517.925 499.63 524.644C505.866 527.292 508.619 529.649 509.348 534.914Z" fill="#F74F9E"/>
<path fill-rule="evenodd" clip-rule="evenodd" d="M142.503 302.07C149.243 301.949 153.037 298.837 158.592 293.967C158.567 286.814 159.318 281.401 158.446 275.503C150.989 273.69 146.424 270.826 140.891 262.909C138.558 278.471 139.483 287.444 142.503 302.07Z" fill="#FF5257"/>
<path fill-rule="evenodd" clip-rule="evenodd" d="M472.142 -5.87973C476.359 2.42534 478.092 7.60388 479.323 16.9381C483.9 16.4075 487.716 15.1493 490.887 12.2501C490.671 5.90821 488.683 -1.70403 485.058 -11.6315C480.488 -6.62989 477.35 -4.8173 472.142 -5.87973Z" fill="#007AFF"/>
<path fill-rule="evenodd" clip-rule="evenodd" d="M195.658 85.7267C189.257 83.6124 184.648 85.2954 177.795 88.0545C175.454 94.8142 172.955 99.674 171.828 105.529C178.266 109.706 181.628 113.918 184.232 123.219C191.579 109.303 193.672 100.529 195.658 85.7267Z" fill="#007AFF"/>
<path fill-rule="evenodd" clip-rule="evenodd" d="M994.891 663.472C987.959 669.694 983.405 672.707 974.707 676.311C976.404 680.595 978.606 683.956 982.227 686.269C988.297 684.42 995.136 680.53 1003.79 674.46C997.774 671.34 995.212 668.778 994.891 663.472Z" fill="#007AFF"/>
</g>
<defs>
<clipPath id="clip0_2240_34033">
<rect width="1440" height="1024" fill="white"/>
</clipPath>
</defs>
</svg>
