<svg width="1440" height="1024" viewBox="0 0 1440 1024" fill="none" xmlns="http://www.w3.org/2000/svg">
<g clip-path="url(#clip0_2240_34939)">
<path fill-rule="evenodd" clip-rule="evenodd" d="M1022.06 788.02C1019.32 794.18 1020.54 798.933 1022.61 806.026C1029.1 809.025 1033.69 811.993 1039.4 813.694C1044.2 807.702 1048.72 804.774 1058.24 803.104C1045.12 794.415 1036.59 791.462 1022.06 788.02Z" fill="#F74F9E"/>
<path fill-rule="evenodd" clip-rule="evenodd" d="M1245.91 764.954C1247.21 755.731 1248.75 750.494 1253.09 742.137C1249.03 739.95 1245.18 738.796 1240.92 739.357C1237.47 744.68 1234.74 752.059 1232.03 762.273C1238.64 760.79 1242.25 761.101 1245.91 764.954Z" fill="#61BA47"/>
<path fill-rule="evenodd" clip-rule="evenodd" d="M1109.04 871.973C1110.69 862.805 1112.43 857.629 1117.08 849.44C1113.1 847.104 1109.3 845.806 1105.02 846.206C1101.37 851.396 1098.37 858.667 1095.27 868.773C1101.93 867.538 1105.53 867.985 1109.04 871.973Z" fill="#FF5257"/>
<path fill-rule="evenodd" clip-rule="evenodd" d="M951.955 216.733C957.943 213.636 959.963 209.165 962.784 202.337C959.59 195.936 957.864 190.751 954.468 185.851C946.98 187.531 941.618 186.988 933.148 182.345C937.957 197.328 942.764 204.961 951.955 216.733Z" fill="#A550A7"/>
<path fill-rule="evenodd" clip-rule="evenodd" d="M958.547 653.256C964.169 649.537 965.699 644.875 967.772 637.784C963.911 631.762 961.64 626.792 957.738 622.284C950.473 624.756 945.084 624.79 936.166 621.081C942.551 635.463 948.148 642.537 958.547 653.256Z" fill="#F74F9E"/>
<path fill-rule="evenodd" clip-rule="evenodd" d="M88.2357 642.411C87.6318 633.117 88.0794 627.674 90.6251 618.61C86.2091 617.295 82.2057 616.948 78.1487 618.363C75.8492 624.277 74.6776 632.057 74.0988 642.61C80.2692 639.813 83.8677 639.383 88.2357 642.411Z" fill="#F74F9E"/>
<path fill-rule="evenodd" clip-rule="evenodd" d="M1310.36 607.374C1310.86 600.651 1308.11 596.589 1303.76 590.611C1296.64 589.982 1291.32 588.738 1285.36 589.067C1282.88 596.327 1279.61 600.611 1271.22 605.396C1286.5 609.143 1295.52 609.043 1310.36 607.374Z" fill="#F74F9E"/>
<path fill-rule="evenodd" clip-rule="evenodd" d="M712.518 923.091C716.821 914.83 720.025 910.409 726.902 903.978C723.808 900.563 720.565 898.191 716.362 897.298C711.329 901.162 706.293 907.207 700.327 915.93C707.053 916.738 710.353 918.237 712.518 923.091Z" fill="#007AFF"/>
<path fill-rule="evenodd" clip-rule="evenodd" d="M1211.6 736.052C1203.33 731.77 1198.9 728.577 1192.45 721.717C1189.04 724.82 1186.68 728.069 1185.79 732.274C1189.67 737.297 1195.73 742.317 1204.47 748.261C1205.26 741.533 1206.75 738.229 1211.6 736.052Z" fill="#FF5257"/>
<path fill-rule="evenodd" clip-rule="evenodd" d="M320.934 233.728C314.573 231.496 309.934 233.093 303.031 235.725C300.565 242.44 297.976 247.253 296.741 253.086C303.101 257.381 306.384 261.655 308.816 271.002C316.419 257.225 318.674 248.491 320.934 233.728Z" fill="#A550A7"/>
<path fill-rule="evenodd" clip-rule="evenodd" d="M416.707 736.605C410.042 737.612 406.692 741.197 401.826 746.756C402.794 753.844 402.762 759.309 404.403 765.04C412.034 765.856 416.937 768.094 423.465 775.212C423.727 759.478 421.628 750.706 416.707 736.605Z" fill="#FF5257"/>
<path fill-rule="evenodd" clip-rule="evenodd" d="M595.355 740.673C602.958 735.293 607.83 732.825 616.886 730.25C615.695 725.798 613.895 722.206 610.566 719.49C604.323 720.626 597.081 723.7 587.786 728.731C593.399 732.525 595.649 735.366 595.355 740.673Z" fill="#007AFF"/>
<path fill-rule="evenodd" clip-rule="evenodd" d="M921.081 661.437C915.193 664.718 913.313 669.251 910.707 676.163C914.1 682.461 915.987 687.59 919.535 692.381C926.967 690.468 932.343 690.844 940.953 695.219C935.679 680.394 930.636 672.915 921.081 661.437Z" fill="#A550A7"/>
<path fill-rule="evenodd" clip-rule="evenodd" d="M679.417 664.91C688.547 663.068 694 662.784 703.324 664.095C704.037 659.542 703.845 655.528 701.9 651.697C695.731 650.209 687.865 650.089 677.329 650.927C680.926 656.667 681.833 660.176 679.417 664.91Z" fill="#A550A7"/>
<path fill-rule="evenodd" clip-rule="evenodd" d="M951.224 484.473C957.678 486.42 962.241 484.617 969.02 481.68C971.184 474.861 973.555 469.938 974.528 464.056C967.983 460.048 964.513 455.925 961.666 446.696C954.686 460.799 952.822 469.624 951.224 484.473Z" fill="#FFC700"/>
<path fill-rule="evenodd" clip-rule="evenodd" d="M1219.17 932.639C1209.89 931.913 1204.56 930.694 1195.95 926.883C1194.02 931.067 1193.11 934.98 1193.93 939.197C1199.46 942.316 1206.99 944.584 1217.35 946.66C1215.46 940.154 1215.55 936.531 1219.17 932.639Z" fill="#FFC700"/>
<path fill-rule="evenodd" clip-rule="evenodd" d="M114.366 796.993C110.78 791.285 106.156 789.644 99.1163 787.404C93.0044 791.121 87.9817 793.274 83.3824 797.068C85.6821 804.389 85.5882 809.778 81.6689 818.605C96.1981 812.562 103.403 807.135 114.366 796.993Z" fill="#FF5257"/>
<path fill-rule="evenodd" clip-rule="evenodd" d="M1276.51 885.078C1269.84 884.128 1265.6 886.599 1259.34 890.526C1258.23 897.593 1256.63 902.818 1256.55 908.78C1263.63 911.753 1267.68 915.305 1271.89 923.999C1276.66 909.004 1277.17 899.998 1276.51 885.078Z" fill="#007AFF"/>
<path fill-rule="evenodd" clip-rule="evenodd" d="M981.938 905.856C975.425 904.118 970.922 906.067 964.241 909.222C962.298 916.106 960.087 921.104 959.304 927.014C965.974 930.808 969.576 934.818 972.719 943.95C979.241 929.63 980.819 920.749 981.938 905.856Z" fill="#F74F9E"/>
<path fill-rule="evenodd" clip-rule="evenodd" d="M634.043 948.234C639.808 944.74 641.522 940.143 643.875 933.14C640.255 926.969 638.183 921.913 634.464 917.253C627.106 919.436 621.72 919.256 612.956 915.196C618.766 929.82 624.077 937.11 634.043 948.234Z" fill="#FFC700"/>
<path fill-rule="evenodd" clip-rule="evenodd" d="M1100.93 541.622C1095.73 545.912 1094.7 550.709 1093.38 557.978C1097.85 563.561 1100.63 568.266 1104.99 572.339C1111.95 569.118 1117.31 568.518 1126.56 571.271C1118.7 557.638 1112.4 551.191 1100.93 541.622Z" fill="#F74F9E"/>
<path fill-rule="evenodd" clip-rule="evenodd" d="M672 298.792C664.557 293.192 660.721 289.305 655.506 281.466C651.63 283.958 648.758 286.768 647.187 290.767C650.173 296.366 655.31 302.325 662.936 309.642C664.836 303.14 666.856 300.131 672 298.792Z" fill="#FFC700"/>
<path fill-rule="evenodd" clip-rule="evenodd" d="M1182.96 603.26C1184.01 609.918 1187.62 613.243 1193.22 618.068C1200.3 617.049 1205.76 617.042 1211.48 615.359C1212.24 607.722 1214.44 602.803 1221.52 596.224C1205.78 596.076 1197.02 598.238 1182.96 603.26Z" fill="#FF5257"/>
<path fill-rule="evenodd" clip-rule="evenodd" d="M38.5448 759.354C42.7157 767.682 44.4198 772.871 45.5995 782.211C50.1795 781.706 54.0027 780.469 57.1899 777.587C57.0085 771.244 55.0624 763.621 51.4918 753.674C46.8947 758.65 43.7466 760.445 38.5448 759.354Z" fill="#FFC700"/>
<path fill-rule="evenodd" clip-rule="evenodd" d="M258.016 423.706C251.386 417.164 248.101 412.802 243.976 404.338C239.803 406.292 236.582 408.694 234.493 412.449C236.707 418.396 241.005 424.986 247.589 433.253C250.338 427.061 252.74 424.348 258.016 423.706Z" fill="#A550A7"/>
<path fill-rule="evenodd" clip-rule="evenodd" d="M532.759 860.659C535.382 866.869 539.683 869.23 546.272 872.571C552.901 869.882 558.204 868.563 563.353 865.556C562.257 857.96 563.214 852.656 568.499 844.572C553.189 848.206 545.207 852.407 532.759 860.659Z" fill="#007AFF"/>
<path fill-rule="evenodd" clip-rule="evenodd" d="M953.479 476.668C959.974 478.47 964.496 476.567 971.208 473.479C973.22 466.614 975.481 461.64 976.323 455.737C969.691 451.876 966.13 447.831 963.078 438.668C956.413 452.922 954.746 461.787 953.479 476.668Z" fill="#F74F9E"/>
<path fill-rule="evenodd" clip-rule="evenodd" d="M817.902 1024.76C822.832 1029.36 827.723 1029.76 835.101 1030.12C840.054 1024.96 844.356 1021.59 847.828 1016.74C843.725 1010.25 842.433 1005.02 843.955 995.483C831.464 1005.05 825.894 1012.15 817.902 1024.76Z" fill="#F74F9E"/>
<path fill-rule="evenodd" clip-rule="evenodd" d="M166.873 923.495C175.891 921.164 181.321 920.587 190.701 921.394C191.168 916.81 190.761 912.812 188.612 909.091C182.373 907.937 174.511 908.24 164.036 909.644C167.937 915.183 169.031 918.638 166.873 923.495Z" fill="#F74F9E"/>
<path fill-rule="evenodd" clip-rule="evenodd" d="M781.453 618.546C787.707 616.031 790.142 611.771 793.597 605.241C791.023 598.566 789.796 593.241 786.879 588.041C779.265 589.005 773.979 587.956 765.987 582.532C769.355 597.903 773.418 605.957 781.453 618.546Z" fill="#F74F9E"/>
<path fill-rule="evenodd" clip-rule="evenodd" d="M960.703 769.572C966.142 765.59 967.45 760.86 969.185 753.679C965.042 747.847 962.538 742.99 958.427 738.672C951.287 741.486 945.906 741.775 936.822 738.493C943.882 752.556 949.808 759.357 960.703 769.572Z" fill="#A550A7"/>
<path fill-rule="evenodd" clip-rule="evenodd" d="M255.785 799.454C255.846 806.195 258.925 810.016 263.745 815.614C270.898 815.653 276.304 816.452 282.209 815.633C284.089 808.192 286.994 803.653 294.959 798.19C279.418 795.719 270.438 796.565 255.785 799.454Z" fill="#FFC700"/>
<path fill-rule="evenodd" clip-rule="evenodd" d="M276.48 923.981C280.003 929.728 284.609 931.419 291.624 933.736C297.776 930.086 302.822 927.988 307.463 924.245C305.243 916.898 305.396 911.511 309.411 902.727C294.817 908.611 287.553 913.959 276.48 923.981Z" fill="#FF5257"/>
<path fill-rule="evenodd" clip-rule="evenodd" d="M599.273 446.859C605.609 449.161 610.265 447.615 617.197 445.06C619.736 438.372 622.378 433.588 623.677 427.769C617.365 423.404 614.129 419.094 611.8 409.721C604.046 423.414 601.695 432.122 599.273 446.859Z" fill="#FF5257"/>
<path fill-rule="evenodd" clip-rule="evenodd" d="M650.592 993.028C656.92 995.35 661.582 993.819 668.521 991.286C671.083 984.607 673.74 979.832 675.058 974.017C668.76 969.631 665.538 965.311 663.239 955.93C655.441 969.598 653.061 978.298 650.592 993.028Z" fill="#A550A7"/>
<path fill-rule="evenodd" clip-rule="evenodd" d="M851.586 702.831C845.875 695.472 843.195 690.715 840.222 681.781C835.828 683.167 832.318 685.124 829.752 688.571C831.163 694.757 834.554 701.857 839.99 710.92C843.532 705.145 846.271 702.772 851.586 702.831Z" fill="#A550A7"/>
<path fill-rule="evenodd" clip-rule="evenodd" d="M663.291 497.082C659.978 491.211 655.436 489.355 648.51 486.786C642.23 490.211 637.111 492.125 632.338 495.698C634.29 503.12 633.943 508.498 629.612 517.131C644.41 511.779 651.862 506.697 663.291 497.082Z" fill="#61BA47"/>
<rect width="1440" height="56" transform="translate(-859 201)" fill="#181818"/>
</g>
<defs>
<clipPath id="clip0_2240_34939">
<rect width="1440" height="1024" fill="white"/>
</clipPath>
</defs>
</svg>
