<svg width="1440" height="1024" viewBox="0 0 1440 1024" fill="none" xmlns="http://www.w3.org/2000/svg">
<g clip-path="url(#clip0_2240_35090)">
<path fill-rule="evenodd" clip-rule="evenodd" d="M1025.23 950.166C1021.46 955.757 1021.84 960.649 1022.64 967.993C1028.52 972.074 1032.52 975.794 1037.85 978.462C1043.61 973.393 1048.58 971.295 1058.24 971.302C1046.82 960.467 1038.94 956.079 1025.23 950.166Z" fill="#F74F9E"/>
<path fill-rule="evenodd" clip-rule="evenodd" d="M1245.8 884.384C1248.68 875.527 1251.11 870.637 1256.83 863.16C1253.22 860.303 1249.63 858.498 1245.34 858.31C1241.01 862.952 1237.04 869.745 1232.59 879.333C1239.36 879.02 1242.86 879.954 1245.8 884.384Z" fill="#61BA47"/>
<path fill-rule="evenodd" clip-rule="evenodd" d="M1109 1022.26C1112.21 1013.52 1114.83 1008.73 1120.83 1001.47C1117.32 998.477 1113.8 996.539 1109.52 996.191C1105.02 1000.67 1100.8 1007.31 1096 1016.72C1102.77 1016.66 1106.24 1017.73 1109 1022.26Z" fill="#FF5257"/>
<path fill-rule="evenodd" clip-rule="evenodd" d="M945.698 335.13C952.132 333.121 954.899 329.068 958.862 322.834C956.828 315.975 956.029 310.57 953.535 305.154C945.869 305.509 940.683 304.042 933.148 298C935.282 313.59 938.691 321.941 945.698 335.13Z" fill="#A550A7"/>
<path fill-rule="evenodd" clip-rule="evenodd" d="M952.619 843.113C958.802 840.426 961.118 836.1 964.391 829.477C961.635 822.876 960.261 817.587 957.202 812.47C949.617 813.643 944.304 812.741 936.166 807.539C939.957 822.812 944.24 830.75 952.619 843.113Z" fill="#F74F9E"/>
<path fill-rule="evenodd" clip-rule="evenodd" d="M87.76 791.775C88.7792 782.516 90.1651 777.234 94.2461 768.75C90.1256 766.687 86.2433 765.65 82.0022 766.34C78.7106 771.765 76.2058 779.223 73.8033 789.515C80.3657 787.832 83.9842 788.034 87.76 791.775Z" fill="#F74F9E"/>
<path fill-rule="evenodd" clip-rule="evenodd" d="M1309.42 753.995C1311.08 747.46 1309.07 742.982 1305.84 736.341C1298.93 734.484 1293.9 732.335 1287.98 731.625C1284.27 738.343 1280.31 741.994 1271.22 745.25C1285.62 751.594 1294.52 753.061 1309.42 753.995Z" fill="#F74F9E"/>
<path fill-rule="evenodd" clip-rule="evenodd" d="M713.022 1037.01C718.694 1029.62 722.618 1025.82 730.507 1020.69C728.053 1016.79 725.271 1013.89 721.287 1012.28C715.659 1015.21 709.65 1020.29 702.26 1027.84C708.744 1029.81 711.733 1031.85 713.022 1037.01Z" fill="#007AFF"/>
<path fill-rule="evenodd" clip-rule="evenodd" d="M1209.85 847.656C1202.44 842.003 1198.64 838.089 1193.48 830.214C1189.58 832.678 1186.69 835.467 1185.09 839.455C1188.04 845.075 1193.13 851.071 1200.71 858.442C1202.65 851.953 1204.69 848.958 1209.85 847.656Z" fill="#FF5257"/>
<path fill-rule="evenodd" clip-rule="evenodd" d="M327.222 375.516C321.346 372.213 316.5 372.98 309.245 374.374C305.65 380.559 302.265 384.849 300.036 390.378C305.553 395.713 308.044 400.492 308.816 410.119C318.696 397.872 322.434 389.662 327.222 375.516Z" fill="#A550A7"/>
<path fill-rule="evenodd" clip-rule="evenodd" d="M423.514 939.416C416.775 939.251 412.853 942.199 407.096 946.829C406.818 953.977 405.838 959.353 406.459 965.283C413.833 967.411 418.272 970.466 423.465 978.61C426.455 963.161 425.911 954.157 423.514 939.416Z" fill="#FF5257"/>
<path fill-rule="evenodd" clip-rule="evenodd" d="M596.603 869.797C605.025 865.819 610.251 864.235 619.617 863.271C619.217 858.68 618.068 854.83 615.261 851.577C608.915 851.612 601.25 853.382 591.223 856.722C596.092 861.433 597.814 864.621 596.603 869.797Z" fill="#007AFF"/>
<path fill-rule="evenodd" clip-rule="evenodd" d="M927.25 785.05C920.881 787.26 918.243 791.397 914.476 797.752C916.723 804.543 917.691 809.922 920.353 815.256C928.004 814.663 933.234 815.966 940.953 821.771C938.334 806.255 934.666 798.014 927.25 785.05Z" fill="#A550A7"/>
<path fill-rule="evenodd" clip-rule="evenodd" d="M681.094 845.658C690.406 845.43 695.826 846.097 704.78 849.006C706.272 844.647 706.781 840.661 705.53 836.55C699.714 834.014 691.988 832.529 681.467 831.525C684.012 837.803 684.296 841.416 681.094 845.658Z" fill="#A550A7"/>
<path fill-rule="evenodd" clip-rule="evenodd" d="M944.823 642.83C950.84 645.868 955.648 644.885 962.833 643.169C966.148 636.83 969.338 632.393 971.318 626.77C965.569 621.686 962.867 617.023 961.666 607.44C952.343 620.116 948.975 628.484 944.823 642.83Z" fill="#FFC700"/>
<path fill-rule="evenodd" clip-rule="evenodd" d="M117.622 983.935C115.082 977.691 110.813 975.273 104.269 971.844C97.6048 974.443 92.2845 975.691 87.0963 978.629C88.0897 986.239 87.0615 991.529 81.6689 999.542C97.0267 996.114 105.064 992.02 117.622 983.935Z" fill="#FF5257"/>
<path fill-rule="evenodd" clip-rule="evenodd" d="M1106.47 696.788C1100.6 700.109 1098.75 704.653 1096.19 711.583C1099.63 717.859 1101.55 722.974 1105.13 727.742C1112.55 725.779 1117.93 726.119 1126.56 730.437C1121.19 715.647 1116.1 708.202 1106.47 696.788Z" fill="#F74F9E"/>
<path fill-rule="evenodd" clip-rule="evenodd" d="M670.357 437.637C664 430.83 660.897 426.336 657.123 417.711C652.873 419.491 649.556 421.76 647.315 425.426C649.284 431.458 653.307 438.219 659.547 446.749C662.548 440.675 665.059 438.063 670.357 437.637Z" fill="#FFC700"/>
<path fill-rule="evenodd" clip-rule="evenodd" d="M1182.32 715.19C1182.21 721.93 1185.18 725.83 1189.85 731.553C1197 731.78 1202.39 732.722 1208.31 732.057C1210.39 724.669 1213.41 720.207 1221.52 714.956C1206.05 712.077 1197.05 712.686 1182.32 715.19Z" fill="#FF5257"/>
<path fill-rule="evenodd" clip-rule="evenodd" d="M39.6664 883.777C42.3278 892.703 43.1051 898.108 42.6448 907.512C47.243 907.81 51.223 907.255 54.8621 904.971C55.7849 898.693 55.1921 890.847 53.4031 880.431C48.0117 884.534 44.5996 885.755 39.6664 883.777Z" fill="#FFC700"/>
<path fill-rule="evenodd" clip-rule="evenodd" d="M256.493 577.81C251.099 570.217 248.622 565.35 246.029 556.299C241.58 557.498 237.991 559.305 235.281 562.64C236.43 568.881 239.517 576.117 244.566 585.402C248.349 579.782 251.186 577.527 256.493 577.81Z" fill="#A550A7"/>
<path fill-rule="evenodd" clip-rule="evenodd" d="M530.508 971.945C532.013 978.516 535.839 981.588 541.748 986.022C548.743 984.526 554.195 984.148 559.787 982.08C560.027 974.41 561.891 969.353 568.499 962.309C552.79 963.229 544.2 965.98 530.508 971.945Z" fill="#007AFF"/>
<path fill-rule="evenodd" clip-rule="evenodd" d="M947.026 589.182C953.11 592.085 957.894 590.995 965.04 589.121C968.213 582.709 971.303 578.203 973.158 572.536C967.297 567.582 964.492 562.98 963.078 553.426C954.039 566.307 950.858 574.747 947.026 589.182Z" fill="#F74F9E"/>
<path fill-rule="evenodd" clip-rule="evenodd" d="M774.965 773.763C781.561 772.372 784.698 768.599 789.234 762.768C787.859 755.748 787.575 750.291 785.605 744.664C777.94 744.291 772.916 742.34 765.987 735.611C766.635 751.333 769.238 759.97 774.965 773.763Z" fill="#F74F9E"/>
<path fill-rule="evenodd" clip-rule="evenodd" d="M954.944 885.34C960.992 882.363 963.1 877.932 966.056 871.162C962.989 864.699 961.367 859.481 958.068 854.514C950.548 856.046 945.198 855.396 936.822 850.587C941.333 865.662 945.988 873.388 954.944 885.34Z" fill="#A550A7"/>
<path fill-rule="evenodd" clip-rule="evenodd" d="M256.161 979.324C255.05 985.972 257.418 990.27 261.193 996.62C268.231 997.9 273.416 999.626 279.374 999.845C282.518 992.844 286.166 988.877 294.959 984.881C280.084 979.749 271.093 979.022 256.161 979.324Z" fill="#FFC700"/>
<path fill-rule="evenodd" clip-rule="evenodd" d="M625.139 24.1506C616.157 26.619 610.737 27.2796 601.345 26.6167C600.949 31.2073 601.417 35.1984 603.623 38.8859C609.879 39.9438 617.735 39.5203 628.188 37.9562C624.202 32.4777 623.055 29.0401 625.139 24.1506Z" fill="#FF5257"/>
<path fill-rule="evenodd" clip-rule="evenodd" d="M593.014 569.144C598.854 572.511 603.708 571.797 610.978 570.484C614.641 564.339 618.072 560.086 620.362 554.581C614.904 549.186 612.466 544.38 611.8 534.745C601.786 546.883 597.958 555.051 593.014 569.144Z" fill="#FF5257"/>
<path fill-rule="evenodd" clip-rule="evenodd" d="M850.207 818.077C845.861 809.838 844.048 804.688 842.671 795.374C838.103 795.976 834.307 797.293 831.181 800.242C831.496 806.579 833.603 814.16 837.383 824.029C841.874 818.957 844.983 817.096 850.207 818.077Z" fill="#A550A7"/>
<path fill-rule="evenodd" clip-rule="evenodd" d="M666.26 624.065C664.017 617.708 659.867 615.092 653.492 611.358C646.712 613.641 641.339 614.637 636.018 617.327C636.652 624.975 635.376 630.211 629.612 637.961C645.114 635.26 653.336 631.549 666.26 624.065Z" fill="#61BA47"/>
</g>
<defs>
<clipPath id="clip0_2240_35090">
<rect width="1440" height="1024" fill="white"/>
</clipPath>
</defs>
</svg>
