<svg width="1440" height="1024" viewBox="0 0 1440 1024" fill="none" xmlns="http://www.w3.org/2000/svg">
<g clip-path="url(#clip0_2240_34637)">
<path fill-rule="evenodd" clip-rule="evenodd" d="M1302.22 887.361C1310.83 890.913 1315.52 893.713 1322.53 899.992C1325.66 896.607 1327.73 893.166 1328.25 888.9C1323.95 884.23 1317.49 879.751 1308.27 874.582C1308.06 881.354 1306.86 884.773 1302.22 887.361Z" fill="#FFC700"/>
<path fill-rule="evenodd" clip-rule="evenodd" d="M1019.08 464.906C1018.62 471.631 1021.39 475.68 1025.75 481.638C1032.88 482.236 1038.21 483.455 1044.16 483.1C1046.62 475.829 1049.87 471.53 1058.23 466.707C1042.93 463.029 1033.92 463.17 1019.08 464.906Z" fill="#F74F9E"/>
<path fill-rule="evenodd" clip-rule="evenodd" d="M1343.53 778.163C1350.14 779.52 1354.52 777.312 1361 773.776C1362.54 766.79 1364.46 761.672 1364.9 755.726C1358.02 752.326 1354.19 748.533 1350.52 739.598C1344.85 754.273 1343.79 763.231 1343.53 778.163Z" fill="#F74F9E"/>
<path fill-rule="evenodd" clip-rule="evenodd" d="M1313.49 842.035C1318.82 849.673 1321.25 854.561 1323.77 863.634C1328.23 862.473 1331.83 860.697 1334.57 857.385C1333.47 851.135 1330.45 843.872 1325.48 834.545C1321.65 840.132 1318.79 842.363 1313.49 842.035Z" fill="#FF5257"/>
<path fill-rule="evenodd" clip-rule="evenodd" d="M169.036 686.137C162.931 693.171 158.787 696.727 150.604 701.384C152.82 705.424 155.423 708.485 159.304 710.331C165.097 707.741 171.399 703.032 179.23 695.934C172.875 693.585 170.014 691.361 169.036 686.137Z" fill="#A550A7"/>
<path fill-rule="evenodd" clip-rule="evenodd" d="M1247.05 525.902C1245.12 516.79 1244.78 511.34 1246 502.004C1241.44 501.337 1237.43 501.569 1233.62 503.553C1232.19 509.736 1232.15 517.603 1233.09 528.13C1238.8 524.475 1242.3 523.533 1247.05 525.902Z" fill="#61BA47"/>
<path fill-rule="evenodd" clip-rule="evenodd" d="M1110.06 571.233C1108.47 562.055 1108.33 556.596 1109.9 547.312C1105.37 546.474 1101.35 546.556 1097.47 548.395C1095.81 554.521 1095.48 562.381 1096.02 572.936C1101.86 569.497 1105.39 568.687 1110.06 571.233Z" fill="#FF5257"/>
<path fill-rule="evenodd" clip-rule="evenodd" d="M690.062 812.622C685.136 808.021 680.246 807.619 672.867 807.253C667.91 812.41 663.605 815.776 660.129 820.621C664.225 827.11 665.513 832.344 663.982 841.88C676.482 832.321 682.059 825.231 690.062 812.622Z" fill="#F74F9E"/>
<path fill-rule="evenodd" clip-rule="evenodd" d="M968.202 270.744C972.212 265.326 972.056 260.422 971.579 253.05C965.891 248.712 962.057 244.818 956.849 241.916C950.867 246.724 945.814 248.599 936.166 248.164C947.085 259.495 954.764 264.228 968.202 270.744Z" fill="#F74F9E"/>
<path fill-rule="evenodd" clip-rule="evenodd" d="M90.0573 343.307C86.3109 334.779 84.8701 329.512 84.1621 320.124C79.5625 320.398 75.6818 321.441 72.3536 324.159C72.2155 330.503 73.7754 338.214 76.8408 348.328C81.6826 343.59 84.9171 341.955 90.0573 343.307Z" fill="#F74F9E"/>
<path fill-rule="evenodd" clip-rule="evenodd" d="M1308.68 314.159C1306.84 307.672 1302.87 304.796 1296.74 300.663C1289.83 302.509 1284.41 303.16 1278.93 305.505C1279.07 313.179 1277.46 318.323 1271.22 325.689C1286.86 323.982 1295.3 320.803 1308.68 314.159Z" fill="#F74F9E"/>
<path fill-rule="evenodd" clip-rule="evenodd" d="M712.449 695.379C713.667 686.144 715.167 680.894 719.429 672.499C715.354 670.348 711.495 669.228 707.24 669.826C703.832 675.179 701.168 682.582 698.545 692.82C705.142 691.278 708.755 691.558 712.449 695.379Z" fill="#007AFF"/>
<path fill-rule="evenodd" clip-rule="evenodd" d="M626.392 870.825C624.926 877.404 627.06 881.823 630.489 888.366C637.449 890.021 642.534 892.023 648.471 892.561C651.986 885.738 655.842 881.973 664.836 878.454C650.257 872.532 641.318 871.324 626.392 870.825Z" fill="#61BA47"/>
<path fill-rule="evenodd" clip-rule="evenodd" d="M1215.22 511.903C1205.99 510.708 1200.73 509.223 1192.33 504.982C1190.19 509.063 1189.08 512.925 1189.68 517.178C1195.05 520.572 1202.46 523.217 1212.7 525.814C1211.14 519.221 1211.41 515.607 1215.22 511.903Z" fill="#FF5257"/>
<path fill-rule="evenodd" clip-rule="evenodd" d="M781.528 813.016C780.065 819.596 782.2 824.014 785.631 830.556C792.59 832.21 797.676 834.21 803.614 834.746C807.126 827.922 810.981 824.157 819.975 820.635C805.394 814.717 796.455 813.511 781.528 813.016Z" fill="#F74F9E"/>
<path fill-rule="evenodd" clip-rule="evenodd" d="M403.91 334.448C397.992 337.675 396.07 342.189 393.399 349.077C396.732 355.407 398.571 360.553 402.074 365.377C409.524 363.533 414.896 363.959 423.465 368.416C418.33 353.542 413.357 346.016 403.91 334.448Z" fill="#FF5257"/>
<path fill-rule="evenodd" clip-rule="evenodd" d="M1011.24 745.94C1008.06 739.996 1003.56 738.038 996.693 735.313C990.337 738.596 985.177 740.395 980.325 743.859C982.109 751.323 981.641 756.692 977.117 765.226C992.031 760.208 999.596 755.295 1011.24 745.94Z" fill="#F74F9E"/>
<path fill-rule="evenodd" clip-rule="evenodd" d="M593.637 482.968C598.942 475.312 602.676 471.328 610.305 465.81C607.664 462.034 604.744 459.274 600.686 457.861C595.208 461.064 589.454 466.429 582.441 474.336C589.013 475.981 592.098 477.881 593.637 482.968Z" fill="#007AFF"/>
<path fill-rule="evenodd" clip-rule="evenodd" d="M910.725 417.168C906.315 422.266 906.098 427.167 906.014 434.555C911.356 439.312 914.883 443.486 919.856 446.776C926.185 442.436 931.366 440.95 940.953 442.117C930.926 429.989 923.63 424.687 910.725 417.168Z" fill="#A550A7"/>
<path fill-rule="evenodd" clip-rule="evenodd" d="M676.553 304.225C684.502 299.372 689.53 297.24 698.739 295.282C697.852 290.761 696.299 287.055 693.161 284.12C686.855 284.831 679.422 287.409 669.808 291.799C675.152 295.964 677.204 298.951 676.553 304.225Z" fill="#A550A7"/>
<path fill-rule="evenodd" clip-rule="evenodd" d="M712.266 801.263C716.979 806.082 721.846 806.705 729.201 807.403C734.386 802.475 738.839 799.307 742.53 794.625C738.731 787.956 737.681 782.67 739.641 773.213C726.722 782.197 720.831 789.028 712.266 801.263Z" fill="#FFC700"/>
<path fill-rule="evenodd" clip-rule="evenodd" d="M964.774 164.279C971.505 163.901 975.176 160.646 980.541 155.567C980.243 148.42 980.787 142.983 979.69 137.122C972.169 135.595 967.498 132.907 961.666 125.208C959.93 140.848 961.198 149.779 964.774 164.279Z" fill="#FFC700"/>
<path fill-rule="evenodd" clip-rule="evenodd" d="M1222.54 512.503C1213.56 514.996 1208.14 515.672 1198.75 515.035C1198.36 519.627 1198.84 523.616 1201.06 527.298C1207.32 528.338 1215.17 527.893 1225.62 526.3C1221.62 520.833 1220.47 517.398 1222.54 512.503Z" fill="#FFC700"/>
<path fill-rule="evenodd" clip-rule="evenodd" d="M506.793 889.645C498.629 894.128 493.51 896.027 484.22 897.56C484.899 902.118 486.28 905.891 489.28 908.967C495.612 908.545 503.155 906.312 512.96 902.367C507.813 897.962 505.9 894.884 506.793 889.645Z" fill="#FF5257"/>
<path fill-rule="evenodd" clip-rule="evenodd" d="M105.001 425.241C99.6794 421.103 94.773 421.143 87.3916 421.445C82.9197 427.029 78.9362 430.77 75.9117 435.908C80.577 442.002 82.3318 447.097 81.668 456.733C93.2542 446.085 98.168 438.521 105.001 425.241Z" fill="#FF5257"/>
<path fill-rule="evenodd" clip-rule="evenodd" d="M1088.01 1009.94C1086.78 1003.31 1083.09 1000.08 1077.37 995.407C1070.32 996.609 1064.86 996.758 1059.18 998.589C1058.62 1006.24 1056.55 1011.22 1049.65 1017.98C1065.38 1017.72 1074.08 1015.33 1088.01 1009.94Z" fill="#A550A7"/>
<path fill-rule="evenodd" clip-rule="evenodd" d="M627.371 942.502C634.105 942.186 637.807 938.966 643.219 933.938C642.988 926.788 643.583 921.356 642.541 915.486C635.034 913.888 630.388 911.157 624.629 903.404C622.747 919.026 623.93 927.968 627.371 942.502Z" fill="#FFC700"/>
<path fill-rule="evenodd" clip-rule="evenodd" d="M1262.92 513.597C1256.32 514.987 1253.18 518.759 1248.65 524.589C1250.02 531.609 1250.31 537.067 1252.27 542.694C1259.94 543.068 1264.96 545.02 1271.89 551.75C1271.25 536.028 1268.64 527.391 1262.92 513.597Z" fill="#007AFF"/>
<path fill-rule="evenodd" clip-rule="evenodd" d="M505.212 809.878C502.771 816.161 504.213 820.851 506.615 827.837C513.245 830.524 517.969 833.27 523.758 834.698C528.262 828.484 532.642 825.344 542.064 823.223C528.547 815.168 519.892 812.625 505.212 809.878Z" fill="#F74F9E"/>
<path fill-rule="evenodd" clip-rule="evenodd" d="M1236.84 862.046C1229.16 856.77 1225.16 853.052 1219.62 845.444C1215.85 848.1 1213.1 851.03 1211.71 855.093C1214.93 860.559 1220.32 866.292 1228.25 873.276C1229.87 866.698 1231.76 863.605 1236.84 862.046Z" fill="#61BA47"/>
<path fill-rule="evenodd" clip-rule="evenodd" d="M968.353 478.053C961.638 478.648 958.073 482.019 952.875 487.268C953.404 494.402 953.035 499.854 954.32 505.676C961.886 506.96 966.642 509.496 972.719 517.003C973.95 501.315 972.395 492.43 968.353 478.053Z" fill="#F74F9E"/>
<path fill-rule="evenodd" clip-rule="evenodd" d="M644.072 549.46C648.294 544.205 648.332 539.299 648.148 531.913C642.637 527.353 638.96 523.31 633.871 520.204C627.704 524.771 622.581 526.444 612.957 525.626C623.418 537.381 630.903 542.415 644.072 549.46Z" fill="#FFC700"/>
<path fill-rule="evenodd" clip-rule="evenodd" d="M930.235 708.186C923.783 706.234 919.218 708.032 912.437 710.964C910.267 717.78 907.891 722.702 906.913 728.583C913.454 732.596 916.921 736.722 919.76 745.954C926.752 731.857 928.624 723.033 930.235 708.186Z" fill="#FF5257"/>
<path fill-rule="evenodd" clip-rule="evenodd" d="M1092.34 233.846C1088.92 239.655 1089.59 244.515 1090.83 251.797C1096.95 255.514 1101.17 258.984 1106.65 261.323C1112.1 255.913 1116.92 253.518 1126.56 252.938C1114.52 242.816 1106.38 238.915 1092.34 233.846Z" fill="#F74F9E"/>
<path fill-rule="evenodd" clip-rule="evenodd" d="M1312.95 975.581C1319.61 976.621 1323.89 974.207 1330.2 970.366C1331.4 963.314 1333.07 958.111 1333.23 952.151C1326.19 949.082 1322.19 945.476 1318.1 936.726C1313.13 951.655 1312.49 960.653 1312.95 975.581Z" fill="#007AFF"/>
<path fill-rule="evenodd" clip-rule="evenodd" d="M675.566 20.1946C666.657 17.4776 661.723 15.1371 654.142 9.55472C651.352 13.2217 649.613 16.8447 649.505 21.1401C654.226 25.3799 661.091 29.2232 670.76 33.4909C670.322 26.7304 671.191 23.2119 675.566 20.1946Z" fill="#FFC700"/>
<path fill-rule="evenodd" clip-rule="evenodd" d="M1187.69 378.56C1190.96 384.455 1195.49 386.345 1202.39 388.965C1208.7 385.586 1213.83 383.71 1218.63 380.173C1216.73 372.737 1217.12 367.361 1221.52 358.76C1206.68 364.003 1199.19 369.03 1187.69 378.56Z" fill="#FF5257"/>
<path fill-rule="evenodd" clip-rule="evenodd" d="M443.078 661.029C443.264 654.291 440.328 650.36 435.715 644.589C428.568 644.289 423.195 643.292 417.264 643.895C415.113 651.262 412.044 655.693 403.885 660.86C419.325 663.898 428.33 663.381 443.078 661.029Z" fill="#F74F9E"/>
<path fill-rule="evenodd" clip-rule="evenodd" d="M35.6471 511.195C42.4149 517.594 45.7906 521.887 50.0938 530.261C54.2248 528.219 57.3943 525.749 59.4037 521.951C57.0638 516.053 52.6278 509.555 45.8704 501.429C43.2525 507.678 40.9083 510.441 35.6471 511.195Z" fill="#FFC700"/>
<path fill-rule="evenodd" clip-rule="evenodd" d="M261.462 114.636C252.994 110.757 248.416 107.781 241.645 101.239C238.391 104.502 236.186 107.861 235.507 112.104C239.622 116.934 245.914 121.657 254.929 127.174C255.395 120.416 256.724 117.044 261.462 114.636Z" fill="#A550A7"/>
<path fill-rule="evenodd" clip-rule="evenodd" d="M643.082 650.144C651.654 646.501 656.938 645.124 666.334 644.529C666.116 639.926 665.119 636.033 662.442 632.673C656.1 632.458 648.371 633.925 638.22 636.868C642.9 641.767 644.495 645.021 643.082 650.144Z" fill="#FFC700"/>
<path fill-rule="evenodd" clip-rule="evenodd" d="M540.415 636.439C545.004 641.377 549.853 642.125 557.188 643.011C562.497 638.217 567.029 635.163 570.839 630.577C567.212 623.814 566.297 618.503 568.498 609.099C555.354 617.75 549.29 624.428 540.415 636.439Z" fill="#007AFF"/>
<path fill-rule="evenodd" clip-rule="evenodd" d="M967.054 248.143C973.775 247.615 977.373 244.28 982.624 239.083C982.166 231.944 982.59 226.496 981.363 220.661C973.81 219.302 969.08 216.719 963.078 209.151C961.691 224.826 963.156 233.726 967.054 248.143Z" fill="#F74F9E"/>
<path fill-rule="evenodd" clip-rule="evenodd" d="M595.475 878.265C597.809 869.248 599.936 864.219 605.189 856.405C601.406 853.775 597.712 852.193 593.416 852.268C589.382 857.167 585.836 864.19 581.986 874.032C588.721 873.305 592.274 874.023 595.475 878.265Z" fill="#007AFF"/>
<path fill-rule="evenodd" clip-rule="evenodd" d="M1112.17 844.506C1106.85 852.15 1103.1 856.126 1095.46 861.625C1098.09 865.407 1101.01 868.174 1105.06 869.597C1110.55 866.407 1116.31 861.055 1123.35 853.165C1116.78 851.505 1113.7 849.597 1112.17 844.506Z" fill="#A550A7"/>
<path fill-rule="evenodd" clip-rule="evenodd" d="M334.431 983.454C328.084 981.183 323.435 982.753 316.516 985.344C314.011 992.044 311.393 996.841 310.124 1002.67C316.458 1007 319.715 1011.29 322.092 1020.65C329.776 1006.92 332.084 998.203 334.431 983.454Z" fill="#007AFF"/>
<path fill-rule="evenodd" clip-rule="evenodd" d="M829.487 726.455C835.693 729.088 840.425 727.79 847.481 725.603C850.37 719.058 853.26 714.42 854.864 708.678C848.791 703.986 845.787 699.512 843.955 690.029C835.49 703.294 832.683 711.866 829.487 726.455Z" fill="#F74F9E"/>
<path fill-rule="evenodd" clip-rule="evenodd" d="M164.134 639.174C171.811 633.9 176.716 631.5 185.806 629.05C184.677 624.582 182.927 620.965 179.636 618.203C173.378 619.253 166.094 622.227 156.73 627.129C162.29 631 164.501 633.872 164.134 639.174Z" fill="#F74F9E"/>
<path fill-rule="evenodd" clip-rule="evenodd" d="M1213.47 978.957C1207.66 975.55 1202.8 976.231 1195.52 977.495C1191.82 983.616 1188.36 987.845 1186.03 993.334C1191.45 998.766 1193.86 1003.59 1194.46 1013.23C1204.55 1001.16 1208.44 993.016 1213.47 978.957Z" fill="#FF5257"/>
<path fill-rule="evenodd" clip-rule="evenodd" d="M792.839 304.927C797.856 300.424 798.687 295.589 799.699 288.271C794.998 282.879 792.024 278.295 787.504 274.406C780.679 277.916 775.353 278.739 765.988 276.375C774.41 289.667 780.983 295.846 792.839 304.927Z" fill="#F74F9E"/>
<path fill-rule="evenodd" clip-rule="evenodd" d="M646.558 641.861C640.537 644.893 638.469 649.342 635.575 656.139C638.7 662.574 640.37 667.777 643.714 672.714C651.22 671.114 656.575 671.715 664.994 676.448C660.347 661.414 655.622 653.731 646.558 641.861Z" fill="#F74F9E"/>
<path fill-rule="evenodd" clip-rule="evenodd" d="M815.176 850.711C823.412 846.361 828.562 844.544 837.875 843.163C837.271 838.595 835.951 834.799 833.001 831.675C826.663 831.994 819.084 834.105 809.217 837.89C814.291 842.378 816.154 845.487 815.176 850.711Z" fill="#61BA47"/>
<path fill-rule="evenodd" clip-rule="evenodd" d="M969.892 535.343C973.642 529.74 973.253 524.849 972.427 517.508C966.54 513.444 962.525 509.736 957.185 507.085C951.439 512.171 946.48 514.284 936.822 514.306C948.266 525.107 956.161 529.47 969.892 535.343Z" fill="#A550A7"/>
<path fill-rule="evenodd" clip-rule="evenodd" d="M332.279 735.694C340.459 740.148 344.821 743.433 351.125 750.427C354.595 747.396 357.027 744.197 357.997 740.011C354.225 734.908 348.274 729.763 339.662 723.637C338.73 730.347 337.172 733.619 332.279 735.694Z" fill="#F74F9E"/>
<path fill-rule="evenodd" clip-rule="evenodd" d="M258.58 439.395C260.943 445.708 265.142 448.246 271.587 451.858C278.322 449.447 283.675 448.35 288.944 445.56C288.166 437.925 289.343 432.666 294.959 424.808C279.511 427.802 271.361 431.668 258.58 439.395Z" fill="#FFC700"/>
<path fill-rule="evenodd" clip-rule="evenodd" d="M476.072 784.122C475.823 774.811 476.478 769.39 479.368 760.429C475.005 758.946 471.018 758.447 466.91 759.707C464.387 765.529 462.919 773.258 461.938 783.781C468.211 781.222 471.823 780.93 476.072 784.122Z" fill="#A550A7"/>
<path fill-rule="evenodd" clip-rule="evenodd" d="M285.734 676.745C291.011 680.941 295.917 680.954 303.301 680.733C307.834 675.198 311.858 671.501 314.939 666.397C310.34 660.252 308.641 655.138 309.41 645.51C297.708 656.031 292.712 663.541 285.734 676.745Z" fill="#FF5257"/>
<path fill-rule="evenodd" clip-rule="evenodd" d="M612.731 198.856C619.472 198.853 623.319 195.807 628.959 191.035C629.058 183.882 629.904 178.483 629.134 172.571C621.71 170.628 617.195 167.684 611.801 159.673C609.198 175.192 609.967 184.179 612.731 198.856Z" fill="#FF5257"/>
<path fill-rule="evenodd" clip-rule="evenodd" d="M664.044 732.177C670.785 732.195 674.641 729.162 680.296 724.408C680.419 717.255 681.282 711.859 680.532 705.945C673.114 703.977 668.609 701.019 663.24 692.991C660.587 708.501 661.326 717.491 664.044 732.177Z" fill="#A550A7"/>
<path fill-rule="evenodd" clip-rule="evenodd" d="M854.852 471.538C846.97 466.577 842.824 463.023 836.975 455.645C833.319 458.45 830.691 461.489 829.458 465.606C832.9 470.937 838.514 476.448 846.723 483.105C848.076 476.467 849.838 473.301 854.852 471.538Z" fill="#A550A7"/>
<path fill-rule="evenodd" clip-rule="evenodd" d="M654.402 245.112C649.281 240.728 644.378 240.538 636.99 240.492C632.261 245.859 628.105 249.408 624.842 254.397C629.215 260.704 630.728 265.877 629.611 275.47C641.686 265.38 646.951 258.056 654.402 245.112Z" fill="#61BA47"/>
<path fill-rule="evenodd" clip-rule="evenodd" d="M80.0868 749.051C74.9204 744.721 70.0158 744.582 62.6283 744.613C57.9548 750.029 53.8368 753.621 50.6261 758.645C55.0649 764.906 56.6317 770.062 55.6152 779.667C67.5839 769.451 72.7716 762.072 80.0868 749.051Z" fill="#A550A7"/>
<path fill-rule="evenodd" clip-rule="evenodd" d="M1326.22 881.021C1321.14 873.214 1318.87 868.25 1316.64 859.101C1312.15 860.118 1308.49 861.777 1305.65 864.999C1306.54 871.281 1309.33 878.637 1314 888.12C1318 882.659 1320.93 880.521 1326.22 881.021Z" fill="#61BA47"/>
</g>
<defs>
<clipPath id="clip0_2240_34637">
<rect width="1440" height="1024" fill="white"/>
</clipPath>
</defs>
</svg>
