<svg width="32" height="32" viewBox="0 0 32 32" fill="none" xmlns="http://www.w3.org/2000/svg">
<path d="M15.9974 24C15.8319 23.9998 15.6691 23.9586 15.5234 23.88L2.52344 16.88L3.47144 15.12L15.9974 21.864L28.5234 15.12L29.4714 16.88L16.4714 23.88C16.3258 23.9586 16.1629 23.9998 15.9974 24Z" fill="#323538"/>
<path d="M15.999 30C15.8335 29.9998 15.6707 29.9586 15.525 29.88L2.52503 22.88L3.47303 21.12L15.999 27.864L28.525 21.12L29.473 22.88L16.473 29.88C16.3274 29.9586 16.1645 29.9998 15.999 30ZM15.999 18C15.8335 17.9998 15.6707 17.9586 15.525 17.88L2.52503 10.88C2.36628 10.7943 2.23366 10.6672 2.14123 10.5123C2.0488 10.3574 2 10.1804 2 9.99996C2 9.81956 2.0488 9.64252 2.14123 9.4876C2.23366 9.33268 2.36628 9.20565 2.52503 9.11996L15.525 2.11996C15.6707 2.04154 15.8336 2.00049 15.999 2.00049C16.1645 2.00049 16.3273 2.04154 16.473 2.11996L29.473 9.11996C29.6318 9.20565 29.7644 9.33268 29.8568 9.4876C29.9493 9.64252 29.9981 9.81956 29.9981 9.99996C29.9981 10.1804 29.9493 10.3574 29.8568 10.5123C29.7644 10.6672 29.6318 10.7943 29.473 10.88L16.473 17.88C16.3274 17.9586 16.1645 17.9998 15.999 18ZM5.10903 9.99996L15.999 15.864L26.889 9.99996L15.999 4.13596L5.10903 9.99996Z" fill="#323538"/>
</svg>
