<svg width="38" height="38" viewBox="0 0 38 38" fill="none" xmlns="http://www.w3.org/2000/svg">
<path d="M27.3125 8.3125H32.0625V13.0625H27.3125V8.3125ZM27.3125 15.4375H32.0625V20.1875H27.3125V15.4375ZM20.1875 8.3125H24.9375V13.0625H20.1875V8.3125ZM20.1875 15.4375H24.9375V20.1875H20.1875V15.4375Z" fill="white"/>
<path d="M17.2188 30.875C18.2025 30.875 19 30.0775 19 29.0938C19 28.11 18.2025 27.3125 17.2188 27.3125C16.235 27.3125 15.4375 28.11 15.4375 29.0938C15.4375 30.0775 16.235 30.875 17.2188 30.875Z" fill="white"/>
<path d="M24.9375 35.625H9.5C8.87011 35.625 8.26602 35.3748 7.82062 34.9294C7.37522 34.484 7.125 33.8799 7.125 33.25V4.75C7.125 4.12011 7.37522 3.51602 7.82062 3.07062C8.26602 2.62522 8.87011 2.375 9.5 2.375H24.9375V4.75H9.5V33.25H24.9375V23.75H27.3125V33.25C27.3125 33.8799 27.0623 34.484 26.6169 34.9294C26.1715 35.3748 25.5674 35.625 24.9375 35.625Z" fill="white"/>
</svg>
