<svg width="36" height="36" viewBox="0 0 36 36" fill="none" xmlns="http://www.w3.org/2000/svg">
<path d="M33.1875 8H2.8125C2.36512 8.00056 1.93622 8.17853 1.61987 8.49487C1.30353 8.81122 1.12556 9.24012 1.125 9.6875V26.5625C1.12556 27.0099 1.30353 27.4388 1.61987 27.7551C1.93622 28.0715 2.36512 28.2494 2.8125 28.25H33.1875C33.6349 28.2494 34.0638 28.0715 34.3801 27.7551C34.6965 27.4388 34.8744 27.0099 34.875 26.5625V9.6875C34.8744 9.24012 34.6965 8.81122 34.3801 8.49487C34.0638 8.17853 33.6349 8.00056 33.1875 8ZM32.625 26H3.375V10.25H32.625V26Z" fill="#323538"/>
<path d="M10.125 21H21.375V23.25H10.125V21ZM5.625 21H7.875V23.25H5.625V21ZM28.125 21H30.375V23.25H28.125V21ZM23.625 21H25.875V23.25H23.625V21ZM25.875 16.5H28.125V18.75H25.875V16.5ZM21.375 16.5H23.625V18.75H21.375V16.5ZM16.875 16.5H19.125V18.75H16.875V16.5ZM12.375 16.5H14.625V18.75H12.375V16.5ZM7.875 16.5H10.125V18.75H7.875V16.5ZM23.625 12H25.875V14.25H23.625V12ZM28.125 12H30.375V14.25H28.125V12ZM19.125 12H21.375V14.25H19.125V12ZM14.625 12H16.875V14.25H14.625V12ZM10.125 12H12.375V14.25H10.125V12ZM5.625 12H7.875V14.25H5.625V12Z" fill="#323538"/>
</svg>
