<svg width="42" height="42" viewBox="0 0 42 42" fill="none" xmlns="http://www.w3.org/2000/svg">
<path d="M38.7188 9.33334H3.28125C2.75931 9.33399 2.25892 9.54163 1.88985 9.9107C1.52078 10.2798 1.31315 10.7801 1.3125 11.3021V30.9896C1.31315 31.5115 1.52078 32.0119 1.88985 32.381C2.25892 32.7501 2.75931 32.9577 3.28125 32.9583H38.7188C39.2407 32.9577 39.7411 32.7501 40.1101 32.381C40.4792 32.0119 40.6868 31.5115 40.6875 30.9896V11.3021C40.6868 10.7801 40.4792 10.2798 40.1101 9.9107C39.7411 9.54163 39.2407 9.33399 38.7188 9.33334ZM38.0625 30.3333H3.9375V11.9583H38.0625V30.3333Z" fill="white"/>
<path d="M11.8125 24.5H24.9375V27.125H11.8125V24.5ZM6.5625 24.5H9.1875V27.125H6.5625V24.5ZM32.8125 24.5H35.4375V27.125H32.8125V24.5ZM27.5625 24.5H30.1875V27.125H27.5625V24.5ZM30.1875 19.25H32.8125V21.875H30.1875V19.25ZM24.9375 19.25H27.5625V21.875H24.9375V19.25ZM19.6875 19.25H22.3125V21.875H19.6875V19.25ZM14.4375 19.25H17.0625V21.875H14.4375V19.25ZM9.1875 19.25H11.8125V21.875H9.1875V19.25ZM27.5625 14H30.1875V16.625H27.5625V14ZM32.8125 14H35.4375V16.625H32.8125V14ZM22.3125 14H24.9375V16.625H22.3125V14ZM17.0625 14H19.6875V16.625H17.0625V14ZM11.8125 14H14.4375V16.625H11.8125V14ZM6.5625 14H9.1875V16.625H6.5625V14Z" fill="white"/>
</svg>
