<svg width="38" height="38" viewBox="0 0 38 38" fill="none" xmlns="http://www.w3.org/2000/svg">
<path d="M11.9463 21.2325C12.3119 21.321 12.6863 21.3688 13.0625 21.375C14.0058 21.3748 14.9277 21.0936 15.7106 20.5675L19.5344 23.9756C19.2315 24.5508 19.0537 25.1836 19.0128 25.8324C18.9718 26.4812 19.0687 27.1313 19.2969 27.74C19.5366 28.4297 19.9321 29.0548 20.4526 29.5669C20.9731 30.0789 21.6047 30.4641 22.2983 30.6924C22.9918 30.9207 23.7287 30.9861 24.4516 30.8834C25.1745 30.7807 25.864 30.5128 26.4665 30.1004C27.0691 29.6879 27.5684 29.1422 27.9258 28.5054C28.2832 27.8687 28.4889 27.1582 28.5271 26.429C28.5653 25.6998 28.4349 24.9717 28.1459 24.3011C27.857 23.6305 27.4174 23.0356 26.8613 22.5625L29.8775 16.5181C30.4662 16.6509 31.0757 16.6636 31.6694 16.5555C32.2632 16.4473 32.829 16.2206 33.3331 15.8888C34.1892 15.3663 34.8579 14.5863 35.2435 13.6605C35.6292 12.7347 35.7118 11.7105 35.4797 10.7349C35.2476 9.75919 34.7126 8.88201 33.9514 8.229C33.1903 7.576 32.2419 7.18068 31.2423 7.09969C30.2426 7.0187 29.243 7.25618 28.3866 7.77812C27.5302 8.30007 26.861 9.07968 26.4749 10.0053C26.0887 10.9308 26.0055 11.9549 26.237 12.9307C26.4685 13.9065 27.0029 14.784 27.7637 15.4375L24.7475 21.4819C24.4197 21.4111 24.0853 21.3753 23.75 21.375C22.8067 21.3752 21.8848 21.6564 21.1019 22.1825L17.2781 18.7744C17.581 18.1992 17.7588 17.5664 17.7997 16.9176C17.8407 16.2688 17.7438 15.6187 17.5156 15.01C17.2777 14.3253 16.8862 13.7042 16.3712 13.1941C15.8561 12.6841 15.2312 12.2987 14.5442 12.0674C13.8572 11.8362 13.1265 11.7652 12.4078 11.86C11.6892 11.9548 11.0018 12.2127 10.3983 12.6142C9.79471 13.0156 9.29105 13.5498 8.92583 14.1759C8.56062 14.8021 8.34354 15.5035 8.29122 16.2264C8.23891 16.9494 8.35274 17.6747 8.62401 18.3469C8.89528 19.0191 9.31679 19.6202 9.85625 20.1044L4.75 29.6875V2.375H2.375V33.25C2.375 33.8799 2.62522 34.484 3.07062 34.9294C3.51602 35.3748 4.12011 35.625 4.75 35.625H35.625V33.25H5.54563L11.9463 21.2325ZM30.875 9.5C31.3447 9.5 31.8039 9.63929 32.1945 9.90026C32.585 10.1612 32.8895 10.5322 33.0692 10.9661C33.249 11.4001 33.296 11.8776 33.2044 12.3383C33.1127 12.799 32.8865 13.2222 32.5544 13.5544C32.2222 13.8865 31.799 14.1127 31.3383 14.2044C30.8776 14.296 30.4001 14.249 29.9661 14.0692C29.5322 13.8895 29.1612 13.585 28.9003 13.1945C28.6393 12.8039 28.5 12.3447 28.5 11.875C28.5 11.2451 28.7502 10.641 29.1956 10.1956C29.641 9.75022 30.2451 9.5 30.875 9.5ZM26.125 26.125C26.125 26.5947 25.9857 27.0539 25.7247 27.4445C25.4638 27.835 25.0928 28.1395 24.6589 28.3192C24.2249 28.499 23.7474 28.546 23.2867 28.4544C22.826 28.3627 22.4028 28.1365 22.0706 27.8044C21.7385 27.4722 21.5123 27.049 21.4206 26.5883C21.329 26.1276 21.376 25.6501 21.5558 25.2161C21.7355 24.7822 22.04 24.4112 22.4305 24.1503C22.8211 23.8893 23.2803 23.75 23.75 23.75C24.3799 23.75 24.984 24.0002 25.4294 24.4456C25.8748 24.891 26.125 25.4951 26.125 26.125ZM13.0625 14.25C13.5322 14.25 13.9914 14.3893 14.382 14.6503C14.7725 14.9112 15.077 15.2822 15.2567 15.7161C15.4365 16.1501 15.4835 16.6276 15.3919 17.0883C15.3002 17.549 15.074 17.9722 14.7419 18.3044C14.4097 18.6365 13.9865 18.8627 13.5258 18.9544C13.0651 19.046 12.5876 18.999 12.1536 18.8192C11.7197 18.6395 11.3487 18.335 11.0878 17.9445C10.8268 17.5539 10.6875 17.0947 10.6875 16.625C10.6875 15.9951 10.9377 15.391 11.3831 14.9456C11.8285 14.5002 12.4326 14.25 13.0625 14.25Z" fill="#F5F5F5"/>
</svg>
