<svg width="38" height="38" viewBox="0 0 38 38" fill="none" xmlns="http://www.w3.org/2000/svg">
<path d="M30.875 28.5C30.2451 28.5 29.641 28.7502 29.1956 29.1956C28.7502 29.641 28.5 30.2451 28.5 30.875C28.5 30.9653 28.5166 31.0519 28.5273 31.1398C25.8146 33.2825 22.4569 34.4447 19 34.4375C13.9389 34.4375 9.5 29.7208 9.5 24.3438C9.5 18.7779 14.0279 14.25 19.5938 14.25H20.1875V11.875H19.5938C12.7181 11.875 7.125 17.4681 7.125 24.3438C7.125 26.581 7.75437 28.7256 8.83144 30.5864C5.60975 27.7531 3.5625 23.6146 3.5625 19C3.5625 16.4884 4.14675 14.0921 5.29862 11.8798L3.192 10.7837C1.87611 13.3226 1.18869 16.1403 1.1875 19C1.1875 28.8218 9.17819 36.8125 19 36.8125C23.0066 36.8125 26.8161 35.4825 29.9309 33.0529C30.2547 33.1937 30.6058 33.2606 30.9587 33.2486C31.3116 33.2367 31.6573 33.1462 31.9708 32.9838C32.2843 32.8214 32.5577 32.5911 32.771 32.3097C32.9843 32.0283 33.1321 31.7029 33.2038 31.3572C33.2755 31.0115 33.2692 30.6541 33.1854 30.3111C33.1016 29.9682 32.9423 29.6482 32.7192 29.3745C32.4962 29.1008 32.2149 28.8803 31.8959 28.729C31.5768 28.5778 31.2281 28.4995 30.875 28.5Z" fill="white"/>
<path d="M15.4375 23.75V26.125H13.0625V23.75H15.4375ZM24.9375 11.875V14.25H22.5625V11.875H24.9375Z" fill="white"/>
<path d="M19 1.1875C14.9934 1.1875 11.1839 2.5175 8.06906 4.94712C7.59997 4.74392 7.07783 4.69749 6.58024 4.81475C6.08266 4.93201 5.63619 5.20669 5.30719 5.59797C4.97819 5.98926 4.78423 6.47625 4.75412 6.98658C4.72402 7.49691 4.85939 8.00333 5.1401 8.43058C5.42082 8.85782 5.8319 9.18309 6.31225 9.35804C6.7926 9.53298 7.31658 9.54826 7.80631 9.40161C8.29604 9.25496 8.72538 8.95421 9.03052 8.54405C9.33566 8.13389 9.50031 7.63622 9.5 7.125C9.5 7.03475 9.48338 6.94806 9.47269 6.86019C12.1854 4.71746 15.5431 3.55526 19 3.5625C24.0611 3.5625 28.5 8.27925 28.5 13.6562C28.5 19.2221 23.9721 23.75 18.4063 23.75H17.8125V26.125H18.4063C25.2819 26.125 30.875 20.5319 30.875 13.6562C30.875 11.4178 30.2432 9.272 29.165 7.41C32.3891 10.2434 34.4375 14.383 34.4375 19C34.4375 21.5116 33.8533 23.9079 32.7014 26.1203L34.808 27.2163C36.1239 24.6774 36.8113 21.8597 36.8125 19C36.8125 9.17819 28.8218 1.1875 19 1.1875Z" fill="white"/>
</svg>
