<svg width="38" height="38" viewBox="0 0 38 38" fill="none" xmlns="http://www.w3.org/2000/svg">
<path d="M34.9769 8.29254H27.3152V1.1875H10.7074V8.29254H3.06286C2.57551 8.29316 2.10829 8.48705 1.76369 8.83167C1.41908 9.17629 1.22522 9.64351 1.22461 10.1309V34.9223C1.22524 35.4096 1.41911 35.8768 1.76371 36.2214C2.10832 36.566 2.57552 36.7599 3.06286 36.7605H34.9769C35.4643 36.7599 35.9315 36.566 36.2761 36.2214C36.6207 35.8768 36.8145 35.4096 36.8152 34.9223V10.1309C36.8146 9.64351 36.6207 9.17629 36.2761 8.83167C35.9315 8.48705 35.4643 8.29316 34.9769 8.29254ZM13.0824 3.5625H24.9402V8.29254H13.0824V3.5625ZM34.3262 10.7817V16.7404L30.3794 20.6871H20.2644V17.2188H17.7754V20.6871H7.66034L3.71361 16.7404V10.7817H34.3262ZM3.71361 34.2715V20.2604L6.62937 23.1762H17.7754V26.6816H20.2644V23.1762H31.4104L34.3262 20.2604V34.2715H3.71361Z" fill="white"/>
</svg>
