<svg width="38" height="38" viewBox="0 0 38 38" fill="none" xmlns="http://www.w3.org/2000/svg">
<path d="M30.5188 11.0437L22.2063 2.73125C21.9688 2.49375 21.7312 2.375 21.375 2.375H9.5C8.19375 2.375 7.125 3.44375 7.125 4.75V33.25C7.125 34.5563 8.19375 35.625 9.5 35.625H28.5C29.8062 35.625 30.875 34.5563 30.875 33.25V11.875C30.875 11.5188 30.7563 11.2812 30.5188 11.0437ZM21.375 5.225L28.025 11.875H21.375V5.225ZM28.5 33.25H9.5V4.75H19V11.875C19 13.1812 20.0688 14.25 21.375 14.25H28.5V33.25Z" fill="white"/>
<path d="M11.875 26.125H26.125V28.5H11.875V26.125ZM11.875 19H26.125V21.375H11.875V19Z" fill="white"/>
</svg>
