<svg width="44" height="44" viewBox="0 0 44 44" fill="none" xmlns="http://www.w3.org/2000/svg">
<path d="M22 5.5C18.7366 5.5 15.5465 6.46771 12.8331 8.28075C10.1197 10.0938 8.00484 12.6707 6.756 15.6857C5.50715 18.7007 5.18039 22.0183 5.81705 25.219C6.45371 28.4197 8.02518 31.3597 10.3327 33.6673C12.6403 35.9748 15.5803 37.5463 18.781 38.183C21.9817 38.8196 25.2993 38.4929 28.3143 37.244C31.3293 35.9952 33.9062 33.8803 35.7193 31.1669C37.5323 28.4535 38.5 25.2634 38.5 22C38.5 17.6239 36.7616 13.4271 33.6673 10.3327C30.5729 7.23839 26.3761 5.5 22 5.5ZM35.75 20.625H23.375V8.31875C26.5432 8.6209 29.5085 10.0127 31.7652 12.2569C34.0219 14.501 35.4302 17.4585 35.75 20.625ZM21.2025 35.75C17.7201 35.588 14.4293 34.1094 11.9958 31.6132C9.56226 29.117 8.16774 25.7896 8.09437 22.3043C8.02099 18.8189 9.27424 15.4358 11.6005 12.8394C13.9269 10.243 17.1525 8.62713 20.625 8.31875V20.6937C20.625 21.4231 20.9147 22.1226 21.4305 22.6383C21.9462 23.154 22.6457 23.4437 23.375 23.4437H35.75C35.3842 26.9768 33.6653 30.2313 30.9535 32.5253C28.2417 34.8193 24.7473 35.9749 21.2025 35.75Z" fill="white"/>
</svg>
