<svg width="34" height="34" viewBox="0 0 34 34" fill="none" xmlns="http://www.w3.org/2000/svg">
<path d="M10.625 14.875C11.7986 14.875 12.75 13.9236 12.75 12.75C12.75 11.5764 11.7986 10.625 10.625 10.625C9.45139 10.625 8.5 11.5764 8.5 12.75C8.5 13.9236 9.45139 14.875 10.625 14.875Z" fill="#323538"/>
<path d="M17 11.6875C18.1736 11.6875 19.125 10.7361 19.125 9.5625C19.125 8.38889 18.1736 7.4375 17 7.4375C15.8264 7.4375 14.875 8.38889 14.875 9.5625C14.875 10.7361 15.8264 11.6875 17 11.6875Z" fill="#323538"/>
<path d="M23.375 14.875C24.5486 14.875 25.5 13.9236 25.5 12.75C25.5 11.5764 24.5486 10.625 23.375 10.625C22.2014 10.625 21.25 11.5764 21.25 12.75C21.25 13.9236 22.2014 14.875 23.375 14.875Z" fill="#323538"/>
<path d="M24.4375 21.25C25.6111 21.25 26.5625 20.2986 26.5625 19.125C26.5625 17.9514 25.6111 17 24.4375 17C23.2639 17 22.3125 17.9514 22.3125 19.125C22.3125 20.2986 23.2639 21.25 24.4375 21.25Z" fill="#323538"/>
<path d="M20.1875 26.5625C21.3611 26.5625 22.3125 25.6111 22.3125 24.4375C22.3125 23.2639 21.3611 22.3125 20.1875 22.3125C19.0139 22.3125 18.0625 23.2639 18.0625 24.4375C18.0625 25.6111 19.0139 26.5625 20.1875 26.5625Z" fill="#323538"/>
<path d="M17.5738 2.12505C15.5726 2.04781 13.5765 2.37544 11.705 3.08832C9.83351 3.8012 8.12527 4.88463 6.68265 6.27367C5.24003 7.66272 4.09275 9.32876 3.30959 11.1719C2.52643 13.0151 2.12351 14.9974 2.125 17.0001C2.12495 17.7877 2.30658 18.5648 2.65577 19.2708C3.00496 19.9768 3.5123 20.5928 4.13833 21.0708C4.76436 21.5488 5.49221 21.8759 6.26528 22.0268C7.03835 22.1777 7.83581 22.1482 8.59563 21.9407L9.78563 21.6113C10.259 21.4821 10.7559 21.4639 11.2374 21.5582C11.719 21.6525 12.1723 21.8567 12.562 22.1549C12.9517 22.453 13.2673 22.8372 13.4842 23.2774C13.7011 23.7175 13.8135 24.2018 13.8125 24.6926V28.6876C13.8125 29.5329 14.1483 30.3437 14.7461 30.9415C15.3439 31.5392 16.1546 31.8751 17 31.8751C19.0026 31.8765 20.985 31.4736 22.8281 30.6905C24.6713 29.9073 26.3373 28.76 27.7264 27.3174C29.1154 25.8748 30.1989 24.1665 30.9117 22.2951C31.6246 20.4236 31.9522 18.4275 31.875 16.4263C31.7208 12.6828 30.1646 9.13408 27.5153 6.48476C24.866 3.83544 21.3173 2.27922 17.5738 2.12505ZM26.1906 25.8294C25.0043 27.0715 23.5778 28.0596 21.9979 28.7335C20.418 29.4075 18.7176 29.7533 17 29.7501C16.7182 29.7501 16.448 29.6381 16.2487 29.4389C16.0494 29.2396 15.9375 28.9693 15.9375 28.6876V24.6926C15.9375 23.2836 15.3778 21.9323 14.3815 20.936C13.3852 19.9398 12.034 19.3801 10.625 19.3801C10.1475 19.38 9.67219 19.4443 9.21188 19.5713L8.02188 19.9007C7.57741 20.0198 7.11149 20.0349 6.66022 19.9449C6.20896 19.8549 5.78449 19.6622 5.41972 19.3817C5.05496 19.1012 4.75971 18.7404 4.55685 18.3274C4.354 17.9144 4.249 17.4602 4.25 17.0001C4.24869 15.2828 4.59427 13.583 5.26602 12.0027C5.93776 10.4223 6.92183 8.9939 8.15918 7.80319C9.39653 6.61247 10.8617 5.68398 12.4667 5.07342C14.0717 4.46285 15.7835 4.1828 17.4994 4.25005C20.6945 4.41647 23.7148 5.76057 25.9771 8.02294C28.2395 10.2853 29.5836 13.3055 29.75 16.5007C29.8225 18.2176 29.5443 19.9312 28.9323 21.537C28.3203 23.1428 27.3874 24.6069 26.1906 25.8401V25.8294Z" fill="#323538"/>
</svg>
