<svg width="38" height="38" viewBox="0 0 38 38" fill="none" xmlns="http://www.w3.org/2000/svg">
<path d="M33.25 4.75H4.75C4.12011 4.75 3.51602 5.00022 3.07062 5.44562C2.62522 5.89102 2.375 6.49511 2.375 7.125V26.125C2.375 26.7549 2.62522 27.359 3.07062 27.8044C3.51602 28.2498 4.12011 28.5 4.75 28.5H14.25V33.25H9.5V35.625H28.5V33.25H23.75V28.5H33.25C33.8799 28.5 34.484 28.2498 34.9294 27.8044C35.3748 27.359 35.625 26.7549 35.625 26.125V7.125C35.625 6.49511 35.3748 5.89102 34.9294 5.44562C34.484 5.00022 33.8799 4.75 33.25 4.75ZM21.375 33.25H16.625V28.5H21.375V33.25ZM33.25 26.125H4.75V7.125H33.25V26.125Z" fill="white"/>
</svg>
