<svg width="38" height="38" viewBox="0 0 38 38" fill="none" xmlns="http://www.w3.org/2000/svg">
<path d="M30.875 16.625H28.5V19H30.875C31.8195 19.0009 32.7251 19.3766 33.393 20.0445C34.0609 20.7124 34.4366 21.618 34.4375 22.5625V27.3125H36.8125V22.5625C36.8106 20.9884 36.1845 19.4792 35.0714 18.3661C33.9583 17.253 32.4491 16.6269 30.875 16.625ZM28.5 4.75C29.2046 4.75 29.8934 4.95894 30.4792 5.35039C31.0651 5.74184 31.5217 6.29823 31.7913 6.94919C32.061 7.60015 32.1315 8.31645 31.994 9.00751C31.8566 9.69857 31.5173 10.3333 31.0191 10.8316C30.5208 11.3298 29.8861 11.6691 29.195 11.8065C28.504 11.944 27.7877 11.8735 27.1367 11.6038C26.4857 11.3342 25.9293 10.8776 25.5379 10.2917C25.1464 9.70587 24.9375 9.0171 24.9375 8.3125C24.9375 7.36767 25.3128 6.46153 25.9809 5.79343C26.649 5.12533 27.5552 4.75 28.5 4.75ZM28.5 2.375C27.3257 2.375 26.1777 2.72323 25.2013 3.37565C24.2249 4.02807 23.4639 4.95538 23.0145 6.04032C22.5651 7.12525 22.4475 8.31909 22.6766 9.47085C22.9057 10.6226 23.4712 11.6806 24.3016 12.5109C25.1319 13.3413 26.1899 13.9068 27.3417 14.1359C28.4934 14.365 29.6872 14.2474 30.7722 13.798C31.8571 13.3486 32.7844 12.5876 33.4369 11.6112C34.0893 10.6348 34.4375 9.48683 34.4375 8.3125C34.4375 6.73778 33.8119 5.22755 32.6984 4.11405C31.5849 3.00056 30.0747 2.375 28.5 2.375ZM27.3125 35.625H24.9375V33.25C24.9366 32.3055 24.5609 31.3999 23.893 30.732C23.2251 30.0641 22.3195 29.6884 21.375 29.6875H16.625C15.6805 29.6884 14.7749 30.0641 14.107 30.732C13.4391 31.3999 13.0634 32.3055 13.0625 33.25V35.625H10.6875V33.25C10.6894 31.6759 11.3155 30.1667 12.4286 29.0536C13.5417 27.9405 15.0509 27.3144 16.625 27.3125H21.375C22.9491 27.3144 24.4583 27.9405 25.5714 29.0536C26.6845 30.1667 27.3106 31.6759 27.3125 33.25V35.625ZM19 15.4375C19.7046 15.4375 20.3934 15.6464 20.9792 16.0379C21.5651 16.4293 22.0217 16.9857 22.2913 17.6367C22.561 18.2877 22.6315 19.004 22.494 19.695C22.3566 20.3861 22.0173 21.0208 21.5191 21.5191C21.0208 22.0173 20.3861 22.3566 19.695 22.494C19.004 22.6315 18.2877 22.561 17.6367 22.2913C16.9857 22.0217 16.4293 21.5651 16.0379 20.9792C15.6464 20.3934 15.4375 19.7046 15.4375 19C15.4375 18.0552 15.8128 17.149 16.4809 16.4809C17.149 15.8128 18.0552 15.4375 19 15.4375ZM19 13.0625C17.8257 13.0625 16.6777 13.4107 15.7013 14.0631C14.7249 14.7156 13.9639 15.6429 13.5145 16.7278C13.0651 17.8128 12.9475 19.0066 13.1766 20.1583C13.4057 21.3101 13.9712 22.3681 14.8016 23.1984C15.6319 24.0288 16.6899 24.5943 17.8417 24.8234C18.9934 25.0525 20.1872 24.9349 21.2722 24.4855C22.3571 24.0361 23.2844 23.2751 23.9369 22.2987C24.5893 21.3223 24.9375 20.1743 24.9375 19C24.9375 17.4253 24.3119 15.9151 23.1984 14.8016C22.0849 13.6881 20.5747 13.0625 19 13.0625ZM9.5 16.625H7.125C5.55086 16.6269 4.04172 17.253 2.92864 18.3661C1.81555 19.4792 1.18939 20.9884 1.1875 22.5625V27.3125H3.5625V22.5625C3.56344 21.618 3.93908 20.7124 4.60697 20.0445C5.27487 19.3766 6.18046 19.0009 7.125 19H9.5V16.625ZM9.5 4.75C10.2046 4.75 10.8934 4.95894 11.4792 5.35039C12.0651 5.74184 12.5217 6.29823 12.7913 6.94919C13.061 7.60015 13.1315 8.31645 12.994 9.00751C12.8566 9.69857 12.5173 10.3333 12.0191 10.8316C11.5208 11.3298 10.8861 11.6691 10.195 11.8065C9.50395 11.944 8.78765 11.8735 8.13669 11.6038C7.48573 11.3342 6.92934 10.8776 6.53789 10.2917C6.14644 9.70587 5.9375 9.0171 5.9375 8.3125C5.9375 7.36767 6.31283 6.46153 6.98093 5.79343C7.64903 5.12533 8.55517 4.75 9.5 4.75ZM9.5 2.375C8.32567 2.375 7.17772 2.72323 6.2013 3.37565C5.22488 4.02807 4.46386 4.95538 4.01447 6.04032C3.56507 7.12525 3.44749 8.31909 3.67659 9.47085C3.90569 10.6226 4.47118 11.6806 5.30155 12.5109C6.13193 13.3413 7.18989 13.9068 8.34165 14.1359C9.49341 14.365 10.6872 14.2474 11.7722 13.798C12.8571 13.3486 13.7844 12.5876 14.4369 11.6112C15.0893 10.6348 15.4375 9.48683 15.4375 8.3125C15.4375 6.73778 14.8119 5.22755 13.6984 4.11405C12.5849 3.00056 11.0747 2.375 9.5 2.375Z" fill="white"/>
</svg>
