<svg width="40" height="16" viewBox="0 0 40 16" fill="none" xmlns="http://www.w3.org/2000/svg">
<path d="M22.2012 7.49157L22.2012 2.49718C22.2012 1.83488 21.9694 1.19971 21.5569 0.731394C21.1443 0.263079 20.5848 -1.92108e-05 20.0014 -1.92604e-05C19.4179 -1.931e-05 18.8584 0.263078 18.4459 0.731393C18.0333 1.19971 17.8016 1.83488 17.8016 2.49718L17.8016 7.49157C17.8016 8.15387 18.0333 8.78904 18.4459 9.25736C18.8584 9.72567 19.4179 9.98877 20.0014 9.98877C20.5848 9.98877 21.1443 9.72567 21.5569 9.25736C21.9694 8.78904 22.2012 8.15387 22.2012 7.49157Z" fill="#FF7602" fill-opacity="0.6"/>
<path d="M8.56395 11.2108L4.93014 7.67921C4.44826 7.21089 3.82224 6.92103 3.1898 6.87338C2.55735 6.82574 1.97028 7.02422 1.55773 7.42515C1.14519 7.82609 0.94097 8.39664 0.989993 9.01129C1.03902 9.62594 1.33727 10.2343 1.81915 10.7027L5.45296 14.2342C5.93483 14.7026 6.56085 14.9924 7.1933 15.0401C7.82575 15.0877 8.41282 14.8892 8.82536 14.4883C9.23791 14.0874 9.44213 13.5168 9.39311 12.9022C9.34408 12.2875 9.04583 11.6791 8.56395 11.2108Z" fill="#FF7602" fill-opacity="0.8"/>
<path d="M35.0737 7.67936L31.4399 11.2109C30.958 11.6792 30.6598 12.2877 30.6107 12.9023C30.5617 13.517 30.7659 14.0875 31.1785 14.4884C31.591 14.8894 32.1781 15.0879 32.8106 15.0402C33.443 14.9926 34.069 14.7027 34.5509 14.2344L38.1847 10.7028C38.6666 10.2345 38.9648 9.62609 39.0139 9.01144C39.0629 8.39679 38.8587 7.82624 38.4461 7.4253C38.0336 7.02437 37.4465 6.82589 36.8141 6.87354C36.1816 6.92118 35.5556 7.21104 35.0737 7.67936Z" fill="#FF7602" fill-opacity="0.4"/>
</svg>
