<svg width="809" height="254" viewBox="0 0 809 254" fill="none" xmlns="http://www.w3.org/2000/svg">
<path fill-rule="evenodd" clip-rule="evenodd" d="M715.859 10.6664C727.016 10.418 739.875 0 751.035 0H788.794C799.953 0 809 9.04663 809 20.2062V233.794C809 244.953 799.953 254 788.794 254L751.035 254C739.876 254 727.016 243.582 715.859 243.333C715.69 243.33 715.52 243.328 715.35 243.328C715.18 243.328 715.01 243.33 714.842 243.333C703.685 243.582 690.825 254 679.665 254L21.2062 254C10.0466 254 1 244.953 1 233.794V20.2062C1 9.04663 10.0466 0 21.2062 0H679.665C690.825 0 703.685 10.418 714.841 10.6664C715.01 10.6702 715.18 10.6721 715.35 10.6721C715.52 10.6721 715.69 10.6702 715.859 10.6664Z" fill="#FFFEFE"/>
<path d="M1 183.647H808.999V233.647C808.999 244.693 800.045 253.647 788.999 253.647H21C9.95431 253.647 1 244.693 1 233.647V183.647Z" fill="#E8E8FF"/>
<line x1="0.960937" y1="184.233" x2="383.963" y2="184.233" stroke="#DDE0E4" stroke-width="0.957505" stroke-dasharray="3.83 3.83"/>
</svg>
