<svg width="27" height="27" viewBox="0 0 27 27" fill="none" xmlns="http://www.w3.org/2000/svg">
<g id="Clip path group">
<mask id="mask0_2555_2037" style="mask-type:luminance" maskUnits="userSpaceOnUse" x="0" y="0" width="27" height="27">
<g id="clip0_760_7197">
<path id="Vector" d="M26.5 0.175537H0.5V26.1755H26.5V0.175537Z" fill="white"/>
</g>
</mask>
<g mask="url(#mask0_2555_2037)">
<g id="Group">
<path id="Vector_2" d="M25.9761 13.4768C25.9761 12.5549 25.8934 11.6686 25.7398 10.8176H13.4961V15.8463H20.4924C20.1911 17.4713 19.2752 18.8481 17.8984 19.7699V23.0318H22.0998C24.5579 20.7686 25.9761 17.4358 25.9761 13.4768Z" fill="#4285F4"/>
<path id="Vector_3" d="M13.5079 26.174C17.0179 26.174 19.9606 25.0099 22.1115 23.0245L17.9101 19.7627C16.7461 20.5427 15.257 21.0036 13.5079 21.0036C10.122 21.0036 7.25611 18.7167 6.23379 15.644H1.89062V19.0122C4.02978 23.2609 8.42612 26.174 13.5079 26.174Z" fill="#34A853"/>
<path id="Vector_4" d="M6.22585 15.6417C5.96585 14.8617 5.81817 14.0285 5.81817 13.1717C5.81817 12.3148 5.96585 11.4817 6.22585 10.7017V7.3335H1.88268C1.00232 9.0885 0.5 11.074 0.5 13.1717C0.5 15.2693 1.00232 17.2548 1.88268 19.0098L6.22585 15.6417Z" fill="#FBBC04"/>
<path id="Vector_5" d="M13.5079 5.34603C15.4165 5.34603 17.1301 6.00188 18.4775 7.29005L22.2061 3.56139C19.9548 1.46371 17.012 0.175537 13.5079 0.175537C8.42612 0.175537 4.02978 3.08871 1.89062 7.33737L6.23379 10.7055C7.25611 7.63286 10.122 5.34603 13.5079 5.34603Z" fill="#E94235"/>
</g>
</g>
</g>
</svg>
