<svg width="833" height="248" viewBox="0 0 833 248" fill="none" xmlns="http://www.w3.org/2000/svg">
<path d="M47.0187 59L29.9907 2.24H43.7187L56.7207 46.592L69.4587 2.24H81.6687L94.5387 46.592L107.409 2.24H120.939L103.845 59H86.0247L75.4647 21.974L64.9047 59H47.0187ZM140.689 17.288C145.001 17.288 148.829 18.19 152.173 19.994C155.517 21.754 158.069 24.218 159.829 27.386C161.633 30.51 162.469 34.052 162.337 38.012L161.743 42.236H129.799C130.327 45.052 131.691 47.076 133.891 48.308C136.091 49.496 139.501 50.09 144.121 50.09C148.345 50.09 152.503 49.408 156.595 48.044L158.311 57.482C153.735 59.374 148.257 60.32 141.877 60.32C136.729 60.32 132.307 59.44 128.611 57.68C124.959 55.92 122.165 53.412 120.229 50.156C118.337 46.9 117.391 43.072 117.391 38.672C117.391 34.404 118.359 30.664 120.295 27.452C122.275 24.196 125.025 21.688 128.545 19.928C132.109 18.168 136.157 17.288 140.689 17.288ZM150.523 34.646C150.479 32.534 149.599 30.774 147.883 29.366C146.167 27.914 143.769 27.188 140.689 27.188C137.873 27.188 135.541 27.826 133.693 29.102C131.845 30.378 130.591 32.226 129.931 34.646H150.523ZM167.87 59V0.919996H180.872V59H167.87ZM186.487 38.87C186.487 34.646 187.477 30.906 189.457 27.65C191.437 24.35 194.231 21.798 197.839 19.994C201.491 18.19 205.715 17.288 210.511 17.288C215.131 17.288 218.761 17.794 221.401 18.806L219.751 29.234C217.375 28.398 214.537 27.98 211.237 27.98C207.673 27.98 204.747 28.926 202.459 30.818C200.171 32.71 199.027 35.372 199.027 38.804C199.027 42.192 200.193 44.832 202.525 46.724C204.857 48.616 207.827 49.562 211.435 49.562C214.735 49.562 217.485 49.034 219.685 47.978L221.599 58.472C218.959 59.704 215.263 60.32 210.511 60.32C205.715 60.32 201.491 59.418 197.839 57.614C194.231 55.81 191.437 53.28 189.457 50.024C187.477 46.768 186.487 43.05 186.487 38.87ZM247.743 60.32C242.991 60.32 238.767 59.44 235.071 57.68C231.375 55.876 228.493 53.346 226.425 50.09C224.357 46.834 223.323 43.072 223.323 38.804C223.323 34.536 224.357 30.774 226.425 27.518C228.493 24.262 231.375 21.754 235.071 19.994C238.767 18.19 242.991 17.288 247.743 17.288C252.495 17.288 256.697 18.19 260.349 19.994C264.045 21.754 266.927 24.262 268.995 27.518C271.063 30.774 272.097 34.536 272.097 38.804C272.097 43.072 271.063 46.834 268.995 50.09C266.927 53.346 264.045 55.876 260.349 57.68C256.697 59.44 252.495 60.32 247.743 60.32ZM247.743 49.826C251.483 49.826 254.431 48.814 256.587 46.79C258.787 44.766 259.887 42.104 259.887 38.804C259.887 35.504 258.787 32.842 256.587 30.818C254.431 28.75 251.483 27.716 247.743 27.716C243.959 27.716 240.967 28.75 238.767 30.818C236.611 32.842 235.533 35.504 235.533 38.804C235.533 42.104 236.611 44.766 238.767 46.79C240.967 48.814 243.959 49.826 247.743 49.826ZM331.658 17.288C336.542 17.288 340.194 18.608 342.614 21.248C345.034 23.888 346.244 27.98 346.244 33.524V59H333.638V36.956C333.638 33.744 333.176 31.522 332.252 30.29C331.328 29.058 329.7 28.442 327.368 28.442C323.804 28.442 320.636 30.532 317.864 34.712V59H306.116V36.956C306.116 34.756 305.896 33.04 305.456 31.808C305.06 30.576 304.4 29.718 303.476 29.234C302.596 28.706 301.342 28.442 299.714 28.442C297.866 28.442 296.15 29.036 294.566 30.224C292.982 31.368 291.552 32.974 290.276 35.042V59H277.67V18.608H290.276V24.35C292.036 22.15 294.06 20.434 296.348 19.202C298.68 17.926 301.254 17.288 304.07 17.288C307.238 17.288 309.856 17.882 311.924 19.07C313.992 20.258 315.51 22.084 316.478 24.548C318.414 22.304 320.658 20.544 323.21 19.268C325.762 17.948 328.578 17.288 331.658 17.288ZM374.499 17.288C378.811 17.288 382.639 18.19 385.983 19.994C389.327 21.754 391.879 24.218 393.639 27.386C395.443 30.51 396.279 34.052 396.147 38.012L395.553 42.236H363.609C364.137 45.052 365.501 47.076 367.701 48.308C369.901 49.496 373.311 50.09 377.931 50.09C382.155 50.09 386.313 49.408 390.405 48.044L392.121 57.482C387.545 59.374 382.067 60.32 375.687 60.32C370.539 60.32 366.117 59.44 362.421 57.68C358.769 55.92 355.975 53.412 354.039 50.156C352.147 46.9 351.201 43.072 351.201 38.672C351.201 34.404 352.169 30.664 354.105 27.452C356.085 24.196 358.835 21.688 362.355 19.928C365.919 18.168 369.967 17.288 374.499 17.288ZM384.333 34.646C384.289 32.534 383.409 30.774 381.693 29.366C379.977 27.914 377.579 27.188 374.499 27.188C371.683 27.188 369.351 27.826 367.503 29.102C365.655 30.378 364.401 32.226 363.741 34.646H384.333ZM446.774 60.32C440.482 60.32 434.872 59.132 429.944 56.756C425.06 54.336 421.232 50.882 418.46 46.394C415.732 41.906 414.368 36.648 414.368 30.62C414.368 24.592 415.732 19.334 418.46 14.846C421.232 10.358 425.06 6.926 429.944 4.55C434.872 2.13 440.482 0.919996 446.774 0.919996C453.022 0.919996 458.588 2.13 463.472 4.55C468.4 6.926 472.228 10.358 474.956 14.846C477.728 19.334 479.114 24.592 479.114 30.62C479.114 36.648 477.728 41.906 474.956 46.394C472.228 50.882 468.4 54.336 463.472 56.756C458.588 59.132 453.022 60.32 446.774 60.32ZM446.774 48.968C450.69 48.968 454.1 48.198 457.004 46.658C459.908 45.118 462.13 42.962 463.67 40.19C465.254 37.418 466.046 34.228 466.046 30.62C466.046 27.012 465.254 23.822 463.67 21.05C462.13 18.278 459.908 16.122 457.004 14.582C454.1 13.042 450.69 12.272 446.774 12.272C442.814 12.272 439.382 13.042 436.478 14.582C433.574 16.122 431.33 18.278 429.746 21.05C428.206 23.822 427.436 27.012 427.436 30.62C427.436 34.228 428.206 37.418 429.746 40.19C431.33 42.962 433.574 45.118 436.478 46.658C439.382 48.198 442.814 48.968 446.774 48.968ZM514.202 17.288C519.394 17.288 523.288 18.608 525.884 21.248C528.48 23.888 529.778 27.914 529.778 33.326V59H516.842V35.372C516.842 33.48 516.622 32.028 516.182 31.016C515.786 29.96 515.104 29.234 514.136 28.838C513.212 28.398 511.914 28.178 510.242 28.178C505.094 28.178 500.848 30.312 497.504 34.58V59H484.634V18.608H497.504V24.02C499.572 21.864 502.014 20.214 504.83 19.07C507.646 17.882 510.77 17.288 514.202 17.288ZM564.536 17.288C568.672 17.288 572.39 18.124 575.69 19.796C579.034 21.468 581.652 23.932 583.544 27.188C585.48 30.444 586.448 34.316 586.448 38.804C586.448 43.292 585.48 47.164 583.544 50.42C581.652 53.676 579.034 56.14 575.69 57.812C572.39 59.484 568.672 60.32 564.536 60.32C561.148 60.32 558.09 59.748 555.362 58.604C552.634 57.46 550.368 55.788 548.564 53.588L547.508 58.934H536.486V0.919996H549.422V23.03C551.226 21.138 553.404 19.708 555.956 18.74C558.552 17.772 561.412 17.288 564.536 17.288ZM561.368 49.892C564.932 49.892 567.814 48.924 570.014 46.988C572.214 45.052 573.314 42.324 573.314 38.804C573.314 35.284 572.214 32.556 570.014 30.62C567.814 28.684 564.932 27.716 561.368 27.716C557.892 27.716 555.032 28.728 552.788 30.752C550.588 32.732 549.488 35.416 549.488 38.804C549.488 42.192 550.588 44.898 552.788 46.922C555.032 48.902 557.892 49.892 561.368 49.892ZM614.587 60.32C609.835 60.32 605.611 59.44 601.915 57.68C598.219 55.876 595.337 53.346 593.269 50.09C591.201 46.834 590.167 43.072 590.167 38.804C590.167 34.536 591.201 30.774 593.269 27.518C595.337 24.262 598.219 21.754 601.915 19.994C605.611 18.19 609.835 17.288 614.587 17.288C619.339 17.288 623.541 18.19 627.193 19.994C630.889 21.754 633.771 24.262 635.839 27.518C637.907 30.774 638.941 34.536 638.941 38.804C638.941 43.072 637.907 46.834 635.839 50.09C633.771 53.346 630.889 55.876 627.193 57.68C623.541 59.44 619.339 60.32 614.587 60.32ZM614.587 49.826C618.327 49.826 621.275 48.814 623.431 46.79C625.631 44.766 626.731 42.104 626.731 38.804C626.731 35.504 625.631 32.842 623.431 30.818C621.275 28.75 618.327 27.716 614.587 27.716C610.803 27.716 607.811 28.75 605.611 30.818C603.455 32.842 602.377 35.504 602.377 38.804C602.377 42.104 603.455 44.766 605.611 46.79C607.811 48.814 610.803 49.826 614.587 49.826ZM666.837 17.288C671.457 17.288 675.153 17.926 677.925 19.202C680.697 20.478 682.677 22.392 683.865 24.944C685.097 27.452 685.713 30.708 685.713 34.712V59H673.767L672.975 53.654C671.083 55.81 668.707 57.46 665.847 58.604C663.031 59.748 659.775 60.32 656.079 60.32C651.415 60.32 647.741 59.22 645.057 57.02C642.417 54.776 641.097 51.564 641.097 47.384C641.097 42.896 642.791 39.442 646.179 37.022C649.611 34.602 655.221 33.392 663.009 33.392H672.843V32.798C672.843 30.642 672.293 29.168 671.193 28.376C670.137 27.54 668.157 27.122 665.253 27.122C660.677 27.122 655.309 27.98 649.149 29.696L647.895 20.192C654.011 18.256 660.325 17.288 666.837 17.288ZM659.115 50.09C661.843 50.09 664.395 49.496 666.771 48.308C669.191 47.12 671.215 45.448 672.843 43.292V41.048H663.009C659.225 41.048 656.607 41.444 655.155 42.236C653.703 43.028 652.977 44.194 652.977 45.734C652.977 48.638 655.023 50.09 659.115 50.09ZM705.37 26.198C706.558 23.514 708.384 21.402 710.848 19.862C713.356 18.278 716.26 17.486 719.56 17.486C721.012 17.486 722.442 17.64 723.85 17.948L722.86 29.63C721.32 29.278 719.912 29.102 718.636 29.102C715.424 29.102 712.674 30.07 710.386 32.006C708.098 33.942 706.426 36.714 705.37 40.322V59H692.434V18.608H705.37V26.198ZM760.776 0.919996H773.712V58.934H762.69L761.634 53.588C759.83 55.788 757.564 57.46 754.836 58.604C752.108 59.748 749.05 60.32 745.662 60.32C741.526 60.32 737.786 59.484 734.442 57.812C731.142 56.14 728.524 53.676 726.588 50.42C724.696 47.164 723.75 43.292 723.75 38.804C723.75 34.316 724.696 30.444 726.588 27.188C728.524 23.932 731.142 21.468 734.442 19.796C737.786 18.124 741.526 17.288 745.662 17.288C748.786 17.288 751.624 17.772 754.176 18.74C756.772 19.708 758.972 21.138 760.776 23.03V0.919996ZM748.83 49.892C752.306 49.892 755.144 48.902 757.344 46.922C759.588 44.898 760.71 42.192 760.71 38.804C760.71 35.416 759.588 32.732 757.344 30.752C755.144 28.728 752.306 27.716 748.83 27.716C745.266 27.716 742.384 28.684 740.184 30.62C737.984 32.556 736.884 35.284 736.884 38.804C736.884 42.324 737.984 45.052 740.184 46.988C742.384 48.924 745.266 49.892 748.83 49.892ZM782.447 1.184H795.911L794.987 40.982H783.371L782.447 1.184ZM789.179 59.132C787.155 59.132 785.483 58.516 784.163 57.284C782.843 56.008 782.183 54.38 782.183 52.4C782.183 50.42 782.843 48.792 784.163 47.516C785.483 46.24 787.155 45.602 789.179 45.602C791.203 45.602 792.875 46.24 794.195 47.516C795.515 48.792 796.175 50.42 796.175 52.4C796.175 54.38 795.515 56.008 794.195 57.284C792.875 58.516 791.203 59.132 789.179 59.132ZM0.791692 145V88.24H40.7217V99.526H13.8597V112.528H39.3357V123.352H13.8597V145H0.791692ZM66.3261 103.288C70.9461 103.288 74.6421 103.926 77.4141 105.202C80.1861 106.478 82.1661 108.392 83.3541 110.944C84.5861 113.452 85.2021 116.708 85.2021 120.712V145H73.2561L72.4641 139.654C70.5721 141.81 68.1961 143.46 65.3361 144.604C62.5201 145.748 59.2641 146.32 55.5681 146.32C50.9041 146.32 47.2301 145.22 44.5461 143.02C41.9061 140.776 40.5861 137.564 40.5861 133.384C40.5861 128.896 42.2801 125.442 45.6681 123.022C49.1001 120.602 54.7101 119.392 62.4981 119.392H72.3321V118.798C72.3321 116.642 71.7821 115.168 70.6821 114.376C69.6261 113.54 67.6461 113.122 64.7421 113.122C60.1661 113.122 54.7981 113.98 48.6381 115.696L47.3841 106.192C53.5001 104.256 59.8141 103.288 66.3261 103.288ZM58.6041 136.09C61.3321 136.09 63.8841 135.496 66.2601 134.308C68.6801 133.12 70.7041 131.448 72.3321 129.292V127.048H62.4981C58.7141 127.048 56.0961 127.444 54.6441 128.236C53.1921 129.028 52.4661 130.194 52.4661 131.734C52.4661 134.638 54.5121 136.09 58.6041 136.09ZM91.4613 132.79C99.1173 134.902 105.805 135.958 111.525 135.958C114.429 135.958 116.497 135.65 117.729 135.034C118.961 134.374 119.577 133.384 119.577 132.064C119.577 130.832 119.005 129.93 117.861 129.358C116.761 128.786 114.979 128.5 112.515 128.5C98.6113 128.5 91.6593 124.342 91.6593 116.026C91.6593 111.89 93.2653 108.744 96.4773 106.588C99.7333 104.388 104.265 103.288 110.073 103.288C114.253 103.288 117.993 103.508 121.293 103.948C124.637 104.344 127.431 104.894 129.675 105.598L127.629 115.498C125.517 114.882 122.965 114.376 119.973 113.98C116.981 113.584 113.835 113.386 110.535 113.386C106.135 113.386 103.935 114.442 103.935 116.554C103.935 117.786 104.419 118.688 105.387 119.26C106.355 119.832 107.895 120.118 110.007 120.118C125.055 120.118 132.579 124.452 132.579 133.12C132.579 137.432 131.039 140.71 127.959 142.954C124.879 145.198 119.885 146.32 112.977 146.32C105.101 146.32 97.5773 145.242 90.4053 143.086L91.4613 132.79ZM167.333 143.944C163.813 145.528 159.721 146.32 155.057 146.32C150.481 146.32 147.159 145.286 145.091 143.218C143.023 141.106 141.989 137.586 141.989 132.658V114.838H132.551V104.608H141.989V92.398H154.859V104.608H167.069V114.838H154.859V131.14C154.859 132.284 154.947 133.142 155.123 133.714C155.343 134.242 155.673 134.594 156.113 134.77C156.597 134.946 157.345 135.034 158.357 135.034C160.689 135.034 163.109 134.528 165.617 133.516L167.333 143.944ZM192.461 103.288C196.773 103.288 200.601 104.19 203.945 105.994C207.289 107.754 209.841 110.218 211.601 113.386C213.405 116.51 214.241 120.052 214.109 124.012L213.515 128.236H181.571C182.099 131.052 183.463 133.076 185.663 134.308C187.863 135.496 191.273 136.09 195.893 136.09C200.117 136.09 204.275 135.408 208.367 134.044L210.083 143.482C205.507 145.374 200.029 146.32 193.649 146.32C188.501 146.32 184.079 145.44 180.383 143.68C176.731 141.92 173.937 139.412 172.001 136.156C170.109 132.9 169.163 129.072 169.163 124.672C169.163 120.404 170.131 116.664 172.067 113.452C174.047 110.196 176.797 107.688 180.317 105.928C183.881 104.168 187.929 103.288 192.461 103.288ZM202.295 120.646C202.251 118.534 201.371 116.774 199.655 115.366C197.939 113.914 195.541 113.188 192.461 113.188C189.645 113.188 187.313 113.826 185.465 115.102C183.617 116.378 182.363 118.226 181.703 120.646H202.295ZM249.211 103.288C254.403 103.288 258.297 104.608 260.893 107.248C263.489 109.888 264.787 113.914 264.787 119.326V145H251.851V121.372C251.851 119.48 251.631 118.028 251.191 117.016C250.795 115.96 250.113 115.234 249.145 114.838C248.221 114.398 246.923 114.178 245.251 114.178C240.103 114.178 235.857 116.312 232.513 120.58V145H219.643V104.608H232.513V110.02C234.581 107.864 237.023 106.214 239.839 105.07C242.655 103.882 245.779 103.288 249.211 103.288ZM315.202 104.608H329.062L313.288 146.452C311.22 151.908 308.844 155.758 306.16 158.002C303.476 160.29 300.11 161.434 296.062 161.434C293.114 161.434 289.396 160.884 284.908 159.784L286.558 149.488C289.462 150.28 291.706 150.676 293.29 150.676C294.698 150.676 295.842 150.324 296.722 149.62C297.646 148.96 298.504 147.838 299.296 146.254L282.796 104.608H296.194L306.028 131.074L315.202 104.608ZM353.432 146.32C348.68 146.32 344.456 145.44 340.76 143.68C337.064 141.876 334.182 139.346 332.114 136.09C330.046 132.834 329.012 129.072 329.012 124.804C329.012 120.536 330.046 116.774 332.114 113.518C334.182 110.262 337.064 107.754 340.76 105.994C344.456 104.19 348.68 103.288 353.432 103.288C358.184 103.288 362.386 104.19 366.038 105.994C369.734 107.754 372.616 110.262 374.684 113.518C376.752 116.774 377.786 120.536 377.786 124.804C377.786 129.072 376.752 132.834 374.684 136.09C372.616 139.346 369.734 141.876 366.038 143.68C362.386 145.44 358.184 146.32 353.432 146.32ZM353.432 135.826C357.172 135.826 360.12 134.814 362.276 132.79C364.476 130.766 365.576 128.104 365.576 124.804C365.576 121.504 364.476 118.842 362.276 116.818C360.12 114.75 357.172 113.716 353.432 113.716C349.648 113.716 346.656 114.75 344.456 116.818C342.3 118.842 341.222 121.504 341.222 124.804C341.222 128.104 342.3 130.766 344.456 132.79C346.656 134.814 349.648 135.826 353.432 135.826ZM415.369 104.608H428.239V145H415.369V139.258C413.301 141.502 410.815 143.24 407.911 144.472C405.051 145.704 401.861 146.32 398.341 146.32C393.149 146.32 389.255 145 386.659 142.36C384.063 139.72 382.765 135.694 382.765 130.282V104.608H395.701V128.17C395.701 130.062 395.899 131.536 396.295 132.592C396.735 133.604 397.417 134.33 398.341 134.77C399.265 135.166 400.563 135.364 402.235 135.364C407.603 135.364 411.981 133.076 415.369 128.5V104.608ZM448.469 112.198C449.657 109.514 451.483 107.402 453.947 105.862C456.455 104.278 459.359 103.486 462.659 103.486C464.111 103.486 465.541 103.64 466.949 103.948L465.959 115.63C464.419 115.278 463.011 115.102 461.735 115.102C458.523 115.102 455.773 116.07 453.485 118.006C451.197 119.942 449.525 122.714 448.469 126.322V145H435.533V104.608H448.469V112.198ZM485.688 145V88.24H498.954V133.516H525.552V145H485.688ZM549.447 103.288C553.759 103.288 557.587 104.19 560.931 105.994C564.275 107.754 566.827 110.218 568.587 113.386C570.391 116.51 571.227 120.052 571.095 124.012L570.501 128.236H538.557C539.085 131.052 540.449 133.076 542.649 134.308C544.849 135.496 548.259 136.09 552.879 136.09C557.103 136.09 561.261 135.408 565.353 134.044L567.069 143.482C562.493 145.374 557.015 146.32 550.635 146.32C545.487 146.32 541.065 145.44 537.369 143.68C533.717 141.92 530.923 139.412 528.987 136.156C527.095 132.9 526.149 129.072 526.149 124.672C526.149 120.404 527.117 116.664 529.053 113.452C531.033 110.196 533.783 107.688 537.303 105.928C540.867 104.168 544.915 103.288 549.447 103.288ZM559.281 120.646C559.237 118.534 558.357 116.774 556.641 115.366C554.925 113.914 552.527 113.188 549.447 113.188C546.631 113.188 544.299 113.826 542.451 115.102C540.603 116.378 539.349 118.226 538.689 120.646H559.281ZM598.951 103.288C603.571 103.288 607.267 103.926 610.039 105.202C612.811 106.478 614.791 108.392 615.979 110.944C617.211 113.452 617.827 116.708 617.827 120.712V145H605.881L605.089 139.654C603.197 141.81 600.821 143.46 597.961 144.604C595.145 145.748 591.889 146.32 588.193 146.32C583.529 146.32 579.855 145.22 577.171 143.02C574.531 140.776 573.211 137.564 573.211 133.384C573.211 128.896 574.905 125.442 578.293 123.022C581.725 120.602 587.335 119.392 595.123 119.392H604.957V118.798C604.957 116.642 604.407 115.168 603.307 114.376C602.251 113.54 600.271 113.122 597.367 113.122C592.791 113.122 587.423 113.98 581.263 115.696L580.009 106.192C586.125 104.256 592.439 103.288 598.951 103.288ZM591.229 136.09C593.957 136.09 596.509 135.496 598.885 134.308C601.305 133.12 603.329 131.448 604.957 129.292V127.048H595.123C591.339 127.048 588.721 127.444 587.269 128.236C585.817 129.028 585.091 130.194 585.091 131.734C585.091 134.638 587.137 136.09 591.229 136.09ZM637.484 112.198C638.672 109.514 640.498 107.402 642.962 105.862C645.47 104.278 648.374 103.486 651.674 103.486C653.126 103.486 654.556 103.64 655.964 103.948L654.974 115.63C653.434 115.278 652.026 115.102 650.75 115.102C647.538 115.102 644.788 116.07 642.5 118.006C640.212 119.942 638.54 122.714 637.484 126.322V145H624.548V104.608H637.484V112.198ZM689.472 103.288C694.664 103.288 698.558 104.608 701.154 107.248C703.75 109.888 705.048 113.914 705.048 119.326V145H692.112V121.372C692.112 119.48 691.892 118.028 691.452 117.016C691.056 115.96 690.374 115.234 689.406 114.838C688.482 114.398 687.184 114.178 685.512 114.178C680.364 114.178 676.118 116.312 672.774 120.58V145H659.904V104.608H672.774V110.02C674.842 107.864 677.284 106.214 680.1 105.07C682.916 103.882 686.04 103.288 689.472 103.288ZM718.818 99.856C716.618 99.856 714.792 99.218 713.34 97.942C711.932 96.622 711.228 94.95 711.228 92.926C711.228 90.902 711.932 89.23 713.34 87.91C714.792 86.59 716.618 85.93 718.818 85.93C721.018 85.93 722.844 86.59 724.296 87.91C725.748 89.23 726.474 90.902 726.474 92.926C726.474 94.95 725.748 96.622 724.296 97.942C722.844 99.218 721.018 99.856 718.818 99.856ZM712.35 145V104.608H725.352V145H712.35ZM762.822 103.288C768.014 103.288 771.908 104.608 774.504 107.248C777.1 109.888 778.398 113.914 778.398 119.326V145H765.462V121.372C765.462 119.48 765.242 118.028 764.802 117.016C764.406 115.96 763.724 115.234 762.756 114.838C761.832 114.398 760.534 114.178 758.862 114.178C753.714 114.178 749.468 116.312 746.124 120.58V145H733.254V104.608H746.124V110.02C748.192 107.864 750.634 106.214 753.45 105.07C756.266 103.882 759.39 103.288 762.822 103.288ZM822.198 104.608H832.956V137.146C832.956 145.594 830.58 151.754 825.828 155.626C821.12 159.498 814.718 161.434 806.622 161.434C803.058 161.434 799.318 161.104 795.402 160.444L796.194 150.676C799.802 151.16 802.86 151.402 805.368 151.402C810.384 151.402 814.08 150.522 816.456 148.762C818.832 147.002 820.108 144.252 820.284 140.512C818.48 142.404 816.324 143.856 813.816 144.868C811.308 145.836 808.602 146.32 805.698 146.32C801.386 146.32 797.536 145.462 794.148 143.746C790.76 142.03 788.098 139.544 786.162 136.288C784.27 133.032 783.324 129.204 783.324 124.804C783.324 120.36 784.292 116.532 786.228 113.32C788.164 110.064 790.804 107.578 794.148 105.862C797.536 104.146 801.386 103.288 805.698 103.288C808.998 103.288 811.968 103.838 814.608 104.938C817.248 106.038 819.448 107.666 821.208 109.822L822.198 104.608ZM807.942 136.42C811.638 136.42 814.608 135.408 816.852 133.384C819.14 131.316 820.284 128.478 820.284 124.87C820.284 121.262 819.14 118.446 816.852 116.422C814.608 114.354 811.638 113.32 807.942 113.32C804.158 113.32 801.1 114.332 798.768 116.356C796.48 118.38 795.336 121.218 795.336 124.87C795.336 128.522 796.48 131.36 798.768 133.384C801.1 135.408 804.158 136.42 807.942 136.42ZM260.141 220.11C262.253 220.462 263.947 220.638 265.223 220.638C267.775 220.638 269.535 219.956 270.503 218.592C271.515 217.228 272.021 214.83 272.021 211.398V174.24H285.089V211.728C285.089 216.48 284.583 220.33 283.571 223.278C282.603 226.226 280.975 228.426 278.687 229.878C276.443 231.33 273.407 232.056 269.579 232.056C267.071 232.056 263.925 231.704 260.141 231V220.11ZM314.696 232.32C309.944 232.32 305.72 231.44 302.024 229.68C298.328 227.876 295.446 225.346 293.378 222.09C291.31 218.834 290.276 215.072 290.276 210.804C290.276 206.536 291.31 202.774 293.378 199.518C295.446 196.262 298.328 193.754 302.024 191.994C305.72 190.19 309.944 189.288 314.696 189.288C319.448 189.288 323.65 190.19 327.302 191.994C330.998 193.754 333.88 196.262 335.948 199.518C338.016 202.774 339.05 206.536 339.05 210.804C339.05 215.072 338.016 218.834 335.948 222.09C333.88 225.346 330.998 227.876 327.302 229.68C323.65 231.44 319.448 232.32 314.696 232.32ZM314.696 221.826C318.436 221.826 321.384 220.814 323.54 218.79C325.74 216.766 326.84 214.104 326.84 210.804C326.84 207.504 325.74 204.842 323.54 202.818C321.384 200.75 318.436 199.716 314.696 199.716C310.912 199.716 307.92 200.75 305.72 202.818C303.564 204.842 302.486 207.504 302.486 210.804C302.486 214.104 303.564 216.766 305.72 218.79C307.92 220.814 310.912 221.826 314.696 221.826ZM376.632 190.608H389.502V231H376.632V225.258C374.564 227.502 372.078 229.24 369.174 230.472C366.314 231.704 363.124 232.32 359.604 232.32C354.412 232.32 350.518 231 347.922 228.36C345.326 225.72 344.028 221.694 344.028 216.282V190.608H356.964V214.17C356.964 216.062 357.162 217.536 357.558 218.592C357.998 219.604 358.68 220.33 359.604 220.77C360.528 221.166 361.826 221.364 363.498 221.364C368.866 221.364 373.244 219.076 376.632 214.5V190.608ZM409.733 198.198C410.921 195.514 412.747 193.402 415.211 191.862C417.719 190.278 420.623 189.486 423.923 189.486C425.375 189.486 426.805 189.64 428.213 189.948L427.223 201.63C425.683 201.278 424.275 201.102 422.999 201.102C419.787 201.102 417.037 202.07 414.749 204.006C412.461 205.942 410.789 208.714 409.733 212.322V231H396.797V190.608H409.733V198.198ZM461.72 189.288C466.912 189.288 470.806 190.608 473.402 193.248C475.998 195.888 477.296 199.914 477.296 205.326V231H464.36V207.372C464.36 205.48 464.14 204.028 463.7 203.016C463.304 201.96 462.622 201.234 461.654 200.838C460.73 200.398 459.432 200.178 457.76 200.178C452.612 200.178 448.366 202.312 445.022 206.58V231H432.152V190.608H445.022V196.02C447.09 193.864 449.532 192.214 452.348 191.07C455.164 189.882 458.288 189.288 461.72 189.288ZM505.52 189.288C509.832 189.288 513.66 190.19 517.004 191.994C520.348 193.754 522.9 196.218 524.66 199.386C526.464 202.51 527.3 206.052 527.168 210.012L526.574 214.236H494.63C495.158 217.052 496.522 219.076 498.722 220.308C500.922 221.496 504.332 222.09 508.952 222.09C513.176 222.09 517.334 221.408 521.426 220.044L523.142 229.482C518.566 231.374 513.088 232.32 506.708 232.32C501.56 232.32 497.138 231.44 493.442 229.68C489.79 227.92 486.996 225.412 485.06 222.156C483.168 218.9 482.222 215.072 482.222 210.672C482.222 206.404 483.19 202.664 485.126 199.452C487.106 196.196 489.856 193.688 493.376 191.928C496.94 190.168 500.988 189.288 505.52 189.288ZM515.354 206.646C515.31 204.534 514.43 202.774 512.714 201.366C510.998 199.914 508.6 199.188 505.52 199.188C502.704 199.188 500.372 199.826 498.524 201.102C496.676 202.378 495.422 204.226 494.762 206.646H515.354ZM559.358 190.608H573.218L557.444 232.452C555.376 237.908 553 241.758 550.316 244.002C547.632 246.29 544.266 247.434 540.218 247.434C537.27 247.434 533.552 246.884 529.064 245.784L530.714 235.488C533.618 236.28 535.862 236.676 537.446 236.676C538.854 236.676 539.998 236.324 540.878 235.62C541.802 234.96 542.66 233.838 543.452 232.254L526.952 190.608H540.35L550.184 217.074L559.358 190.608Z" fill="black"/>
</svg>
