<svg width="256" height="39" viewBox="0 0 256 39" fill="none" xmlns="http://www.w3.org/2000/svg">
<path d="M0.859375 15.3733C0.859375 5.86464 7.7489 0 17.3715 0C26.994 0 33.912 5.86464 33.912 15.3733C33.912 24.882 27.0225 30.7466 17.3715 30.7466C7.72043 30.7466 0.859375 24.8535 0.859375 15.3733ZM28.5029 15.3733C28.5029 9.08165 24.261 4.72587 17.3715 4.72587C10.4819 4.72587 6.24004 9.11012 6.24004 15.3733C6.24004 21.6365 10.4819 26.0208 17.3715 26.0208C24.261 26.0208 28.5029 21.6365 28.5029 15.3733Z" fill="#5E52FF"/>
<path d="M60.3014 16.9112V30.0639H54.9777V17.3382C54.9777 14.2351 53.9812 13.3525 51.3051 13.3525C48.0312 13.3525 45.3551 14.719 43.3053 17.509V30.0639H37.9531V9.36685H43.3053V12.4985C45.412 10.164 48.4582 8.68359 52.2731 8.68359C57.7107 8.68359 60.3014 11.4166 60.3014 16.9112Z" fill="#5E52FF"/>
<path d="M90.1968 19.7006C90.1968 26.7894 85.2147 30.7182 78.7522 30.7182C75.0228 30.7182 72.0051 29.4086 70.0692 26.9602L69.5567 30.0064H65.0586V0H70.3823V12.014C72.2897 9.82184 75.2221 8.65461 78.7522 8.65461C85.2147 8.65461 90.1968 12.5833 90.1968 19.6722V19.7006ZM84.7592 19.7006C84.7592 15.3733 81.713 13.0389 77.585 13.0389C73.457 13.0389 70.4108 15.6011 70.4108 19.7006C70.4108 23.8002 73.457 26.3624 77.585 26.3624C81.713 26.3624 84.7592 24.0279 84.7592 19.7006Z" fill="#5E52FF"/>
<path d="M93.1289 19.7011C93.1289 13.0394 98.1679 8.68359 105.57 8.68359C112.972 8.68359 118.011 13.0678 118.011 19.7011C118.011 26.3344 112.943 30.7187 105.57 30.7187C98.1964 30.7187 93.1289 26.3344 93.1289 19.7011ZM112.773 19.7011C112.773 15.8009 110.04 13.1248 105.57 13.1248C101.1 13.1248 98.3672 15.8293 98.3672 19.7011C98.3672 23.5729 101.1 26.2775 105.57 26.2775C110.04 26.2775 112.773 23.5729 112.773 19.7011Z" fill="#5E52FF"/>
<path d="M142.556 17.2528V30.0639H137.631L137.289 27.16C135.41 29.2668 132.193 30.7472 128.179 30.7472C123.14 30.7472 120.094 28.5266 120.094 24.0854C120.094 19.6442 122.855 16.8542 131.282 16.8542H137.232V16.5126C137.232 13.8934 136.065 13.0678 132.478 13.0678C129.859 13.0678 127.296 13.5518 124.136 14.4628L123.567 10.2209C126.869 9.1391 129.859 8.68359 133.047 8.68359C140.051 8.68359 142.527 11.4451 142.527 17.2528H142.556ZM137.232 22.0641V20.726H131.282C126.442 20.726 125.275 21.8648 125.275 23.516C125.275 25.1672 126.243 26.1352 128.976 26.1352C132.165 26.1352 135.268 24.6263 137.232 22.0356V22.0641Z" fill="#5E52FF"/>
<path d="M152.631 13.352C154.196 9.96415 157.926 8.05672 162.965 9.02467L162.481 13.8644C157.47 12.8395 154.054 15.2309 152.602 20.5547V30.0349H147.25V9.3663H152.602V13.352H152.631Z" fill="#5E52FF"/>
<path d="M183.404 0H188.728V30.0064H184.23L183.718 26.9602C181.81 29.4086 178.764 30.7182 175.034 30.7182C168.572 30.7182 163.59 26.7894 163.59 19.7006C163.59 12.6118 168.572 8.68308 175.034 8.68308C178.565 8.68308 181.497 9.85031 183.404 12.0424V0ZM183.376 19.7006C183.376 15.6011 180.33 13.0389 176.202 13.0389C172.074 13.0389 169.027 15.3733 169.027 19.7006C169.027 24.0279 172.074 26.3624 176.202 26.3624C180.33 26.3624 183.376 23.8002 183.376 19.7006Z" fill="#5E52FF"/>
<path d="M193.48 3.27354C193.48 1.50846 194.875 0.17041 196.84 0.17041C198.804 0.17041 200.228 1.50846 200.228 3.27354C200.228 5.03863 198.804 6.34821 196.84 6.34821C194.875 6.34821 193.48 5.03863 193.48 3.27354ZM194.164 9.36593H199.516V30.063H194.164V9.36593Z" fill="#5E52FF"/>
<path d="M227.274 16.9112V30.0639H221.95V17.3382C221.95 14.2351 220.954 13.3525 218.278 13.3525C215.004 13.3525 212.328 14.719 210.278 17.509V30.0639H204.926V9.36685H210.278V12.4985C212.385 10.164 215.431 8.68359 219.246 8.68359C224.683 8.68359 227.274 11.4166 227.274 16.9112Z" fill="#5E52FF"/>
<path d="M251.561 9.39468H256.002V25.9922C256.002 37.1521 248.116 39.7997 237.184 38.0916L237.583 33.508C247.063 34.7322 250.564 32.8532 250.735 27.3872C248.828 29.5793 245.952 30.7465 242.565 30.7465C235.846 30.7465 230.949 26.6754 230.949 19.729C230.949 12.7825 235.903 8.71143 242.565 8.71143C246.209 8.71143 249.198 9.96407 251.077 12.4124L251.561 9.45162V9.39468ZM250.764 19.729C250.764 15.4301 247.689 12.8964 243.504 12.8964C239.319 12.8964 236.131 15.2878 236.131 19.729C236.131 24.1702 239.234 26.5616 243.504 26.5616C247.774 26.5616 250.764 24.0278 250.764 19.729Z" fill="#5E52FF"/>
</svg>
