<svg width="284" height="335" viewBox="0 0 284 335" fill="none" xmlns="http://www.w3.org/2000/svg">
<mask id="path-1-outside-1_2500_168906" maskUnits="userSpaceOnUse" x="0" y="0" width="284" height="335" fill="black">
<rect fill="white" width="284" height="335"/>
<path fill-rule="evenodd" clip-rule="evenodd" d="M1 17C1 8.16343 8.16344 1 17 1H267C275.837 1 283 8.16344 283 17V142C273.611 142 266 149.611 266 159C266 168.389 273.611 176 283 176V318C283 326.837 275.837 334 267 334H17C8.16345 334 1 326.837 1 318V176C10.3888 176 18 168.389 18 159C18 149.611 10.3888 142 1 142V17Z"/>
</mask>
<path fill-rule="evenodd" clip-rule="evenodd" d="M1 17C1 8.16343 8.16344 1 17 1H267C275.837 1 283 8.16344 283 17V142C273.611 142 266 149.611 266 159C266 168.389 273.611 176 283 176V318C283 326.837 275.837 334 267 334H17C8.16345 334 1 326.837 1 318V176C10.3888 176 18 168.389 18 159C18 149.611 10.3888 142 1 142V17Z" fill="white"/>
<path d="M283 142V142.5H283.5V142H283ZM283 176H283.5V175.5H283V176ZM1 176V175.5H0.5V176H1ZM1 142H0.5V142.5H1V142ZM17 0.5C7.8873 0.5 0.5 7.88729 0.5 17H1.5C1.5 8.43958 8.43959 1.5 17 1.5V0.5ZM267 0.5H17V1.5H267V0.5ZM283.5 17C283.5 7.8873 276.113 0.5 267 0.5V1.5C275.56 1.5 282.5 8.43959 282.5 17H283.5ZM283.5 142V17H282.5V142H283.5ZM266.5 159C266.5 149.887 273.887 142.5 283 142.5V141.5C273.335 141.5 265.5 149.335 265.5 159H266.5ZM283 175.5C273.887 175.5 266.5 168.113 266.5 159H265.5C265.5 168.665 273.335 176.5 283 176.5V175.5ZM283.5 318V176H282.5V318H283.5ZM267 334.5C276.113 334.5 283.5 327.113 283.5 318H282.5C282.5 326.56 275.56 333.5 267 333.5V334.5ZM17 334.5H267V333.5H17V334.5ZM0.5 318C0.5 327.113 7.88731 334.5 17 334.5V333.5C8.43959 333.5 1.5 326.56 1.5 318H0.5ZM0.5 176V318H1.5V176H0.5ZM17.5 159C17.5 168.113 10.1127 175.5 1 175.5V176.5C10.665 176.5 18.5 168.665 18.5 159H17.5ZM1 142.5C10.1127 142.5 17.5 149.887 17.5 159H18.5C18.5 149.335 10.665 141.5 1 141.5V142.5ZM0.5 17V142H1.5V17H0.5Z" fill="#DDE0E4" mask="url(#path-1-outside-1_2500_168906)"/>
</svg>
