<svg width="808" height="254" viewBox="0 0 808 254" fill="none" xmlns="http://www.w3.org/2000/svg">
<mask id="path-1-inside-1_3932_33136" fill="white">
<path fill-rule="evenodd" clip-rule="evenodd" d="M715.064 10.6608C726.104 10.3149 738.782 0 749.827 0H788C799.046 0 808 8.95431 808 20V234C808 245.046 799.046 254 788 254H20C8.95431 254 0 245.046 0 234V20C0 8.9543 8.95427 0 20 0H678.871C689.916 0 702.595 10.3149 713.635 10.6608C713.871 10.6682 714.11 10.672 714.349 10.672C714.589 10.672 714.827 10.6682 715.064 10.6608Z"/>
</mask>
<path fill-rule="evenodd" clip-rule="evenodd" d="M715.064 10.6608C726.104 10.3149 738.782 0 749.827 0H788C799.046 0 808 8.95431 808 20V234C808 245.046 799.046 254 788 254H20C8.95431 254 0 245.046 0 234V20C0 8.9543 8.95427 0 20 0H678.871C689.916 0 702.595 10.3149 713.635 10.6608C713.871 10.6682 714.11 10.672 714.349 10.672C714.589 10.672 714.827 10.6682 715.064 10.6608Z" fill="white"/>
<path d="M788 0.5H749.827V-0.5H788V0.5ZM807.5 234V20H808.5V234H807.5ZM20 253.5H788V254.5H20V253.5ZM0.5 20V234H-0.5V20H0.5ZM678.871 0.5H20V-0.5H678.871V0.5ZM713.65 10.161C713.882 10.1683 714.115 10.172 714.349 10.172V11.172C714.104 11.172 713.861 11.1681 713.619 11.1606L713.65 10.161ZM714.349 10.172C714.584 10.172 714.817 10.1683 715.048 10.161L715.08 11.1606C714.837 11.1681 714.594 11.172 714.349 11.172V10.172ZM678.871 -0.5C684.52 -0.5 690.553 2.13304 696.457 4.74339C702.417 7.37868 708.248 9.99179 713.65 10.161L713.619 11.1606C707.981 10.9839 701.953 8.26661 696.053 5.65798C690.096 3.02441 684.268 0.5 678.871 0.5V-0.5ZM-0.5 20C-0.5 8.67816 8.67812 -0.5 20 -0.5V0.5C9.23041 0.5 0.5 9.23045 0.5 20H-0.5ZM20 254.5C8.67816 254.5 -0.5 245.322 -0.5 234H0.5C0.5 244.77 9.23045 253.5 20 253.5V254.5ZM808.5 234C808.5 245.322 799.322 254.5 788 254.5V253.5C798.77 253.5 807.5 244.77 807.5 234H808.5ZM749.827 0.5C744.431 0.5 738.602 3.02441 732.646 5.65798C726.746 8.26661 720.718 10.9839 715.08 11.1606L715.048 10.161C720.45 9.99179 726.281 7.37868 732.241 4.74339C738.145 2.13304 744.178 -0.5 749.827 -0.5V0.5ZM788 -0.5C799.322 -0.5 808.5 8.67817 808.5 20H807.5C807.5 9.23045 798.77 0.5 788 0.5V-0.5Z" fill="#DDE0E4" mask="url(#path-1-inside-1_3932_33136)"/>
</svg>
