<svg width="36" height="32" viewBox="0 0 36 32" fill="none" xmlns="http://www.w3.org/2000/svg">
<path d="M5.0285 17.7465L17.3882 29.3571C17.6779 29.6293 17.8228 29.7654 17.9996 29.7654C18.1764 29.7654 18.3213 29.6293 18.611 29.3572L18.611 29.3572L30.9707 17.7465C31.5322 17.2191 31.813 16.9553 32.0364 16.7075C34.4751 14.0024 34.7899 9.99537 32.8035 6.9426C32.6215 6.66295 32.3854 6.35861 31.9131 5.74994L31.3816 5.06485L31.3815 5.06469C31.1479 4.76368 31.0311 4.61316 30.9433 4.50852C27.6778 0.616416 21.5076 1.28086 19.1455 5.77899C19.082 5.89994 19 6.07192 18.8358 6.41587L18.8358 6.41591C18.8102 6.46952 18.7974 6.49632 18.7886 6.513C18.453 7.14586 17.5463 7.14586 17.2107 6.513C17.2018 6.49632 17.189 6.4695 17.1634 6.41587C16.9993 6.07192 16.9172 5.89994 16.8537 5.77899C14.4916 1.28086 8.32144 0.616416 5.05587 4.50852C4.96807 4.61317 4.85125 4.76373 4.61763 5.06485L4.0861 5.74993C3.61385 6.35861 3.37772 6.66295 3.19575 6.9426C1.20931 9.99537 1.52408 14.0024 3.96284 16.7075C4.18624 16.9553 4.46697 17.219 5.02841 17.7464L5.0285 17.7465Z" fill="#5E52FF" stroke="#5E52FF" stroke-width="3"/>
</svg>
