<svg width="38" height="38" viewBox="0 0 38 38" fill="none" xmlns="http://www.w3.org/2000/svg">
<path d="M18.9965 28.5C18.7999 28.4998 18.6065 28.4509 18.4336 28.3575L2.99609 20.045L4.12184 17.955L18.9965 25.9635L33.8711 17.955L34.9968 20.045L19.5593 28.3575C19.3864 28.4509 19.193 28.4998 18.9965 28.5Z" fill="white"/>
<path d="M18.9988 35.625C18.8023 35.6248 18.6089 35.5758 18.436 35.4825L2.99847 27.17L4.12422 25.08L18.9988 33.0885L33.8735 25.08L34.9992 27.17L19.5617 35.4825C19.3888 35.5758 19.1954 35.6248 18.9988 35.625ZM18.9988 21.375C18.8023 21.3748 18.6089 21.3258 18.436 21.2325L2.99847 12.92C2.80995 12.8182 2.65247 12.6674 2.54271 12.4834C2.43295 12.2994 2.375 12.0892 2.375 11.875C2.375 11.6608 2.43295 11.4505 2.54271 11.2666C2.65247 11.0826 2.80995 10.9317 2.99847 10.83L18.436 2.51749C18.609 2.42436 18.8024 2.37561 18.9988 2.37561C19.1953 2.37561 19.3887 2.42436 19.5617 2.51749L34.9992 10.83C35.1877 10.9317 35.3452 11.0826 35.455 11.2666C35.5647 11.4505 35.6227 11.6608 35.6227 11.875C35.6227 12.0892 35.5647 12.2994 35.455 12.4834C35.3452 12.6674 35.1877 12.8182 34.9992 12.92L19.5617 21.2325C19.3888 21.3258 19.1954 21.3748 18.9988 21.375ZM6.06697 11.875L18.9988 18.8385L31.9307 11.875L18.9988 4.91149L6.06697 11.875Z" fill="white"/>
</svg>
