<svg width="32" height="32" viewBox="0 0 32 32" fill="none" xmlns="http://www.w3.org/2000/svg">
<path d="M26 24C25.4696 24 24.9609 24.2107 24.5858 24.5858C24.2107 24.9609 24 25.4696 24 26C24 26.076 24.014 26.149 24.023 26.223C21.7386 28.0274 18.9111 29.0061 16 29C11.738 29 8 25.028 8 20.5C8 15.813 11.813 12 16.5 12H17V9.99999H16.5C10.71 9.99999 6 14.71 6 20.5C6 22.384 6.53 24.19 7.437 25.757C4.724 23.371 3 19.886 3 16C3 13.885 3.492 11.867 4.462 10.004L2.688 9.08099C1.57988 11.2191 1.001 13.5918 1 16C1 24.271 7.729 31 16 31C19.374 31 22.582 29.88 25.205 27.834C25.4777 27.9526 25.7733 28.0089 26.0705 27.9988C26.3676 27.9888 26.6588 27.9126 26.9228 27.7758C27.1868 27.639 27.417 27.4451 27.5966 27.2082C27.7762 26.9712 27.9007 26.6972 27.9611 26.4061C28.0215 26.1149 28.0162 25.814 27.9456 25.5252C27.875 25.2363 27.7409 24.9669 27.553 24.7364C27.3652 24.5059 27.1283 24.3202 26.8597 24.1929C26.591 24.0655 26.2973 23.9996 26 24Z" fill="#323538"/>
<path d="M13 20V22H11V20H13ZM21 10V12H19V10H21Z" fill="#323538"/>
<path d="M16 1C12.626 1 9.418 2.12 6.795 4.166C6.39998 3.99488 5.96028 3.95578 5.54126 4.05453C5.12224 4.15327 4.74626 4.38458 4.46921 4.71408C4.19216 5.04358 4.02882 5.45368 4.00347 5.88344C3.97812 6.31319 4.09211 6.73965 4.32851 7.09943C4.5649 7.45922 4.91107 7.73313 5.31558 7.88045C5.72008 8.02777 6.16133 8.04064 6.57373 7.91715C6.98614 7.79365 7.34769 7.54038 7.60465 7.19499C7.86161 6.84959 8.00026 6.4305 8 6C8 5.924 7.986 5.851 7.977 5.777C10.2614 3.9726 13.0889 2.9939 16 3C20.262 3 24 6.972 24 11.5C24 16.187 20.187 20 15.5 20H15V22H15.5C21.29 22 26 17.29 26 11.5C26 9.615 25.468 7.808 24.56 6.24C27.275 8.626 29 12.112 29 16C29 18.115 28.508 20.133 27.538 21.996L29.312 22.919C30.4201 20.7809 30.999 18.4082 31 16C31 7.729 24.271 1 16 1Z" fill="#323538"/>
</svg>
