<svg width="32" height="32" viewBox="0 0 32 32" fill="none" xmlns="http://www.w3.org/2000/svg">
<path d="M29.4543 6.98319H23.0023V1H9.01675V6.98319H2.57925C2.16885 6.98372 1.7754 7.14699 1.48521 7.43719C1.19502 7.7274 1.03176 8.12085 1.03125 8.53125V29.4083C1.03178 29.8186 1.19504 30.2121 1.48523 30.5023C1.77542 30.7925 2.16886 30.9557 2.57925 30.9562H29.4543C29.8646 30.9557 30.2581 30.7925 30.5483 30.5023C30.8385 30.2121 31.0017 29.8186 31.0023 29.4083V8.53125C31.0017 8.12085 30.8385 7.7274 30.5483 7.43719C30.2581 7.14699 29.8647 6.98372 29.4543 6.98319ZM11.0167 3H21.0023V6.98319H11.0167V3ZM28.9062 9.07931V14.0972L25.5827 17.4207H17.0648V14.5H14.9688V17.4207H6.45081L3.12725 14.0972V9.07931H28.9062ZM3.12725 28.8603V17.0614L5.58263 19.5168H14.9688V22.4688H17.0648V19.5168H26.4509L28.9062 17.0614V28.8603H3.12725Z" fill="#323538"/>
</svg>
