<svg width="38" height="38" viewBox="0 0 38 38" fill="none" xmlns="http://www.w3.org/2000/svg">
<path d="M19 4.75C16.1816 4.75 13.4265 5.58575 11.0831 7.15156C8.73973 8.71737 6.91327 10.9429 5.83472 13.5468C4.75617 16.1506 4.47398 19.0158 5.02382 21.78C5.57366 24.5443 6.93084 27.0834 8.92373 29.0763C10.9166 31.0692 13.4557 32.4263 16.22 32.9762C18.9842 33.526 21.8494 33.2438 24.4532 32.1653C27.0571 31.0867 29.2826 29.2603 30.8484 26.9169C32.4143 24.5735 33.25 21.8184 33.25 19C33.25 15.2207 31.7487 11.5961 29.0763 8.92373C26.4039 6.25133 22.7793 4.75 19 4.75ZM30.875 17.8125H20.1875V7.18438C22.9237 7.44532 25.4846 8.64736 27.4336 10.5855C29.3825 12.5236 30.5988 15.0778 30.875 17.8125ZM18.3113 30.875C15.3038 30.7351 12.4617 29.4581 10.36 27.3023C8.25831 25.1465 7.05396 22.2728 6.99059 19.2628C6.92722 16.2527 8.00957 13.3309 10.0187 11.0886C12.0277 8.84621 14.8136 7.4507 17.8125 7.18438V17.8719C17.8125 18.5018 18.0627 19.1059 18.5081 19.5513C18.9535 19.9967 19.5576 20.2469 20.1875 20.2469H30.875C30.5591 23.2982 29.0746 26.1088 26.7326 28.09C24.3905 30.0712 21.3727 31.0692 18.3113 30.875Z" fill="#323538"/>
</svg>
