<svg width="1440" height="1024" viewBox="0 0 1440 1024" fill="none" xmlns="http://www.w3.org/2000/svg">
<g clip-path="url(#clip0_2240_33731)">
<path fill-rule="evenodd" clip-rule="evenodd" d="M529.348 212.289C520.307 214.53 514.872 215.054 505.5 214.155C504.987 218.734 505.355 222.735 507.467 226.477C513.695 227.693 521.56 227.467 532.048 226.167C528.202 220.59 527.142 217.124 529.348 212.289Z" fill="#61BA47"/>
<path fill-rule="evenodd" clip-rule="evenodd" d="M1300.93 58.2004C1291.63 58.6471 1286.2 58.1076 1277.18 55.4091C1275.79 59.8022 1275.37 63.7992 1276.72 67.8795C1282.59 70.2787 1290.35 71.5816 1300.89 72.3387C1298.2 66.1218 1297.83 62.5166 1300.93 58.2004Z" fill="#F74F9E"/>
<path fill-rule="evenodd" clip-rule="evenodd" d="M803.736 60.5046C809.893 57.76 812.169 53.4132 815.38 46.76C812.562 40.1849 811.139 34.9088 808.032 29.8204C800.459 31.0645 795.137 30.2117 786.951 25.0867C790.884 40.3228 795.242 48.2208 803.736 60.5046Z" fill="#A550A7"/>
<path fill-rule="evenodd" clip-rule="evenodd" d="M1180.12 52.431C1171.92 56.8353 1166.78 58.6851 1157.47 60.1278C1158.11 64.6917 1159.45 68.4785 1162.42 71.5831C1168.76 71.2228 1176.32 69.0624 1186.17 65.2126C1181.06 60.7577 1179.18 57.6615 1180.12 52.431Z" fill="#FFC700"/>
<path fill-rule="evenodd" clip-rule="evenodd" d="M1350.81 154.154C1344.08 154.488 1340.38 157.719 1334.99 162.762C1335.24 169.912 1334.66 175.345 1335.72 181.213C1343.23 182.789 1347.88 185.507 1353.66 193.244C1355.5 177.616 1354.29 168.677 1350.81 154.154Z" fill="#FF5257"/>
<path fill-rule="evenodd" clip-rule="evenodd" d="M719.009 9.48947C711.621 3.8174 707.824 -0.106339 702.685 -7.99527C698.785 -5.54132 695.885 -2.75936 694.276 1.22461C697.208 6.85213 702.286 12.861 709.841 20.2519C711.805 13.768 713.853 10.7785 719.009 9.48947Z" fill="#007AFF"/>
<path fill-rule="evenodd" clip-rule="evenodd" d="M639.007 34.2542C643.972 38.8131 648.866 39.1739 656.247 39.4762C661.16 34.2768 665.436 30.8741 668.871 26.0005C664.719 19.5459 663.387 14.3238 664.836 4.7749C652.418 14.4398 646.903 21.5772 639.007 34.2542Z" fill="#61BA47"/>
<path fill-rule="evenodd" clip-rule="evenodd" d="M877.753 105.285C868.6 107.009 863.143 107.223 853.837 105.793C853.066 110.335 853.206 114.351 855.101 118.207C861.25 119.774 869.115 119.996 879.66 119.294C876.137 113.507 875.276 109.987 877.753 105.285Z" fill="#61BA47"/>
<path fill-rule="evenodd" clip-rule="evenodd" d="M522.395 80.6617C525.838 86.4571 530.421 88.2112 537.403 90.6255C543.605 87.0606 548.679 85.0328 553.371 81.3541C551.253 73.9776 551.481 68.593 555.617 59.8655C540.943 65.5467 533.606 70.7942 522.395 80.6617Z" fill="#F74F9E"/>
<path fill-rule="evenodd" clip-rule="evenodd" d="M23.4996 112.355C22.6045 121.626 21.2896 126.926 17.3227 135.464C21.4704 137.471 25.3663 138.456 29.5978 137.71C32.8164 132.241 35.221 124.75 37.4852 114.427C30.946 116.198 27.3252 116.044 23.4996 112.355Z" fill="#A550A7"/>
<path fill-rule="evenodd" clip-rule="evenodd" d="M773.525 74.1344C771.936 67.5833 768.071 64.5606 762.106 60.202C755.131 61.7879 749.685 62.2357 744.119 64.3739C743.977 72.0471 742.178 77.1274 735.66 84.2549C751.356 83.1347 759.91 80.2737 773.525 74.1344Z" fill="#FFC700"/>
<path fill-rule="evenodd" clip-rule="evenodd" d="M1324.97 -7.62371C1323.59 1.58803 1322 6.81216 1317.6 15.1318C1321.63 17.3526 1325.47 18.5396 1329.74 18.0153C1333.24 12.7222 1336.03 5.36688 1338.83 -4.82407C1332.21 -3.39726 1328.6 -3.73932 1324.97 -7.62371Z" fill="#FF5257"/>
<path fill-rule="evenodd" clip-rule="evenodd" d="M150.522 53.0214C157.616 59.0576 161.212 63.1672 165.948 71.3044C169.966 69.0496 173.002 66.4169 174.81 62.5188C172.164 56.751 167.394 50.4945 160.22 42.7334C157.933 49.1104 155.737 51.9931 150.522 53.0214Z" fill="#007AFF"/>
<path fill-rule="evenodd" clip-rule="evenodd" d="M299.936 -35.7093C293.547 -33.5596 290.87 -29.4476 287.044 -23.1281C289.228 -16.3158 290.145 -10.9287 292.757 -5.56917C300.413 -6.0912 305.63 -4.73866 313.295 1.13794C310.821 -14.402 307.231 -22.6769 299.936 -35.7093Z" fill="#FFC700"/>
<path fill-rule="evenodd" clip-rule="evenodd" d="M133.762 58.4111C125.564 53.9902 121.189 50.7225 114.858 43.7542C111.399 46.7989 108.98 50.0077 108.027 54.1974C111.819 59.2852 117.791 64.4071 126.428 70.4982C127.332 63.7841 128.878 60.5062 133.762 58.4111Z" fill="#F74F9E"/>
<path fill-rule="evenodd" clip-rule="evenodd" d="M609.649 41.7482C618.367 38.4682 623.704 37.3143 633.117 37.1148C633.092 32.5071 632.26 28.5757 629.726 25.1055C623.399 24.6246 615.615 25.7654 605.349 28.2796C609.819 33.3704 611.277 36.6885 609.649 41.7482Z" fill="#A550A7"/>
<path fill-rule="evenodd" clip-rule="evenodd" d="M1200.86 67.8412C1191.83 65.5489 1186.79 63.4446 1178.96 58.2273C1176.34 62.0222 1174.78 65.7234 1174.87 70.0192C1179.79 74.0307 1186.83 77.5448 1196.69 81.3501C1195.93 74.6179 1196.63 71.0623 1200.86 67.8412Z" fill="#FF5257"/>
<path fill-rule="evenodd" clip-rule="evenodd" d="M633.952 33.5972C638.203 41.8846 639.958 47.0558 641.228 56.3848C645.803 55.8351 649.614 54.561 652.773 51.6485C652.53 45.3076 650.51 37.7038 646.843 27.7916C642.295 32.8122 639.164 34.6378 633.952 33.5972Z" fill="#A550A7"/>
<path fill-rule="evenodd" clip-rule="evenodd" d="M299.532 210.45C305.25 206.878 306.901 202.258 309.16 195.224C305.458 189.103 303.317 184.075 299.535 179.466C292.208 181.747 286.819 181.64 278.002 177.699C284.008 192.243 289.418 199.461 299.532 210.45Z" fill="#007AFF"/>
<path fill-rule="evenodd" clip-rule="evenodd" d="M259.789 217.845C261.684 211.376 259.845 206.827 256.854 200.072C250.018 197.963 245.076 195.631 239.186 194.705C235.231 201.282 231.136 204.785 221.93 207.706C236.088 214.573 244.928 216.366 259.789 217.845Z" fill="#F74F9E"/>
<path fill-rule="evenodd" clip-rule="evenodd" d="M1132.7 20.0753C1125.2 25.5993 1120.38 28.1591 1111.37 30.9071C1112.65 35.3348 1114.52 38.8926 1117.9 41.5444C1124.12 40.2891 1131.3 37.0775 1140.5 31.8704C1134.81 28.1846 1132.51 25.3868 1132.7 20.0753Z" fill="#A550A7"/>
<path fill-rule="evenodd" clip-rule="evenodd" d="M1134.31 86.1594C1125.7 89.7091 1120.4 91.0285 1111 91.5208C1111.16 96.1255 1112.12 100.029 1114.76 103.419C1121.1 103.703 1128.84 102.32 1139.03 99.4877C1134.4 94.5384 1132.84 91.2672 1134.31 86.1594Z" fill="#007AFF"/>
<path fill-rule="evenodd" clip-rule="evenodd" d="M980.946 208.374C976.611 203.211 971.806 202.221 964.525 200.966C958.981 205.487 954.301 208.308 950.265 212.696C953.547 219.634 954.193 224.984 951.521 234.266C965.085 226.288 971.477 219.923 980.946 208.374Z" fill="#F74F9E"/>
<path fill-rule="evenodd" clip-rule="evenodd" d="M1022.44 90.1373C1016.9 86.2968 1012.01 86.6057 1004.65 87.3112C1000.49 93.131 996.721 97.0842 993.982 102.38C998.974 108.209 1001 113.201 1000.87 122.859C1011.86 111.593 1016.35 103.771 1022.44 90.1373Z" fill="#61BA47"/>
<path fill-rule="evenodd" clip-rule="evenodd" d="M809.966 132.022C810.913 122.756 812.258 117.463 816.273 108.947C812.137 106.917 808.246 105.91 804.011 106.632C800.761 112.083 798.315 119.56 795.992 129.871C802.541 128.137 806.161 128.31 809.966 132.022Z" fill="#007AFF"/>
<path fill-rule="evenodd" clip-rule="evenodd" d="M417.784 110.029C420.081 116.366 424.254 118.947 430.66 122.627C437.42 120.286 442.784 119.245 448.082 116.51C447.383 108.867 448.615 103.62 454.312 95.8218C438.834 98.6544 430.644 102.435 417.784 110.029Z" fill="#FF5257"/>
<path fill-rule="evenodd" clip-rule="evenodd" d="M703.641 62.2813C699.573 67.657 699.679 72.5625 700.078 79.9392C705.72 84.3371 709.513 88.271 714.69 91.2274C720.722 86.4822 725.794 84.6603 735.438 85.197C724.638 73.7522 717.01 68.9386 703.641 62.2813Z" fill="#F74F9E"/>
<path fill-rule="evenodd" clip-rule="evenodd" d="M508.273 101.629C512.012 93.0978 514.913 88.4712 521.343 81.5937C518.027 78.3944 514.632 76.2447 510.378 75.6355C505.616 79.8292 500.997 86.1983 495.629 95.3023C502.395 95.657 505.788 96.9307 508.273 101.629Z" fill="#F74F9E"/>
<path fill-rule="evenodd" clip-rule="evenodd" d="M996.229 176.585C991.843 184.803 988.595 189.192 981.654 195.553C984.713 198.998 987.932 201.403 992.126 202.339C997.198 198.525 1002.29 192.531 1008.35 183.868C1001.63 182.992 998.345 181.461 996.229 176.585Z" fill="#007AFF"/>
</g>
<defs>
<clipPath id="clip0_2240_33731">
<rect width="1440" height="1024" fill="white"/>
</clipPath>
</defs>
</svg>
