<svg width="1440" height="1024" viewBox="0 0 1440 1024" fill="none" xmlns="http://www.w3.org/2000/svg">
<g clip-path="url(#clip0_2240_35241)">
<path fill-rule="evenodd" clip-rule="evenodd" d="M1246.01 1003.82C1250.38 995.6 1253.63 991.207 1260.56 984.837C1257.5 981.395 1254.27 978.994 1250.08 978.064C1245.01 981.885 1239.92 987.885 1233.88 996.555C1240.6 997.422 1243.89 998.95 1246.01 1003.82Z" fill="#61BA47"/>
<path fill-rule="evenodd" clip-rule="evenodd" d="M939.06 452.4C945.745 451.538 949.173 448.027 954.159 442.576C953.347 435.469 953.499 430.006 951.983 424.24C944.372 423.258 939.519 420.913 933.148 413.654C932.542 429.378 934.449 438.194 939.06 452.4Z" fill="#A550A7"/>
<path fill-rule="evenodd" clip-rule="evenodd" d="M946.192 1031.89C952.747 1030.32 955.78 1026.46 960.153 1020.5C958.585 1013.52 958.15 1008.08 956.026 1002.51C948.353 1002.34 943.277 1000.53 936.166 993.998C937.247 1009.7 940.087 1018.26 946.192 1031.89Z" fill="#F74F9E"/>
<path fill-rule="evenodd" clip-rule="evenodd" d="M87.5965 941.082C90.208 932.141 92.49 927.18 97.9823 919.533C94.2826 916.787 90.6393 915.091 86.3429 915.034C82.1592 919.805 78.3974 926.715 74.2443 936.433C80.9992 935.916 84.5276 936.743 87.5965 941.082Z" fill="#F74F9E"/>
<path fill-rule="evenodd" clip-rule="evenodd" d="M1307.32 900.35C1310.09 894.202 1308.89 889.444 1306.86 882.342C1300.38 879.314 1295.8 876.325 1290.1 874.598C1285.27 880.569 1280.74 883.476 1271.22 885.104C1284.3 893.852 1292.81 896.842 1307.32 900.35Z" fill="#F74F9E"/>
<path fill-rule="evenodd" clip-rule="evenodd" d="M1208.21 958.964C1201.9 952.112 1198.83 947.596 1195.12 938.944C1190.86 940.694 1187.52 942.939 1185.26 946.589C1187.18 952.635 1191.16 959.424 1197.34 967.999C1200.38 961.947 1202.91 959.352 1208.21 958.964Z" fill="#FF5257"/>
<path fill-rule="evenodd" clip-rule="evenodd" d="M332.951 518.355C327.738 514.082 322.832 513.996 315.445 514.108C310.831 519.575 306.753 523.212 303.597 528.271C308.104 534.483 309.728 539.622 308.816 549.237C320.672 538.891 325.779 531.455 332.951 518.355Z" fill="#A550A7"/>
<path fill-rule="evenodd" clip-rule="evenodd" d="M598.062 999.157C607.047 996.702 612.469 996.05 621.859 996.727C622.263 992.137 621.8 988.145 619.6 984.454C613.345 983.387 605.488 983.799 595.034 985.347C599.011 990.832 600.153 994.271 598.062 999.157Z" fill="#007AFF"/>
<path fill-rule="evenodd" clip-rule="evenodd" d="M933.834 909.78C927.179 910.85 923.862 914.466 919.049 920.07C920.083 927.149 920.102 932.613 921.797 938.33C929.435 939.073 934.359 941.265 940.953 948.322C941.068 932.587 938.887 923.834 933.834 909.78Z" fill="#A550A7"/>
<path fill-rule="evenodd" clip-rule="evenodd" d="M682.869 1026.71C692.079 1028.1 697.3 1029.7 705.613 1034.12C707.84 1030.08 709.033 1026.25 708.515 1021.98C703.228 1018.47 695.877 1015.67 685.69 1012.85C687.107 1019.48 686.759 1023.09 682.869 1026.71Z" fill="#A550A7"/>
<path fill-rule="evenodd" clip-rule="evenodd" d="M938.933 800.111C944.332 804.148 949.237 804.014 956.611 803.573C960.977 797.906 964.889 794.09 967.815 788.896C963.036 782.891 961.185 777.83 961.666 768.184C950.283 779.049 945.514 786.704 938.933 800.111Z" fill="#FFC700"/>
<path fill-rule="evenodd" clip-rule="evenodd" d="M1112.62 852.975C1106.26 855.227 1103.65 859.382 1099.93 865.762C1102.22 872.538 1103.22 877.91 1105.92 883.227C1113.57 882.582 1118.81 883.85 1126.56 889.603C1123.84 874.105 1120.12 865.889 1112.62 852.975Z" fill="#F74F9E"/>
<path fill-rule="evenodd" clip-rule="evenodd" d="M668.876 576.209C663.797 568.401 661.522 563.437 659.303 554.287C654.808 555.303 651.148 556.961 648.304 560.182C649.195 566.465 651.984 573.822 656.647 583.306C660.657 577.845 663.584 575.708 668.876 576.209Z" fill="#FFC700"/>
<path fill-rule="evenodd" clip-rule="evenodd" d="M1182.88 827.112C1181.59 833.729 1183.85 838.088 1187.45 844.535C1194.45 846 1199.59 847.862 1205.54 848.237C1208.87 841.32 1212.62 837.451 1221.52 833.688C1206.78 828.167 1197.81 827.203 1182.88 827.112Z" fill="#FF5257"/>
<path fill-rule="evenodd" clip-rule="evenodd" d="M40.5219 1008.37C41.593 1017.63 41.4199 1023.08 39.3336 1032.26C43.8102 1033.36 47.826 1033.5 51.8066 1031.88C53.8056 1025.86 54.5841 1018.03 54.631 1007.46C48.6091 1010.57 45.0368 1011.18 40.5219 1008.37Z" fill="#FFC700"/>
<path fill-rule="evenodd" clip-rule="evenodd" d="M255.165 731.665C251.172 723.25 249.578 718.028 248.596 708.664C244.006 709.072 240.158 710.228 236.91 713.042C236.958 719.387 238.742 727.05 242.101 737.07C246.803 732.192 249.988 730.464 255.165 731.665Z" fill="#A550A7"/>
<path fill-rule="evenodd" clip-rule="evenodd" d="M941.061 700.609C946.548 704.525 951.449 704.282 958.811 703.677C963.05 697.914 966.876 694.012 969.686 688.754C964.774 682.858 962.811 677.839 963.078 668.184C951.94 679.299 947.342 687.06 941.061 700.609Z" fill="#F74F9E"/>
<path fill-rule="evenodd" clip-rule="evenodd" d="M768.203 927.821C774.941 927.596 778.686 924.426 784.165 919.471C784.03 912.319 784.698 906.895 783.735 901.011C776.251 899.313 771.642 896.519 765.987 888.689C763.895 904.285 764.958 913.243 768.203 927.821Z" fill="#F74F9E"/>
<path fill-rule="evenodd" clip-rule="evenodd" d="M948.634 1000.05C955.107 998.171 957.953 994.174 962.039 988.019C960.141 981.122 959.449 975.701 957.063 970.237C949.391 970.44 944.235 968.871 936.822 962.68C938.646 978.31 941.889 986.727 948.634 1000.05Z" fill="#A550A7"/>
<path fill-rule="evenodd" clip-rule="evenodd" d="M623.514 134.082C614.241 134.953 608.788 134.663 599.654 132.379C598.466 136.831 598.234 140.843 599.766 144.857C605.744 146.985 613.554 147.933 624.119 148.207C621.146 142.12 620.613 138.535 623.514 134.082Z" fill="#FF5257"/>
<path fill-rule="evenodd" clip-rule="evenodd" d="M587.326 690.383C592.493 694.713 597.397 694.853 604.785 694.822C609.458 689.406 613.577 685.814 616.788 680.791C612.349 674.53 610.783 669.373 611.8 659.769C599.831 669.984 594.642 677.363 587.326 690.383Z" fill="#FF5257"/>
<path fill-rule="evenodd" clip-rule="evenodd" d="M849.055 933.101C846.206 924.233 845.315 918.846 845.577 909.435C840.973 909.234 837.006 909.872 833.416 912.233C832.626 918.529 833.384 926.36 835.392 936.736C840.696 932.521 844.081 931.228 849.055 933.101Z" fill="#A550A7"/>
<path fill-rule="evenodd" clip-rule="evenodd" d="M668.117 751.471C667.012 744.821 663.378 741.523 657.749 736.74C650.676 737.811 645.211 737.858 639.504 739.583C638.8 747.225 636.634 752.16 629.612 758.792C645.348 758.824 654.089 756.597 668.117 751.471Z" fill="#61BA47"/>
</g>
<defs>
<clipPath id="clip0_2240_35241">
<rect width="1440" height="1024" fill="white"/>
</clipPath>
</defs>
</svg>
