<svg width="1440" height="1024" viewBox="0 0 1440 1024" fill="none" xmlns="http://www.w3.org/2000/svg">
<g clip-path="url(#clip0_2240_34335)">
<path fill-rule="evenodd" clip-rule="evenodd" d="M1298.6 323.523C1307.9 323.916 1313.27 324.944 1322.01 328.444C1323.79 324.194 1324.56 320.251 1323.59 316.066C1317.95 313.147 1310.34 311.15 1299.91 309.446C1302.03 315.88 1302.08 319.504 1298.6 323.523Z" fill="#FFC700"/>
<path fill-rule="evenodd" clip-rule="evenodd" d="M392.366 629.979C385.625 630.017 381.793 633.082 376.179 637.884C376.116 645.037 375.298 650.44 376.098 656.348C383.532 658.253 388.062 661.173 393.498 669.156C396.021 653.624 395.206 644.641 392.366 629.979Z" fill="#007AFF"/>
<path fill-rule="evenodd" clip-rule="evenodd" d="M1020.83 142.009C1022.69 148.488 1026.68 151.346 1032.82 155.45C1039.72 153.574 1045.15 152.898 1050.62 150.528C1050.44 142.856 1052.02 137.705 1058.23 130.31C1042.6 132.087 1034.17 135.304 1020.83 142.009Z" fill="#F74F9E"/>
<path fill-rule="evenodd" clip-rule="evenodd" d="M1357.14 435.205C1363.81 434.221 1367.18 430.648 1372.06 425.107C1371.12 418.015 1371.17 412.551 1369.55 406.813C1361.92 405.971 1357.03 403.716 1350.52 396.574C1350.21 412.307 1352.27 421.087 1357.14 435.205Z" fill="#F74F9E"/>
<path fill-rule="evenodd" clip-rule="evenodd" d="M1268.39 980.713C1274.17 984.187 1279.04 983.562 1286.33 982.382C1290.1 976.306 1293.61 972.117 1296 966.655C1290.64 961.161 1288.29 956.31 1287.8 946.665C1277.57 958.617 1273.59 966.713 1268.39 980.713Z" fill="#FF5257"/>
<path fill-rule="evenodd" clip-rule="evenodd" d="M693.236 1025.85C688.588 1033.92 685.199 1038.21 678.057 1044.34C681.004 1047.88 684.144 1050.39 688.306 1051.46C693.497 1047.81 698.784 1041.98 705.114 1033.52C698.427 1032.43 695.194 1030.79 693.236 1025.85Z" fill="#007AFF"/>
<path fill-rule="evenodd" clip-rule="evenodd" d="M1310.3 301.152C1317.93 306.507 1321.89 310.267 1327.35 317.932C1331.15 315.316 1333.93 312.414 1335.37 308.366C1332.2 302.867 1326.87 297.078 1319.01 290.012C1317.32 296.573 1315.4 299.646 1310.3 301.152Z" fill="#FF5257"/>
<path fill-rule="evenodd" clip-rule="evenodd" d="M860.765 708.954C863.422 702.759 862.141 698.022 859.982 690.958C853.449 688.044 848.822 685.136 843.086 683.51C838.371 689.565 833.884 692.551 824.395 694.347C837.627 702.863 846.188 705.703 860.765 708.954Z" fill="#61BA47"/>
<path fill-rule="evenodd" clip-rule="evenodd" d="M1254.13 1028.84C1259.17 1033.31 1264.07 1033.59 1271.46 1033.76C1276.28 1028.48 1280.5 1025 1283.84 1020.07C1279.58 1013.69 1278.16 1008.49 1279.44 998.916C1267.19 1008.8 1261.8 1016.03 1254.13 1028.84Z" fill="#61BA47"/>
<path fill-rule="evenodd" clip-rule="evenodd" d="M169.945 213.698C166.615 222.397 163.937 227.156 157.84 234.33C161.304 237.369 164.797 239.355 169.075 239.762C173.633 235.347 177.944 228.767 182.875 219.418C176.1 219.385 172.651 218.273 169.945 213.698Z" fill="#A550A7"/>
<path fill-rule="evenodd" clip-rule="evenodd" d="M393.139 973.692C390.696 964.704 390.051 959.281 390.741 949.892C386.151 949.482 382.159 949.939 378.465 952.134C377.389 958.387 377.79 966.245 379.324 976.701C384.814 972.732 388.255 971.594 393.139 973.692Z" fill="#007AFF"/>
<path fill-rule="evenodd" clip-rule="evenodd" d="M1249.31 286.25C1244.37 278.349 1242.19 273.344 1240.14 264.154C1235.63 265.087 1231.94 266.677 1229.04 269.845C1229.81 276.143 1232.46 283.55 1236.95 293.119C1241.06 287.733 1244.03 285.651 1249.31 286.25Z" fill="#61BA47"/>
<path fill-rule="evenodd" clip-rule="evenodd" d="M1112.2 269.935C1107.57 261.855 1105.58 256.771 1103.87 247.511C1099.33 248.274 1095.58 249.725 1092.56 252.781C1093.1 259.104 1095.47 266.605 1099.6 276.336C1103.91 271.108 1106.95 269.138 1112.2 269.935Z" fill="#FF5257"/>
<path fill-rule="evenodd" clip-rule="evenodd" d="M650.92 1014.08C648.545 1007.77 644.34 1005.24 637.889 1001.64C631.159 1004.07 625.808 1005.18 620.544 1007.98C621.338 1015.61 620.171 1020.87 614.57 1028.74C630.013 1025.72 638.155 1021.83 650.92 1014.08Z" fill="#F74F9E"/>
<path fill-rule="evenodd" clip-rule="evenodd" d="M678.483 381.513C672.28 378.875 667.547 380.169 660.488 382.349C657.594 388.891 654.7 393.526 653.09 399.267C659.159 403.965 662.159 408.442 663.982 417.927C672.459 404.669 675.274 396.1 678.483 381.513Z" fill="#F74F9E"/>
<path fill-rule="evenodd" clip-rule="evenodd" d="M92.8416 43.39C86.4045 36.6581 83.2491 32.2013 79.3728 23.6213C75.1444 25.4521 71.8545 27.7596 69.6566 31.4517C71.6966 37.4604 75.7999 44.1731 82.1397 52.6291C85.0687 46.5203 87.5491 43.878 92.8416 43.39Z" fill="#F74F9E"/>
<path fill-rule="evenodd" clip-rule="evenodd" d="M1302.47 22.3347C1298.53 16.8657 1293.81 15.5229 1286.65 13.7341C1280.78 17.8324 1275.91 20.3001 1271.56 24.3784C1274.32 31.5393 1274.57 36.9229 1271.22 45.9814C1285.33 39.0275 1292.18 33.153 1302.47 22.3347Z" fill="#F74F9E"/>
<path fill-rule="evenodd" clip-rule="evenodd" d="M713.625 467.472C711.612 458.378 711.224 452.931 712.359 443.584C707.794 442.957 703.784 443.224 699.99 445.242C698.619 451.437 698.647 459.305 699.684 469.823C705.356 466.118 708.847 465.145 713.625 467.472Z" fill="#007AFF"/>
<path fill-rule="evenodd" clip-rule="evenodd" d="M626.101 593.207C626.974 599.892 630.491 603.313 635.951 608.289C643.057 607.465 648.52 607.607 654.283 606.081C655.252 598.468 657.588 593.611 664.836 587.228C649.111 586.649 640.298 588.571 626.101 593.207Z" fill="#61BA47"/>
<path fill-rule="evenodd" clip-rule="evenodd" d="M870.665 849.004C862.545 844.441 858.227 841.098 852.018 834.02C848.507 837.004 846.033 840.171 845.006 844.343C848.709 849.496 854.591 854.721 863.121 860.962C864.142 854.265 865.744 851.014 870.665 849.004Z" fill="#61BA47"/>
<path fill-rule="evenodd" clip-rule="evenodd" d="M1252.89 944.27C1262.18 943.529 1267.62 943.896 1276.72 946.307C1277.97 941.872 1278.26 937.864 1276.79 933.829C1270.84 931.617 1263.04 930.56 1252.48 930.138C1255.37 936.266 1255.85 939.858 1252.89 944.27Z" fill="#FF5257"/>
<path fill-rule="evenodd" clip-rule="evenodd" d="M190.126 666.627C194.649 674.77 196.573 679.88 198.151 689.162C202.705 688.462 206.472 687.062 209.533 684.047C209.081 677.718 206.811 670.185 202.819 660.399C198.438 665.567 195.37 667.495 190.126 666.627Z" fill="#A550A7"/>
<path fill-rule="evenodd" clip-rule="evenodd" d="M1218.65 286.51C1209.56 288.547 1204.12 288.948 1194.77 287.838C1194.15 292.405 1194.43 296.413 1196.46 300.202C1202.66 301.557 1210.52 301.509 1221.04 300.445C1217.32 294.783 1216.34 291.294 1218.65 286.51Z" fill="#FF5257"/>
<path fill-rule="evenodd" clip-rule="evenodd" d="M781.241 488.507C782.116 495.19 785.634 498.611 791.095 503.586C798.201 502.759 803.664 502.9 809.427 501.373C810.393 493.759 812.728 488.902 819.975 482.517C804.249 481.942 795.437 483.867 781.241 488.507Z" fill="#F74F9E"/>
<path fill-rule="evenodd" clip-rule="evenodd" d="M411.95 711.832C408.731 705.909 404.219 703.981 397.335 701.302C391.001 704.627 385.852 706.459 381.023 709.956C382.857 717.408 382.424 722.78 377.957 731.343C392.838 726.227 400.37 721.264 411.95 711.832Z" fill="#61BA47"/>
<path fill-rule="evenodd" clip-rule="evenodd" d="M862.893 829.96C867.455 834.922 872.3 835.696 879.63 836.622C884.965 831.857 889.514 828.829 893.349 824.263C889.758 817.481 888.873 812.164 891.125 802.772C877.934 811.352 871.834 817.996 862.893 829.96Z" fill="#FFC700"/>
<path fill-rule="evenodd" clip-rule="evenodd" d="M1002.58 221.399C997.563 216.901 992.666 216.6 985.281 216.388C980.432 221.647 976.198 225.101 972.823 230.016C977.053 236.42 978.45 241.625 977.117 251.191C989.416 241.375 994.844 234.171 1002.58 221.399Z" fill="#F74F9E"/>
<path fill-rule="evenodd" clip-rule="evenodd" d="M1214.73 757.63C1211.12 751.933 1206.5 750.306 1199.45 748.086C1193.35 751.822 1188.33 753.989 1183.74 757.797C1186.06 765.111 1185.99 770.5 1182.09 779.339C1196.61 773.253 1203.79 767.805 1214.73 757.63Z" fill="#F74F9E"/>
<path fill-rule="evenodd" clip-rule="evenodd" d="M375.077 896.499C380.139 900.951 385.039 901.207 392.425 901.352C397.226 896.049 401.429 892.556 404.758 887.61C400.47 881.245 399.026 876.053 400.271 866.475C388.063 876.403 382.701 883.656 375.077 896.499Z" fill="#FF5257"/>
<path fill-rule="evenodd" clip-rule="evenodd" d="M516.8 936.658C515.713 943.31 518.095 947.599 521.892 953.937C528.934 955.193 534.125 956.901 540.084 957.099C543.203 950.087 546.838 946.108 555.617 942.081C540.724 937.001 531.731 936.305 516.8 936.658Z" fill="#F74F9E"/>
<path fill-rule="evenodd" clip-rule="evenodd" d="M638.415 1022.53C631.694 1023.04 628.088 1026.37 622.827 1031.55C623.27 1038.69 622.835 1044.14 624.05 1049.98C631.6 1051.35 636.325 1053.95 642.311 1061.53C643.731 1045.85 642.284 1036.95 638.415 1022.53Z" fill="#A550A7"/>
<path fill-rule="evenodd" clip-rule="evenodd" d="M593.115 225.659C595.481 216.65 597.627 211.629 602.909 203.835C599.135 201.19 595.447 199.595 591.151 199.655C587.099 204.538 583.527 211.548 579.641 221.376C586.379 220.675 589.929 221.405 593.115 225.659Z" fill="#007AFF"/>
<path fill-rule="evenodd" clip-rule="evenodd" d="M788.246 519.961C781.535 526.42 777.089 529.59 768.522 533.495C770.366 537.717 772.685 540.999 776.384 543.185C782.386 541.126 789.085 537 797.52 530.633C791.402 527.724 788.752 525.252 788.246 519.961Z" fill="#61BA47"/>
<path fill-rule="evenodd" clip-rule="evenodd" d="M904.015 175.908C901.614 182.207 903.087 186.888 905.534 193.858C912.181 196.502 916.924 199.218 922.721 200.608C927.185 194.365 931.545 191.197 940.953 189.014C927.383 181.048 918.713 178.56 904.015 175.908Z" fill="#A550A7"/>
<path fill-rule="evenodd" clip-rule="evenodd" d="M671.667 770.303C680.948 769.516 686.398 769.856 695.511 772.222C696.739 767.781 697.007 763.772 695.512 759.744C689.553 757.561 681.752 756.543 671.19 756.173C674.108 762.287 674.608 765.876 671.667 770.303Z" fill="#F74F9E"/>
<path fill-rule="evenodd" clip-rule="evenodd" d="M723.51 439.085C729.588 442.001 734.374 440.922 741.524 439.062C744.711 432.658 747.812 428.158 749.679 422.496C743.828 417.529 741.034 412.921 739.641 403.364C730.574 416.225 727.374 424.658 723.51 439.085Z" fill="#FFC700"/>
<path fill-rule="evenodd" clip-rule="evenodd" d="M441.649 657.166C447.922 654.698 450.389 650.457 453.894 643.954C451.371 637.26 450.185 631.925 447.308 626.703C439.687 627.609 434.409 626.519 426.459 621.035C429.709 636.431 433.71 644.515 441.649 657.166Z" fill="#FFC700"/>
<path fill-rule="evenodd" clip-rule="evenodd" d="M580.13 1050.79C586.663 1044.15 591.022 1040.86 599.479 1036.72C597.521 1032.55 595.114 1029.33 591.357 1027.25C585.413 1029.47 578.828 1033.78 570.569 1040.37C576.765 1043.11 579.481 1045.51 580.13 1050.79Z" fill="#FF5257"/>
<path fill-rule="evenodd" clip-rule="evenodd" d="M1225.23 91.298C1217.65 96.7102 1212.79 99.1984 1203.75 101.813C1204.96 106.259 1206.77 109.844 1210.11 112.545C1216.35 111.382 1223.58 108.277 1232.85 103.207C1227.22 99.4376 1224.96 96.606 1225.23 91.298Z" fill="#FFC700"/>
<path fill-rule="evenodd" clip-rule="evenodd" d="M1333.94 908.717C1324.87 910.835 1319.43 911.285 1310.07 910.257C1309.5 914.829 1309.81 918.835 1311.87 922.606C1318.08 923.906 1325.95 923.788 1336.45 922.631C1332.68 917.002 1331.67 913.522 1333.94 908.717Z" fill="#FF5257"/>
<path fill-rule="evenodd" clip-rule="evenodd" d="M508.863 462.633C502.724 469.639 498.563 473.175 490.358 477.792C492.554 481.843 495.143 484.916 499.014 486.78C504.82 484.219 511.145 479.54 519.009 472.479C512.666 470.1 509.815 467.862 508.863 462.633Z" fill="#FF5257"/>
<path fill-rule="evenodd" clip-rule="evenodd" d="M1210.18 718.96C1216.57 721.104 1221.19 719.442 1228.05 716.715C1230.43 709.966 1232.95 705.118 1234.1 699.268C1227.68 695.062 1224.34 690.834 1221.78 681.521C1214.37 695.403 1212.24 704.167 1210.18 718.96Z" fill="#FFC700"/>
<path fill-rule="evenodd" clip-rule="evenodd" d="M92.8231 57.287C86.4071 55.2189 81.8104 56.935 74.9775 59.7434C72.685 66.5197 70.2211 71.3974 69.1364 77.26C75.6044 81.3905 78.9963 85.5788 81.668 94.8601C88.9138 80.8919 90.9441 72.1032 92.8231 57.287Z" fill="#FF5257"/>
<path fill-rule="evenodd" clip-rule="evenodd" d="M967.075 915.695C971.213 907.35 974.329 902.865 981.076 896.299C977.914 892.947 974.624 890.639 970.404 889.83C965.45 893.794 960.535 899.938 954.744 908.779C961.485 909.453 964.814 910.885 967.075 915.695Z" fill="#FF5257"/>
<path fill-rule="evenodd" clip-rule="evenodd" d="M1082.95 614.732C1079.53 608.924 1074.95 607.153 1067.98 604.712C1061.76 608.254 1056.68 610.262 1051.98 613.923C1054.07 621.308 1053.82 626.691 1049.65 635.403C1064.34 629.777 1071.7 624.558 1082.95 614.732Z" fill="#A550A7"/>
<path fill-rule="evenodd" clip-rule="evenodd" d="M433.173 742.384C427.225 735.216 424.391 730.548 421.127 721.717C416.781 723.246 413.337 725.316 410.884 728.845C412.497 734.982 416.118 741.967 421.848 750.847C425.199 744.96 427.859 742.498 433.173 742.384Z" fill="#FFC700"/>
<path fill-rule="evenodd" clip-rule="evenodd" d="M640.578 560.877C646.798 558.277 649.175 553.985 652.542 547.409C649.878 540.77 648.58 535.462 645.593 530.302C637.993 531.368 632.693 530.39 624.629 525.074C628.204 540.399 632.374 548.397 640.578 560.877Z" fill="#FFC700"/>
<path fill-rule="evenodd" clip-rule="evenodd" d="M1250.41 146.717C1244.69 150.28 1243.03 154.897 1240.76 161.928C1244.45 168.055 1246.58 173.086 1250.36 177.701C1257.69 175.431 1263.08 175.546 1271.89 179.501C1265.91 164.948 1260.51 157.721 1250.41 146.717Z" fill="#007AFF"/>
<path fill-rule="evenodd" clip-rule="evenodd" d="M502.87 274.93C502.725 281.67 505.685 285.583 510.331 291.327C517.48 291.584 522.859 292.549 528.786 291.911C530.893 284.531 533.936 280.083 542.064 274.867C526.607 271.921 517.605 272.491 502.87 274.93Z" fill="#F74F9E"/>
<path fill-rule="evenodd" clip-rule="evenodd" d="M1240.43 467.764C1231.41 465.432 1226.38 463.305 1218.57 458.053C1215.94 461.836 1214.36 465.53 1214.43 469.827C1219.33 473.86 1226.36 477.405 1236.2 481.254C1235.47 474.519 1236.19 470.966 1240.43 467.764Z" fill="#61BA47"/>
<path fill-rule="evenodd" clip-rule="evenodd" d="M1323.48 811.096C1316.5 817.267 1311.92 820.247 1303.2 823.787C1304.87 828.083 1307.04 831.46 1310.65 833.8C1316.73 831.995 1323.6 828.155 1332.29 822.149C1326.3 818.985 1323.76 816.403 1323.48 811.096Z" fill="#FF5257"/>
<path fill-rule="evenodd" clip-rule="evenodd" d="M955.294 54.9477C949.188 57.8035 946.992 62.1909 943.902 68.9012C946.838 75.4241 948.357 80.6736 951.556 85.7048C959.105 84.3236 964.441 85.0799 972.719 90.0557C968.51 74.8933 964.01 67.0755 955.294 54.9477Z" fill="#F74F9E"/>
<path fill-rule="evenodd" clip-rule="evenodd" d="M27.4156 644.029C25.4047 653.123 23.4579 658.225 18.4864 666.22C22.3607 668.715 26.1087 670.164 30.3994 669.935C34.2564 664.897 37.5501 657.752 41.0475 647.779C34.342 648.745 30.7664 648.154 27.4156 644.029Z" fill="#007AFF"/>
<path fill-rule="evenodd" clip-rule="evenodd" d="M646.324 652.848C649.881 658.574 654.497 660.237 661.525 662.512C667.656 658.825 672.689 656.697 677.307 652.926C675.044 645.593 675.164 640.205 679.127 631.397C664.568 637.368 657.337 642.76 646.324 652.848Z" fill="#61BA47"/>
<path fill-rule="evenodd" clip-rule="evenodd" d="M650.347 147.812C652.517 141.43 650.875 136.806 648.176 129.929C641.437 127.529 636.6 124.987 630.755 123.809C626.522 130.21 622.28 133.534 612.957 136.057C626.808 143.526 635.563 145.696 650.347 147.812Z" fill="#FFC700"/>
<path fill-rule="evenodd" clip-rule="evenodd" d="M916.686 204.993C909.955 205.365 906.28 208.617 900.911 213.691C901.203 220.838 900.654 226.275 901.746 232.136C909.266 233.67 913.935 236.362 919.76 244.066C921.509 228.428 920.25 219.496 916.686 204.993Z" fill="#FF5257"/>
<path fill-rule="evenodd" clip-rule="evenodd" d="M160.215 565.269C156.586 570.95 157.079 575.832 158.062 583.154C164.034 587.091 168.127 590.712 173.522 593.249C179.159 588.041 184.071 585.823 193.727 585.595C182.055 575.041 174.069 570.847 160.215 565.269Z" fill="#FF5257"/>
<path fill-rule="evenodd" clip-rule="evenodd" d="M777.662 962.139C784.873 968.034 788.549 972.072 793.444 980.114C797.417 977.781 800.401 975.089 802.131 971.156C799.373 965.441 794.48 959.28 787.155 951.662C784.994 958.082 782.855 961.008 777.662 962.139Z" fill="#61BA47"/>
<path fill-rule="evenodd" clip-rule="evenodd" d="M-15.2517 990.768C-20.5351 994.955 -21.6612 999.73 -23.121 1006.97C-18.7594 1012.64 -16.0718 1017.4 -11.7992 1021.56C-4.77179 1018.47 0.594888 1017.98 9.79688 1020.91C2.20597 1007.13 -3.97474 1000.56 -15.2517 990.768Z" fill="#61BA47"/>
<path fill-rule="evenodd" clip-rule="evenodd" d="M29.9113 694.657C36.4597 693.057 39.4758 689.187 43.8243 683.215C42.2266 676.242 41.7696 670.797 39.6219 665.235C31.9485 665.105 26.8651 663.315 19.7266 656.81C20.8735 672.503 23.7489 681.053 29.9113 694.657Z" fill="#61BA47"/>
<path fill-rule="evenodd" clip-rule="evenodd" d="M1326.55 589.458C1333.17 588.157 1336.35 584.428 1340.97 578.66C1339.69 571.621 1339.48 566.161 1337.59 560.507C1329.93 560.029 1324.93 558.01 1318.1 551.186C1318.53 566.916 1321.01 575.587 1326.55 589.458Z" fill="#007AFF"/>
<path fill-rule="evenodd" clip-rule="evenodd" d="M1016.21 847.838C1022.08 855.076 1024.85 859.777 1028.01 868.646C1032.38 867.169 1035.85 865.14 1038.34 861.641C1036.8 855.485 1033.26 848.457 1027.64 839.509C1024.22 845.357 1021.53 847.786 1016.21 847.838Z" fill="#A550A7"/>
<path fill-rule="evenodd" clip-rule="evenodd" d="M1196.5 151.471C1201.59 155.893 1206.49 156.119 1213.88 156.22C1218.65 150.888 1222.83 147.37 1226.13 142.404C1221.8 136.066 1220.33 130.882 1221.52 121.297C1209.37 131.298 1204.05 138.583 1196.5 151.471Z" fill="#FF5257"/>
<path fill-rule="evenodd" clip-rule="evenodd" d="M440.773 190.884C438.642 184.488 434.539 181.798 428.231 177.953C421.412 180.116 416.022 181.017 410.654 183.612C411.153 191.27 409.785 196.483 403.885 204.13C419.432 201.703 427.718 198.138 440.773 190.884Z" fill="#F74F9E"/>
<path fill-rule="evenodd" clip-rule="evenodd" d="M32.1782 264.158C40.7266 267.857 45.3667 270.736 52.2746 277.133C55.4582 273.802 57.5918 270.397 58.1809 266.141C53.9648 261.398 47.574 256.81 38.4448 251.485C38.1219 258.252 36.8643 261.651 32.1782 264.158Z" fill="#FFC700"/>
<path fill-rule="evenodd" clip-rule="evenodd" d="M915.324 991.943C912.598 985.777 908.258 983.488 901.615 980.257C895.031 983.056 889.751 984.462 884.653 987.554C885.874 995.131 885.005 1000.45 879.855 1008.62C895.103 1004.73 903.015 1000.4 915.324 991.943Z" fill="#FF5257"/>
<path fill-rule="evenodd" clip-rule="evenodd" d="M640.725 237.02C647.534 230.665 652.028 227.563 660.654 223.791C658.875 219.541 656.607 216.223 652.942 213.981C646.909 215.948 640.147 219.971 631.615 226.208C637.688 229.21 640.301 231.722 640.725 237.02Z" fill="#FFC700"/>
<path fill-rule="evenodd" clip-rule="evenodd" d="M551.46 408.922C557.461 411.992 562.273 411.036 569.468 409.36C572.818 403.039 576.033 398.62 578.044 393.007C572.322 387.893 569.646 383.215 568.498 373.625C559.105 386.25 555.691 394.599 551.46 408.922Z" fill="#007AFF"/>
<path fill-rule="evenodd" clip-rule="evenodd" d="M980.151 14.9151C986.285 12.1205 988.526 7.75528 991.682 1.07621C988.811 -5.47572 987.345 -10.7401 984.197 -15.8031C976.634 -14.4974 971.306 -15.307 963.078 -20.3652C967.135 -5.16155 971.556 2.70077 980.151 14.9151Z" fill="#F74F9E"/>
<path fill-rule="evenodd" clip-rule="evenodd" d="M1230.18 454.874C1239.08 457.62 1244.01 459.977 1251.57 465.585C1254.37 461.927 1256.12 458.31 1256.25 454.015C1251.54 449.759 1244.69 445.893 1235.03 441.593C1235.45 448.355 1234.57 451.871 1230.18 454.874Z" fill="#FFC700"/>
<path fill-rule="evenodd" clip-rule="evenodd" d="M1194.06 864.202C1188.62 856.643 1186.11 851.792 1183.46 842.758C1179.02 843.985 1175.44 845.814 1172.75 849.166C1173.94 855.399 1177.07 862.616 1182.18 871.869C1185.93 866.225 1188.75 863.952 1194.06 864.202Z" fill="#FF5257"/>
<path fill-rule="evenodd" clip-rule="evenodd" d="M596.225 522.105C595.334 512.833 595.612 507.38 597.876 498.241C593.422 497.063 589.41 496.84 585.398 498.38C583.283 504.362 582.353 512.175 582.101 522.741C588.182 519.754 591.765 519.213 596.225 522.105Z" fill="#007AFF"/>
<path fill-rule="evenodd" clip-rule="evenodd" d="M965.573 697.534C961.521 705.921 958.451 710.437 951.771 717.071C954.966 720.391 958.28 722.665 962.508 723.431C967.422 719.417 972.273 713.223 977.974 704.324C971.227 703.719 967.883 702.321 965.573 697.534Z" fill="#FF5257"/>
<path fill-rule="evenodd" clip-rule="evenodd" d="M1112.7 500.678C1110.31 509.681 1108.15 514.697 1102.85 522.479C1106.62 525.132 1110.31 526.736 1114.6 526.687C1118.67 521.813 1122.25 514.811 1126.16 504.992C1119.42 505.678 1115.88 504.94 1112.7 500.678Z" fill="#A550A7"/>
<path fill-rule="evenodd" clip-rule="evenodd" d="M320.963 383.461C314.222 383.498 310.391 386.563 304.776 391.364C304.713 398.517 303.894 403.92 304.693 409.829C312.127 411.734 316.657 414.655 322.092 422.638C324.616 407.107 323.802 398.123 320.963 383.461Z" fill="#007AFF"/>
<path fill-rule="evenodd" clip-rule="evenodd" d="M842.818 423.752C849.55 424.104 853.552 421.265 859.436 416.797C859.912 409.659 861.041 404.312 860.585 398.368C853.273 396.036 848.92 392.859 843.955 384.574C840.538 399.934 840.831 408.95 842.818 423.752Z" fill="#F74F9E"/>
<path fill-rule="evenodd" clip-rule="evenodd" d="M162.371 355.647C167.781 348.065 171.57 344.132 179.274 338.721C176.685 334.909 173.804 332.108 169.766 330.639C164.244 333.766 158.417 339.052 151.295 346.86C157.843 348.596 160.903 350.539 162.371 355.647Z" fill="#F74F9E"/>
<path fill-rule="evenodd" clip-rule="evenodd" d="M1200.61 497.951C1193.98 496.739 1189.64 499.041 1183.24 502.719C1181.85 509.736 1180.04 514.894 1179.73 520.848C1186.69 524.098 1190.6 527.807 1194.46 536.66C1199.82 521.864 1200.68 512.886 1200.61 497.951Z" fill="#FF5257"/>
<path fill-rule="evenodd" clip-rule="evenodd" d="M635.84 185.942C631.22 190.85 630.798 195.738 630.403 203.115C635.541 208.093 638.889 212.412 643.72 215.907C650.226 211.836 655.464 210.569 664.994 212.138C655.485 199.6 648.418 193.995 635.84 185.942Z" fill="#F74F9E"/>
<path fill-rule="evenodd" clip-rule="evenodd" d="M813.059 547.855C819.31 540.95 823.528 537.482 831.807 532.998C829.677 528.913 827.138 525.797 823.298 523.871C817.451 526.338 811.051 530.914 803.074 537.846C809.377 540.328 812.191 542.612 813.059 547.855Z" fill="#61BA47"/>
<path fill-rule="evenodd" clip-rule="evenodd" d="M128.86 934.529C125.438 943.192 122.71 947.922 116.538 955.032C119.969 958.107 123.441 960.13 127.714 960.582C132.319 956.216 136.7 949.681 141.728 940.385C134.954 940.28 131.517 939.132 128.86 934.529Z" fill="#F74F9E"/>
<path fill-rule="evenodd" clip-rule="evenodd" d="M975.093 298.576C976.7 292.029 974.662 287.566 971.375 280.95C964.453 279.145 959.412 277.034 953.487 276.368C949.827 283.114 945.89 286.794 936.822 290.119C951.27 296.354 960.181 297.755 975.093 298.576Z" fill="#A550A7"/>
<path fill-rule="evenodd" clip-rule="evenodd" d="M328.655 377.092C337.865 378.479 343.087 380.074 351.403 384.49C353.628 380.455 354.818 376.617 354.298 372.352C349.009 368.847 341.656 366.047 331.468 363.236C332.888 369.86 332.543 373.468 328.655 377.092Z" fill="#F74F9E"/>
<path fill-rule="evenodd" clip-rule="evenodd" d="M695.905 834.374C703.231 840.127 706.986 844.092 712.038 852.036C715.965 849.625 718.894 846.875 720.547 842.909C717.677 837.25 712.664 831.186 705.191 823.713C703.157 830.175 701.075 833.142 695.905 834.374Z" fill="#61BA47"/>
<path fill-rule="evenodd" clip-rule="evenodd" d="M265.763 77.5756C270.142 82.7002 274.957 83.6485 282.248 84.8388C287.752 80.27 292.407 77.4079 296.404 72.984C293.062 66.0758 292.369 60.7312 294.959 51.4268C281.466 59.5234 275.13 65.9434 265.763 77.5756Z" fill="#FFC700"/>
<path fill-rule="evenodd" clip-rule="evenodd" d="M1088.63 582.827C1087.9 573.542 1088.27 568.094 1090.69 558.995C1086.26 557.741 1082.25 557.449 1078.22 558.92C1076 564.866 1074.93 572.661 1074.5 583.221C1080.63 580.339 1084.22 579.86 1088.63 582.827Z" fill="#61BA47"/>
<path fill-rule="evenodd" clip-rule="evenodd" d="M477.773 387.644C474.355 378.98 473.116 373.661 472.766 364.253C468.16 364.351 464.242 365.246 460.813 367.834C460.433 374.168 461.697 381.934 464.375 392.158C469.394 387.607 472.688 386.097 477.773 387.644Z" fill="#A550A7"/>
<path fill-rule="evenodd" clip-rule="evenodd" d="M297.845 425.743C304.238 427.881 308.853 426.215 315.717 423.481C318.083 416.731 320.6 411.88 321.749 406.03C315.326 401.829 311.98 397.604 309.41 388.294C302.012 402.182 299.886 410.948 297.845 425.743Z" fill="#FF5257"/>
<path fill-rule="evenodd" clip-rule="evenodd" d="M192.622 786.175C186.453 779.196 183.475 774.619 179.937 765.894C175.64 767.558 172.263 769.735 169.922 773.338C171.725 779.422 175.563 786.291 181.567 794.988C184.733 788.999 187.315 786.455 192.622 786.175Z" fill="#A550A7"/>
<path fill-rule="evenodd" clip-rule="evenodd" d="M1327.58 802.075C1333.12 798.243 1334.56 793.551 1336.49 786.42C1332.51 780.477 1330.14 775.554 1326.15 771.125C1318.93 773.743 1313.55 773.885 1304.55 770.356C1311.23 784.607 1316.97 791.567 1327.58 802.075Z" fill="#FFC700"/>
<path fill-rule="evenodd" clip-rule="evenodd" d="M492.989 1006.55C494.378 999.955 492.193 995.562 488.689 989.059C481.711 987.484 476.603 985.541 470.659 985.072C467.224 991.935 463.412 995.744 454.459 999.367C469.105 1005.12 478.058 1006.22 492.989 1006.55Z" fill="#FFC700"/>
<path fill-rule="evenodd" clip-rule="evenodd" d="M430.105 816.256C436.844 816.112 440.627 812.987 446.165 808.097C446.115 800.944 446.848 795.529 445.955 789.634C438.492 787.846 433.916 784.998 428.355 777.101C426.078 792.671 427.034 801.641 430.105 816.256Z" fill="#A550A7"/>
<path fill-rule="evenodd" clip-rule="evenodd" d="M1346.21 1033.95C1343.27 1027.89 1338.85 1025.75 1332.09 1022.76C1325.61 1025.8 1320.39 1027.39 1315.4 1030.67C1316.9 1038.19 1316.22 1043.54 1311.37 1051.89C1326.46 1047.46 1334.21 1042.84 1346.21 1033.95Z" fill="#007AFF"/>
<path fill-rule="evenodd" clip-rule="evenodd" d="M811.133 1019.28C817.815 1012.79 822.247 1009.6 830.797 1005.66C828.933 1001.44 826.6 998.169 822.891 996C816.898 998.087 810.218 1002.24 801.811 1008.65C807.943 1011.53 810.604 1013.99 811.133 1019.28Z" fill="#007AFF"/>
<path fill-rule="evenodd" clip-rule="evenodd" d="M417.198 764.041C414.884 770.372 416.421 775.031 418.964 781.968C425.647 784.52 430.425 787.17 436.242 788.481C440.619 782.177 444.935 778.949 454.312 776.638C440.634 768.858 431.931 766.49 417.198 764.041Z" fill="#FF5257"/>
<path fill-rule="evenodd" clip-rule="evenodd" d="M424.245 824.808C433.024 821.696 438.383 820.645 447.798 820.627C447.861 816.02 447.105 812.073 444.639 808.555C438.322 807.952 430.517 808.943 420.205 811.259C424.576 816.435 425.969 819.78 424.245 824.808Z" fill="#61BA47"/>
<path fill-rule="evenodd" clip-rule="evenodd" d="M1022.7 804.372C1016 805.081 1012.49 808.513 1007.38 813.849C1008.03 820.973 1007.75 826.43 1009.14 832.23C1016.72 833.385 1021.52 835.84 1027.72 843.243C1028.69 827.537 1026.98 818.679 1022.7 804.372Z" fill="#61BA47"/>
<path fill-rule="evenodd" clip-rule="evenodd" d="M677.397 466.599C683.738 464.311 686.325 460.142 690.013 453.74C687.682 446.977 686.647 441.611 683.92 436.31C676.276 436.998 671.031 435.76 663.24 430.051C666.052 445.534 669.821 453.728 677.397 466.599Z" fill="#A550A7"/>
<path fill-rule="evenodd" clip-rule="evenodd" d="M858.461 239.034C849.356 237.067 844.245 235.146 836.225 230.213C833.75 234.1 832.319 237.855 832.569 242.144C837.626 245.977 844.787 249.235 854.777 252.684C853.779 245.983 854.351 242.405 858.461 239.034Z" fill="#A550A7"/>
<path fill-rule="evenodd" clip-rule="evenodd" d="M642.524 -3.19623C636.212 -5.56425 631.54 -4.06654 624.582 -1.583C621.973 5.07783 619.282 9.83405 617.923 15.639C624.189 20.0696 627.38 24.4129 629.611 33.8098C637.507 20.1984 639.949 11.515 642.524 -3.19623Z" fill="#61BA47"/>
<path fill-rule="evenodd" clip-rule="evenodd" d="M725.81 782.784C719.238 784.288 716.166 788.113 711.73 794.021C713.225 801.016 713.602 806.468 715.668 812.061C723.339 812.303 728.395 814.167 735.438 820.777C734.521 805.068 731.772 796.477 725.81 782.784Z" fill="#F74F9E"/>
<path fill-rule="evenodd" clip-rule="evenodd" d="M511.542 968.775C519.89 964.644 525.086 962.964 534.432 961.829C533.949 957.246 532.73 953.417 529.863 950.217C523.519 950.368 515.887 952.278 505.923 955.802C510.878 960.422 512.658 963.579 511.542 968.775Z" fill="#F74F9E"/>
<path fill-rule="evenodd" clip-rule="evenodd" d="M129.012 953.331C135.387 955.523 140.016 953.896 146.902 951.22C149.325 944.489 151.882 939.66 153.08 933.819C146.693 929.565 143.383 925.312 140.891 915.98C133.377 929.806 131.177 938.554 129.012 953.331Z" fill="#FF5257"/>
<path fill-rule="evenodd" clip-rule="evenodd" d="M206.114 498.161C200.516 490.717 197.909 485.919 195.071 476.941C190.657 478.261 187.117 480.164 184.499 483.571C185.816 489.778 189.099 496.928 194.397 506.073C198.026 500.352 200.801 498.021 206.114 498.161Z" fill="#FF5257"/>
<path fill-rule="evenodd" clip-rule="evenodd" d="M68.1398 308.417C61.804 306.115 57.1475 307.662 50.2163 310.218C47.677 316.906 45.036 321.69 43.7371 327.509C50.0494 331.873 53.2855 336.183 55.6152 345.556C63.3681 331.863 65.7191 323.154 68.1398 308.417Z" fill="#A550A7"/>
<path fill-rule="evenodd" clip-rule="evenodd" d="M474.136 603.682C475.258 612.928 475.115 618.387 473.079 627.579C477.562 628.646 481.578 628.769 485.55 627.13C487.516 621.096 488.251 613.263 488.24 602.694C482.235 605.831 478.666 606.461 474.136 603.682Z" fill="#007AFF"/>
<path fill-rule="evenodd" clip-rule="evenodd" d="M207.792 649.663C202.5 645.487 197.593 645.492 190.21 645.741C185.698 651.292 181.688 655.004 178.626 660.12C183.248 666.247 184.966 671.355 184.232 680.986C195.895 670.422 200.863 662.893 207.792 649.663Z" fill="#007AFF"/>
<path fill-rule="evenodd" clip-rule="evenodd" d="M1329.35 430.903C1321.9 425.304 1318.07 421.418 1312.85 413.581C1308.97 416.074 1306.1 418.884 1304.53 422.884C1307.52 428.482 1312.66 434.44 1320.29 441.756C1322.18 435.252 1324.2 432.243 1329.35 430.903Z" fill="#61BA47"/>
</g>
<defs>
<clipPath id="clip0_2240_34335">
<rect width="1440" height="1024" fill="white"/>
</clipPath>
</defs>
</svg>
