<svg width="1440" height="1024" viewBox="0 0 1440 1024" fill="none" xmlns="http://www.w3.org/2000/svg">
<g clip-path="url(#clip0_2240_35694)">
<path fill-rule="evenodd" clip-rule="evenodd" d="M918.895 797.127C925.116 799.724 929.84 798.397 936.884 796.169C939.734 789.608 942.597 784.953 944.167 779.202C938.067 774.546 935.036 770.089 933.149 760.617C924.762 773.931 922.005 782.52 918.895 797.127Z" fill="#A550A7"/>
<path fill-rule="evenodd" clip-rule="evenodd" d="M345.158 951.912C342.78 945.605 338.574 943.078 332.121 939.482C325.392 941.909 320.041 943.02 314.779 945.823C315.576 953.456 314.413 958.718 308.816 966.589C324.257 963.557 332.397 959.671 345.158 951.912Z" fill="#A550A7"/>
<path fill-rule="evenodd" clip-rule="evenodd" d="M665.816 990.643C665.322 981.342 665.834 975.905 668.487 966.871C664.086 965.504 660.087 965.109 656.014 966.477C653.645 972.363 652.381 980.129 651.678 990.674C657.881 987.95 661.484 987.563 665.816 990.643Z" fill="#FFC700"/>
<path fill-rule="evenodd" clip-rule="evenodd" d="M927.798 1029.53C930.593 1035.67 934.958 1037.91 941.637 1041.06C948.189 1038.19 953.453 1036.73 958.516 1033.58C957.211 1026.01 958.02 1020.69 963.079 1012.46C947.875 1016.52 940.013 1020.94 927.798 1029.53Z" fill="#F74F9E"/>
<path fill-rule="evenodd" clip-rule="evenodd" d="M618.147 462.054C609.68 458.172 605.103 455.194 598.335 448.649C595.08 451.911 592.874 455.269 592.193 459.512C596.306 464.344 602.596 469.069 611.609 474.59C612.077 467.831 613.408 464.46 618.147 462.054Z" fill="#FF5257"/>
</g>
<defs>
<clipPath id="clip0_2240_35694">
<rect width="1440" height="1024" fill="white"/>
</clipPath>
</defs>
</svg>
