<svg width="1440" height="1024" viewBox="0 0 1440 1024" fill="none" xmlns="http://www.w3.org/2000/svg">
<g clip-path="url(#clip0_2240_34788)">
<path fill-rule="evenodd" clip-rule="evenodd" d="M1019.99 626.333C1018.36 632.875 1020.39 637.344 1023.66 643.97C1030.57 645.796 1035.61 647.922 1041.53 648.605C1045.21 641.871 1049.16 638.202 1058.24 634.905C1043.81 628.627 1034.9 627.199 1019.99 626.333Z" fill="#F74F9E"/>
<path fill-rule="evenodd" clip-rule="evenodd" d="M1336.94 947.875C1343.21 950.357 1347.91 948.945 1354.91 946.588C1357.64 939.976 1360.42 935.269 1361.88 929.49C1355.7 924.946 1352.59 920.545 1350.52 911.11C1342.38 924.576 1339.78 933.213 1336.94 947.875Z" fill="#F74F9E"/>
<path fill-rule="evenodd" clip-rule="evenodd" d="M168.139 922.184C160.906 928.052 156.207 930.834 147.34 933.999C148.821 938.362 150.853 941.829 154.354 944.32C160.508 942.776 167.533 939.233 176.477 933.602C170.627 930.186 168.195 927.499 168.139 922.184Z" fill="#A550A7"/>
<path fill-rule="evenodd" clip-rule="evenodd" d="M1246.33 645.478C1246.01 636.17 1246.62 630.743 1249.44 621.76C1245.07 620.312 1241.07 619.843 1236.98 621.135C1234.5 626.977 1233.09 634.718 1232.19 645.248C1238.45 642.64 1242.06 642.319 1246.33 645.478Z" fill="#61BA47"/>
<path fill-rule="evenodd" clip-rule="evenodd" d="M1109.4 721.647C1109.43 712.333 1110.24 706.933 1113.4 698.062C1109.08 696.451 1105.11 695.833 1100.96 696.97C1098.27 702.715 1096.57 710.398 1095.28 720.887C1101.63 718.515 1105.25 718.33 1109.4 721.647Z" fill="#FF5257"/>
<path fill-rule="evenodd" clip-rule="evenodd" d="M957.641 97.2901C963 93.201 964.213 88.4468 965.805 81.2329C961.548 75.4838 958.948 70.6773 954.753 66.4415C947.67 69.3966 942.295 69.7924 933.148 66.6909C940.486 80.6113 946.545 87.2933 957.641 97.2901Z" fill="#A550A7"/>
<path fill-rule="evenodd" clip-rule="evenodd" d="M694.748 1029.57C690.695 1024.19 685.949 1022.94 678.746 1021.3C672.968 1025.52 668.144 1028.08 663.88 1032.25C666.787 1039.35 667.147 1044.73 663.983 1053.86C677.953 1046.61 684.676 1040.6 694.748 1029.57Z" fill="#F74F9E"/>
<path fill-rule="evenodd" clip-rule="evenodd" d="M963.794 462.423C968.685 457.783 969.382 452.927 970.192 445.584C965.344 440.323 962.245 435.823 957.619 432.061C950.894 435.757 945.592 436.727 936.166 434.622C944.952 447.677 951.692 453.672 963.794 462.423Z" fill="#F74F9E"/>
<path fill-rule="evenodd" clip-rule="evenodd" d="M89.0093 492.939C86.8006 483.89 86.2963 478.453 87.2294 469.084C82.652 468.555 78.6492 468.909 74.8996 471.007C73.662 477.231 73.8592 485.096 75.1217 495.589C80.7127 491.763 84.1819 490.715 89.0093 492.939Z" fill="#F74F9E"/>
<path fill-rule="evenodd" clip-rule="evenodd" d="M1310.11 460.693C1309.43 453.986 1306.02 450.463 1300.7 445.33C1293.58 445.948 1288.12 445.647 1282.31 447.004C1281.12 454.586 1278.65 459.373 1271.22 465.543C1286.92 466.578 1295.78 464.913 1310.11 460.693Z" fill="#F74F9E"/>
<path fill-rule="evenodd" clip-rule="evenodd" d="M712.325 809.232C715.128 800.349 717.516 795.438 723.172 787.911C719.532 785.086 715.926 783.312 711.632 783.163C707.347 787.843 703.437 794.67 699.076 804.297C705.84 803.924 709.35 804.827 712.325 809.232Z" fill="#007AFF"/>
<path fill-rule="evenodd" clip-rule="evenodd" d="M628.3 1009.88C625.715 1016.1 627.049 1020.82 629.29 1027.86C635.856 1030.7 640.516 1033.56 646.27 1035.12C650.916 1029.01 655.367 1025.97 664.836 1024.07C651.507 1015.7 642.913 1012.96 628.3 1009.88Z" fill="#61BA47"/>
<path fill-rule="evenodd" clip-rule="evenodd" d="M1213.41 624.136C1204.52 621.356 1199.6 618.98 1192.06 613.344C1189.24 616.991 1187.48 620.602 1187.34 624.896C1192.03 629.169 1198.87 633.061 1208.51 637.398C1208.12 630.634 1209.01 627.122 1213.41 624.136Z" fill="#FF5257"/>
<path fill-rule="evenodd" clip-rule="evenodd" d="M783.435 975.514C780.851 981.741 782.187 986.462 784.43 993.501C790.997 996.338 795.657 999.191 801.412 1000.75C806.056 994.64 810.506 991.6 819.975 989.694C806.643 981.334 798.049 978.594 783.435 975.514Z" fill="#F74F9E"/>
<path fill-rule="evenodd" clip-rule="evenodd" d="M314.277 93.0727C307.625 91.9788 303.334 94.3575 296.993 98.148C295.731 105.189 294.017 110.378 293.814 116.337C300.823 119.463 304.798 123.102 308.816 131.885C313.911 116.996 314.616 108.004 314.277 93.0727Z" fill="#A550A7"/>
<path fill-rule="evenodd" clip-rule="evenodd" d="M410.106 534.967C403.717 537.116 401.04 541.228 397.214 547.548C399.397 554.36 400.315 559.747 402.927 565.107C410.583 564.585 415.8 565.937 423.465 571.814C420.991 556.274 417.4 547.999 410.106 534.967Z" fill="#FF5257"/>
<path fill-rule="evenodd" clip-rule="evenodd" d="M1014.07 1009.18C1011.97 1002.77 1007.88 1000.06 1001.59 996.184C994.759 998.314 989.365 999.188 983.985 1001.76C984.447 1009.42 983.053 1014.62 977.116 1022.24C992.675 1019.89 1000.98 1016.37 1014.07 1009.18Z" fill="#F74F9E"/>
<path fill-rule="evenodd" clip-rule="evenodd" d="M594.356 611.745C600.91 605.127 605.279 601.851 613.75 597.742C611.804 593.565 609.408 590.339 605.657 588.243C599.706 590.446 593.108 594.731 584.828 601.299C591.015 604.061 593.724 606.468 594.356 611.745Z" fill="#007AFF"/>
<path fill-rule="evenodd" clip-rule="evenodd" d="M915.517 538.849C910.288 543.104 909.224 547.893 907.858 555.154C912.292 560.767 915.041 565.49 919.367 569.592C926.354 566.418 931.714 565.854 940.953 568.668C933.185 554.984 926.92 548.494 915.517 538.849Z" fill="#A550A7"/>
<path fill-rule="evenodd" clip-rule="evenodd" d="M677.887 484.442C686.559 481.043 691.88 479.816 701.29 479.488C701.201 474.881 700.316 470.961 697.735 467.526C691.401 467.132 683.633 468.379 673.403 471.034C677.943 476.063 679.445 479.361 677.887 484.442Z" fill="#A550A7"/>
<path fill-rule="evenodd" clip-rule="evenodd" d="M707.811 981.007C711.616 986.572 716.301 988.03 723.422 989.995C729.385 986.042 734.32 983.696 738.768 979.726C736.185 972.499 736.068 967.111 739.641 958.137C725.358 964.742 718.37 970.446 707.811 981.007Z" fill="#FFC700"/>
<path fill-rule="evenodd" clip-rule="evenodd" d="M957.943 324.969C964.636 325.765 968.817 323.197 974.983 319.128C975.93 312.037 977.41 306.777 977.348 300.815C970.206 298.005 966.072 294.547 961.666 285.952C957.241 301.053 956.938 310.068 957.943 324.969Z" fill="#FFC700"/>
<path fill-rule="evenodd" clip-rule="evenodd" d="M1220.91 722.718C1211.64 723.615 1206.19 723.34 1197.05 721.081C1195.87 725.537 1195.65 729.549 1197.19 733.559C1203.18 735.671 1210.99 736.597 1221.56 736.842C1218.57 730.763 1218.02 727.18 1220.91 722.718Z" fill="#FFC700"/>
<path fill-rule="evenodd" clip-rule="evenodd" d="M110.116 610.707C105.594 605.708 100.755 604.896 93.4332 603.912C88.0597 608.634 83.4871 611.626 79.6164 616.161C83.1526 622.972 83.9958 628.295 81.6689 637.669C94.9281 629.195 101.081 622.599 110.116 610.707Z" fill="#FF5257"/>
<path fill-rule="evenodd" clip-rule="evenodd" d="M1269.68 698.743C1262.94 698.966 1259.2 702.136 1253.72 707.09C1253.85 714.242 1253.18 719.666 1254.14 725.55C1261.63 727.249 1266.24 730.044 1271.89 737.874C1273.99 722.279 1272.92 713.321 1269.68 698.743Z" fill="#007AFF"/>
<path fill-rule="evenodd" clip-rule="evenodd" d="M975.183 691.36C968.467 690.78 964.371 693.481 958.34 697.748C957.622 704.865 956.312 710.17 956.566 716.127C963.795 718.705 968.038 722.028 972.719 730.477C976.655 715.241 976.667 706.221 975.183 691.36Z" fill="#F74F9E"/>
<path fill-rule="evenodd" clip-rule="evenodd" d="M639.46 749.286C644.53 744.844 645.42 740.018 646.521 732.713C641.885 727.265 638.966 722.645 634.494 718.703C627.627 722.129 622.291 722.888 612.956 720.411C621.217 733.804 627.714 740.061 639.46 749.286Z" fill="#FFC700"/>
<path fill-rule="evenodd" clip-rule="evenodd" d="M936.634 961.522C930.619 958.48 925.811 959.458 918.624 961.168C915.303 967.504 912.109 971.938 910.124 977.56C915.87 982.648 918.567 987.314 919.76 996.898C929.094 984.23 932.469 975.865 936.634 961.522Z" fill="#FF5257"/>
<path fill-rule="evenodd" clip-rule="evenodd" d="M1096.17 387.358C1091.79 392.485 1091.61 397.388 1091.58 404.776C1096.95 409.498 1100.5 413.648 1105.5 416.904C1111.8 412.522 1116.97 411.001 1126.56 412.104C1116.46 400.044 1109.12 394.79 1096.17 387.358Z" fill="#F74F9E"/>
<path fill-rule="evenodd" clip-rule="evenodd" d="M673.753 159.649C665.451 155.426 660.999 152.265 654.502 145.451C651.118 148.577 648.777 151.844 647.924 156.055C651.837 161.05 657.931 166.027 666.711 171.909C667.454 165.175 668.921 161.861 673.753 159.649Z" fill="#FFC700"/>
<path fill-rule="evenodd" clip-rule="evenodd" d="M1184.77 491.117C1186.96 497.49 1191.09 500.137 1197.44 503.918C1204.24 501.685 1209.62 500.729 1214.96 498.078C1214.38 490.426 1215.69 485.199 1221.52 477.492C1205.99 480.079 1197.75 483.729 1184.77 491.117Z" fill="#FF5257"/>
<path fill-rule="evenodd" clip-rule="evenodd" d="M442.454 896.198C443.807 889.594 441.597 885.213 438.057 878.729C431.071 877.193 425.952 875.278 420.006 874.842C416.609 881.723 412.818 885.554 403.885 889.226C418.563 894.898 427.521 895.953 442.454 896.198Z" fill="#F74F9E"/>
<path fill-rule="evenodd" clip-rule="evenodd" d="M37.1913 635.148C42.7451 642.625 45.3242 647.439 48.1079 656.433C52.5305 655.14 56.0809 653.257 58.7192 649.866C57.4391 643.651 54.1989 636.482 48.9552 627.306C45.2921 633.005 42.5035 635.319 37.1913 635.148Z" fill="#FFC700"/>
<path fill-rule="evenodd" clip-rule="evenodd" d="M259.69 269.322C252.024 264.031 248.032 260.305 242.5 252.687C238.729 255.335 235.974 258.261 234.569 262.321C237.782 267.793 243.159 273.537 251.078 280.535C252.711 273.96 254.606 270.87 259.69 269.322Z" fill="#A550A7"/>
<path fill-rule="evenodd" clip-rule="evenodd" d="M644.582 857.054C653.656 854.955 659.099 854.516 668.456 855.562C669.04 850.991 668.735 846.984 666.682 843.21C660.473 841.897 652.606 842 642.099 843.136C645.857 848.772 646.863 852.254 644.582 857.054Z" fill="#FFC700"/>
<path fill-rule="evenodd" clip-rule="evenodd" d="M536.095 748.884C539.757 754.544 544.403 756.122 551.472 758.268C557.533 754.469 562.527 752.249 567.075 748.394C564.677 741.104 564.698 735.714 568.499 726.835C554.052 733.072 546.921 738.596 536.095 748.884Z" fill="#007AFF"/>
<path fill-rule="evenodd" clip-rule="evenodd" d="M960.223 362.999C966.933 363.646 971.056 360.986 977.13 356.78C977.919 349.67 979.281 344.379 979.086 338.42C971.884 335.769 967.674 332.404 963.078 323.909C958.99 339.105 958.888 348.124 960.223 362.999Z" fill="#F74F9E"/>
<path fill-rule="evenodd" clip-rule="evenodd" d="M1111.45 1016.3C1104.88 1022.9 1100.5 1026.17 1092.02 1030.25C1093.96 1034.44 1096.34 1037.67 1100.09 1039.77C1106.05 1037.58 1112.65 1033.31 1120.95 1026.77C1114.77 1023.99 1112.07 1021.58 1111.45 1016.3Z" fill="#A550A7"/>
<path fill-rule="evenodd" clip-rule="evenodd" d="M823.382 876.117C829.036 879.787 833.921 879.33 841.25 878.402C845.232 872.459 848.883 868.393 851.46 863.017C846.294 857.341 844.112 852.413 843.955 842.756C833.315 854.35 829.062 862.304 823.382 876.117Z" fill="#F74F9E"/>
<path fill-rule="evenodd" clip-rule="evenodd" d="M165.399 781.215C173.875 777.354 179.123 775.842 188.501 775.008C188.164 770.412 187.069 766.546 184.307 763.255C177.961 763.202 170.272 764.866 160.2 768.067C165.003 772.844 166.681 776.057 165.399 781.215Z" fill="#F74F9E"/>
<path fill-rule="evenodd" clip-rule="evenodd" d="M787.472 462.235C793.194 458.671 794.852 454.053 797.121 447.023C793.427 440.896 791.294 435.865 787.518 431.251C780.187 433.522 774.799 433.407 765.987 429.454C771.973 444.006 777.373 451.232 787.472 462.235Z" fill="#F74F9E"/>
<path fill-rule="evenodd" clip-rule="evenodd" d="M652.844 871.34C646.388 873.28 643.579 877.303 639.549 883.494C641.509 890.374 642.25 895.788 644.686 901.23C652.355 900.958 657.525 902.48 664.994 908.604C663.028 892.991 659.71 884.604 652.844 871.34Z" fill="#F74F9E"/>
<path fill-rule="evenodd" clip-rule="evenodd" d="M816.585 1002.46C825.452 999.605 830.838 998.71 840.25 998.967C840.448 994.363 839.807 990.396 837.444 986.807C831.148 986.021 823.317 986.783 812.942 988.798C817.161 994.099 818.456 997.484 816.585 1002.46Z" fill="#61BA47"/>
<path fill-rule="evenodd" clip-rule="evenodd" d="M965.737 652.859C970.402 647.993 970.868 643.108 971.33 635.735C966.238 630.711 962.928 626.362 958.13 622.824C951.587 626.835 946.338 628.054 936.822 626.399C946.217 639.023 953.234 644.691 965.737 652.859Z" fill="#A550A7"/>
<path fill-rule="evenodd" clip-rule="evenodd" d="M334.018 915.465C341.301 921.271 345.026 925.264 350.019 933.246C353.964 930.864 356.914 928.135 358.596 924.182C355.768 918.501 350.8 912.4 343.383 904.872C341.3 911.319 339.197 914.27 334.018 915.465Z" fill="#F74F9E"/>
<path fill-rule="evenodd" clip-rule="evenodd" d="M256.6 619.547C257.831 626.175 261.526 629.403 267.245 634.079C274.296 632.875 279.759 632.724 285.432 630.891C285.991 623.237 288.064 618.262 294.959 611.499C279.226 611.765 270.528 614.157 256.6 619.547Z" fill="#FFC700"/>
<path fill-rule="evenodd" clip-rule="evenodd" d="M475.664 982.189C477.036 972.977 478.622 967.751 483.024 959.429C478.985 957.211 475.145 956.026 470.881 956.553C467.384 961.849 464.597 969.206 461.804 979.399C468.426 977.968 472.034 978.307 475.664 982.189Z" fill="#A550A7"/>
<path fill-rule="evenodd" clip-rule="evenodd" d="M280.671 800.768C285.139 805.816 289.968 806.681 297.279 807.745C302.704 803.082 307.309 800.14 311.229 795.648C307.767 788.798 306.982 783.466 309.411 774.119C296.06 782.447 289.836 788.976 280.671 800.768Z" fill="#FF5257"/>
<path fill-rule="evenodd" clip-rule="evenodd" d="M605.912 323.446C612.551 324.613 616.869 322.282 623.251 318.562C624.591 311.535 626.361 306.365 626.63 300.409C619.656 297.206 615.721 293.523 611.8 284.697C606.542 299.528 605.738 308.513 605.912 323.446Z" fill="#FF5257"/>
<path fill-rule="evenodd" clip-rule="evenodd" d="M657.226 863.19C663.861 864.379 668.186 862.062 674.581 858.362C675.943 851.339 677.73 846.175 678.019 840.22C671.055 836.995 667.132 833.299 663.239 824.46C657.933 839.274 657.1 848.256 657.226 863.19Z" fill="#A550A7"/>
<path fill-rule="evenodd" clip-rule="evenodd" d="M853.15 587.328C846.249 581.073 842.783 576.852 838.304 568.571C834.217 570.699 831.1 573.236 829.172 577.075C831.636 582.923 836.208 589.326 843.135 597.307C845.621 591.005 847.906 588.192 853.15 587.328Z" fill="#A550A7"/>
<path fill-rule="evenodd" clip-rule="evenodd" d="M659.298 370.708C655.016 365.502 650.22 364.463 642.953 363.135C637.363 367.599 632.655 370.372 628.575 374.72C631.786 381.69 632.378 387.047 629.612 396.301C643.256 388.46 649.712 382.161 659.298 370.708Z" fill="#61BA47"/>
<path fill-rule="evenodd" clip-rule="evenodd" d="M85.0314 970.821C80.6953 965.66 75.8894 964.671 68.6087 963.419C63.0658 967.941 58.3866 970.764 54.3523 975.153C57.6365 982.09 58.2841 987.44 55.6152 996.722C69.176 988.74 75.5663 982.374 85.0314 970.821Z" fill="#A550A7"/>
</g>
<defs>
<clipPath id="clip0_2240_34788">
<rect width="1440" height="1024" fill="white"/>
</clipPath>
</defs>
</svg>
