<svg width="1440" height="1024" viewBox="0 0 1440 1024" fill="none" xmlns="http://www.w3.org/2000/svg">
<g clip-path="url(#clip0_2240_35392)">
<path fill-rule="evenodd" clip-rule="evenodd" d="M932.242 568.492C938.975 568.804 942.961 565.942 948.818 561.439C949.252 554.299 950.35 548.946 949.859 543.004C942.533 540.715 938.162 537.563 933.148 529.308C929.821 544.688 930.168 553.702 932.242 568.492Z" fill="#A550A7"/>
<path fill-rule="evenodd" clip-rule="evenodd" d="M1304.13 1046.24C1307.92 1040.67 1307.57 1035.77 1306.8 1028.43C1300.94 1024.32 1296.95 1020.58 1291.63 1017.89C1285.85 1022.93 1280.87 1025.01 1271.22 1024.96C1282.58 1035.84 1290.44 1040.27 1304.13 1046.24Z" fill="#F74F9E"/>
<path fill-rule="evenodd" clip-rule="evenodd" d="M337.947 662.133C333.555 657.019 328.738 656.083 321.444 654.911C315.951 659.493 311.303 662.367 307.317 666.801C310.677 673.701 311.383 679.044 308.816 688.354C322.289 680.224 328.609 673.788 337.947 662.133Z" fill="#A550A7"/>
<path fill-rule="evenodd" clip-rule="evenodd" d="M933.734 956.423C938.35 961.335 943.204 962.056 950.543 962.901C955.826 958.078 960.341 955 964.125 950.393C960.461 943.65 959.517 938.344 961.666 928.927C948.57 937.651 942.543 944.362 933.734 956.423Z" fill="#FFC700"/>
<path fill-rule="evenodd" clip-rule="evenodd" d="M1119.19 1010.28C1112.54 1011.39 1109.25 1015.03 1104.47 1020.66C1105.55 1027.74 1105.61 1033.2 1107.34 1038.91C1114.99 1039.6 1119.92 1041.76 1126.56 1048.77C1126.57 1033.03 1124.33 1024.3 1119.19 1010.28Z" fill="#F74F9E"/>
<path fill-rule="evenodd" clip-rule="evenodd" d="M667.6 714.54C663.955 705.969 662.577 700.685 661.98 691.289C657.377 691.509 653.484 692.506 650.124 695.184C649.911 701.526 651.38 709.255 654.325 719.405C659.223 714.724 662.476 713.128 667.6 714.54Z" fill="#FFC700"/>
<path fill-rule="evenodd" clip-rule="evenodd" d="M1184.61 939.234C1182.19 945.528 1183.65 950.211 1186.09 957.187C1192.73 959.845 1197.46 962.571 1203.26 963.974C1207.74 957.74 1212.1 954.582 1221.52 952.419C1207.96 944.424 1199.3 941.918 1184.61 939.234Z" fill="#FF5257"/>
<path fill-rule="evenodd" clip-rule="evenodd" d="M254.075 885.308C251.603 876.328 250.94 870.908 251.599 861.516C247.008 861.121 243.017 861.591 239.331 863.798C238.275 870.055 238.702 877.911 240.27 888.363C245.747 884.375 249.184 883.226 254.075 885.308Z" fill="#A550A7"/>
<path fill-rule="evenodd" clip-rule="evenodd" d="M935.765 811.052C940.489 815.861 945.357 816.473 952.713 817.155C957.888 812.216 962.333 809.038 966.014 804.348C962.201 797.688 961.139 792.404 963.078 782.942C950.179 791.955 944.303 798.798 935.765 811.052Z" fill="#F74F9E"/>
<path fill-rule="evenodd" clip-rule="evenodd" d="M621.771 243.719C612.488 242.966 607.168 241.733 598.569 237.898C596.627 242.076 595.702 245.987 596.513 250.206C602.031 253.34 609.558 255.629 619.915 257.735C618.044 251.223 618.141 247.601 621.771 243.719Z" fill="#FF5257"/>
<path fill-rule="evenodd" clip-rule="evenodd" d="M582.382 810.692C586.718 815.854 591.524 816.843 598.804 818.095C604.348 813.574 609.027 810.751 613.061 806.362C609.778 799.425 609.13 794.075 611.8 784.793C598.239 792.774 591.848 799.14 582.382 810.692Z" fill="#FF5257"/>
<path fill-rule="evenodd" clip-rule="evenodd" d="M848.166 1047.95C846.9 1038.72 846.958 1033.26 848.85 1024.04C844.351 1023.04 840.333 1022.98 836.388 1024.68C834.516 1030.74 833.903 1038.59 834.079 1049.15C840.034 1045.92 843.593 1045.24 848.166 1047.95Z" fill="#A550A7"/>
<path fill-rule="evenodd" clip-rule="evenodd" d="M668.803 879.098C668.869 872.358 665.864 868.479 661.151 862.791C653.999 862.617 648.609 861.715 642.689 862.423C640.669 869.827 637.679 874.311 629.612 879.622C645.103 882.386 654.098 881.71 668.803 879.098Z" fill="#61BA47"/>
</g>
<defs>
<clipPath id="clip0_2240_35392">
<rect width="1440" height="1024" fill="white"/>
</clipPath>
</defs>
</svg>
