<svg width="234" height="19" viewBox="0 0 234 19" fill="none" xmlns="http://www.w3.org/2000/svg">
<path d="M6.14 18L0.38 0.8H2.86L7.82 15.76L12.42 0.8H14.92L19.54 15.76L24.48 0.8H26.94L21.16 18H17.98L13.66 3.9L9.32 18H6.14ZM33.3259 5.6C37.1059 5.6 39.7659 8.18 39.6459 11.7L39.4659 12.78H28.8659C29.1459 15.2 30.6859 16.38 33.9659 16.38C35.3259 16.38 36.7259 16.12 38.0259 15.66L38.4259 17.54C37.1059 18.1 35.5259 18.4 33.6059 18.4C29.1259 18.4 26.5459 15.88 26.5459 11.94C26.5459 8.16 29.4059 5.6 33.3259 5.6ZM28.9059 11.02H37.3059C37.3459 9.24 35.9059 7.58 33.3059 7.58C30.9059 7.58 29.2659 8.9 28.9059 11.02ZM42.3455 18V0.399999H44.6855V18H42.3455ZM47.3858 12.02C47.3858 8.06 50.2658 5.6 54.3458 5.6C55.7458 5.6 56.7458 5.78 57.4658 6.06L57.1058 8.06C56.4258 7.8 55.4658 7.66 54.4458 7.66C51.7058 7.66 49.7258 9.18 49.7258 12C49.7258 14.84 51.7258 16.34 54.4658 16.34C55.5458 16.34 56.4658 16.14 57.1058 15.82L57.5858 17.8C56.7858 18.2 55.7458 18.4 54.3458 18.4C50.2658 18.4 47.3858 15.98 47.3858 12.02ZM65.9897 18.4C61.6897 18.4 58.8897 15.88 58.8897 12C58.8897 8.14 61.6897 5.6 65.9897 5.6C70.2697 5.6 73.0697 8.14 73.0697 12C73.0697 15.88 70.2697 18.4 65.9897 18.4ZM65.9897 16.42C68.9897 16.42 70.7697 14.64 70.7697 12C70.7697 9.38 68.9897 7.58 65.9897 7.58C62.9697 7.58 61.1897 9.38 61.1897 12C61.1897 14.64 62.9697 16.42 65.9897 16.42ZM91.2634 5.6C94.2434 5.6 95.5434 7.2 95.5434 10.26V18H93.2034V10.76C93.2034 8.46 92.5234 7.66 90.6834 7.66C89.0634 7.66 87.7234 8.66 86.7434 10.44V18H84.5034V10.76C84.5034 8.46 83.8634 7.66 81.9634 7.66C80.3634 7.66 79.0234 8.68 78.0834 10.48V18H75.7434V6H78.0834V8.14C79.0034 6.7 80.5434 5.6 82.5634 5.6C84.7834 5.6 86.0434 6.52 86.5234 8.28C87.4634 6.78 89.1234 5.6 91.2634 5.6ZM104.713 5.6C108.493 5.6 111.153 8.18 111.033 11.7L110.853 12.78H100.253C100.533 15.2 102.073 16.38 105.353 16.38C106.713 16.38 108.113 16.12 109.413 15.66L109.813 17.54C108.493 18.1 106.913 18.4 104.993 18.4C100.513 18.4 97.9327 15.88 97.9327 11.94C97.9327 8.16 100.793 5.6 104.713 5.6ZM100.293 11.02H108.693C108.733 9.24 107.293 7.58 104.693 7.58C102.293 7.58 100.653 8.9 100.293 11.02ZM127.297 18.4C121.737 18.4 117.757 14.96 117.757 9.4C117.757 3.84 121.737 0.399999 127.297 0.399999C132.877 0.399999 136.857 3.84 136.857 9.4C136.857 14.96 132.877 18.4 127.297 18.4ZM127.297 16.32C131.737 16.32 134.497 13.48 134.497 9.4C134.497 5.32 131.737 2.48 127.297 2.48C122.857 2.48 120.117 5.32 120.117 9.4C120.117 13.48 122.857 16.32 127.297 16.32ZM147.333 5.6C150.613 5.6 152.073 7.28 152.073 10.38V18H149.733V10.56C149.733 8.4 148.973 7.66 146.973 7.66C144.833 7.66 143.113 8.64 141.893 10.54V18H139.533V6H141.893V8.2C143.033 6.64 144.953 5.6 147.333 5.6ZM162.756 5.6C166.616 5.6 169.516 7.9 169.516 12C169.516 16.1 166.616 18.4 162.756 18.4C160.416 18.4 158.536 17.56 157.416 16.02L157.156 17.98H155.196V0.399999H157.536V7.84C158.676 6.4 160.496 5.6 162.756 5.6ZM162.356 16.44C165.116 16.44 167.136 14.9 167.136 12C167.136 9.12 165.116 7.56 162.356 7.56C159.576 7.56 157.556 9.3 157.556 12C157.556 14.72 159.576 16.44 162.356 16.44ZM178.529 18.4C174.229 18.4 171.429 15.88 171.429 12C171.429 8.14 174.229 5.6 178.529 5.6C182.809 5.6 185.609 8.14 185.609 12C185.609 15.88 182.809 18.4 178.529 18.4ZM178.529 16.42C181.529 16.42 183.309 14.64 183.309 12C183.309 9.38 181.529 7.58 178.529 7.58C175.509 7.58 173.729 9.38 173.729 12C173.729 14.64 175.509 16.42 178.529 16.42ZM194.427 5.6C198.387 5.6 199.827 7.14 199.827 10.4V18H197.707L197.507 15.98C196.407 17.36 194.407 18.4 191.967 18.4C188.827 18.4 187.067 17.14 187.067 14.6C187.067 12.1 188.747 10.48 193.527 10.48H197.487V10.14C197.487 8.26 196.687 7.56 194.247 7.56C192.667 7.56 191.167 7.86 189.347 8.42L189.067 6.54C190.967 5.88 192.647 5.6 194.427 5.6ZM192.247 16.38C194.267 16.38 196.207 15.42 197.487 13.58V12.26H193.527C190.227 12.26 189.347 13.12 189.347 14.4C189.347 15.64 190.147 16.38 192.247 16.38ZM205.25 6V8.78C206.23 6.42 208.57 5.2 211.79 5.8L211.55 7.94C208.35 7.24 206.17 8.84 205.25 12.28V18H202.91V6H205.25ZM224.17 7.84V0.399999H226.49V17.98H224.55L224.29 16C223.17 17.56 221.29 18.4 218.95 18.4C215.09 18.4 212.19 16.1 212.19 12C212.19 7.9 215.09 5.6 218.95 5.6C221.21 5.6 223.03 6.4 224.17 7.84ZM219.35 16.44C222.11 16.44 224.15 14.72 224.15 12C224.15 9.3 222.11 7.56 219.35 7.56C216.59 7.56 214.55 9.12 214.55 12C214.55 14.9 216.59 16.44 219.35 16.44ZM230.603 0.479999H233.063L232.863 12.92H230.803L230.603 0.479999ZM231.823 17.58C230.983 17.58 230.363 17 230.363 16.16C230.363 15.28 230.983 14.72 231.823 14.72C232.703 14.72 233.303 15.28 233.303 16.16C233.303 17 232.703 17.58 231.823 17.58Z" fill="#1F1F1F"/>
</svg>
