<svg width="234" height="19" viewBox="0 0 234 19" fill="none" xmlns="http://www.w3.org/2000/svg">
<path d="M6.53453 18L0.774531 0.8H3.25453L8.21453 15.76L12.8145 0.8H15.3145L19.9345 15.76L24.8745 0.8H27.3345L21.5545 18H18.3745L14.0545 3.9L9.71453 18H6.53453ZM33.7205 5.6C37.5005 5.6 40.1605 8.18 40.0405 11.7L39.8605 12.78H29.2605C29.5405 15.2 31.0805 16.38 34.3605 16.38C35.7205 16.38 37.1205 16.12 38.4205 15.66L38.8205 17.54C37.5005 18.1 35.9205 18.4 34.0005 18.4C29.5205 18.4 26.9405 15.88 26.9405 11.94C26.9405 8.16 29.8005 5.6 33.7205 5.6ZM29.3005 11.02H37.7005C37.7405 9.24 36.3005 7.58 33.7005 7.58C31.3005 7.58 29.6605 8.9 29.3005 11.02ZM42.74 18V0.399999H45.08V18H42.74ZM47.7803 12.02C47.7803 8.06 50.6603 5.6 54.7403 5.6C56.1403 5.6 57.1403 5.78 57.8603 6.06L57.5003 8.06C56.8203 7.8 55.8603 7.66 54.8403 7.66C52.1003 7.66 50.1203 9.18 50.1203 12C50.1203 14.84 52.1203 16.34 54.8603 16.34C55.9403 16.34 56.8603 16.14 57.5003 15.82L57.9803 17.8C57.1803 18.2 56.1403 18.4 54.7403 18.4C50.6603 18.4 47.7803 15.98 47.7803 12.02ZM66.3842 18.4C62.0842 18.4 59.2842 15.88 59.2842 12C59.2842 8.14 62.0842 5.6 66.3842 5.6C70.6642 5.6 73.4642 8.14 73.4642 12C73.4642 15.88 70.6642 18.4 66.3842 18.4ZM66.3842 16.42C69.3842 16.42 71.1642 14.64 71.1642 12C71.1642 9.38 69.3842 7.58 66.3842 7.58C63.3642 7.58 61.5842 9.38 61.5842 12C61.5842 14.64 63.3642 16.42 66.3842 16.42ZM91.658 5.6C94.638 5.6 95.938 7.2 95.938 10.26V18H93.598V10.76C93.598 8.46 92.918 7.66 91.078 7.66C89.458 7.66 88.118 8.66 87.138 10.44V18H84.898V10.76C84.898 8.46 84.258 7.66 82.358 7.66C80.758 7.66 79.418 8.68 78.478 10.48V18H76.138V6H78.478V8.14C79.398 6.7 80.938 5.6 82.958 5.6C85.178 5.6 86.438 6.52 86.918 8.28C87.858 6.78 89.518 5.6 91.658 5.6ZM105.107 5.6C108.887 5.6 111.547 8.18 111.427 11.7L111.247 12.78H100.647C100.927 15.2 102.467 16.38 105.747 16.38C107.107 16.38 108.507 16.12 109.807 15.66L110.207 17.54C108.887 18.1 107.307 18.4 105.387 18.4C100.907 18.4 98.3272 15.88 98.3272 11.94C98.3272 8.16 101.187 5.6 105.107 5.6ZM100.687 11.02H109.087C109.127 9.24 107.687 7.58 105.087 7.58C102.687 7.58 101.047 8.9 100.687 11.02ZM127.691 18.4C122.131 18.4 118.151 14.96 118.151 9.4C118.151 3.84 122.131 0.399999 127.691 0.399999C133.271 0.399999 137.251 3.84 137.251 9.4C137.251 14.96 133.271 18.4 127.691 18.4ZM127.691 16.32C132.131 16.32 134.891 13.48 134.891 9.4C134.891 5.32 132.131 2.48 127.691 2.48C123.251 2.48 120.511 5.32 120.511 9.4C120.511 13.48 123.251 16.32 127.691 16.32ZM147.727 5.6C151.007 5.6 152.467 7.28 152.467 10.38V18H150.127V10.56C150.127 8.4 149.367 7.66 147.367 7.66C145.227 7.66 143.507 8.64 142.287 10.54V18H139.927V6H142.287V8.2C143.427 6.64 145.347 5.6 147.727 5.6ZM163.151 5.6C167.011 5.6 169.911 7.9 169.911 12C169.911 16.1 167.011 18.4 163.151 18.4C160.811 18.4 158.931 17.56 157.811 16.02L157.551 17.98H155.591V0.399999H157.931V7.84C159.071 6.4 160.891 5.6 163.151 5.6ZM162.751 16.44C165.511 16.44 167.531 14.9 167.531 12C167.531 9.12 165.511 7.56 162.751 7.56C159.971 7.56 157.951 9.3 157.951 12C157.951 14.72 159.971 16.44 162.751 16.44ZM178.923 18.4C174.623 18.4 171.823 15.88 171.823 12C171.823 8.14 174.623 5.6 178.923 5.6C183.203 5.6 186.003 8.14 186.003 12C186.003 15.88 183.203 18.4 178.923 18.4ZM178.923 16.42C181.923 16.42 183.703 14.64 183.703 12C183.703 9.38 181.923 7.58 178.923 7.58C175.903 7.58 174.123 9.38 174.123 12C174.123 14.64 175.903 16.42 178.923 16.42ZM194.822 5.6C198.782 5.6 200.222 7.14 200.222 10.4V18H198.102L197.902 15.98C196.802 17.36 194.802 18.4 192.362 18.4C189.222 18.4 187.462 17.14 187.462 14.6C187.462 12.1 189.142 10.48 193.922 10.48H197.882V10.14C197.882 8.26 197.082 7.56 194.642 7.56C193.062 7.56 191.562 7.86 189.742 8.42L189.462 6.54C191.362 5.88 193.042 5.6 194.822 5.6ZM192.642 16.38C194.662 16.38 196.602 15.42 197.882 13.58V12.26H193.922C190.622 12.26 189.742 13.12 189.742 14.4C189.742 15.64 190.542 16.38 192.642 16.38ZM205.644 6V8.78C206.624 6.42 208.964 5.2 212.184 5.8L211.944 7.94C208.744 7.24 206.564 8.84 205.644 12.28V18H203.304V6H205.644ZM224.565 7.84V0.399999H226.885V17.98H224.945L224.685 16C223.565 17.56 221.685 18.4 219.345 18.4C215.485 18.4 212.585 16.1 212.585 12C212.585 7.9 215.485 5.6 219.345 5.6C221.605 5.6 223.425 6.4 224.565 7.84ZM219.745 16.44C222.505 16.44 224.545 14.72 224.545 12C224.545 9.3 222.505 7.56 219.745 7.56C216.985 7.56 214.945 9.12 214.945 12C214.945 14.9 216.985 16.44 219.745 16.44ZM230.998 0.479999H233.458L233.258 12.92H231.198L230.998 0.479999ZM232.218 17.58C231.378 17.58 230.758 17 230.758 16.16C230.758 15.28 231.378 14.72 232.218 14.72C233.098 14.72 233.698 15.28 233.698 16.16C233.698 17 233.098 17.58 232.218 17.58Z" fill="white"/>
</svg>
