<svg width="290" height="341" viewBox="0 0 290 341" fill="none" xmlns="http://www.w3.org/2000/svg">
<g filter="url(#filter0_d_2001_48215)">
<path fill-rule="evenodd" clip-rule="evenodd" d="M4.00003 16C4.00003 7.16345 11.1635 0 20 0H270.001C278.838 0 286.001 7.16344 286.001 16V141.002C286.001 141.002 286.001 141.002 286 141.002C276.612 141.002 269.002 148.612 269 158H21C20.999 148.612 13.3882 141.002 4 141.002L4.00003 16Z" fill="white"/>
</g>
<g filter="url(#filter1_d_2001_48215)">
<path fill-rule="evenodd" clip-rule="evenodd" d="M286.002 280H4.00049V174.775C4.00098 174.775 4.00146 174.775 4.00195 174.775C13.3158 174.775 20.8802 167.285 21.0005 158H269.003C269.124 167.285 276.688 174.775 286.002 174.775V280Z" fill="white"/>
<path d="M4 280H286V317C286 325.837 278.837 333 270 333H20C11.1634 333 4 325.837 4 317V280Z" fill="#F5F5FF"/>
<line x1="4" y1="280.5" x2="286" y2="280.5" stroke="#DDE0E4" stroke-dasharray="2.82 2.82"/>
</g>
<defs>
<filter id="filter0_d_2001_48215" x="0" y="0" width="290.002" height="166" filterUnits="userSpaceOnUse" color-interpolation-filters="sRGB">
<feFlood flood-opacity="0" result="BackgroundImageFix"/>
<feColorMatrix in="SourceAlpha" type="matrix" values="0 0 0 0 0 0 0 0 0 0 0 0 0 0 0 0 0 0 127 0" result="hardAlpha"/>
<feOffset dy="4"/>
<feGaussianBlur stdDeviation="2"/>
<feComposite in2="hardAlpha" operator="out"/>
<feColorMatrix type="matrix" values="0 0 0 0 0 0 0 0 0 0 0 0 0 0 0 0 0 0 0.25 0"/>
<feBlend mode="normal" in2="BackgroundImageFix" result="effect1_dropShadow_2001_48215"/>
<feBlend mode="normal" in="SourceGraphic" in2="effect1_dropShadow_2001_48215" result="shape"/>
</filter>
<filter id="filter1_d_2001_48215" x="0" y="158" width="290.002" height="183" filterUnits="userSpaceOnUse" color-interpolation-filters="sRGB">
<feFlood flood-opacity="0" result="BackgroundImageFix"/>
<feColorMatrix in="SourceAlpha" type="matrix" values="0 0 0 0 0 0 0 0 0 0 0 0 0 0 0 0 0 0 127 0" result="hardAlpha"/>
<feOffset dy="4"/>
<feGaussianBlur stdDeviation="2"/>
<feComposite in2="hardAlpha" operator="out"/>
<feColorMatrix type="matrix" values="0 0 0 0 0 0 0 0 0 0 0 0 0 0 0 0 0 0 0.25 0"/>
<feBlend mode="normal" in2="BackgroundImageFix" result="effect1_dropShadow_2001_48215"/>
<feBlend mode="normal" in="SourceGraphic" in2="effect1_dropShadow_2001_48215" result="shape"/>
</filter>
</defs>
</svg>
