<svg width="40" height="16" viewBox="0 0 40 16" fill="none" xmlns="http://www.w3.org/2000/svg">
<path d="M22.2012 8.50843L22.2012 13.5028C22.2012 14.1651 21.9694 14.8003 21.5569 15.2686C21.1443 15.7369 20.5848 16 20.0014 16C19.4179 16 18.8584 15.7369 18.4459 15.2686C18.0333 14.8003 17.8016 14.1651 17.8016 13.5028L17.8016 8.50843C17.8016 7.84613 18.0333 7.21096 18.4459 6.74264C18.8584 6.27433 19.4179 6.01123 20.0014 6.01123C20.5848 6.01123 21.1443 6.27433 21.5569 6.74264C21.9694 7.21096 22.2012 7.84613 22.2012 8.50843Z" fill="#FF7602" fill-opacity="0.6"/>
<path d="M8.56395 4.78922L4.93014 8.32079C4.44826 8.78911 3.82224 9.07897 3.1898 9.12662C2.55735 9.17426 1.97028 8.97578 1.55773 8.57485C1.14519 8.17391 0.940971 7.60336 0.989994 6.98871C1.03902 6.37406 1.33727 5.76565 1.81915 5.29734L5.45296 1.76577C5.93483 1.29745 6.56086 1.00759 7.1933 0.959943C7.82575 0.912298 8.41282 1.11077 8.82536 1.51171C9.23791 1.91264 9.44213 2.4832 9.39311 3.09785C9.34408 3.7125 9.04583 4.32091 8.56395 4.78922Z" fill="#FF7602" fill-opacity="0.4"/>
<path d="M35.0737 8.32064L31.4399 4.78907C30.958 4.32076 30.6598 3.71235 30.6107 3.0977C30.5617 2.48304 30.7659 1.91249 31.1785 1.51156C31.591 1.11062 32.1781 0.912147 32.8106 0.959791C33.443 1.00744 34.069 1.2973 34.5509 1.76561L38.1847 5.29718C38.6666 5.7655 38.9648 6.37391 39.0139 6.98856C39.0629 7.60321 38.8587 8.17376 38.4461 8.5747C38.0336 8.97563 37.4465 9.17411 36.8141 9.12646C36.1816 9.07882 35.5556 8.78896 35.0737 8.32064Z" fill="#FF7602" fill-opacity="0.8"/>
</svg>
