<svg width="20" height="20" viewBox="0 0 20 20" fill="none" xmlns="http://www.w3.org/2000/svg">
<path d="M7.63761 12.9808L15.4045 5.2139C15.5878 5.03061 15.8016 4.93896 16.046 4.93896C16.2904 4.93896 16.5042 5.03061 16.6875 5.2139C16.8708 5.39719 16.9625 5.615 16.9625 5.86733C16.9625 6.11965 16.8708 6.33716 16.6875 6.51984L8.27912 14.9511C8.09583 15.1344 7.882 15.2261 7.63761 15.2261C7.39323 15.2261 7.17939 15.1344 6.9961 14.9511L3.05538 11.0104C2.87209 10.8271 2.78411 10.6096 2.79144 10.3579C2.79877 10.1062 2.89439 9.88839 3.07829 9.70449C3.26219 9.52059 3.48 9.42894 3.73171 9.42955C3.98343 9.43017 4.20093 9.52181 4.38422 9.70449L7.63761 12.9808Z" fill="#F5F5FF"/>
</svg>
