<svg width="12" height="13" viewBox="0 0 12 13" fill="none" xmlns="http://www.w3.org/2000/svg">
<g id="Close">
<path id="Vector" d="M2.49455 2.49436C2.39508 2.49438 2.29788 2.52407 2.21538 2.57963C2.13287 2.63519 2.06881 2.71409 2.03138 2.80624C1.99395 2.8984 1.98486 2.99962 2.00526 3.09698C2.02566 3.19433 2.07464 3.28338 2.14592 3.35276L5.2924 6.49924L2.14592 9.64573C2.09793 9.6918 2.05962 9.74698 2.03323 9.80805C2.00683 9.86911 1.99289 9.93483 1.99221 10.0013C1.99154 10.0679 2.00414 10.1339 2.02928 10.1954C2.05443 10.257 2.09161 10.313 2.13865 10.36C2.18569 10.4071 2.24164 10.4442 2.30323 10.4694C2.36482 10.4945 2.4308 10.5071 2.49732 10.5065C2.56385 10.5058 2.62956 10.4918 2.69063 10.4654C2.75169 10.4391 2.80687 10.4007 2.85295 10.3528L5.99943 7.20627L9.14592 10.3528C9.19199 10.4007 9.24717 10.4391 9.30824 10.4654C9.3693 10.4918 9.43502 10.5058 9.50154 10.5065C9.56806 10.5071 9.63405 10.4945 9.69564 10.4694C9.75722 10.4442 9.81318 10.4071 9.86022 10.36C9.90726 10.313 9.94444 10.257 9.96958 10.1954C9.99473 10.1339 10.0073 10.0679 10.0067 10.0013C10.006 9.93483 9.99203 9.86911 9.96564 9.80805C9.93925 9.74698 9.90093 9.6918 9.85295 9.64573L6.70646 6.49924L9.85295 3.35276C9.9252 3.28253 9.97455 3.1921 9.99453 3.09334C10.0145 2.99458 10.0042 2.89209 9.96491 2.7993C9.92564 2.70651 9.85926 2.62774 9.77445 2.57333C9.68965 2.51891 9.59038 2.49139 9.48967 2.49436C9.35977 2.49823 9.23648 2.55252 9.14592 2.64573L5.99943 5.79221L2.85295 2.64573C2.80635 2.59783 2.75063 2.55976 2.68907 2.53376C2.62752 2.50776 2.56137 2.49436 2.49455 2.49436Z" fill="#5E52FF"/>
</g>
</svg>
