<svg width="201" height="186" viewBox="0 0 201 186" fill="none" xmlns="http://www.w3.org/2000/svg">
<path d="M66.0016 18.8366C67.8062 18.074 69.5833 17.2377 71.4207 16.5595C79.1469 13.7126 87.1624 12.1835 95.3699 11.7437C104.764 11.2403 113.992 12.3643 123.005 15.0769C132.945 18.0686 141.998 22.7712 150.158 29.1647C157.229 34.7057 163.21 41.2463 168.132 48.7424C168.464 49.2484 168.987 49.7032 168.547 50.4759C168.367 50.7922 168.543 51.3105 168.559 51.8247C169.026 51.7292 169.412 51.6507 169.933 51.544C171.079 53.6748 172.237 55.8229 173.455 58.0892C172.316 58.2482 171.359 58.4309 170.396 58.482C170.147 58.4959 169.784 58.1552 169.63 57.8872C168.098 55.2145 166.724 52.4421 165.051 49.8628C163.616 47.6512 161.905 45.6069 160.221 43.5664C152.267 33.9266 142.534 26.595 131.075 21.5491C122.075 17.5881 112.648 15.4194 102.811 14.9971C97.4116 14.7652 92.0673 15.1932 86.7216 15.9336C83.1678 16.4258 79.7278 17.3466 76.3405 18.4114C72.9479 19.4788 69.5893 20.7325 66.3654 22.2266C63.1168 23.7336 59.9895 25.5338 56.9212 27.3883C52.7938 29.8861 49.0823 32.9445 45.5415 36.2155C43.1893 38.388 41.0332 40.7375 39.0199 43.2089C38.3431 44.0411 37.7338 44.4647 36.6998 44.0094C36.5375 43.9375 36.3389 43.9444 36.1095 43.9083C35.602 44.715 36.1036 45.4791 36.1471 46.2429C36.1589 46.4607 36.1879 46.7328 36.0774 46.892C35.0779 48.3594 34.0488 49.8063 32.9717 51.3431C32.276 50.7801 31.6613 51.1647 31.3603 51.7515C31.217 52.0288 31.6475 52.5986 31.8827 53.1994C29.2581 57.6383 26.8559 62.466 25.2145 67.6189C24.1682 70.9049 23.3571 74.2678 22.4638 77.6006C22.3184 78.1449 21.9704 78.3864 21.5897 78.7592C20.7435 79.5904 19.7338 79.2395 18.6833 79.7152C18.9977 78.1222 19.2485 76.6704 19.5757 75.2344C22.0539 64.3752 26.56 54.4246 33.1085 45.3921C37.8292 38.8788 43.405 33.1958 49.8048 28.3114C50.1462 28.0501 50.5226 27.7951 50.9252 27.6576C51.716 27.3884 52.6272 27.3255 52.7373 26.2092C52.7471 26.1038 52.9661 26.0127 53.0944 25.9248C57.0259 23.2519 61.1572 20.9295 65.488 18.9556C65.6559 18.8792 65.8474 18.8486 66.0265 18.7972C65.9922 18.8776 65.9481 18.9557 65.9259 19.0401C65.8467 19.3273 65.7753 19.6153 65.7002 19.9039C65.9882 19.9375 66.3362 20.0856 66.551 19.9781C66.8615 19.8213 67.0749 19.4756 67.3303 19.2111C67.1293 19.0405 66.9501 18.795 66.7194 18.7232C66.5089 18.6599 66.2403 18.79 65.9971 18.8315L66.0016 18.8366ZM56.8516 26.5468C57.4898 25.8449 58.1388 25.1509 58.7364 24.4168C58.7721 24.374 58.4239 23.8475 58.203 23.8046C57.5812 23.6833 56.0609 24.7618 55.8533 25.3771C55.6125 26.0936 55.9214 26.4761 56.8516 26.5468ZM71.9556 18.0151C73.0251 18.5733 74.0245 18.5019 74.6089 17.7281C74.8219 17.4468 74.9015 16.8947 74.7696 16.5802C74.679 16.3696 74.0937 16.2375 73.7579 16.2825C72.801 16.4123 72.2741 17.0816 71.9556 18.0151ZM20.8847 74.3689C21.8994 74.6207 22.5952 74.325 22.6175 73.5558C22.6275 73.2498 22.2709 72.7586 21.9729 72.6546C21.4849 72.4843 20.9314 73.3825 20.8847 74.3689ZM91.282 14.4933C91.5317 14.0952 91.7617 13.8532 91.8174 13.5749C91.8373 13.4738 91.3798 13.129 91.2423 13.1785C90.9708 13.275 90.771 13.5696 90.5424 13.7812C90.7428 13.9745 90.9432 14.1679 91.282 14.4933Z" fill="#FF7602"/>
<path d="M85.1239 173.212C85.5286 172.808 85.8476 172.549 86.0873 172.229C86.2568 172.002 86.3142 171.696 86.4223 171.425C86.0889 171.3 85.7069 171.005 85.4328 171.083C84.9141 171.233 84.3783 171.517 83.9899 171.889C83.1912 172.653 82.3907 172.76 81.3056 172.508C70.8409 170.083 61.2085 165.815 52.4198 159.678C47.2724 156.083 42.5914 151.957 38.415 147.271C38.3338 147.181 38.2658 147.077 38.2331 147.034C39.0804 146.371 39.9108 145.723 40.6876 145.114C42.9778 147.299 45.304 149.698 47.8184 151.882C59.111 161.687 72.1797 167.789 86.9667 170.235C87.9225 170.393 88.8926 170.477 89.846 170.645C90.4172 170.745 91.0949 170.537 91.3353 171.496C91.4586 171.992 92.151 171.779 92.6052 171.429C92.8758 171.219 93.2671 171.015 93.5895 171.036C99.709 171.451 105.794 171.203 111.856 170.276C112.221 170.219 112.648 170.404 113.015 170.551C113.638 170.801 114.142 170.844 114.458 170.111C114.526 169.956 114.723 169.795 114.89 169.752C116.651 169.312 118.419 168.893 120.185 168.478C120.36 168.437 120.59 168.399 120.729 168.476C121.293 168.795 121.565 168.528 121.987 168.136C122.388 167.764 123.039 167.635 123.598 167.457C132.579 164.611 140.756 160.264 148.142 154.447C158.429 146.346 166.178 136.287 171.488 124.363C172.109 122.969 172.654 121.544 173.264 120.061C173.99 120.344 174.584 120.083 174.7 119.329C174.75 118.999 174.324 118.597 174.092 118.188C174.94 114.714 175.824 111.059 176.744 107.415C176.8 107.195 177.12 106.935 177.357 106.886C178.244 106.71 179.148 106.616 180.253 106.461C179.911 108.198 179.593 109.816 179.262 111.497C178.735 111.413 178.288 111.343 177.753 111.257C177.563 112.241 177.604 113.09 178.219 113.892C178.382 114.105 178.452 114.504 178.38 114.77C176.312 122.297 173.19 129.372 169.053 135.997C163.592 144.744 156.715 152.21 148.422 158.375C141.578 163.461 134.15 167.488 126.004 170.072C121.927 171.366 117.719 172.252 113.569 173.313C113.239 173.397 112.892 173.413 112.562 173.459C111.963 172.172 111.766 172.176 110.667 173.119C110.205 173.516 109.579 173.889 108.991 173.954C101.171 174.835 93.3692 174.691 85.6053 173.336C85.4922 173.316 85.3823 173.278 85.1196 173.209L85.1239 173.212ZM162.637 141.744C163.73 141.972 164.356 141.697 164.37 140.893C164.375 140.582 164.01 140.096 163.706 139.987C163.241 139.823 162.659 140.801 162.637 141.744ZM168.476 131.57C168.144 132.258 167.892 132.654 167.78 133.088C167.75 133.209 168.285 133.607 168.306 133.591C168.7 133.243 169.074 132.866 169.389 132.449C169.413 132.417 168.96 132.032 168.476 131.572L168.476 131.57ZM80.1943 169.733C79.4648 169.831 78.8356 169.993 78.76 170.801C78.7529 170.872 79.3714 171.132 79.6503 171.074C80.3258 170.931 80.7052 170.536 80.1943 169.733ZM133.097 164.847L133.24 165.304C133.684 165.289 134.131 165.274 134.576 165.259L134.509 163.888C134.406 163.849 134.302 163.812 134.2 163.774C133.832 164.132 133.464 164.487 133.097 164.845L133.097 164.847Z" fill="#FF7602"/>
<path d="M53.1515 127.53L52.6965 124.316C53.0502 124.249 53.3739 124.172 53.702 124.126C86.4965 119.548 119.294 114.974 152.085 110.374C153.023 110.243 153.259 110.512 153.354 111.375C153.589 113.502 153.629 113.508 151.495 113.806C124.168 117.62 96.8425 121.429 69.5154 125.241C64.4595 125.947 59.404 126.656 54.3483 127.363C53.9829 127.414 53.6175 127.465 53.1515 127.53ZM87.6411 122.598C88.7849 121.411 88.8321 120.966 87.9643 119.939C86.7069 120.672 86.5692 121.66 87.6411 122.598ZM69.3214 124.529C69.9016 124.115 70.7329 123.957 70.457 123.055C70.4073 122.892 69.6248 122.736 69.3844 122.891C68.7901 123.273 68.7253 123.863 69.3214 124.529ZM78.0559 122.398C78.161 122.415 78.2659 122.431 78.371 122.448C78.4554 122.172 78.6924 121.791 78.5878 121.643C78.4306 121.419 78.0396 121.356 77.7475 121.226C77.6917 121.302 77.6359 121.378 77.5822 121.456C77.7408 121.77 77.8973 122.083 78.0559 122.398Z" fill="#FF7602"/>
<path d="M146.324 61.8377L45.8893 75.8541L45.4472 72.7304C45.7732 72.6698 46.1248 72.5886 46.4809 72.5389C70.3406 69.2128 94.2027 65.8903 118.062 62.5624C126.966 61.3198 135.872 60.0806 144.771 58.7991C145.684 58.6679 146.015 58.9034 146.048 59.7917C146.071 60.4373 146.217 61.079 146.324 61.8377ZM118.031 64.2237C118.395 63.772 118.632 63.474 118.872 63.1777C118.634 63.0293 118.326 62.7072 118.169 62.7687C117.814 62.9072 117.532 63.2342 117.221 63.4837C117.437 63.6824 117.654 63.8811 118.03 64.2259L118.031 64.2237Z" fill="#FF7602"/>
<path d="M161.082 127.052L161.275 128.413C161.513 128.431 161.75 128.449 162.032 128.472C161.998 128.591 161.985 128.715 161.928 128.812C159.464 133.096 156.571 137.073 153.273 140.755C149.927 144.489 146.247 147.866 142.184 150.822C141.528 151.3 140.869 151.774 140.188 152.215C139.627 152.577 139.172 153.138 138.291 152.767C137.979 152.636 137.225 153.058 136.939 153.429C134.669 156.397 131.175 157.36 128.026 158.876C127.147 159.299 126.139 159.449 125.217 159.795C123.889 160.295 122.612 160.948 121.263 161.38C116.147 163.021 110.906 164.083 105.54 164.469C103.344 164.626 101.138 164.745 98.9363 164.727C96.654 164.706 94.365 164.585 92.0962 164.351C89.8585 164.123 87.6248 163.774 85.4185 163.337C83.2124 162.901 81.012 162.386 78.8578 161.739C69.9453 159.065 61.8338 154.851 54.5544 149.061C50.1562 145.563 46.1969 141.632 42.7571 137.194C42.4384 136.783 42.2271 136.217 42.1674 135.701C42.0996 135.115 41.8571 134.838 41.3442 134.6C40.8965 134.391 40.407 134.089 40.1474 133.692C38.6694 131.43 37.2541 129.127 35.8034 126.815C37.3146 126.183 37.4689 126.239 38.146 127.41C46.5966 142.025 58.7046 152.434 74.5105 158.505C86.4403 163.088 98.7724 164.241 111.353 162.084C125.899 159.59 138.46 153.143 149.006 142.843C149.573 142.287 150.29 141.871 150.807 141.277C152.003 139.897 153.192 138.502 154.248 137.017C156.417 133.972 158.498 130.865 160.613 127.781C160.733 127.606 160.842 127.422 161.078 127.049L161.082 127.052Z" fill="#FF7602"/>
<path d="M113.675 148.347C111.746 147.64 110.031 147.058 108.358 146.376C107.494 146.024 106.826 146.028 106.059 146.64C104.624 147.784 103.101 148.82 101.423 150.041C101.437 149.23 101.434 148.608 101.464 147.987C101.532 146.557 101.647 145.13 101.671 143.7C101.677 143.404 101.436 143.005 101.186 142.82C99.6463 141.696 98.0722 140.622 96.5105 139.527C96.3922 139.443 96.288 139.339 96.0456 139.13C98.0191 138.594 99.8368 138.045 101.684 137.621C102.529 137.427 102.93 137.023 103.168 136.209C103.689 134.42 104.316 132.663 104.96 130.711C105.865 132.036 106.692 133.224 107.494 134.427C108.874 136.498 108.868 136.492 111.345 136.428C112.802 136.391 114.261 136.397 115.939 136.38C114.618 137.991 113.457 139.449 112.245 140.864C111.72 141.479 111.486 142.003 111.843 142.846C112.435 144.248 112.849 145.725 113.332 147.173C113.438 147.491 113.522 147.816 113.676 148.345L113.675 148.347ZM110.71 140.886C111.077 140.443 111.327 140.14 111.579 139.836C111.303 139.685 110.975 139.36 110.766 139.425C110.438 139.524 110.19 139.886 109.908 140.137C110.13 140.343 110.349 140.548 110.712 140.887L110.71 140.886Z" fill="#FF7602"/>
<path d="M91.4717 35.6581C92.6659 37.3793 93.789 38.9609 94.8704 40.571C95.2121 41.0776 95.5468 41.3335 96.2237 41.3071C98.213 41.2319 100.207 41.2677 102.441 41.2585C101.239 42.7484 100.255 44.1456 99.0831 45.3646C98.1981 46.2845 98.0708 47.0911 98.5533 48.2438C99.1993 49.7861 99.6498 51.4105 100.257 53.2154C98.8128 52.6963 97.4928 52.383 96.3371 51.7669C94.4437 50.76 92.8943 50.9081 91.3329 52.4217C90.4035 53.3232 89.2254 53.9719 88.1562 54.732C88.1354 54.7463 88.096 54.7367 87.9341 54.7479C88.0015 53.142 87.9363 51.5262 88.1703 49.9557C88.3884 48.4877 87.9367 47.6068 86.662 46.8881C85.4141 46.1846 84.2836 45.2755 83.106 44.4506C82.9667 44.3527 82.8543 44.2171 82.6152 43.9913C84.3025 43.5288 85.8383 43.0024 87.4194 42.7023C88.8284 42.4357 89.6294 41.8359 89.9457 40.3636C90.2844 38.7936 90.9248 37.2874 91.4677 35.6568L91.4717 35.6581ZM94.8492 45.5658C95.4089 45.3024 95.9526 45.0468 96.3089 44.8779C96.6144 45.2363 96.8477 45.7031 97.0315 45.685C97.3934 45.6496 97.8084 45.412 98.0539 45.1318C98.2535 44.9035 98.2938 44.4893 98.2945 44.1582C98.2955 43.897 98.1763 43.4577 98.022 43.415C97.7867 43.3513 97.3226 43.4842 97.2272 43.6696C96.9311 44.2501 96.5174 44.1886 95.9911 44.1505C95.0322 44.0781 94.7033 44.508 94.8474 45.5661L94.8492 45.5658Z" fill="#FF7602"/>
<path d="M163.022 59.4771C161.438 59.8609 161.447 59.8558 160.718 58.5862C160.268 57.8034 159.806 57.0242 159.32 56.2635C158.866 55.5495 158.269 54.8799 159.231 53.7754C157.536 54.1311 157.21 52.9716 156.588 52.1769C155.165 50.359 153.734 48.548 152.413 46.8692C152.471 46.3523 152.519 45.9257 152.567 45.4972C152.139 45.468 151.711 45.4407 151.12 45.4003C149.382 43.7776 147.517 41.9345 145.545 40.2141C139.339 34.7963 132.369 30.5957 124.634 27.7407C121.3 26.511 117.822 25.6705 114.402 24.6761C113.815 24.5064 113.206 24.4591 113.39 23.5859C113.418 23.4572 113.176 23.2714 113.059 23.1119C112.91 23.2424 112.714 23.3474 112.627 23.5108C112.527 23.6931 112.526 23.9278 112.455 24.2707C111.376 23.8915 110.095 24.3068 109.4 23.3898C108.688 23.4439 108.114 23.5543 107.55 23.5194C104.689 23.3456 101.83 23.1354 98.9829 22.937C99.0818 22.4938 99.1941 21.9977 99.3082 21.488C125.162 20.9387 151.016 36.2312 163.022 59.4771Z" fill="#FF7602"/>
<path d="M115.901 34.6699C116.994 36.2748 117.959 37.642 118.863 39.048C119.19 39.5547 119.551 39.7541 120.151 39.7384C121.886 39.693 123.623 39.704 125.549 39.6924C124.618 40.8495 123.842 41.9736 122.9 42.9355C121.92 43.9385 121.601 44.8664 122.256 46.2127C122.834 47.4012 123.123 48.7285 123.612 50.2058C122.108 49.6703 120.73 49.2856 119.451 48.6925C118.261 48.1416 117.351 48.2307 116.351 49.1042C115.302 50.0223 114.098 50.7655 112.782 51.7153C112.814 50.6685 112.704 49.7665 112.893 48.9323C113.445 46.5059 112.697 44.8285 110.378 43.7845C109.574 43.422 108.903 42.7647 107.991 42.1126C109.758 41.6352 111.331 41.183 112.919 40.7969C113.68 40.6112 114.147 40.3001 114.364 39.4715C114.765 37.9401 115.323 36.4512 115.903 34.6697L115.901 34.6699ZM117.46 46.061C116.627 46.4554 116.133 47.2393 116.501 47.6363C116.665 47.8139 117.213 47.9019 117.377 47.7712C118.003 47.2735 117.84 46.6588 117.46 46.061Z" fill="#FF7602"/>
<path d="M90.6749 141.592C89.4767 143.079 88.4612 144.42 87.35 145.676C86.8729 146.214 86.8767 146.671 87.0909 147.271C87.6392 148.821 88.1532 150.384 88.7447 152.132C87.3386 151.627 86.0386 151.294 84.8696 150.704C83.457 149.991 82.3677 150.139 81.2031 151.206C80.2287 152.099 79.0572 152.781 77.8592 153.638C77.9465 151.891 78.0057 150.281 78.1245 148.675C78.1444 148.414 78.4963 148.187 78.5602 147.913C78.658 147.489 78.6397 147.037 78.6707 146.598C78.3219 146.618 77.9728 146.65 77.6237 146.655C77.3524 146.659 77.0157 146.725 76.8189 146.597C75.6208 145.815 74.4554 144.983 73.0941 144.041C74.4805 143.655 75.6716 143.192 76.9065 143.012C78.5999 142.766 79.5216 141.958 79.8427 140.264C80.0604 139.116 80.5573 138.019 80.9294 136.901C80.9371 136.875 80.9707 136.857 81.1204 136.706C81.8412 138.131 83.1865 139.094 83.4466 140.811C83.4995 141.157 84.4888 141.566 85.0652 141.595C86.8705 141.684 88.6846 141.606 90.6768 141.591L90.6749 141.592Z" fill="#FF7602"/>
<path d="M121.444 137.258C123.375 136.729 125.067 136.302 126.731 135.784C127.101 135.67 127.497 135.295 127.659 134.94C127.995 134.208 128.113 133.378 128.447 132.647C128.779 131.92 129.268 131.263 129.779 130.428C130.737 131.822 131.545 133.071 132.441 134.255C132.67 134.56 133.167 134.822 133.549 134.833C135.295 134.88 137.045 134.833 139.031 134.817C137.751 136.397 136.611 137.812 135.452 139.213C135.371 139.311 135.139 139.336 134.988 139.316C133.847 139.165 133.456 139.656 133.861 140.812C134.337 140.6 134.808 140.387 135.343 140.147C135.922 141.873 136.476 143.519 137.091 145.351C135.711 144.857 134.41 144.53 133.245 143.94C131.83 143.223 130.727 143.383 129.559 144.429C128.593 145.296 127.457 145.977 126.398 146.741C126.302 146.709 126.205 146.678 126.109 146.646C126.298 145.554 126.496 144.465 126.67 143.37C126.703 143.16 126.663 142.933 126.623 142.719C126.581 142.488 126.408 142.246 126.452 142.043C126.663 141.067 126.241 140.512 125.42 140.008C124.121 139.211 122.907 138.278 121.445 137.256L121.444 137.258Z" fill="#FF7602"/>
<path d="M37.5293 59.6523C37.3797 59.2003 37.2493 58.8023 37.1167 58.4028C36.904 58.754 36.7188 59.1242 36.47 59.4483C36.2708 59.7069 35.9949 59.9062 35.5673 60.0018C35.9987 59.2076 36.4156 58.4061 36.8637 57.6228C40.3914 51.4652 44.7416 45.9476 49.8973 41.0572C50.3027 40.6715 50.6595 40.4382 51.2718 40.574C51.9941 40.7343 52.7238 40.6778 53.1793 39.7725C52.8828 39.5718 52.5675 39.3585 52.1112 39.0496C65.3029 27.779 80.574 22.0122 97.9307 21.5118C97.2301 22.3114 96.6996 23.1704 95.3597 23.2401C84.348 23.8008 74.0639 26.8836 64.497 32.3065C57.5276 36.2564 51.4389 41.2846 46.1846 47.3181C45.8886 47.6583 45.4186 47.8563 45.0105 48.0892C44.4827 48.3898 43.9563 48.6468 44.1984 49.4302C44.2505 49.5969 44.083 49.8643 43.9583 50.0444C42.421 52.2791 40.9866 54.596 39.2778 56.6939C38.5182 57.6265 38.4281 58.8572 37.5335 59.6555L37.5293 59.6523Z" fill="#FF7602"/>
<path d="M67.5682 41.455C68.6346 43.0257 69.5939 44.3369 70.4325 45.7218C70.8417 46.3968 71.3345 46.5342 72.046 46.5105C73.6926 46.4585 75.3402 46.4669 77.2178 46.4489C75.9636 47.9972 74.8369 49.3859 73.7138 50.7722C72.3771 49.8843 71.9321 49.9237 70.8048 51.1195C70.2327 51.7252 69.7351 52.3999 69.1949 53.056C70.832 53.7696 72.0198 53.4582 73.5183 51.8758C73.7706 52.5839 74.0004 53.2272 74.1953 53.7712C73.9672 54.1208 73.7984 54.3789 73.6296 54.6371C73.8637 54.733 74.1067 54.8107 74.3271 54.9313C74.4694 55.0098 74.6361 55.1265 74.6899 55.2646C74.879 55.7546 75.0247 56.2602 75.2602 56.9839C73.8267 56.4728 72.4982 56.1399 71.3087 55.5398C69.9389 54.8476 68.898 55.0685 67.786 56.0371C66.7824 56.9111 65.6339 57.6218 64.4074 58.5061C64.489 56.5975 64.5926 54.8446 64.6107 53.0924C64.6141 52.7401 64.3832 52.2635 64.1022 52.0511C62.8566 51.1089 61.5519 50.245 60.2709 49.3474C60.1042 49.2307 59.9532 49.091 59.6909 48.876C61.4137 48.4086 62.9935 47.9384 64.596 47.5616C65.3504 47.3844 65.7595 47.0512 65.9796 46.2827C66.4296 44.7067 66.9984 43.1651 67.5668 41.459L67.5682 41.455Z" fill="#FF7602"/>
<path d="M39.2508 143.273C38.4296 143.999 37.6454 144.691 36.8052 145.431C32.3824 140.199 28.6352 134.463 25.5614 128.057C26.6706 127.903 27.6686 127.741 28.672 127.644C28.8427 127.628 29.1232 127.85 29.2133 128.03C31.9413 133.523 35.3759 138.555 39.2545 143.299C39.2728 143.321 39.2741 143.357 39.2469 143.272L39.2508 143.273Z" fill="#FF7602"/>
<path d="M170.119 107.902C169.256 110.832 168.479 113.547 167.65 116.244C167.302 117.373 166.871 118.477 166.413 119.568C166.244 119.972 165.882 120.291 165.631 120.663C165.481 120.883 165.251 121.142 165.27 121.364C165.377 122.658 164.847 123.534 163.795 124.294C162.922 124.924 162.231 125.802 161.269 126.759C162.1 125.043 162.84 123.565 163.538 122.067C165.493 117.879 167.005 113.531 167.988 109.02C168.25 107.822 169.058 108.075 170.121 107.902L170.119 107.902Z" fill="#FF7602"/>
<path d="M34.9731 61.1441C35.6142 62.4771 36.0805 61.366 36.8028 61.1365C36.4261 61.9136 36.105 62.5732 35.7885 63.2245C35.4336 63.2154 35.1074 63.208 34.5177 63.1919C35.5974 64.3862 34.8178 65.3121 34.4386 66.2862C34.009 67.3884 33.7528 68.6007 33.118 69.5689C32.4113 70.6474 32.4558 71.8613 32.0592 72.9816C31.6468 74.1514 31.3789 75.3748 31.0783 76.5819C30.7041 78.0888 30.7195 78.0904 29.0074 78.1761C30.2515 72.2578 32.2367 66.6465 34.971 61.1425L34.9731 61.1441Z" fill="#FF7602"/>
<path d="M23.4292 101.021L17.8659 101.797C17.711 101.236 17.4859 100.742 17.1909 100.314C16.8959 99.8867 16.5362 99.5362 16.1117 99.2627C15.6872 98.9892 15.2033 98.8034 14.6599 98.7053C14.1229 98.5987 13.5429 98.5889 12.9198 98.6759C11.8145 98.8301 10.8997 99.2338 10.1752 99.887C9.45813 100.539 8.9569 101.407 8.67151 102.49C8.39355 103.573 8.35742 104.84 8.56313 106.294C8.77723 107.807 9.17182 109.045 9.74687 110.008C10.3283 110.963 11.0489 111.645 11.9086 112.054C12.7747 112.455 13.7493 112.58 14.8322 112.429C15.4405 112.344 15.9821 112.189 16.457 111.964C16.9394 111.738 17.3487 111.45 17.685 111.101C18.0277 110.743 18.291 110.332 18.4749 109.868C18.6652 109.395 18.7697 108.877 18.7885 108.315L24.3564 107.572C24.4027 108.594 24.2504 109.629 23.8994 110.676C23.5558 111.722 23.0183 112.708 22.2871 113.635C21.5549 114.554 20.6141 115.335 19.4648 115.98C18.3229 116.623 16.9693 117.054 15.4042 117.272C13.3421 117.56 11.4311 117.365 9.67119 116.688C7.91763 116.003 6.44652 114.855 5.25783 113.244C4.06915 111.632 3.29796 109.577 2.94427 107.078C2.58952 104.572 2.76727 102.38 3.4775 100.504C4.18773 98.6279 5.29477 97.1235 6.7986 95.9911C8.30244 94.8586 10.0669 94.1511 12.0919 93.8685C13.4716 93.676 14.7747 93.6907 16.0012 93.9128C17.2268 94.1274 18.3365 94.5397 19.3305 95.1496C20.3235 95.7521 21.1732 96.5448 21.8796 97.5276C22.586 98.5104 23.1025 99.6747 23.4292 101.021ZM48.5321 100.716C48.8869 103.222 48.7054 105.414 47.9878 107.292C47.2701 109.169 46.1519 110.675 44.6333 111.809C43.122 112.943 41.3465 113.652 39.3066 113.936C37.2594 114.222 35.3515 114.023 33.5831 113.34C31.8147 112.657 30.3256 111.515 29.1157 109.914C27.9122 108.305 27.1336 106.251 26.7799 103.752C26.4252 101.245 26.6029 99.0538 27.3131 97.1776C28.0308 95.3004 29.1452 93.795 30.6565 92.6615C32.1677 91.5281 33.947 90.8185 35.9943 90.5328C38.0341 90.2481 39.9377 90.4437 41.7051 91.1196C43.4798 91.7945 44.9727 92.936 46.1836 94.5441C47.3945 96.1522 48.1774 98.2095 48.5321 100.716ZM42.9021 101.502C42.6922 100.019 42.3035 98.7948 41.7358 97.8305C41.1756 96.8651 40.4651 96.174 39.6043 95.7572C38.7509 95.3394 37.7753 95.2071 36.6775 95.3603C35.5871 95.5125 34.6861 95.9067 33.9743 96.5429C33.2626 97.1792 32.7677 98.0385 32.4897 99.1208C32.2192 100.202 32.1889 101.484 32.3988 102.968C32.6087 104.451 32.9937 105.675 33.554 106.64C34.1216 107.605 34.8358 108.295 35.6966 108.712C36.5574 109.129 37.533 109.261 38.6234 109.109C39.7212 108.956 40.6223 108.561 41.3266 107.926C42.0383 107.29 42.5295 106.431 42.8 105.35C43.078 104.268 43.112 102.985 42.9021 101.502ZM50.1356 88.8768L56.9561 87.925L64.7381 101.222L65.0051 101.185L68.7946 86.2728L75.6151 85.321L78.8393 108.102L73.4764 108.85L71.4959 94.8569L71.3067 94.8833L67.7925 109.496L64.3656 109.974L56.9203 96.8116L56.7312 96.838L58.7227 110.909L53.3598 111.658L50.1356 88.8768ZM82.2746 107.622L79.0504 84.8415L88.4634 83.5279C90.1695 83.2898 91.6891 83.418 93.0223 83.9126C94.3619 84.3986 95.4531 85.1878 96.296 86.2801C97.1379 87.365 97.6696 88.6898 97.891 90.2545C98.1135 91.8266 97.9633 93.2503 97.4404 94.5257C96.9238 95.7926 96.0769 96.8371 94.8998 97.6593C93.7227 98.4815 92.2626 99.0142 90.5194 99.2575L84.7114 100.068L84.0974 95.7299L88.8818 95.0622C89.7126 94.9462 90.3857 94.7048 90.9011 94.338C91.4239 93.9701 91.7932 93.5064 92.009 92.947C92.2238 92.3801 92.2818 91.7481 92.1832 91.0511C92.0835 90.3466 91.8528 89.7587 91.4911 89.2874C91.1283 88.8087 90.6451 88.4677 90.0415 88.2646C89.4379 88.0615 88.7244 88.0174 87.901 88.1323L85.1862 88.5112L87.7822 106.854L82.2746 107.622ZM102.714 104.77L99.4897 81.9891L104.997 81.2205L107.589 99.5296L117.068 98.2067L117.701 102.678L102.714 104.77ZM120.552 102.28L117.328 79.4996L133.217 77.2822L133.85 81.7538L123.469 83.2026L124.13 87.8744L133.699 86.539L134.333 91.0218L124.764 92.3572L125.427 97.0401L135.808 95.5914L136.441 100.063L120.552 102.28ZM136.553 81.3765L135.92 76.9049L155.18 74.217L155.813 78.6887L148.904 79.6529L151.495 97.9621L146.065 98.7198L143.474 80.4107L136.553 81.3765ZM161.094 96.6224L157.87 73.8417L173.759 71.6243L174.392 76.0959L164.011 77.5446L164.672 82.2165L174.241 80.8811L174.875 85.3638L165.306 86.6992L165.969 91.3822L176.35 89.9334L176.983 94.4051L161.094 96.6224ZM188.855 92.7482L180.432 93.9237L177.208 71.1429L185.62 69.969C187.941 69.645 190.005 69.8221 191.81 70.5002C193.622 71.17 195.105 72.294 196.259 73.8722C197.411 75.4431 198.155 77.4113 198.49 79.7769C198.826 82.1499 198.658 84.2528 197.987 86.0857C197.324 87.9176 196.215 89.4071 194.66 90.5542C193.104 91.6939 191.169 92.4253 188.855 92.7482ZM185.275 88.461L187.979 88.0837C189.255 87.9056 190.304 87.5399 191.126 86.9866C191.954 86.4249 192.525 85.623 192.839 84.581C193.159 83.5306 193.203 82.1859 192.971 80.547C192.739 78.9082 192.325 77.6351 191.727 76.7279C191.129 75.8132 190.35 75.2034 189.392 74.8986C188.44 74.5853 187.311 74.5197 186.006 74.7019L183.38 75.0684L185.275 88.461Z" fill="#FF7602"/>
</svg>
