<svg width="40" height="40" viewBox="0 0 40 40" fill="none" xmlns="http://www.w3.org/2000/svg">
<circle cx="20" cy="20" r="20" fill="#3C31C8"/>
<rect width="20" height="20" transform="translate(10 10)" fill="#3C31C8"/>
<path d="M21.7284 13.2377C22.3494 12.5649 22.6599 12.2285 22.9898 12.0323C23.7859 11.5588 24.7662 11.5441 25.5757 11.9934C25.9111 12.1797 26.2311 12.5066 26.8712 13.1605C27.5112 13.8143 27.8313 14.1413 28.0136 14.4839C28.4535 15.3108 28.4391 16.3122 27.9756 17.1254C27.7835 17.4625 27.4542 17.7797 26.7956 18.414L18.9592 25.9618C17.7111 27.1639 17.087 27.765 16.307 28.0696C15.5271 28.3742 14.6697 28.3518 12.9548 28.307L12.7215 28.3009C12.1994 28.2872 11.9384 28.2804 11.7867 28.1082C11.6349 27.936 11.6556 27.6701 11.6971 27.1383L11.7196 26.8496C11.8362 25.3527 11.8945 24.6044 12.1868 23.9317C12.479 23.2589 12.9832 22.7128 13.9915 21.6203L21.7284 13.2377Z" stroke="white" stroke-width="1.91914" stroke-linejoin="round"/>
<path d="M20.833 13.3335L26.6663 19.1668" stroke="white" stroke-width="1.91914" stroke-linejoin="round"/>
<path d="M21.667 28.3335H28.3337" stroke="white" stroke-width="1.91914" stroke-linecap="round" stroke-linejoin="round"/>
</svg>
