<svg width="211" height="39" viewBox="0 0 211 39" fill="none" xmlns="http://www.w3.org/2000/svg">
<path fill-rule="evenodd" clip-rule="evenodd" d="M0 0V24H24V0H0ZM3.41421 2L12 10.5858L20.5858 2H3.41421ZM22 3.41421L13.4142 12L22 20.5858V3.41421ZM20.5858 22L12 13.4142L3.41421 22H20.5858ZM2 20.5858L10.5858 12L2 3.41421V20.5858Z" fill="#DDE1E6"/>
<path d="M50.6611 17.9775V19.1567C50.6611 21.048 50.4048 22.7456 49.8921 24.2495C49.3794 25.7534 48.6559 27.0352 47.7217 28.0947C46.7874 29.1429 45.6709 29.9461 44.3721 30.5044C43.0846 31.0627 41.6548 31.3418 40.0825 31.3418C38.5216 31.3418 37.0918 31.0627 35.793 30.5044C34.5055 29.9461 33.389 29.1429 32.4434 28.0947C31.4977 27.0352 30.7629 25.7534 30.2388 24.2495C29.7261 22.7456 29.4697 21.048 29.4697 19.1567V17.9775C29.4697 16.0749 29.7261 14.3773 30.2388 12.8848C30.7515 11.3809 31.4749 10.0991 32.4092 9.03955C33.3548 7.97998 34.4714 7.17106 35.7588 6.61279C37.0576 6.05452 38.4875 5.77539 40.0483 5.77539C41.6206 5.77539 43.0505 6.05452 44.3379 6.61279C45.6367 7.17106 46.7533 7.97998 47.6875 9.03955C48.6331 10.0991 49.3623 11.3809 49.875 12.8848C50.3991 14.3773 50.6611 16.0749 50.6611 17.9775ZM45.4829 19.1567V17.9434C45.4829 16.6217 45.3633 15.4596 45.124 14.457C44.8848 13.4544 44.5316 12.6113 44.0645 11.9277C43.5973 11.2441 43.0277 10.7314 42.3555 10.3896C41.6833 10.0365 40.9142 9.85986 40.0483 9.85986C39.1825 9.85986 38.4134 10.0365 37.7412 10.3896C37.0804 10.7314 36.5164 11.2441 36.0493 11.9277C35.5936 12.6113 35.2461 13.4544 35.0068 14.457C34.7676 15.4596 34.6479 16.6217 34.6479 17.9434V19.1567C34.6479 20.467 34.7676 21.6291 35.0068 22.6431C35.2461 23.6457 35.5993 24.4945 36.0664 25.1895C36.5335 25.873 37.1032 26.3914 37.7754 26.7446C38.4476 27.0978 39.2166 27.2744 40.0825 27.2744C40.9484 27.2744 41.7174 27.0978 42.3896 26.7446C43.0618 26.3914 43.6258 25.873 44.0815 25.1895C44.5373 24.4945 44.8848 23.6457 45.124 22.6431C45.3633 21.6291 45.4829 20.467 45.4829 19.1567ZM58.8643 16.4565V31H53.9424V12.5088H58.5566L58.8643 16.4565ZM58.1465 21.105H56.8135C56.8135 19.7378 56.9901 18.5073 57.3433 17.4136C57.6965 16.3084 58.1921 15.3685 58.8301 14.5938C59.4681 13.8076 60.2257 13.2095 61.103 12.7993C61.9917 12.3778 62.9829 12.167 64.0767 12.167C64.9425 12.167 65.7344 12.2923 66.4521 12.543C67.1699 12.7936 67.7852 13.1924 68.2979 13.7393C68.8219 14.2861 69.2207 15.0096 69.4941 15.9097C69.779 16.8097 69.9214 17.9092 69.9214 19.208V31H64.9653V19.1909C64.9653 18.3706 64.8514 17.7326 64.6235 17.2769C64.3957 16.8211 64.0596 16.5021 63.6152 16.3198C63.1823 16.1261 62.6468 16.0293 62.0088 16.0293C61.348 16.0293 60.7726 16.1603 60.2827 16.4224C59.8042 16.6844 59.4054 17.049 59.0864 17.5161C58.7788 17.9718 58.5452 18.5073 58.3857 19.1226C58.2262 19.7378 58.1465 20.3986 58.1465 21.105ZM73.6641 4.75H78.5859V26.7617L78.0903 31H73.6641V4.75ZM90.2925 21.5664V21.9253C90.2925 23.3039 90.1444 24.5685 89.8481 25.7192C89.5633 26.87 89.119 27.8669 88.5151 28.71C87.9113 29.5417 87.1593 30.1911 86.2593 30.6582C85.3706 31.1139 84.3224 31.3418 83.1147 31.3418C81.9868 31.3418 81.007 31.1139 80.1753 30.6582C79.355 30.2025 78.6657 29.5588 78.1074 28.7271C77.5492 27.8953 77.0991 26.9212 76.7573 25.8047C76.4155 24.6882 76.1592 23.4691 75.9883 22.1475V21.3613C76.1592 20.0397 76.4155 18.8206 76.7573 17.7041C77.0991 16.5876 77.5492 15.6134 78.1074 14.7817C78.6657 13.95 79.355 13.3063 80.1753 12.8506C80.9956 12.3949 81.964 12.167 83.0806 12.167C84.2996 12.167 85.3592 12.4006 86.2593 12.8677C87.1707 13.3234 87.9227 13.9728 88.5151 14.8159C89.119 15.6476 89.5633 16.6388 89.8481 17.7896C90.1444 18.9289 90.2925 20.1878 90.2925 21.5664ZM85.3706 21.9253V21.5664C85.3706 20.8145 85.3136 20.1081 85.1997 19.4473C85.0972 18.7751 84.9149 18.1883 84.6528 17.687C84.3908 17.1743 84.0319 16.7699 83.5762 16.4736C83.1318 16.1774 82.5565 16.0293 81.8501 16.0293C81.1779 16.0293 80.6082 16.1432 80.1411 16.3711C79.674 16.599 79.2866 16.918 78.979 17.3281C78.6828 17.7383 78.4606 18.2282 78.3125 18.7979C78.1644 19.3561 78.0732 19.9714 78.0391 20.6436V22.8823C78.0732 23.7824 78.2214 24.5799 78.4834 25.2749C78.7568 25.9585 79.167 26.4997 79.7139 26.8984C80.2721 27.2858 80.9956 27.4795 81.8843 27.4795C82.5793 27.4795 83.1546 27.3428 83.6104 27.0693C84.0661 26.7959 84.4193 26.4085 84.6699 25.9072C84.932 25.4059 85.1143 24.8192 85.2168 24.147C85.3193 23.4634 85.3706 22.7228 85.3706 21.9253ZM92.5654 21.9424V21.5835C92.5654 20.2277 92.7591 18.9801 93.1465 17.8408C93.5339 16.6901 94.0978 15.6932 94.8384 14.8501C95.5789 14.007 96.4904 13.3519 97.5728 12.8848C98.6551 12.4062 99.897 12.167 101.298 12.167C102.7 12.167 103.947 12.4062 105.041 12.8848C106.135 13.3519 107.052 14.007 107.792 14.8501C108.544 15.6932 109.114 16.6901 109.501 17.8408C109.889 18.9801 110.083 20.2277 110.083 21.5835V21.9424C110.083 23.2868 109.889 24.5343 109.501 25.6851C109.114 26.8244 108.544 27.8213 107.792 28.6758C107.052 29.5189 106.14 30.174 105.058 30.6411C103.976 31.1082 102.734 31.3418 101.333 31.3418C99.9312 31.3418 98.6836 31.1082 97.5898 30.6411C96.5075 30.174 95.5903 29.5189 94.8384 28.6758C94.0978 27.8213 93.5339 26.8244 93.1465 25.6851C92.7591 24.5343 92.5654 23.2868 92.5654 21.9424ZM97.4873 21.5835V21.9424C97.4873 22.7171 97.5557 23.4406 97.6924 24.1128C97.8291 24.785 98.0456 25.3774 98.3418 25.8901C98.6494 26.3914 99.0482 26.7845 99.5381 27.0693C100.028 27.3542 100.626 27.4966 101.333 27.4966C102.016 27.4966 102.603 27.3542 103.093 27.0693C103.583 26.7845 103.976 26.3914 104.272 25.8901C104.568 25.3774 104.785 24.785 104.921 24.1128C105.069 23.4406 105.144 22.7171 105.144 21.9424V21.5835C105.144 20.8315 105.069 20.1252 104.921 19.4644C104.785 18.7922 104.562 18.1997 104.255 17.687C103.959 17.1629 103.566 16.7528 103.076 16.4565C102.586 16.1603 101.993 16.0122 101.298 16.0122C100.603 16.0122 100.011 16.1603 99.521 16.4565C99.0425 16.7528 98.6494 17.1629 98.3418 17.687C98.0456 18.1997 97.8291 18.7922 97.6924 19.4644C97.5557 20.1252 97.4873 20.8315 97.4873 21.5835ZM123.088 26.8301V18.5928C123.088 18.0003 122.991 17.4933 122.797 17.0718C122.604 16.6388 122.302 16.3027 121.892 16.0635C121.493 15.8242 120.974 15.7046 120.336 15.7046C119.79 15.7046 119.317 15.8014 118.918 15.9951C118.519 16.1774 118.212 16.4451 117.995 16.7983C117.779 17.1401 117.67 17.5446 117.67 18.0117H112.749C112.749 17.2256 112.931 16.4793 113.295 15.7729C113.66 15.0666 114.19 14.4456 114.885 13.9102C115.58 13.3633 116.406 12.936 117.363 12.6284C118.331 12.3208 119.414 12.167 120.61 12.167C122.045 12.167 123.321 12.4062 124.438 12.8848C125.555 13.3633 126.432 14.0811 127.07 15.0381C127.719 15.9951 128.044 17.1914 128.044 18.627V26.5396C128.044 27.5535 128.107 28.3853 128.232 29.0347C128.357 29.6727 128.54 30.231 128.779 30.7095V31H123.806C123.566 30.4987 123.384 29.8721 123.259 29.1201C123.145 28.3568 123.088 27.5934 123.088 26.8301ZM123.737 19.7378L123.771 22.5234H121.02C120.371 22.5234 119.807 22.5975 119.328 22.7456C118.85 22.8937 118.457 23.1045 118.149 23.3779C117.841 23.64 117.613 23.9476 117.465 24.3008C117.329 24.654 117.26 25.0413 117.26 25.4629C117.26 25.8844 117.357 26.2661 117.551 26.6079C117.744 26.9383 118.024 27.2004 118.388 27.394C118.753 27.5763 119.18 27.6675 119.67 27.6675C120.41 27.6675 121.054 27.5194 121.601 27.2231C122.148 26.9269 122.569 26.5623 122.866 26.1294C123.173 25.6965 123.333 25.2863 123.344 24.8989L124.643 26.9839C124.461 27.451 124.21 27.9352 123.891 28.4365C123.583 28.9378 123.19 29.4106 122.712 29.855C122.233 30.2879 121.658 30.6468 120.986 30.9316C120.314 31.2051 119.516 31.3418 118.593 31.3418C117.42 31.3418 116.354 31.1082 115.397 30.6411C114.452 30.1626 113.7 29.5075 113.142 28.6758C112.595 27.8327 112.321 26.8757 112.321 25.8047C112.321 24.8363 112.504 23.9761 112.868 23.2241C113.233 22.4722 113.768 21.8398 114.475 21.3271C115.192 20.8031 116.087 20.41 117.158 20.1479C118.229 19.8745 119.471 19.7378 120.883 19.7378H123.737ZM136.76 16.542V31H131.838V12.5088H136.469L136.76 16.542ZM142.331 12.3892L142.246 16.9521C142.006 16.918 141.716 16.8895 141.374 16.8667C141.044 16.8325 140.742 16.8154 140.468 16.8154C139.773 16.8154 139.169 16.9066 138.657 17.0889C138.155 17.2598 137.734 17.5161 137.392 17.8579C137.062 18.1997 136.811 18.6156 136.64 19.1055C136.481 19.5954 136.389 20.1536 136.367 20.7803L135.375 20.4727C135.375 19.2764 135.495 18.1769 135.734 17.1743C135.974 16.1603 136.321 15.2773 136.777 14.5254C137.244 13.7734 137.814 13.1924 138.486 12.7822C139.158 12.3721 139.927 12.167 140.793 12.167C141.066 12.167 141.346 12.1898 141.63 12.2354C141.915 12.2695 142.149 12.3208 142.331 12.3892ZM155.234 26.9668V4.75H160.19V31H155.729L155.234 26.9668ZM143.544 21.9766V21.6177C143.544 20.2049 143.704 18.9232 144.023 17.7725C144.342 16.6104 144.809 15.6134 145.424 14.7817C146.04 13.95 146.797 13.3063 147.697 12.8506C148.597 12.3949 149.623 12.167 150.773 12.167C151.856 12.167 152.801 12.3949 153.61 12.8506C154.431 13.3063 155.126 13.9557 155.695 14.7988C156.276 15.6305 156.743 16.616 157.097 17.7554C157.45 18.8833 157.706 20.1195 157.866 21.4639V22.25C157.706 23.5374 157.45 24.7337 157.097 25.8389C156.743 26.944 156.276 27.9124 155.695 28.7441C155.126 29.5645 154.431 30.2025 153.61 30.6582C152.79 31.1139 151.833 31.3418 150.739 31.3418C149.589 31.3418 148.563 31.1082 147.663 30.6411C146.774 30.174 146.022 29.5189 145.407 28.6758C144.803 27.8327 144.342 26.8415 144.023 25.7021C143.704 24.5628 143.544 23.321 143.544 21.9766ZM148.466 21.6177V21.9766C148.466 22.7399 148.523 23.452 148.637 24.1128C148.763 24.7736 148.962 25.3604 149.235 25.873C149.52 26.3743 149.885 26.7674 150.329 27.0522C150.785 27.3257 151.337 27.4624 151.987 27.4624C152.83 27.4624 153.525 27.2744 154.072 26.8984C154.619 26.5111 155.035 25.9813 155.319 25.3091C155.616 24.6369 155.786 23.8621 155.832 22.9849V20.7461C155.798 20.0283 155.695 19.3846 155.524 18.8149C155.365 18.2339 155.126 17.7383 154.807 17.3281C154.499 16.918 154.112 16.599 153.645 16.3711C153.189 16.1432 152.648 16.0293 152.021 16.0293C151.383 16.0293 150.836 16.1774 150.38 16.4736C149.925 16.7585 149.554 17.1515 149.27 17.6528C148.996 18.1541 148.791 18.7466 148.654 19.4302C148.529 20.1024 148.466 20.8315 148.466 21.6177ZM169.23 12.5088V31H164.292V12.5088H169.23ZM163.984 7.68945C163.984 6.97168 164.235 6.37923 164.736 5.91211C165.237 5.44499 165.909 5.21143 166.752 5.21143C167.584 5.21143 168.251 5.44499 168.752 5.91211C169.265 6.37923 169.521 6.97168 169.521 7.68945C169.521 8.40723 169.265 8.99967 168.752 9.4668C168.251 9.93392 167.584 10.1675 166.752 10.1675C165.909 10.1675 165.237 9.93392 164.736 9.4668C164.235 8.99967 163.984 8.40723 163.984 7.68945ZM178.117 16.4565V31H173.195V12.5088H177.81L178.117 16.4565ZM177.399 21.105H176.066C176.066 19.7378 176.243 18.5073 176.596 17.4136C176.949 16.3084 177.445 15.3685 178.083 14.5938C178.721 13.8076 179.479 13.2095 180.356 12.7993C181.245 12.3778 182.236 12.167 183.33 12.167C184.195 12.167 184.987 12.2923 185.705 12.543C186.423 12.7936 187.038 13.1924 187.551 13.7393C188.075 14.2861 188.474 15.0096 188.747 15.9097C189.032 16.8097 189.174 17.9092 189.174 19.208V31H184.218V19.1909C184.218 18.3706 184.104 17.7326 183.876 17.2769C183.649 16.8211 183.312 16.5021 182.868 16.3198C182.435 16.1261 181.9 16.0293 181.262 16.0293C180.601 16.0293 180.026 16.1603 179.536 16.4224C179.057 16.6844 178.658 17.049 178.339 17.5161C178.032 17.9718 177.798 18.5073 177.639 19.1226C177.479 19.7378 177.399 20.3986 177.399 21.105ZM204.624 12.5088H209.084V30.3848C209.084 32.071 208.708 33.5008 207.956 34.6743C207.215 35.8592 206.179 36.7536 204.846 37.3574C203.513 37.9727 201.963 38.2803 200.197 38.2803C199.423 38.2803 198.602 38.1777 197.736 37.9727C196.882 37.7676 196.062 37.4486 195.275 37.0156C194.501 36.5827 193.851 36.0358 193.327 35.375L195.498 32.4697C196.067 33.1305 196.728 33.6432 197.48 34.0078C198.232 34.3838 199.064 34.5718 199.975 34.5718C200.864 34.5718 201.616 34.4066 202.231 34.0762C202.846 33.7572 203.319 33.2843 203.649 32.6577C203.98 32.0425 204.145 31.2962 204.145 30.4189V16.7812L204.624 12.5088ZM192.182 21.9766V21.6177C192.182 20.2049 192.353 18.9232 192.695 17.7725C193.048 16.6104 193.544 15.6134 194.182 14.7817C194.831 13.95 195.617 13.3063 196.54 12.8506C197.463 12.3949 198.505 12.167 199.667 12.167C200.898 12.167 201.929 12.3949 202.761 12.8506C203.592 13.3063 204.276 13.9557 204.812 14.7988C205.347 15.6305 205.763 16.616 206.059 17.7554C206.367 18.8833 206.606 20.1195 206.777 21.4639V22.25C206.606 23.5374 206.35 24.7337 206.008 25.8389C205.666 26.944 205.216 27.9124 204.658 28.7441C204.099 29.5645 203.404 30.2025 202.573 30.6582C201.752 31.1139 200.773 31.3418 199.633 31.3418C198.494 31.3418 197.463 31.1082 196.54 30.6411C195.629 30.174 194.848 29.5189 194.199 28.6758C193.549 27.8327 193.048 26.8415 192.695 25.7021C192.353 24.5628 192.182 23.321 192.182 21.9766ZM197.104 21.6177V21.9766C197.104 22.7399 197.178 23.452 197.326 24.1128C197.474 24.7736 197.702 25.3604 198.01 25.873C198.329 26.3743 198.722 26.7674 199.189 27.0522C199.667 27.3257 200.231 27.4624 200.881 27.4624C201.781 27.4624 202.516 27.2744 203.085 26.8984C203.655 26.5111 204.082 25.9813 204.367 25.3091C204.652 24.6369 204.817 23.8621 204.863 22.9849V20.7461C204.84 20.0283 204.743 19.3846 204.572 18.8149C204.401 18.2339 204.162 17.7383 203.854 17.3281C203.547 16.918 203.148 16.599 202.658 16.3711C202.168 16.1432 201.587 16.0293 200.915 16.0293C200.266 16.0293 199.702 16.1774 199.223 16.4736C198.756 16.7585 198.363 17.1515 198.044 17.6528C197.736 18.1541 197.503 18.7466 197.343 19.4302C197.184 20.1024 197.104 20.8315 197.104 21.6177Z" fill="#C1C7CD"/>
</svg>
