<svg width="386" height="452" viewBox="0 0 386 452" fill="none" xmlns="http://www.w3.org/2000/svg">
<mask id="path-1-outside-1_3628_44166" maskUnits="userSpaceOnUse" x="0" y="0" width="386" height="452" fill="black">
<rect fill="white" width="386" height="452"/>
<path fill-rule="evenodd" clip-rule="evenodd" d="M1 21C1 9.9543 9.95431 1 21 1H365C376.046 1 385 9.95431 385 21V192C371.745 192 361 202.745 361 216C361 229.255 371.745 240 385 240V431C385 442.046 376.046 451 365 451H21C9.9543 451 1 442.046 1 431V240C14.2548 240 25 229.255 25 216C25 202.745 14.2548 192 1 192V21Z"/>
</mask>
<path fill-rule="evenodd" clip-rule="evenodd" d="M1 21C1 9.9543 9.95431 1 21 1H365C376.046 1 385 9.95431 385 21V192C371.745 192 361 202.745 361 216C361 229.255 371.745 240 385 240V431C385 442.046 376.046 451 365 451H21C9.9543 451 1 442.046 1 431V240C14.2548 240 25 229.255 25 216C25 202.745 14.2548 192 1 192V21Z" fill="white"/>
<path d="M385 192V192.5H385.5V192H385ZM385 240H385.5V239.5H385V240ZM1 240V239.5H0.5V240H1ZM1 192H0.5V192.5H1V192ZM21 0.5C9.67816 0.5 0.5 9.67816 0.5 21H1.5C1.5 10.2304 10.2304 1.5 21 1.5V0.5ZM365 0.5H21V1.5H365V0.5ZM385.5 21C385.5 9.67816 376.322 0.5 365 0.5V1.5C375.77 1.5 384.5 10.2304 384.5 21H385.5ZM385.5 192V21H384.5V192H385.5ZM361.5 216C361.5 203.021 372.021 192.5 385 192.5V191.5C371.469 191.5 360.5 202.469 360.5 216H361.5ZM385 239.5C372.021 239.5 361.5 228.979 361.5 216H360.5C360.5 229.531 371.469 240.5 385 240.5V239.5ZM385.5 431V240H384.5V431H385.5ZM365 451.5C376.322 451.5 385.5 442.322 385.5 431H384.5C384.5 441.77 375.77 450.5 365 450.5V451.5ZM21 451.5H365V450.5H21V451.5ZM0.5 431C0.5 442.322 9.67816 451.5 21 451.5V450.5C10.2304 450.5 1.5 441.77 1.5 431H0.5ZM0.5 240V431H1.5V240H0.5ZM24.5 216C24.5 228.979 13.9787 239.5 1 239.5V240.5C14.531 240.5 25.5 229.531 25.5 216H24.5ZM1 192.5C13.9787 192.5 24.5 203.021 24.5 216H25.5C25.5 202.469 14.531 191.5 1 191.5V192.5ZM0.5 21V192H1.5V21H0.5Z" fill="#DDE0E4" mask="url(#path-1-outside-1_3628_44166)"/>
<path fill-rule="evenodd" clip-rule="evenodd" d="M385 431C385 442.046 376.046 451 365 451H21C9.95428 451 1 442.046 1 431V240C14.2548 240 25 229.255 25 216H361C361 229.255 371.745 240 385 240V431Z" fill="#5E52FF"/>
</svg>
