<svg width="25" height="26" viewBox="0 0 25 26" fill="none" xmlns="http://www.w3.org/2000/svg">
<g id="invisible 1" clip-path="url(#clip0_920_18590)">
<g id="Group">
<g id="Group_2">
<g id="Group_3">
<path id="Vector" d="M12.6289 9.23639L16.1172 12.7357L16.1338 12.5524C16.1338 10.7139 14.6444 9.21973 12.8116 9.21973L12.6289 9.23639Z" fill="#181818"/>
<path id="Vector_2" d="M12.8162 6.9918C15.8727 6.9918 18.3533 9.48021 18.3533 12.5463C18.3533 13.2628 18.2093 13.946 17.9601 14.5736L21.1993 17.823C22.8714 16.4232 24.1893 14.6125 25.0032 12.5463C23.0819 7.66948 18.3588 4.2146 12.8163 4.2146C11.2659 4.2146 9.78203 4.4923 8.40332 4.9922L10.7953 7.38615C11.4209 7.14177 12.102 6.9918 12.8162 6.9918Z" fill="#181818"/>
<path id="Vector_3" d="M1.74019 3.96838L4.26506 6.50121L4.76895 7.00668C2.94174 8.43972 1.49658 10.3449 0.632812 12.55C2.54863 17.4268 7.27721 20.8816 12.8142 20.8816C14.5307 20.8816 16.1696 20.5484 17.6702 19.9429L18.1408 20.4151L21.3689 23.6588L22.7809 22.248L3.15213 2.552L1.74019 3.96838ZM7.86415 10.1061L9.57508 11.8224C9.52524 12.0612 9.49202 12.3 9.49202 12.55C9.49202 14.3885 10.9815 15.8827 12.8142 15.8827C13.0634 15.8827 13.3015 15.8493 13.534 15.7993L15.245 17.5157C14.5085 17.8822 13.6891 18.1044 12.8142 18.1044C9.7578 18.1044 7.27721 15.616 7.27721 12.55C7.27721 11.6724 7.4987 10.8503 7.86415 10.1061Z" fill="#181818"/>
</g>
</g>
</g>
</g>
<defs>
<clipPath id="clip0_920_18590">
<rect width="24.3683" height="24.4451" fill="white" transform="translate(0.631836 0.88208)"/>
</clipPath>
</defs>
</svg>