<svg width="22" height="22" viewBox="0 0 22 22" fill="none" xmlns="http://www.w3.org/2000/svg">
<path d="M12.8142 3.89965C13.4663 3.1932 13.7923 2.83998 14.1387 2.63394C14.9746 2.13679 16.004 2.12133 16.8539 2.59316C17.206 2.7887 17.542 3.13198 18.2141 3.81854C18.8862 4.5051 19.2223 4.84838 19.4137 5.20819C19.8756 6.07636 19.8604 7.12782 19.3738 7.98174C19.1721 8.33564 18.8263 8.66868 18.1348 9.33475L9.90653 17.2599C8.59603 18.5222 7.94076 19.1533 7.12181 19.4731C6.30286 19.793 5.40256 19.7695 3.60195 19.7224L3.35696 19.716C2.8088 19.7017 2.53472 19.6945 2.3754 19.5136C2.21607 19.3328 2.23782 19.0536 2.28133 18.4953L2.30495 18.1921C2.42739 16.6204 2.48861 15.8347 2.7955 15.1283C3.10239 14.4219 3.63177 13.8484 4.69051 12.7013L12.8142 3.89965Z" stroke="white" stroke-width="2.01509" stroke-linejoin="round"/>
<path d="M11.8748 4.00012L17.9998 10.1251" stroke="white" stroke-width="2.01509" stroke-linejoin="round"/>
<path d="M12.7498 19.7501H19.7498" stroke="white" stroke-width="2.01509" stroke-linecap="round" stroke-linejoin="round"/>
</svg>
